%TF.GenerationSoftware,KiCad,Pcbnew,9.0.5-9.0.5~ubuntu24.04.1*%
%TF.CreationDate,2025-11-23T20:56:38+01:00*%
%TF.ProjectId,DigitalOsciloscope,44696769-7461-46c4-9f73-63696c6f7363,rev?*%
%TF.SameCoordinates,Original*%
%TF.FileFunction,Copper,L2,Inr*%
%TF.FilePolarity,Positive*%
%FSLAX46Y46*%
G04 Gerber Fmt 4.6, Leading zero omitted, Abs format (unit mm)*
G04 Created by KiCad (PCBNEW 9.0.5-9.0.5~ubuntu24.04.1) date 2025-11-23 20:56:38*
%MOMM*%
%LPD*%
G01*
G04 APERTURE LIST*
G04 Aperture macros list*
%AMRoundRect*
0 Rectangle with rounded corners*
0 $1 Rounding radius*
0 $2 $3 $4 $5 $6 $7 $8 $9 X,Y pos of 4 corners*
0 Add a 4 corners polygon primitive as box body*
4,1,4,$2,$3,$4,$5,$6,$7,$8,$9,$2,$3,0*
0 Add four circle primitives for the rounded corners*
1,1,$1+$1,$2,$3*
1,1,$1+$1,$4,$5*
1,1,$1+$1,$6,$7*
1,1,$1+$1,$8,$9*
0 Add four rect primitives between the rounded corners*
20,1,$1+$1,$2,$3,$4,$5,0*
20,1,$1+$1,$4,$5,$6,$7,0*
20,1,$1+$1,$6,$7,$8,$9,0*
20,1,$1+$1,$8,$9,$2,$3,0*%
G04 Aperture macros list end*
%TA.AperFunction,ComponentPad*%
%ADD10C,1.500000*%
%TD*%
%TA.AperFunction,ComponentPad*%
%ADD11C,1.508000*%
%TD*%
%TA.AperFunction,ComponentPad*%
%ADD12R,1.508000X1.508000*%
%TD*%
%TA.AperFunction,ComponentPad*%
%ADD13C,6.350000*%
%TD*%
%TA.AperFunction,ComponentPad*%
%ADD14C,1.590000*%
%TD*%
%TA.AperFunction,ComponentPad*%
%ADD15R,1.590000X1.590000*%
%TD*%
%TA.AperFunction,ComponentPad*%
%ADD16R,1.700000X1.700000*%
%TD*%
%TA.AperFunction,ComponentPad*%
%ADD17C,1.700000*%
%TD*%
%TA.AperFunction,ComponentPad*%
%ADD18C,3.556000*%
%TD*%
%TA.AperFunction,ComponentPad*%
%ADD19C,3.810000*%
%TD*%
%TA.AperFunction,ComponentPad*%
%ADD20RoundRect,0.250001X1.149999X-1.149999X1.149999X1.149999X-1.149999X1.149999X-1.149999X-1.149999X0*%
%TD*%
%TA.AperFunction,ComponentPad*%
%ADD21C,2.800000*%
%TD*%
%TA.AperFunction,ViaPad*%
%ADD22C,0.800000*%
%TD*%
%TA.AperFunction,ViaPad*%
%ADD23C,0.350000*%
%TD*%
%TA.AperFunction,ViaPad*%
%ADD24C,0.600000*%
%TD*%
%TA.AperFunction,Conductor*%
%ADD25C,0.508000*%
%TD*%
G04 APERTURE END LIST*
D10*
%TO.N,CH2_ATTEN*%
%TO.C,K2*%
X151710000Y-90720000D03*
%TO.N,Net-(C1-Pad2)*%
X151710000Y-93260000D03*
%TO.N,Net-(K2-Pad8)*%
X151710000Y-95800000D03*
%TO.N,Net-(C11-Pad1)*%
X151710000Y-98340000D03*
%TO.N,N/C*%
X151710000Y-100880000D03*
X144090000Y-100880000D03*
%TO.N,Net-(C7-Pad1)*%
X144090000Y-98340000D03*
%TO.N,Net-(K2-Pad3)*%
X144090000Y-95800000D03*
%TO.N,Net-(C1-Pad1)*%
X144090000Y-93260000D03*
%TO.N,+5V_EXT*%
X144090000Y-90720000D03*
%TD*%
%TO.N,AC_DC_CH2*%
%TO.C,K3*%
X160390000Y-93530000D03*
%TO.N,unconnected-(K3-Pad9)*%
X160390000Y-90990000D03*
%TO.N,unconnected-(K3-Pad8)*%
X160390000Y-88450000D03*
%TO.N,unconnected-(K3-Pad7)*%
X160390000Y-85910000D03*
%TO.N,N/C*%
X160390000Y-83370000D03*
X168010000Y-83370000D03*
%TO.N,unconnected-(K3-Pad4)*%
X168010000Y-85910000D03*
%TO.N,Net-(C14-Pad1)*%
X168010000Y-88450000D03*
%TO.N,Net-(D1A-K3A4)*%
X168010000Y-90990000D03*
%TO.N,+5V_EXT*%
X168010000Y-93530000D03*
%TD*%
D11*
%TO.N,GND_CN16*%
%TO.C,U11*%
X259800000Y-196600000D03*
D12*
%TO.N,GND_CN16_1*%
X259800000Y-199140000D03*
D11*
%TO.N,GND_CN15_1*%
X259820000Y-135640000D03*
D12*
%TO.N,GND_CN15*%
X259820000Y-138180000D03*
D11*
%TO.N,GPIO_2*%
X239480000Y-143260000D03*
%TO.N,GPIO_PE0*%
X239480000Y-145800000D03*
%TO.N,GPIO_3*%
X236940000Y-143260000D03*
%TO.N,GPIO_1*%
X236940000Y-145800000D03*
%TO.N,GPIO_PE15*%
X234400000Y-143260000D03*
%TO.N,GPIO_4*%
X234400000Y-145800000D03*
%TO.N,unconnected-(U11F-D38{slash}TIMER_A_BKIN2-PadCN10_28)*%
X231860000Y-143260000D03*
%TO.N,GND*%
X231860000Y-145800000D03*
%TO.N,GPIO_PE12*%
X229320000Y-143260000D03*
%TO.N,QSPI_IO2{slash}GPIO_PE2*%
X229320000Y-145800000D03*
%TO.N,GPIO_PE10*%
X226780000Y-143260000D03*
%TO.N,QSPI_IO0{slash}GPIO_PD11*%
X226780000Y-145800000D03*
%TO.N,GND*%
X224240000Y-143260000D03*
%TO.N,QSPI_IO1{slash}GPIO_PD12*%
X224240000Y-145800000D03*
%TO.N,GPIO_PE7*%
X221700000Y-143260000D03*
%TO.N,QSPI_IO3{slash}GPIO_PD13*%
X221700000Y-145800000D03*
%TO.N,GPIO_PE8*%
X219160000Y-143260000D03*
%TO.N,GND*%
X219160000Y-145800000D03*
%TO.N,USART_1_RX*%
X216620000Y-143260000D03*
%TO.N,QSPI_CLK*%
X216620000Y-145800000D03*
%TO.N,USART_1_TX*%
X214080000Y-143260000D03*
%TO.N,QSPI_CS*%
X214080000Y-145800000D03*
%TO.N,unconnected-(U11F-D2{slash}IO-PadCN10_12)*%
X211540000Y-143260000D03*
%TO.N,unconnected-(U11F-A8{slash}ADC_C_IN-PadCN10_11)*%
X211540000Y-145800000D03*
%TO.N,GPIO_PE13*%
X209000000Y-143260000D03*
%TO.N,unconnected-(U11F-A7{slash}ADC_B_IN-PadCN10_9)*%
X209000000Y-145800000D03*
%TO.N,GPIO_0*%
X206460000Y-143260000D03*
%TO.N,unconnected-(U11F-A6{slash}ADC_A_IN-PadCN10_7)*%
X206460000Y-145800000D03*
%TO.N,GPIO_PE11*%
X203920000Y-143260000D03*
%TO.N,GND*%
X203920000Y-145800000D03*
%TO.N,GPIO_PE9*%
X201380000Y-143260000D03*
%TO.N,GND*%
X201380000Y-145800000D03*
%TO.N,unconnected-(U11F-D7{slash}IO-PadCN10_2)*%
X198840000Y-143260000D03*
D12*
%TO.N,unconnected-(U11F-AVDD-PadCN10_1)*%
X198840000Y-145800000D03*
D11*
%TO.N,TRIGG_1_MCU*%
X239480000Y-188980000D03*
%TO.N,TRIGG_2_MCU*%
X239480000Y-191520000D03*
%TO.N,DAC_CLR*%
X236940000Y-188980000D03*
%TO.N,READY*%
X236940000Y-191520000D03*
%TO.N,CH1_ATTEN_MCU*%
X234400000Y-188980000D03*
%TO.N,unconnected-(U11D-D67{slash}CAN_RX-PadCN9_25)*%
X234400000Y-191520000D03*
%TO.N,DAC_RST*%
X231860000Y-188980000D03*
%TO.N,GND*%
X231860000Y-191520000D03*
%TO.N,unconnected-(U11D-D60{slash}SAI_B_SD-PadCN9_22)*%
X229320000Y-188980000D03*
%TO.N,GPIO_PD1*%
X229320000Y-191520000D03*
%TO.N,GPIO_PE6*%
X226780000Y-188980000D03*
%TO.N,GPIO_PD0*%
X226780000Y-191520000D03*
%TO.N,GPIO_PE5*%
X224240000Y-188980000D03*
%TO.N,DAC_ALM*%
X224240000Y-191520000D03*
%TO.N,GPIO_PE4*%
X221700000Y-188980000D03*
%TO.N,unconnected-(U11D-D71{slash}COMP2_INP-PadCN9_15)*%
X221700000Y-191520000D03*
%TO.N,unconnected-(U11D-D56{slash}SAI_A_MCLK-PadCN9_14)*%
X219160000Y-188980000D03*
%TO.N,TRIGGER_AC_DC_MCU*%
X219160000Y-191520000D03*
%TO.N,GND*%
X216620000Y-188980000D03*
%TO.N,unconnected-(U11D-A5{slash}ADC3_INP6{slash}I2C1_SCL-PadCN9_11)*%
X216620000Y-191520000D03*
%TO.N,GPIO_PD3*%
X214080000Y-188980000D03*
%TO.N,unconnected-(U11D-A4{slash}ADC123_INP12{slash}I2C1_SDA-PadCN9_9)*%
X214080000Y-191520000D03*
%TO.N,GPIO_PD4*%
X211540000Y-188980000D03*
%TO.N,unconnected-(U11D-A3{slash}ADC12_INP5-PadCN9_7)*%
X211540000Y-191520000D03*
%TO.N,GPIO_PD5*%
X209000000Y-188980000D03*
%TO.N,unconnected-(U11D-A2{slash}ADC12_INP13-PadCN9_5)*%
X209000000Y-191520000D03*
%TO.N,GPIO_PD6*%
X206460000Y-188980000D03*
%TO.N,unconnected-(U11D-A1{slash}ADC123_INP10-PadCN9_3)*%
X206460000Y-191520000D03*
%TO.N,GPIO_PD7*%
X203920000Y-188980000D03*
D12*
%TO.N,DAC_TEMP*%
X203920000Y-191520000D03*
D11*
%TO.N,unconnected-(U11C-D50{slash}IO-PadCN8_16)*%
X198840000Y-188980000D03*
%TO.N,Net-(U11C-VIN_CN8)*%
X198840000Y-191520000D03*
%TO.N,unconnected-(U11C-D49{slash}IO-PadCN8_14)*%
X196300000Y-188980000D03*
%TO.N,GND*%
X196300000Y-191520000D03*
%TO.N,GPIO_PD2*%
X193760000Y-188980000D03*
%TO.N,GND*%
X193760000Y-191520000D03*
%TO.N,unconnected-(U11C-D47{slash}SDMMC_CK-PadCN8_10)*%
X191220000Y-188980000D03*
%TO.N,Net-(U11C-5V_CN8)*%
X191220000Y-191520000D03*
%TO.N,unconnected-(U11C-D46{slash}SDMMC_D3-PadCN8_8)*%
X188680000Y-188980000D03*
%TO.N,unconnected-(U11C-3V3_CN8-PadCN8_7)*%
X188680000Y-191520000D03*
%TO.N,unconnected-(U11C-D45{slash}SDMMC_D2-PadCN8_6)*%
X186140000Y-188980000D03*
%TO.N,unconnected-(U11C-NRST_CN8-PadCN8_5)*%
X186140000Y-191520000D03*
%TO.N,unconnected-(U11C-D44{slash}SDMMC_D1{slash}I2S_A_CKIN-PadCN8_4)*%
X183600000Y-188980000D03*
%TO.N,unconnected-(U11C-IOREF_CN8-PadCN8_3)*%
X183600000Y-191520000D03*
%TO.N,unconnected-(U11C-D43{slash}SDMMC_D0-PadCN8_2)*%
X181060000Y-188980000D03*
D12*
%TO.N,unconnected-(U11C-NC_CN8-PadCN8_1)*%
X181060000Y-191520000D03*
D11*
%TO.N,unconnected-(U11E-D8{slash}IO-PadCN7_20)*%
X194776000Y-143260000D03*
%TO.N,AC_DC_CH1_MCU*%
X194776000Y-145800000D03*
%TO.N,GPIO_PD15*%
X192236000Y-143260000D03*
%TO.N,unconnected-(U11E-D24{slash}SPI_B_NSS-PadCN7_17)*%
X192236000Y-145800000D03*
%TO.N,SPI_1_CS*%
X189696000Y-143260000D03*
%TO.N,CH2_ATTEN_MCU*%
X189696000Y-145800000D03*
%TO.N,SPI_1_MOSI*%
X187156000Y-143260000D03*
%TO.N,unconnected-(U11E-D22{slash}I2S_B_SD{slash}SPI_B_MOSI-PadCN7_13)*%
X187156000Y-145800000D03*
%TO.N,SPI_1_MISO*%
X184616000Y-143260000D03*
%TO.N,AC_DC_CH2_MCU*%
X184616000Y-145800000D03*
%TO.N,SPI_1_SCK*%
X182076000Y-143260000D03*
%TO.N,unconnected-(U11E-D20{slash}I2S_B_WS-PadCN7_9)*%
X182076000Y-145800000D03*
%TO.N,GND*%
X179536000Y-143260000D03*
%TO.N,unconnected-(U11E-D19{slash}I2S_A_WS-PadCN7_7)*%
X179536000Y-145800000D03*
%TO.N,unconnected-(U11E-VREFP_CN7-PadCN7_6)*%
X176996000Y-143260000D03*
%TO.N,unconnected-(U11E-D18{slash}I2S_A_CK-PadCN7_5)*%
X176996000Y-145800000D03*
%TO.N,unconnected-(U11E-D14{slash}I2C_A_SDA-PadCN7_4)*%
X174456000Y-143260000D03*
%TO.N,unconnected-(U11E-D17{slash}I2S_A_SD-PadCN7_3)*%
X174456000Y-145800000D03*
%TO.N,unconnected-(U11E-D15{slash}I2C_A_SCL-PadCN7_2)*%
X171916000Y-143260000D03*
D12*
%TO.N,unconnected-(U11E-D16{slash}I2S_A_MCK-PadCN7_1)*%
X171916000Y-145800000D03*
D11*
%TO.N,GND_CN4*%
X145500000Y-135640000D03*
D12*
%TO.N,GND_CN4_1*%
X142960000Y-135640000D03*
D11*
%TO.N,GND_CN3*%
X145500000Y-199140000D03*
D12*
%TO.N,GND_CN3_1*%
X142960000Y-199140000D03*
%TD*%
D13*
%TO.N,unconnected-(U10A-SHIELD-PadS1)_3*%
%TO.C,U10*%
X224790000Y-126290000D03*
%TO.N,unconnected-(U10A-SHIELD-PadS1)_1*%
X267210000Y-126290000D03*
%TO.N,unconnected-(U10A-SHIELD-PadS1)*%
X224790000Y-57460000D03*
%TO.N,unconnected-(U10A-SHIELD-PadS1)_2*%
X267210000Y-57460000D03*
D14*
%TO.N,QSPI_IO3{slash}GPIO_PD13*%
X268860000Y-70670000D03*
%TO.N,OE_A*%
X266320000Y-70670000D03*
%TO.N,QSPI_IO1{slash}GPIO_PD12*%
X268860000Y-73210000D03*
%TO.N,OVERFLOW*%
X266320000Y-73210000D03*
%TO.N,GPIO_PE10*%
X268860000Y-75750000D03*
%TO.N,READY*%
X266320000Y-75750000D03*
%TO.N,QSPI_IO0{slash}GPIO_PD11*%
X268860000Y-78290000D03*
%TO.N,ADC_A_13*%
X266320000Y-78290000D03*
%TO.N,GPIO_PE12*%
X268860000Y-80830000D03*
%TO.N,ADC_A_12*%
X266320000Y-80830000D03*
%TO.N,GND*%
X268860000Y-83370000D03*
%TO.N,Net-(U10B-GPIO-1_VCC3P3)*%
X266320000Y-83370000D03*
%TO.N,QSPI_IO2{slash}GPIO_PE2*%
X268860000Y-85910000D03*
%TO.N,ADC_A_11*%
X266320000Y-85910000D03*
%TO.N,GPIO_PE15*%
X268860000Y-88450000D03*
%TO.N,ADC_A_10*%
X266320000Y-88450000D03*
%TO.N,GPIO_PE0*%
X268860000Y-90990000D03*
%TO.N,ADC_A_9*%
X266320000Y-90990000D03*
%TO.N,GPIO_PD7*%
X268860000Y-93530000D03*
%TO.N,ADC_A_8*%
X266320000Y-93530000D03*
%TO.N,GPIO_PD6*%
X268860000Y-96070000D03*
%TO.N,ADC_A_7*%
X266320000Y-96070000D03*
%TO.N,GPIO_PD5*%
X268860000Y-98610000D03*
%TO.N,ADC_A_6*%
X266320000Y-98610000D03*
%TO.N,GPIO_PD4*%
X268860000Y-101150000D03*
%TO.N,ADC_A_5*%
X266320000Y-101150000D03*
%TO.N,GPIO_PD3*%
X268860000Y-103690000D03*
%TO.N,ADC_A_4*%
X266320000Y-103690000D03*
%TO.N,GND*%
X268860000Y-106230000D03*
%TO.N,Net-(U10B-GPIO-1_VCC_SYS)*%
X266320000Y-106230000D03*
%TO.N,GPIO_PE4*%
X268860000Y-108770000D03*
%TO.N,ADC_A_3*%
X266320000Y-108770000D03*
%TO.N,GPIO_PE5*%
X268860000Y-111310000D03*
%TO.N,ADC_A_2*%
X266320000Y-111310000D03*
%TO.N,GPIO_PE6*%
X268860000Y-113850000D03*
%TO.N,ADC_A_1*%
X266320000Y-113850000D03*
%TO.N,GPIO_PD0*%
X268860000Y-116390000D03*
%TO.N,ADC_A_0*%
X266320000Y-116390000D03*
%TO.N,GPIO_PD1*%
X268860000Y-118930000D03*
D15*
%TO.N,CLOCK_80MHz*%
X266320000Y-118930000D03*
D14*
%TO.N,AN_TRIGGER_P*%
X223010000Y-118930000D03*
%TO.N,ADC_B_13*%
X225550000Y-118930000D03*
%TO.N,AN_TRIGGER_N*%
X223010000Y-116390000D03*
%TO.N,ADC_B_12*%
X225550000Y-116390000D03*
%TO.N,USART_1_RX*%
X223010000Y-113850000D03*
%TO.N,ADC_B_11*%
X225550000Y-113850000D03*
%TO.N,USART_1_TX*%
X223010000Y-111310000D03*
%TO.N,Net-(U10A-GPIO_026)*%
X225550000Y-111310000D03*
%TO.N,GPIO_PE7*%
X223010000Y-108770000D03*
%TO.N,ADC_B_10*%
X225550000Y-108770000D03*
%TO.N,GND*%
X223010000Y-106230000D03*
%TO.N,Net-(U10A-GPIO-0_VCC3P3)*%
X225550000Y-106230000D03*
%TO.N,GPIO_PE8*%
X223010000Y-103690000D03*
%TO.N,ADC_B_9*%
X225550000Y-103690000D03*
%TO.N,GPIO_PE13*%
X223010000Y-101150000D03*
%TO.N,ADC_B_8*%
X225550000Y-101150000D03*
%TO.N,GPIO_PE11*%
X223010000Y-98610000D03*
%TO.N,unconnected-(U10A-GPIO_018-PadJP1_23)*%
X225550000Y-98610000D03*
%TO.N,GPIO_PE9*%
X223010000Y-96070000D03*
%TO.N,ADC_B_7*%
X225550000Y-96070000D03*
%TO.N,GPIO_PD15*%
X223010000Y-93530000D03*
%TO.N,ADC_B_6*%
X225550000Y-93530000D03*
%TO.N,OE_B*%
X223010000Y-90990000D03*
%TO.N,ADC_B_5*%
X225550000Y-90990000D03*
%TO.N,GPIO_PD2*%
X223010000Y-88450000D03*
%TO.N,ADC_B_4*%
X225550000Y-88450000D03*
%TO.N,CLIPPING*%
X223010000Y-85910000D03*
%TO.N,ADC_B_3*%
X225550000Y-85910000D03*
%TO.N,GND*%
X223010000Y-83370000D03*
%TO.N,Net-(U10A-GPIO-0_VCC_SYS)*%
X225550000Y-83370000D03*
%TO.N,unconnected-(U10A-GPIO_07-PadJP1_10)*%
X223010000Y-80830000D03*
%TO.N,ADC_B_2*%
X225550000Y-80830000D03*
%TO.N,unconnected-(U10A-GPIO_05-PadJP1_8)*%
X223010000Y-78290000D03*
%TO.N,ADC_B_1*%
X225550000Y-78290000D03*
%TO.N,unconnected-(U10A-GPIO_03-PadJP1_6)*%
X223010000Y-75750000D03*
%TO.N,ADC_B_0*%
X225550000Y-75750000D03*
%TO.N,unconnected-(U10A-GPIO_01-PadJP1_4)*%
X223010000Y-73210000D03*
%TO.N,unconnected-(U10A-GPIO_0_IN1-PadJP1_3)*%
X225550000Y-73210000D03*
%TO.N,unconnected-(U10A-GPIO_00-PadJP1_2)*%
X223010000Y-70670000D03*
D15*
%TO.N,unconnected-(U10A-GPIO_0_IN0-PadJP1_1)*%
X225550000Y-70670000D03*
%TD*%
D10*
%TO.N,+5V_EXT*%
%TO.C,K7*%
X161220000Y-111310000D03*
%TO.N,Net-(C35-Pad2)*%
X163760000Y-111310000D03*
%TO.N,Net-(C35-Pad1)*%
X166300000Y-111310000D03*
%TO.N,unconnected-(K7-Pad4)*%
X168840000Y-111310000D03*
%TO.N,N/C*%
X171380000Y-111310000D03*
X171380000Y-103690000D03*
%TO.N,unconnected-(K7-Pad7)*%
X168840000Y-103690000D03*
%TO.N,unconnected-(K7-Pad8)*%
X166300000Y-103690000D03*
%TO.N,unconnected-(K7-Pad9)*%
X163760000Y-103690000D03*
%TO.N,TRIGGER_AC_DC*%
X161220000Y-103690000D03*
%TD*%
%TO.N,+5V_EXT*%
%TO.C,K6*%
X150290000Y-114620000D03*
%TO.N,Net-(K5-Pad3)*%
X150290000Y-117160000D03*
%TO.N,Net-(C35-Pad1)*%
X150290000Y-119700000D03*
%TO.N,EXT_TRIGGER_LEVEL*%
X150290000Y-122240000D03*
%TO.N,N/C*%
X150290000Y-124780000D03*
X157910000Y-124780000D03*
%TO.N,unconnected-(K6-Pad7)*%
X157910000Y-122240000D03*
%TO.N,unconnected-(K6-Pad8)*%
X157910000Y-119700000D03*
%TO.N,unconnected-(K6-Pad9)*%
X157910000Y-117160000D03*
%TO.N,TRIGG_2*%
X157910000Y-114620000D03*
%TD*%
%TO.N,+5V_EXT*%
%TO.C,K5*%
X146310000Y-124780000D03*
%TO.N,AN_TRIGGER_CH1*%
X146310000Y-122240000D03*
%TO.N,Net-(K5-Pad3)*%
X146310000Y-119700000D03*
%TO.N,AN_TRIGGER_CH2*%
X146310000Y-117160000D03*
%TO.N,N/C*%
X146310000Y-114620000D03*
X138690000Y-114620000D03*
%TO.N,unconnected-(K5-Pad7)*%
X138690000Y-117160000D03*
%TO.N,unconnected-(K5-Pad8)*%
X138690000Y-119700000D03*
%TO.N,unconnected-(K5-Pad9)*%
X138690000Y-122240000D03*
%TO.N,TRIGG_1*%
X138690000Y-124780000D03*
%TD*%
%TO.N,+5V_EXT*%
%TO.C,K1*%
X143990000Y-63220000D03*
%TO.N,Net-(C2-Pad1)*%
X143990000Y-65760000D03*
%TO.N,Net-(K1-Pad3)*%
X143990000Y-68300000D03*
%TO.N,Net-(C9-Pad1)*%
X143990000Y-70840000D03*
%TO.N,N/C*%
X143990000Y-73380000D03*
X151610000Y-73380000D03*
%TO.N,Net-(C10-Pad1)*%
X151610000Y-70840000D03*
%TO.N,Net-(K1-Pad8)*%
X151610000Y-68300000D03*
%TO.N,Net-(C2-Pad2)*%
X151610000Y-65760000D03*
%TO.N,CH1_ATTEN*%
X151610000Y-63220000D03*
%TD*%
D16*
%TO.N,Net-(J10-Pin_1)*%
%TO.C,J10*%
X188700000Y-104260000D03*
D17*
%TO.N,+VDD_FILTERED*%
X188700000Y-106800000D03*
%TD*%
D16*
%TO.N,/analog_inputs/CH2_SYM_OUT_N*%
%TO.C,TP22*%
X218900000Y-96900000D03*
%TD*%
%TO.N,Net-(J10-Pin_1)*%
%TO.C,J8*%
X198769047Y-104260000D03*
D17*
%TO.N,Net-(J8-Pin_2)*%
X198769047Y-106800000D03*
%TD*%
D16*
%TO.N,Net-(C15-Pad2)*%
%TO.C,TP7*%
X179800000Y-74800000D03*
%TD*%
%TO.N,unconnected-(TP24-Pad1)*%
%TO.C,TP24*%
X192500000Y-126600000D03*
%TD*%
%TO.N,Net-(J4-Pin_1)*%
%TO.C,J7*%
X209900000Y-98760000D03*
D17*
%TO.N,Net-(J7-Pin_2)*%
X209900000Y-101300000D03*
%TO.N,+1V5_VOCM_CH1*%
X209900000Y-103840000D03*
%TD*%
D16*
%TO.N,CLK_FPGA_PLL_50MHz*%
%TO.C,J5*%
X209800000Y-118940000D03*
D17*
%TO.N,Net-(J5-Pin_2)*%
X209800000Y-121480000D03*
%TO.N,CLOCK_80MHz*%
X209800000Y-124020000D03*
%TD*%
D16*
%TO.N,/analog_inputs/CH1_SYM_OUT_N*%
%TO.C,TP20*%
X193400000Y-76600000D03*
%TD*%
%TO.N,Net-(C13-Pad1)*%
%TO.C,TP3*%
X171800000Y-55800000D03*
%TD*%
%TO.N,TRIGGER_THRESHOLD*%
%TO.C,TP12*%
X161100000Y-118200000D03*
%TD*%
%TO.N,Net-(J10-Pin_1)*%
%TO.C,J9*%
X193700000Y-104260000D03*
D17*
%TO.N,Net-(J9-Pin_2)*%
X193700000Y-106800000D03*
%TD*%
D18*
%TO.N,Net-(J2-In)*%
%TO.C,J2*%
X130175000Y-88675000D03*
D19*
%TO.N,GND*%
X127000000Y-85500000D03*
X127000000Y-91850000D03*
X133350000Y-85500000D03*
X133350000Y-91850000D03*
%TD*%
D16*
%TO.N,Net-(U5-INPP)*%
%TO.C,TP10*%
X186850000Y-68100000D03*
%TD*%
%TO.N,/analog_inputs/CH1_SYM_OUT_P*%
%TO.C,TP19*%
X189600000Y-76600000D03*
%TD*%
D20*
%TO.N,+8V*%
%TO.C,J12*%
X130467500Y-198250000D03*
D21*
%TO.N,GND*%
X130467500Y-193250000D03*
%TO.N,-8V*%
X130467500Y-188250000D03*
%TD*%
D16*
%TO.N,Net-(J4-Pin_1)*%
%TO.C,J4*%
X209900000Y-108860000D03*
D17*
%TO.N,Net-(J4-Pin_2)*%
X209900000Y-111400000D03*
%TO.N,+1V5_VOCM_CH2*%
X209900000Y-113940000D03*
%TD*%
D16*
%TO.N,Net-(U6-GAIN)*%
%TO.C,TP16*%
X204900000Y-91100000D03*
%TD*%
%TO.N,AN_TRIGGER_P*%
%TO.C,TP14*%
X173000000Y-129100000D03*
%TD*%
%TO.N,AN_TRIGGER_N*%
%TO.C,TP13*%
X169300000Y-129100000D03*
%TD*%
%TO.N,Net-(U5-GAIN)*%
%TO.C,TP15*%
X204750000Y-63650000D03*
%TD*%
%TO.N,unconnected-(TP23-Pad1)*%
%TO.C,TP23*%
X192500000Y-122900000D03*
%TD*%
D18*
%TO.N,Net-(J3-In)*%
%TO.C,J3*%
X130175000Y-116175000D03*
D19*
%TO.N,GND*%
X127000000Y-119350000D03*
X133350000Y-119350000D03*
X127000000Y-113000000D03*
X133350000Y-113000000D03*
%TD*%
D16*
%TO.N,Net-(U6-INPP)*%
%TO.C,TP9*%
X187300000Y-95700000D03*
%TD*%
%TO.N,Net-(D2A-K3A4)*%
%TO.C,TP6*%
X169200000Y-70600000D03*
%TD*%
%TO.N,Net-(C14-Pad1)*%
%TO.C,TP4*%
X171800000Y-83000000D03*
%TD*%
D20*
%TO.N,+5V_EXT*%
%TO.C,J11*%
X130467500Y-181250000D03*
D21*
%TO.N,GND*%
X130467500Y-176250000D03*
%TD*%
D16*
%TO.N,/analog_inputs/CH2_SYM_OUT_P*%
%TO.C,TP21*%
X214800000Y-96900000D03*
%TD*%
%TO.N,Net-(K1-Pad3)*%
%TO.C,TP1*%
X132575000Y-73200000D03*
%TD*%
%TO.N,unconnected-(TP26-Pad1)*%
%TO.C,TP26*%
X197500000Y-130200000D03*
%TD*%
%TO.N,Net-(J10-Pin_1)*%
%TO.C,J6*%
X203200000Y-104260000D03*
D17*
%TO.N,GND*%
X203200000Y-106800000D03*
%TD*%
D16*
%TO.N,Net-(C35-Pad2)*%
%TO.C,TP11*%
X172300000Y-116100000D03*
%TD*%
%TO.N,Net-(U6-VOUT)*%
%TO.C,TP18*%
X198100000Y-79700000D03*
%TD*%
%TO.N,Net-(D1A-K3A4)*%
%TO.C,TP5*%
X169200000Y-98400000D03*
%TD*%
%TO.N,unconnected-(TP25-Pad1)*%
%TO.C,TP25*%
X192500000Y-130300000D03*
%TD*%
%TO.N,Net-(C16-Pad2)*%
%TO.C,TP8*%
X157400000Y-88500000D03*
%TD*%
%TO.N,Net-(K2-Pad3)*%
%TO.C,TP2*%
X132575000Y-100400000D03*
%TD*%
D18*
%TO.N,Net-(J1-In)*%
%TO.C,J1*%
X130175000Y-61175000D03*
D19*
%TO.N,GND*%
X127000000Y-64350000D03*
X133350000Y-64350000D03*
X127000000Y-58000000D03*
X133350000Y-58000000D03*
%TD*%
D16*
%TO.N,Net-(U5-VOUT)*%
%TO.C,TP17*%
X189800000Y-56000000D03*
%TD*%
D10*
%TO.N,+5V_EXT*%
%TO.C,K4*%
X168210000Y-66280000D03*
%TO.N,Net-(D2A-K3A4)*%
X168210000Y-63740000D03*
%TO.N,Net-(C13-Pad1)*%
X168210000Y-61200000D03*
%TO.N,unconnected-(K4-Pad4)*%
X168210000Y-58660000D03*
%TO.N,N/C*%
X168210000Y-56120000D03*
X160590000Y-56120000D03*
%TO.N,unconnected-(K4-Pad7)*%
X160590000Y-58660000D03*
%TO.N,unconnected-(K4-Pad8)*%
X160590000Y-61200000D03*
%TO.N,unconnected-(K4-Pad9)*%
X160590000Y-63740000D03*
%TO.N,AC_DC_CH1*%
X160590000Y-66280000D03*
%TD*%
D22*
%TO.N,+5V*%
X158100000Y-182650000D03*
X155850000Y-183700000D03*
%TO.N,GND*%
X163550000Y-153350000D03*
X193800000Y-92800000D03*
X193800000Y-89573000D03*
X220050000Y-67396000D03*
%TO.N,+5V_EXT*%
X189850000Y-201250000D03*
%TO.N,-5V*%
X162850000Y-135200000D03*
%TO.N,+1V5_VOCM_CH1*%
X210396130Y-87396130D03*
%TO.N,+1V5_VOCM_CH2*%
X208116500Y-93300000D03*
%TO.N,Net-(J4-Pin_1)*%
X235300000Y-90456852D03*
%TO.N,AC_DC_CH2*%
X155700000Y-94950000D03*
%TO.N,CH1_ATTEN*%
X193650000Y-199542000D03*
%TO.N,AC_DC_CH1*%
X187887000Y-155900000D03*
%TO.N,TRIGGER_AC_DC*%
X213100000Y-194950000D03*
%TO.N,CH2_ATTEN*%
X182192067Y-149292067D03*
%TO.N,TRIGG_2*%
X244950000Y-192850000D03*
%TO.N,TRIGG_1*%
X245500000Y-181700000D03*
D23*
%TO.N,CLIPPING*%
X221550000Y-89700000D03*
X246750000Y-90800000D03*
D22*
%TO.N,USART_1_TX*%
X229000000Y-122104000D03*
%TO.N,USART_1_RX*%
X229360933Y-123860933D03*
%TO.N,Net-(J5-Pin_2)*%
X270646000Y-117500000D03*
%TO.N,+5V_EXT*%
X155500000Y-66250000D03*
%TO.N,+3V3*%
X222000000Y-200396000D03*
D23*
%TO.N,Net-(J4-Pin_1)*%
X245750000Y-79000000D03*
X241250000Y-83556200D03*
%TO.N,OE_B*%
X241250000Y-84378000D03*
%TO.N,OVERFLOW*%
X254500000Y-84750000D03*
%TO.N,OE_A*%
X254750000Y-84000000D03*
%TO.N,Net-(J7-Pin_2)*%
X254250000Y-83000000D03*
%TO.N,+1V5_VOCM_CH1*%
X253750000Y-83500000D03*
%TO.N,Net-(J4-Pin_2)*%
X239750000Y-82551200D03*
D22*
%TO.N,+3V3*%
X178750000Y-148250000D03*
X174250000Y-138000000D03*
X199750000Y-127000000D03*
X218250000Y-107439500D03*
X269250000Y-66750000D03*
X176500000Y-154750000D03*
X176500000Y-154750000D03*
X174750000Y-154750000D03*
X176500000Y-152000000D03*
X174500000Y-152000000D03*
%TO.N,+3V3DRV*%
X198750000Y-137750000D03*
X182217622Y-140146000D03*
X201077763Y-139077763D03*
X252000000Y-100750000D03*
X242000000Y-101000000D03*
%TO.N,+3V3A*%
X197480801Y-139019199D03*
X165250000Y-138750000D03*
X180750000Y-141000000D03*
X159500000Y-146000000D03*
X159500000Y-144250000D03*
X161750000Y-142000000D03*
X159750000Y-142000000D03*
X199102531Y-140050317D03*
%TO.N,+6V5*%
X155500000Y-187000000D03*
X175963937Y-176104000D03*
X218250000Y-90500000D03*
X208250000Y-55354000D03*
%TO.N,-3V5*%
X177500000Y-168843927D03*
X178000000Y-82500000D03*
X196437500Y-73062500D03*
%TO.N,+5V*%
X174250000Y-84750000D03*
%TO.N,-3V5*%
X201500000Y-79500000D03*
%TO.N,Net-(C143-Pad1)*%
X182000000Y-124500000D03*
%TO.N,Net-(C144-Pad1)*%
X180803870Y-123696130D03*
%TO.N,-5V*%
X162250000Y-163000000D03*
X160750000Y-163500000D03*
X159500000Y-163000000D03*
X179500000Y-113500000D03*
X170179000Y-88000000D03*
X174076132Y-86604000D03*
X173500000Y-60750000D03*
%TO.N,+5V*%
X175250000Y-175250000D03*
X173973000Y-122750000D03*
X178375000Y-112875000D03*
X179500000Y-83500000D03*
X204500000Y-84250000D03*
X174750000Y-57500000D03*
%TO.N,+5V_EXT*%
X264750000Y-102500000D03*
X162000000Y-65000000D03*
X163000000Y-65000000D03*
X227750000Y-67250000D03*
X148000000Y-67500000D03*
X148000000Y-66000000D03*
X148000000Y-92500000D03*
X146500000Y-92500000D03*
X142000000Y-170250000D03*
X140500000Y-170250000D03*
X142000000Y-167000000D03*
X140500000Y-167000000D03*
X142000000Y-164500000D03*
X140500000Y-164500000D03*
%TO.N,+3V3DRV*%
X153100000Y-144600000D03*
X151700000Y-144600000D03*
X153100000Y-141300000D03*
X151800000Y-141300000D03*
X153000000Y-138500000D03*
X151800000Y-138500000D03*
D24*
%TO.N,GND*%
X216400000Y-103700000D03*
%TO.N,Net-(U6-VOUT)*%
X196200000Y-87300000D03*
X185600000Y-103800000D03*
%TO.N,Net-(U5-VOUT)*%
X185500000Y-75600000D03*
%TO.N,/analog_inputs/CH1_SYM_OUT_P*%
X195700000Y-54400000D03*
%TO.N,+1V5_VOCM_CH1*%
X261200000Y-82500000D03*
%TO.N,GND*%
X233300000Y-78000000D03*
X261100000Y-78200000D03*
%TO.N,+1V5_VOCM_CH2*%
X233400000Y-68700000D03*
X216100000Y-76800000D03*
%TO.N,GND*%
X233400000Y-64500000D03*
X230000000Y-64500000D03*
%TO.N,+1V5_VOCM_CH1*%
X216600000Y-59700000D03*
X230000000Y-68600000D03*
D22*
%TO.N,AN_TRIGGER_P*%
X173000000Y-135000000D03*
%TO.N,AN_TRIGGER_N*%
X169300000Y-135000000D03*
%TO.N,+3V3*%
X130200000Y-150900000D03*
X176900000Y-160100000D03*
%TO.N,GND*%
X169800000Y-174800000D03*
X181100000Y-151000000D03*
X200100000Y-125400000D03*
X151000000Y-86200000D03*
X147000000Y-168500000D03*
X207700000Y-71100000D03*
X202000000Y-97100000D03*
X176800000Y-130900000D03*
X186200000Y-157600000D03*
X207500000Y-63200000D03*
X216654000Y-83800000D03*
X186500000Y-126700000D03*
X144800000Y-81000000D03*
X155200000Y-178050000D03*
X224700000Y-196900000D03*
X190300000Y-97787500D03*
X157200000Y-160100000D03*
X217700000Y-192700000D03*
X138500000Y-168500000D03*
X185200000Y-129600000D03*
X154100000Y-131300000D03*
X148800000Y-161400000D03*
X171700000Y-92900000D03*
X244100000Y-83700000D03*
X251549293Y-80550707D03*
X188700000Y-89500000D03*
X245600000Y-83700000D03*
X243300000Y-71600000D03*
X148400000Y-190600000D03*
X243100000Y-74200000D03*
X177200000Y-98000000D03*
X172750000Y-67050000D03*
X198550000Y-58050000D03*
X193100000Y-62700000D03*
X197600000Y-85100000D03*
X165200000Y-144700000D03*
X219100000Y-53700000D03*
X179800000Y-98000000D03*
X136400000Y-173200000D03*
X185150063Y-128204400D03*
X138612500Y-143900000D03*
X168300000Y-177300000D03*
X149400000Y-148300000D03*
X185200000Y-126700000D03*
X250800000Y-60750000D03*
X244300000Y-60800000D03*
X257700000Y-60750000D03*
X235400000Y-78000000D03*
X216654000Y-80100000D03*
X244600000Y-185900000D03*
X244100000Y-82300000D03*
X130300000Y-164800000D03*
X177000000Y-70500000D03*
X248400000Y-83700000D03*
X245400000Y-195800000D03*
X145300000Y-153400000D03*
X249900000Y-86600000D03*
X163500000Y-178000000D03*
X174800000Y-161100000D03*
X186100000Y-118900000D03*
X162500000Y-159400000D03*
X130300000Y-147600000D03*
X183700000Y-128200000D03*
X247000000Y-88000000D03*
X183700000Y-129600000D03*
X206600000Y-79100000D03*
X173100000Y-165900000D03*
X237500000Y-60700000D03*
X197750000Y-69450000D03*
X150950000Y-56800000D03*
X170900000Y-161100000D03*
X258800000Y-78200000D03*
X188300000Y-82100000D03*
X141800000Y-187000000D03*
X247100000Y-75200000D03*
X210700000Y-196700000D03*
X188800000Y-85300000D03*
X173000000Y-75500000D03*
X151000000Y-83800000D03*
X196000000Y-97000000D03*
X147200000Y-108000000D03*
X230600000Y-193500000D03*
X186600000Y-128200000D03*
X250900000Y-71600000D03*
X159950000Y-75850000D03*
X150950000Y-59200000D03*
X190000000Y-70250000D03*
X145600000Y-138500000D03*
X179600000Y-123700000D03*
X195700000Y-112300000D03*
X238900000Y-93600000D03*
X179350000Y-120500000D03*
X169524861Y-170164615D03*
X239000000Y-95600000D03*
X179700000Y-137400000D03*
X172800000Y-70650000D03*
X149400000Y-174200000D03*
X133000000Y-78800000D03*
X142400000Y-179600000D03*
X249900000Y-83700000D03*
X185000000Y-53600000D03*
X242500000Y-80700000D03*
X163900000Y-131600000D03*
X179500000Y-70500000D03*
X153100000Y-178100000D03*
X138800000Y-157900000D03*
X244100000Y-85100000D03*
X185400000Y-133000000D03*
X190700000Y-90500000D03*
X175200000Y-165800000D03*
X248400000Y-86600000D03*
X249800000Y-85100000D03*
X206600000Y-74800000D03*
X251100000Y-74100000D03*
X141800000Y-184600000D03*
X186600000Y-129600000D03*
X166200000Y-118400000D03*
X247000000Y-82300000D03*
X138512500Y-140550000D03*
X181700000Y-137400000D03*
X207700000Y-66400000D03*
X160300000Y-168600000D03*
X247000000Y-86600000D03*
X237500000Y-78000000D03*
X219100000Y-59300000D03*
X245600000Y-82300000D03*
X249800000Y-88000000D03*
X206600000Y-76900000D03*
X192300000Y-162000000D03*
X167200000Y-159000000D03*
X144200000Y-147600000D03*
X255100000Y-91300000D03*
X151400000Y-164900000D03*
X151400000Y-199100000D03*
X248300000Y-85100000D03*
X165100000Y-159100000D03*
X199800000Y-97100000D03*
X147400000Y-81000000D03*
X245600000Y-86600000D03*
X157200000Y-155600000D03*
X155250000Y-75850000D03*
X230900000Y-53600000D03*
X255100000Y-93400000D03*
X161300000Y-191600000D03*
X168300000Y-118400000D03*
X248400000Y-88000000D03*
X188700000Y-87400000D03*
X196300000Y-58000000D03*
X245600000Y-88000000D03*
X150300000Y-159400000D03*
X193100000Y-65300000D03*
X182172494Y-131100000D03*
X165900000Y-77100000D03*
X239400000Y-179400000D03*
X180600000Y-58100000D03*
X144400000Y-108000000D03*
X239600000Y-78000000D03*
X192300000Y-153600000D03*
X192000000Y-112200000D03*
X239000000Y-91400000D03*
X142300000Y-181700000D03*
X162600000Y-131600000D03*
X188100000Y-118900000D03*
X155100000Y-160100000D03*
X188500000Y-58800000D03*
X154100000Y-129100000D03*
X201100000Y-115700000D03*
D23*
X241600000Y-88400000D03*
D22*
X175300000Y-129000000D03*
X201000000Y-58050000D03*
X186200000Y-165800000D03*
X185800000Y-147500000D03*
X255100000Y-95500000D03*
X247000000Y-85100000D03*
X148200000Y-199100000D03*
X132400000Y-105600000D03*
X138800000Y-161300000D03*
X166100000Y-177400000D03*
D23*
X252229000Y-88400000D03*
D22*
X152200000Y-170500000D03*
X190200000Y-63400000D03*
X160400000Y-178000000D03*
X153900000Y-155600000D03*
X138700000Y-150900000D03*
X157600000Y-75850000D03*
X155200000Y-80100000D03*
X244100000Y-86500000D03*
X200000000Y-85100000D03*
X202300000Y-69450000D03*
X153900000Y-196900000D03*
X170400000Y-118400000D03*
X179350000Y-118400000D03*
X170500000Y-75600000D03*
X165300000Y-146800000D03*
X202300000Y-85100000D03*
X248400000Y-82300000D03*
X245500000Y-85100000D03*
X244100000Y-88000000D03*
X159100000Y-191600000D03*
X247000000Y-83700000D03*
X154100000Y-133500000D03*
X197600000Y-97100000D03*
X145600000Y-140600000D03*
X256800000Y-78200000D03*
X200150000Y-69450000D03*
X236500000Y-197400000D03*
X188500000Y-61400000D03*
X254800000Y-78200000D03*
X183700000Y-126700000D03*
X155100000Y-142100000D03*
X195600000Y-69500000D03*
X249900000Y-82300000D03*
X130300000Y-154400000D03*
X152300000Y-172600000D03*
X159500000Y-159400000D03*
X156100000Y-196900000D03*
X145300000Y-166300000D03*
X140700000Y-147700000D03*
%TO.N,-3V5*%
X138800000Y-147500000D03*
X177500000Y-171000000D03*
%TO.N,+6V5*%
X130300000Y-161400000D03*
X161500000Y-186500000D03*
%TO.N,Net-(U7-+IN)*%
X205600000Y-53550000D03*
X212100000Y-62200000D03*
%TO.N,Net-(U7--IN)*%
X219000000Y-64600000D03*
X217100000Y-62100000D03*
%TO.N,+5V_EXT*%
X130400000Y-170500000D03*
X151100000Y-82100000D03*
X153600000Y-54850000D03*
X156050000Y-91700000D03*
%TO.N,+8V*%
X130300000Y-168500000D03*
%TO.N,+VDD_FILTERED*%
X235300000Y-82776200D03*
X256800000Y-73900000D03*
X252900000Y-80400000D03*
X197000000Y-115400000D03*
X241200000Y-79900000D03*
%TO.N,Net-(U20-LDAC)*%
X181200000Y-130181715D03*
X185126874Y-133961979D03*
%TO.N,+3V3A*%
X130212500Y-144000000D03*
X151600000Y-150300000D03*
%TO.N,Net-(C143-Pad1)*%
X188189779Y-124455274D03*
%TO.N,Net-(C144-Pad1)*%
X187789067Y-123539067D03*
%TO.N,CH1_GAIN_DAC*%
X201400000Y-63499000D03*
X178800000Y-127700000D03*
%TO.N,CH2_GAIN_DAC*%
X177895223Y-128173000D03*
X201700000Y-90300000D03*
%TO.N,+3V3DRV*%
X130350000Y-140550000D03*
%TO.N,-5V*%
X207700000Y-68700000D03*
X182000000Y-98000000D03*
X160808446Y-166491554D03*
X181687500Y-70987500D03*
X149600000Y-78500000D03*
X207262500Y-95237500D03*
X138700000Y-154400000D03*
%TO.N,-8V*%
X138800000Y-164800000D03*
%TO.N,+5V*%
X203637500Y-57337500D03*
X153150000Y-183700000D03*
X130300000Y-157900000D03*
X180100000Y-78600000D03*
X185500000Y-83300000D03*
D23*
%TO.N,Net-(J10-Pin_1)*%
X252400000Y-83400000D03*
D22*
%TO.N,Net-(U2-NEG)*%
X156575000Y-85325000D03*
X174100000Y-90216000D03*
%TO.N,Net-(U3-NEG)*%
X176900000Y-72750000D03*
X179250000Y-63600000D03*
%TO.N,DAC_ALM*%
X193235801Y-138164199D03*
%TO.N,DAC_TEMP*%
X192721027Y-136621291D03*
%TO.N,Net-(J5-Pin_2)*%
X247000000Y-79500000D03*
%TO.N,CH1_OFFSET_DAC*%
X163500000Y-75300000D03*
X177168223Y-128901000D03*
%TO.N,CH2_OFFSET_DAC*%
X162200000Y-80600000D03*
X176400000Y-129600000D03*
%TO.N,/analog_inputs/CH2_SYM_OUT_N*%
X210500000Y-88500000D03*
X214900000Y-74400000D03*
%TO.N,+5V_EXT*%
X141500000Y-123500000D03*
X143750000Y-123500000D03*
%TO.N,+5V*%
X174250000Y-84750000D03*
%TO.N,-3V5*%
X197500000Y-76750000D03*
%TO.N,+3V3A*%
X245080388Y-70280388D03*
X260250000Y-72250000D03*
%TO.N,READY*%
X270085852Y-80164178D03*
%TO.N,AC_DC_CH2*%
X165401000Y-141100000D03*
%TD*%
D25*
%TO.N,+5V*%
X129900000Y-165800000D02*
X130000000Y-165700000D01*
X129699133Y-190105000D02*
X127700000Y-188105867D01*
X150705000Y-186145000D02*
X139155000Y-186145000D01*
X129900000Y-165900000D02*
X129900000Y-165800000D01*
X139155000Y-186145000D02*
X135195000Y-190105000D01*
X153150000Y-183700000D02*
X150705000Y-186145000D01*
X127700000Y-168100000D02*
X129900000Y-165900000D01*
X127700000Y-188105867D02*
X127700000Y-168100000D01*
X135195000Y-190105000D02*
X129699133Y-190105000D01*
X130000000Y-165700000D02*
X130609153Y-165700000D01*
X130609153Y-165700000D02*
X131155000Y-165154153D01*
X131155000Y-165154153D02*
X131155000Y-158755000D01*
X131155000Y-158755000D02*
X130300000Y-157900000D01*
%TO.N,+5V_EXT*%
X168250000Y-175750000D02*
X157656475Y-175750000D01*
X175000000Y-200000000D02*
X175000000Y-182500000D01*
X175000000Y-182500000D02*
X168250000Y-175750000D01*
X176250000Y-201250000D02*
X175000000Y-200000000D01*
X264810000Y-102440000D02*
X264750000Y-102500000D01*
X270500000Y-201250000D02*
X271500000Y-200250000D01*
X270440000Y-102440000D02*
X264810000Y-102440000D01*
X271500000Y-200250000D02*
X271500000Y-103500000D01*
X271500000Y-103500000D02*
X270440000Y-102440000D01*
X189850000Y-201250000D02*
X270500000Y-201250000D01*
X152037610Y-171546763D02*
X144990847Y-164500000D01*
X189850000Y-201250000D02*
X176250000Y-201250000D01*
X144990847Y-164500000D02*
X142000000Y-164500000D01*
X153453238Y-171546763D02*
X152037610Y-171546763D01*
X157656475Y-175750000D02*
X153453238Y-171546763D01*
%TO.N,-5V*%
X167055000Y-125195000D02*
X159950000Y-132300000D01*
X162850000Y-135200000D02*
X159950000Y-132300000D01*
%TO.N,+3V3*%
X176398678Y-200396000D02*
X175709000Y-199706322D01*
X222000000Y-200396000D02*
X176398678Y-200396000D01*
X173750000Y-180247322D02*
X173750000Y-173750000D01*
X179247322Y-173750000D02*
X173750000Y-173750000D01*
X175709000Y-199706322D02*
X175709000Y-182206322D01*
X175709000Y-182206322D02*
X173750000Y-180247322D01*
X178327000Y-147827000D02*
X178750000Y-148250000D01*
X178327000Y-141423000D02*
X178327000Y-147827000D01*
X180500000Y-139250000D02*
X178327000Y-141423000D01*
X195038169Y-139250000D02*
X180500000Y-139250000D01*
X174250000Y-138500000D02*
X174250000Y-138000000D01*
X175000000Y-139250000D02*
X174250000Y-138500000D01*
X199750000Y-127000000D02*
X200000000Y-127250000D01*
X200000000Y-127250000D02*
X200000000Y-134288169D01*
X200000000Y-134288169D02*
X195038169Y-139250000D01*
X180500000Y-139250000D02*
X175000000Y-139250000D01*
X218060500Y-107439500D02*
X218250000Y-107439500D01*
X217250000Y-108250000D02*
X218060500Y-107439500D01*
X217250000Y-95940000D02*
X217250000Y-108250000D01*
X219250000Y-93940000D02*
X217250000Y-95940000D01*
X219250000Y-88500000D02*
X219250000Y-93940000D01*
%TO.N,+3V3A*%
X246000000Y-70280388D02*
X228439612Y-70280388D01*
X216959000Y-121988786D02*
X201098893Y-137848893D01*
X228439612Y-70280388D02*
X227409224Y-69250000D01*
X216959000Y-121791000D02*
X216959000Y-121988786D01*
X227409224Y-69250000D02*
X221500000Y-69250000D01*
X221500000Y-69250000D02*
X220500000Y-70250000D01*
X220500000Y-70250000D02*
X220500000Y-106750000D01*
X220500000Y-106750000D02*
X217500000Y-109750000D01*
X217500000Y-109750000D02*
X217500000Y-121250000D01*
X217500000Y-121250000D02*
X216959000Y-121791000D01*
%TO.N,+3V3*%
X218000000Y-68250000D02*
X219250000Y-69500000D01*
X219250000Y-69500000D02*
X219250000Y-88500000D01*
X269250000Y-66750000D02*
X229459153Y-66750000D01*
X229459153Y-66750000D02*
X227959153Y-68250000D01*
X227959153Y-68250000D02*
X218000000Y-68250000D01*
%TO.N,+5V*%
X173973000Y-122750000D02*
X170707000Y-126016000D01*
X170707000Y-126016000D02*
X170707000Y-147009000D01*
X170707000Y-147009000D02*
X171448000Y-147750000D01*
X171448000Y-147750000D02*
X177000000Y-147750000D01*
X177000000Y-147750000D02*
X179250000Y-150000000D01*
X181250000Y-155000000D02*
X181250000Y-172750000D01*
X181250000Y-172750000D02*
X178750000Y-175250000D01*
X179250000Y-150000000D02*
X179250000Y-153000000D01*
X179250000Y-153000000D02*
X181250000Y-155000000D01*
X178750000Y-175250000D02*
X175250000Y-175250000D01*
%TO.N,+3V3DRV*%
X197540847Y-137750000D02*
X198750000Y-137750000D01*
X195144847Y-140146000D02*
X197540847Y-137750000D01*
X182217622Y-140146000D02*
X195144847Y-140146000D01*
%TO.N,+3V3A*%
X180750000Y-141000000D02*
X195500000Y-141000000D01*
X195500000Y-141000000D02*
X197480801Y-139019199D01*
%TO.N,+3V3DRV*%
X242000000Y-101000000D02*
X242000000Y-106000000D01*
X242000000Y-106000000D02*
X240500000Y-107500000D01*
X240500000Y-107500000D02*
X221000000Y-107500000D01*
X221000000Y-107500000D02*
X218250000Y-110250000D01*
X218250000Y-110250000D02*
X218250000Y-121750000D01*
X218250000Y-121750000D02*
X201000000Y-139000000D01*
X201000000Y-139000000D02*
X201077763Y-139077763D01*
%TO.N,+3V3A*%
X199102531Y-140050317D02*
X199102531Y-139845255D01*
X199102531Y-139845255D02*
X201098893Y-137848893D01*
X197500000Y-139000000D02*
X197480801Y-139019199D01*
%TO.N,-5V*%
X170175000Y-110810872D02*
X170175000Y-111809128D01*
X170500000Y-112134128D02*
X170500000Y-113894128D01*
X170500000Y-104514128D02*
X170500000Y-110485872D01*
X170175000Y-103190872D02*
X170175000Y-104189128D01*
X170179000Y-88000000D02*
X170483713Y-88304713D01*
X170175000Y-104189128D02*
X170500000Y-104514128D01*
X170500000Y-110485872D02*
X170175000Y-110810872D01*
X170505000Y-99705000D02*
X170500000Y-99705000D01*
X156845847Y-159245000D02*
X157554153Y-159245000D01*
X170500000Y-99705000D02*
X170500000Y-102865872D01*
X170505000Y-97095000D02*
X170505000Y-99705000D01*
X167055000Y-117339128D02*
X167055000Y-125195000D01*
X170500000Y-97095000D02*
X170505000Y-97095000D01*
X156250000Y-136000000D02*
X156250000Y-159000000D01*
X158055000Y-159745847D02*
X158055000Y-160454153D01*
X157879577Y-160629577D02*
X160750000Y-163500000D01*
X170500000Y-88304713D02*
X170500000Y-97095000D01*
X170500000Y-102865872D02*
X170175000Y-103190872D01*
X158055000Y-160454153D02*
X157879577Y-160629577D01*
X170483713Y-88304713D02*
X170500000Y-88304713D01*
X170175000Y-111809128D02*
X170500000Y-112134128D01*
X170500000Y-113894128D02*
X167055000Y-117339128D01*
X159950000Y-132300000D02*
X156250000Y-136000000D01*
X156250000Y-159000000D02*
X156670424Y-159420424D01*
X156670424Y-159420424D02*
X156845847Y-159245000D01*
X157554153Y-159245000D02*
X158055000Y-159745847D01*
%TO.N,+3V3A*%
X201098893Y-137848893D02*
X201000000Y-137947786D01*
%TO.N,+6V5*%
X186204917Y-176045083D02*
X175963937Y-176045083D01*
X196250000Y-166000000D02*
X186204917Y-176045083D01*
X196250000Y-141695108D02*
X196250000Y-166000000D01*
X216250000Y-102945000D02*
X216087268Y-102945000D01*
X216250000Y-92500000D02*
X216250000Y-102945000D01*
X216087268Y-104455000D02*
X216250000Y-104455000D01*
X216087268Y-102945000D02*
X215645000Y-103387268D01*
X215645000Y-104012732D02*
X216087268Y-104455000D01*
X216250000Y-121695108D02*
X196250000Y-141695108D01*
X175954917Y-176054103D02*
X175954917Y-176094980D01*
X215645000Y-103387268D02*
X215645000Y-104012732D01*
X216250000Y-104455000D02*
X216250000Y-121695108D01*
X175963937Y-176045083D02*
X175954917Y-176054103D01*
X218250000Y-90500000D02*
X216250000Y-92500000D01*
X175954917Y-176094980D02*
X175963937Y-176104000D01*
%TO.N,+3V3A*%
X258280388Y-70280388D02*
X246000000Y-70280388D01*
X260250000Y-72250000D02*
X258280388Y-70280388D01*
X246000000Y-70280388D02*
X245080388Y-70280388D01*
%TO.N,+6V5*%
X150200000Y-186900000D02*
X143200000Y-186900000D01*
X153600000Y-190600000D02*
X153600000Y-190300000D01*
X130300000Y-161700000D02*
X130300000Y-161400000D01*
X161100000Y-190600000D02*
X153600000Y-190600000D01*
X161500000Y-186500000D02*
X161500000Y-190200000D01*
X161500000Y-190200000D02*
X161100000Y-190600000D01*
X153600000Y-190300000D02*
X150200000Y-186900000D01*
X142100000Y-188000000D02*
X138900000Y-188000000D01*
X143200000Y-186900000D02*
X142100000Y-188000000D01*
X138900000Y-188000000D02*
X136086000Y-190814000D01*
X136086000Y-190814000D02*
X129214000Y-190814000D01*
X129214000Y-190814000D02*
X126900000Y-188500000D01*
X126900000Y-188500000D02*
X126900000Y-166990847D01*
X126900000Y-166990847D02*
X130090847Y-163800000D01*
X130090847Y-163800000D02*
X130200000Y-163800000D01*
X130200000Y-163800000D02*
X130200000Y-162000000D01*
X130200000Y-162000000D02*
X130400000Y-161800000D01*
X130400000Y-161800000D02*
X130300000Y-161700000D01*
X218250000Y-76995000D02*
X218250000Y-90500000D01*
X208250000Y-55354000D02*
X215755000Y-62859000D01*
X215755000Y-74500000D02*
X218250000Y-76995000D01*
X215755000Y-62859000D02*
X215755000Y-74500000D01*
%TO.N,-3V5*%
X166255000Y-160264153D02*
X166255000Y-129535000D01*
X169500000Y-116290000D02*
X174000000Y-111790000D01*
X172250000Y-89750000D02*
X172250000Y-85540847D01*
X177500000Y-168843927D02*
X174834774Y-168843927D01*
X174834774Y-168843927D02*
X166255000Y-160264153D01*
X174000000Y-111790000D02*
X174000000Y-91500000D01*
X166255000Y-129535000D02*
X169500000Y-126290000D01*
X169500000Y-126290000D02*
X169500000Y-116290000D01*
X174000000Y-91500000D02*
X172250000Y-89750000D01*
X172250000Y-85540847D02*
X175290847Y-82500000D01*
X175290847Y-82500000D02*
X178000000Y-82500000D01*
X177500000Y-171000000D02*
X175700000Y-172800000D01*
X145654153Y-152545000D02*
X143845000Y-152545000D01*
X175700000Y-172800000D02*
X165909153Y-172800000D01*
X165909153Y-172800000D02*
X145654153Y-152545000D01*
X143845000Y-152545000D02*
X138800000Y-147500000D01*
%TO.N,+3V3*%
X176900000Y-160100000D02*
X176900000Y-160200000D01*
X176900000Y-160200000D02*
X180541000Y-163841000D01*
X173750000Y-173750000D02*
X156659153Y-173750000D01*
X133809153Y-150900000D02*
X130200000Y-150900000D01*
X180541000Y-163841000D02*
X180541000Y-172456322D01*
X180541000Y-172456322D02*
X179247322Y-173750000D01*
X156659153Y-173750000D02*
X133809153Y-150900000D01*
%TO.N,+5V*%
X174750000Y-57500000D02*
X172645000Y-59605000D01*
X172645000Y-59605000D02*
X172645000Y-65735847D01*
X172645000Y-65735847D02*
X176045000Y-69135847D01*
X176045000Y-69135847D02*
X176045000Y-74545000D01*
X176045000Y-74545000D02*
X180100000Y-78600000D01*
X177250000Y-85750000D02*
X173750000Y-85750000D01*
%TO.N,-5V*%
X170179000Y-86679000D02*
X169750000Y-86250000D01*
X170179000Y-88000000D02*
X170179000Y-86679000D01*
X169750000Y-86250000D02*
X169750000Y-82000000D01*
X169750000Y-82000000D02*
X167250000Y-82000000D01*
X167250000Y-82000000D02*
X163750000Y-78500000D01*
X163750000Y-78500000D02*
X149600000Y-78500000D01*
X182000000Y-111000000D02*
X179500000Y-113500000D01*
X182000000Y-98500000D02*
X182000000Y-111000000D01*
X182000000Y-98000000D02*
X182000000Y-98500000D01*
X179500000Y-113500000D02*
X179750000Y-113750000D01*
X203000000Y-86500000D02*
X182000000Y-86500000D01*
X182000000Y-98000000D02*
X182000000Y-86500000D01*
%TO.N,+5V*%
X175000000Y-109500000D02*
X175000000Y-88000000D01*
X178375000Y-112875000D02*
X175000000Y-109500000D01*
X175000000Y-88000000D02*
X174262979Y-88000000D01*
X174262979Y-88000000D02*
X173221132Y-86958153D01*
X173221132Y-86958153D02*
X173221132Y-85778868D01*
X173221132Y-85778868D02*
X173250000Y-85750000D01*
%TO.N,-5V*%
X207262500Y-95237500D02*
X207262500Y-90762500D01*
X207262500Y-90762500D02*
X203000000Y-86500000D01*
X204250000Y-85250000D02*
X203000000Y-86500000D01*
X207700000Y-68700000D02*
X205745000Y-70655000D01*
X205745000Y-70655000D02*
X205745000Y-84214153D01*
X205745000Y-84214153D02*
X204709153Y-85250000D01*
X204709153Y-85250000D02*
X204250000Y-85250000D01*
X181687500Y-70987500D02*
X181687500Y-68937500D01*
X181687500Y-68937500D02*
X173500000Y-60750000D01*
X207700000Y-68700000D02*
X205295000Y-71105000D01*
X205295000Y-71105000D02*
X181805000Y-71105000D01*
X181805000Y-71105000D02*
X181687500Y-70987500D01*
%TO.N,+5V*%
X178375000Y-112875000D02*
X174000000Y-117250000D01*
X174000000Y-117250000D02*
X174000000Y-122750000D01*
X174000000Y-122750000D02*
X173973000Y-122750000D01*
X179500000Y-83500000D02*
X177250000Y-85750000D01*
X203637500Y-57337500D02*
X202018409Y-58956591D01*
X202018409Y-58956591D02*
X189865744Y-58956591D01*
X189865744Y-58956591D02*
X188154153Y-57245000D01*
X188154153Y-57245000D02*
X175005000Y-57245000D01*
X175005000Y-57245000D02*
X174750000Y-57500000D01*
X204500000Y-84250000D02*
X203550000Y-83300000D01*
X203550000Y-83300000D02*
X185500000Y-83300000D01*
%TO.N,+5V_EXT*%
X216000000Y-54500000D02*
X216250000Y-54250000D01*
X191750000Y-54500000D02*
X192750000Y-55500000D01*
X200250000Y-54500000D02*
X216000000Y-54500000D01*
X192750000Y-55500000D02*
X199250000Y-55500000D01*
X186000000Y-55500000D02*
X187000000Y-54500000D01*
X216250000Y-54250000D02*
X227750000Y-65750000D01*
X187000000Y-54500000D02*
X191750000Y-54500000D01*
X162750000Y-63750000D02*
X162750000Y-55250000D01*
X177250000Y-55500000D02*
X186000000Y-55500000D01*
X176245000Y-54495000D02*
X177250000Y-55500000D01*
X199250000Y-55500000D02*
X200250000Y-54500000D01*
X163505000Y-54495000D02*
X176245000Y-54495000D01*
X162750000Y-55250000D02*
X163505000Y-54495000D01*
X227750000Y-65750000D02*
X227750000Y-67250000D01*
X163000000Y-64000000D02*
X162750000Y-63750000D01*
X162000000Y-64500000D02*
X162000000Y-65000000D01*
X163000000Y-65000000D02*
X163000000Y-64000000D01*
X162750000Y-63750000D02*
X162000000Y-64500000D01*
X146500000Y-67000000D02*
X147000000Y-67000000D01*
X146500000Y-67000000D02*
X147500000Y-67000000D01*
X147500000Y-67000000D02*
X148000000Y-67500000D01*
X146250000Y-67000000D02*
X146250000Y-65480000D01*
X146250000Y-67000000D02*
X146500000Y-67000000D01*
X147000000Y-67000000D02*
X148000000Y-66000000D01*
X147250000Y-91250000D02*
X146250000Y-90250000D01*
X146250000Y-90250000D02*
X146250000Y-67000000D01*
X146250000Y-65480000D02*
X143990000Y-63220000D01*
X146500000Y-92000000D02*
X147250000Y-91250000D01*
X146500000Y-92500000D02*
X146500000Y-92000000D01*
X147250000Y-91250000D02*
X148000000Y-92000000D01*
X148000000Y-92000000D02*
X148000000Y-92500000D01*
X129345000Y-140155000D02*
X142375000Y-127125000D01*
X142375000Y-127125000D02*
X144125000Y-125375000D01*
%TO.N,Net-(C13-Pad1)*%
X168210000Y-61200000D02*
X168200000Y-61200000D01*
%TO.N,+3V3A*%
X150190847Y-150300000D02*
X151600000Y-150300000D01*
X130212500Y-144000000D02*
X132148500Y-145936000D01*
X132148500Y-145936000D02*
X145826847Y-145936000D01*
X145826847Y-145936000D02*
X150190847Y-150300000D01*
%TO.N,-5V*%
X138445847Y-146645000D02*
X137845000Y-147245847D01*
X156345000Y-160135847D02*
X145055000Y-148845847D01*
X137845000Y-147245847D02*
X137845000Y-153545000D01*
X160808446Y-166491554D02*
X156345000Y-162028108D01*
X156345000Y-162028108D02*
X156345000Y-160135847D01*
X144454153Y-146645000D02*
X138445847Y-146645000D01*
X137845000Y-153545000D02*
X138700000Y-154400000D01*
X145055000Y-148845847D02*
X145055000Y-147245847D01*
X145055000Y-147245847D02*
X144454153Y-146645000D01*
%TO.N,-8V*%
X128500000Y-186282500D02*
X128500000Y-168400000D01*
X130400000Y-166500000D02*
X137100000Y-166500000D01*
X128500000Y-168400000D02*
X130400000Y-166500000D01*
X137100000Y-166500000D02*
X138800000Y-164800000D01*
X130467500Y-188250000D02*
X128500000Y-186282500D01*
%TO.N,+5V_EXT*%
X144720000Y-124780000D02*
X146310000Y-124780000D01*
X129845847Y-151755000D02*
X129345000Y-151254153D01*
X133245000Y-151755000D02*
X129845847Y-151755000D01*
X133250000Y-151750000D02*
X133245000Y-151755000D01*
X137500000Y-156000000D02*
X133250000Y-151750000D01*
X129345000Y-151254153D02*
X129345000Y-140155000D01*
X137500000Y-157809153D02*
X137500000Y-156000000D01*
X140500000Y-160809153D02*
X137500000Y-157809153D01*
X144125000Y-125375000D02*
X144720000Y-124780000D01*
X140500000Y-164500000D02*
X140500000Y-160809153D01*
X143750000Y-125000000D02*
X144125000Y-125375000D01*
X143750000Y-123500000D02*
X143750000Y-125000000D01*
X141500000Y-126250000D02*
X142375000Y-127125000D01*
X141500000Y-123500000D02*
X141500000Y-126250000D01*
%TO.N,-5V*%
X182000000Y-86500000D02*
X174000000Y-86500000D01*
X174000000Y-86527868D02*
X174076132Y-86604000D01*
X174000000Y-86500000D02*
X174000000Y-86527868D01*
%TO.N,+5V*%
X173750000Y-85750000D02*
X173250000Y-85750000D01*
X173250000Y-85750000D02*
X174250000Y-84750000D01*
%TO.N,+3V3A*%
X165000000Y-138750000D02*
X165250000Y-138750000D01*
X161750000Y-142000000D02*
X165000000Y-138750000D01*
X165250000Y-138750000D02*
X165401000Y-138750000D01*
%TD*%
%TA.AperFunction,Conductor*%
%TO.N,+5V*%
G36*
X175948652Y-55269685D02*
G01*
X175969294Y-55286319D01*
X176213681Y-55530706D01*
X176247166Y-55592028D01*
X176250000Y-55618386D01*
X176250000Y-59876000D01*
X176230315Y-59943039D01*
X176177511Y-59988794D01*
X176126000Y-60000000D01*
X174036019Y-60000000D01*
X173968980Y-59980315D01*
X173967128Y-59979102D01*
X173926553Y-59951990D01*
X173926540Y-59951983D01*
X173762667Y-59884106D01*
X173762658Y-59884103D01*
X173588694Y-59849500D01*
X173588691Y-59849500D01*
X173411309Y-59849500D01*
X173411306Y-59849500D01*
X173237341Y-59884103D01*
X173237332Y-59884106D01*
X173073459Y-59951983D01*
X173073446Y-59951990D01*
X173032872Y-59979102D01*
X172966195Y-59999980D01*
X172963981Y-60000000D01*
X171874000Y-60000000D01*
X171806961Y-59980315D01*
X171761206Y-59927511D01*
X171750000Y-59876000D01*
X171750000Y-57274499D01*
X171769685Y-57207460D01*
X171822489Y-57161705D01*
X171873997Y-57150499D01*
X172697872Y-57150499D01*
X172757483Y-57144091D01*
X172892331Y-57093796D01*
X172984586Y-57024733D01*
X173050050Y-57000316D01*
X173058897Y-57000000D01*
X173250000Y-57000000D01*
X173250000Y-55374000D01*
X173269685Y-55306961D01*
X173322489Y-55261206D01*
X173374000Y-55250000D01*
X175881613Y-55250000D01*
X175948652Y-55269685D01*
G37*
%TD.AperFunction*%
%TD*%
%TA.AperFunction,Conductor*%
%TO.N,+5V_EXT*%
G36*
X143107805Y-161269685D02*
G01*
X143128447Y-161286319D01*
X144213681Y-162371553D01*
X144247166Y-162432875D01*
X144250000Y-162459233D01*
X144250000Y-172126000D01*
X144230315Y-172193039D01*
X144177511Y-172238794D01*
X144126000Y-172250000D01*
X139374000Y-172250000D01*
X139306961Y-172230315D01*
X139261206Y-172177511D01*
X139250000Y-172126000D01*
X139250000Y-169036018D01*
X139269685Y-168968979D01*
X139270899Y-168967126D01*
X139298008Y-168926554D01*
X139298013Y-168926547D01*
X139365894Y-168762666D01*
X139400500Y-168588691D01*
X139400500Y-168411309D01*
X139400500Y-168411306D01*
X139400499Y-168411304D01*
X139365896Y-168237341D01*
X139365893Y-168237332D01*
X139298016Y-168073460D01*
X139298015Y-168073459D01*
X139298013Y-168073453D01*
X139270897Y-168032871D01*
X139250020Y-167966194D01*
X139250000Y-167963981D01*
X139250000Y-165648621D01*
X139269685Y-165581582D01*
X139305109Y-165545519D01*
X139374035Y-165499464D01*
X139499461Y-165374038D01*
X139499464Y-165374035D01*
X139598013Y-165226547D01*
X139665894Y-165062666D01*
X139700500Y-164888691D01*
X139700500Y-164711309D01*
X139700500Y-164711306D01*
X139700499Y-164711304D01*
X139665896Y-164537341D01*
X139665893Y-164537332D01*
X139598016Y-164373459D01*
X139598009Y-164373446D01*
X139499464Y-164225965D01*
X139499461Y-164225961D01*
X139374042Y-164100542D01*
X139374038Y-164100539D01*
X139374035Y-164100536D01*
X139348540Y-164083500D01*
X139305108Y-164054479D01*
X139260303Y-164000866D01*
X139250000Y-163951378D01*
X139250000Y-162148621D01*
X139269685Y-162081582D01*
X139305109Y-162045519D01*
X139374035Y-161999464D01*
X139499461Y-161874038D01*
X139499464Y-161874035D01*
X139598013Y-161726547D01*
X139665894Y-161562666D01*
X139700500Y-161388691D01*
X139700500Y-161374000D01*
X139720185Y-161306961D01*
X139772989Y-161261206D01*
X139824500Y-161250000D01*
X143040766Y-161250000D01*
X143107805Y-161269685D01*
G37*
%TD.AperFunction*%
%TD*%
%TA.AperFunction,Conductor*%
%TO.N,+5V_EXT*%
G36*
X154385008Y-80519685D02*
G01*
X154421071Y-80555109D01*
X154500535Y-80674034D01*
X154500538Y-80674038D01*
X154625961Y-80799461D01*
X154625965Y-80799464D01*
X154773446Y-80898009D01*
X154773459Y-80898016D01*
X154896363Y-80948923D01*
X154937334Y-80965894D01*
X154937336Y-80965894D01*
X154937341Y-80965896D01*
X155111304Y-81000499D01*
X155111307Y-81000500D01*
X155111309Y-81000500D01*
X155288693Y-81000500D01*
X155288694Y-81000499D01*
X155346682Y-80988964D01*
X155462658Y-80965896D01*
X155462661Y-80965894D01*
X155462666Y-80965894D01*
X155626547Y-80898013D01*
X155774035Y-80799464D01*
X155899464Y-80674035D01*
X155939811Y-80613651D01*
X155978929Y-80555109D01*
X156032542Y-80510304D01*
X156082031Y-80500000D01*
X161175500Y-80500000D01*
X161242539Y-80519685D01*
X161288294Y-80572489D01*
X161299500Y-80624000D01*
X161299500Y-80688695D01*
X161334103Y-80862658D01*
X161334106Y-80862667D01*
X161401983Y-81026540D01*
X161401990Y-81026553D01*
X161500535Y-81174034D01*
X161500538Y-81174038D01*
X161625961Y-81299461D01*
X161625965Y-81299464D01*
X161773446Y-81398009D01*
X161773459Y-81398016D01*
X161896363Y-81448923D01*
X161937334Y-81465894D01*
X161937336Y-81465894D01*
X161937341Y-81465896D01*
X162111304Y-81500499D01*
X162111307Y-81500500D01*
X162111309Y-81500500D01*
X162288693Y-81500500D01*
X162288694Y-81500499D01*
X162346682Y-81488964D01*
X162462658Y-81465896D01*
X162462661Y-81465894D01*
X162462666Y-81465894D01*
X162626547Y-81398013D01*
X162774035Y-81299464D01*
X162899464Y-81174035D01*
X162998013Y-81026547D01*
X163065894Y-80862666D01*
X163078467Y-80799461D01*
X163100499Y-80688695D01*
X163100500Y-80688693D01*
X163100500Y-80624000D01*
X163120185Y-80556961D01*
X163172989Y-80511206D01*
X163224500Y-80500000D01*
X164376000Y-80500000D01*
X164443039Y-80519685D01*
X164488794Y-80572489D01*
X164500000Y-80624000D01*
X164500000Y-92000000D01*
X167232377Y-92000000D01*
X167299416Y-92019685D01*
X167305263Y-92023682D01*
X167354596Y-92059525D01*
X167531763Y-92149795D01*
X167582560Y-92197769D01*
X167599355Y-92265590D01*
X167576818Y-92331725D01*
X167531764Y-92370765D01*
X167354859Y-92460902D01*
X167319873Y-92486320D01*
X167319872Y-92486320D01*
X167963554Y-93130000D01*
X167957339Y-93130000D01*
X167855606Y-93157259D01*
X167764394Y-93209920D01*
X167689920Y-93284394D01*
X167637259Y-93375606D01*
X167610000Y-93477339D01*
X167610000Y-93483552D01*
X166966320Y-92839872D01*
X166966320Y-92839873D01*
X166940902Y-92874859D01*
X166940899Y-92874863D01*
X166851582Y-93050161D01*
X166790778Y-93237294D01*
X166760000Y-93431617D01*
X166760000Y-93628382D01*
X166790778Y-93822705D01*
X166851581Y-94009835D01*
X166940905Y-94185145D01*
X166966319Y-94220125D01*
X166966320Y-94220125D01*
X167610000Y-93576445D01*
X167610000Y-93582661D01*
X167637259Y-93684394D01*
X167689920Y-93775606D01*
X167764394Y-93850080D01*
X167855606Y-93902741D01*
X167957339Y-93930000D01*
X167963553Y-93930000D01*
X167319873Y-94573677D01*
X167319873Y-94573678D01*
X167354858Y-94599096D01*
X167530164Y-94688418D01*
X167717294Y-94749221D01*
X167911618Y-94780000D01*
X168108382Y-94780000D01*
X168302705Y-94749221D01*
X168489835Y-94688418D01*
X168665143Y-94599095D01*
X168700125Y-94573678D01*
X168700126Y-94573678D01*
X168056448Y-93930000D01*
X168062661Y-93930000D01*
X168164394Y-93902741D01*
X168255606Y-93850080D01*
X168330080Y-93775606D01*
X168382741Y-93684394D01*
X168410000Y-93582661D01*
X168410000Y-93576448D01*
X169053678Y-94220126D01*
X169053678Y-94220125D01*
X169079095Y-94185143D01*
X169168418Y-94009835D01*
X169229221Y-93822705D01*
X169260000Y-93628382D01*
X169260000Y-93431617D01*
X169229221Y-93237294D01*
X169168418Y-93050164D01*
X169079096Y-92874858D01*
X169053678Y-92839873D01*
X169053677Y-92839873D01*
X168410000Y-93483551D01*
X168410000Y-93477339D01*
X168382741Y-93375606D01*
X168330080Y-93284394D01*
X168255606Y-93209920D01*
X168164394Y-93157259D01*
X168062661Y-93130000D01*
X168056447Y-93130000D01*
X168700125Y-92486320D01*
X168700125Y-92486319D01*
X168665145Y-92460905D01*
X168488235Y-92370765D01*
X168437439Y-92322790D01*
X168420644Y-92254969D01*
X168443182Y-92188834D01*
X168488236Y-92149795D01*
X168490022Y-92148884D01*
X168490025Y-92148884D01*
X168665405Y-92059524D01*
X168714737Y-92023681D01*
X168780544Y-92000202D01*
X168787623Y-92000000D01*
X169621500Y-92000000D01*
X169688539Y-92019685D01*
X169734294Y-92072489D01*
X169745500Y-92124000D01*
X169745500Y-96925500D01*
X169725815Y-96992539D01*
X169673011Y-97038294D01*
X169621500Y-97049500D01*
X168302129Y-97049500D01*
X168302123Y-97049501D01*
X168242516Y-97055908D01*
X168107671Y-97106202D01*
X168107664Y-97106206D01*
X167992455Y-97192452D01*
X167992452Y-97192455D01*
X167906206Y-97307664D01*
X167906202Y-97307671D01*
X167855908Y-97442517D01*
X167849501Y-97502116D01*
X167849500Y-97502135D01*
X167849500Y-99297870D01*
X167849501Y-99297876D01*
X167855908Y-99357483D01*
X167906202Y-99492328D01*
X167906206Y-99492335D01*
X167992452Y-99607544D01*
X167992455Y-99607547D01*
X168107664Y-99693793D01*
X168107671Y-99693797D01*
X168242517Y-99744091D01*
X168242516Y-99744091D01*
X168249444Y-99744835D01*
X168302127Y-99750500D01*
X169621500Y-99750499D01*
X169688539Y-99770184D01*
X169734294Y-99822987D01*
X169745500Y-99874499D01*
X169745500Y-102501983D01*
X169736854Y-102531425D01*
X169730331Y-102561412D01*
X169726577Y-102566426D01*
X169725815Y-102569022D01*
X169709180Y-102589666D01*
X169676262Y-102622583D01*
X169614938Y-102656067D01*
X169545247Y-102651081D01*
X169515697Y-102635219D01*
X169495404Y-102620475D01*
X169320029Y-102531117D01*
X169132826Y-102470290D01*
X168938422Y-102439500D01*
X168938417Y-102439500D01*
X168741583Y-102439500D01*
X168741578Y-102439500D01*
X168547173Y-102470290D01*
X168359970Y-102531117D01*
X168184594Y-102620476D01*
X168142471Y-102651081D01*
X168025354Y-102736172D01*
X168025352Y-102736174D01*
X168025351Y-102736174D01*
X167886174Y-102875351D01*
X167886174Y-102875352D01*
X167886172Y-102875354D01*
X167839070Y-102940184D01*
X167770476Y-103034594D01*
X167680485Y-103211213D01*
X167632511Y-103262009D01*
X167564690Y-103278804D01*
X167498555Y-103256267D01*
X167459515Y-103211213D01*
X167432397Y-103157992D01*
X167369524Y-103034595D01*
X167253828Y-102875354D01*
X167114646Y-102736172D01*
X166955405Y-102620476D01*
X166894937Y-102589666D01*
X166780029Y-102531117D01*
X166592826Y-102470290D01*
X166398422Y-102439500D01*
X166398417Y-102439500D01*
X166201583Y-102439500D01*
X166201578Y-102439500D01*
X166007173Y-102470290D01*
X165819970Y-102531117D01*
X165644594Y-102620476D01*
X165602471Y-102651081D01*
X165485354Y-102736172D01*
X165485352Y-102736174D01*
X165485351Y-102736174D01*
X165346174Y-102875351D01*
X165346174Y-102875352D01*
X165346172Y-102875354D01*
X165299070Y-102940184D01*
X165230476Y-103034594D01*
X165140485Y-103211213D01*
X165092511Y-103262009D01*
X165024690Y-103278804D01*
X164958555Y-103256267D01*
X164919515Y-103211213D01*
X164892397Y-103157992D01*
X164829524Y-103034595D01*
X164713828Y-102875354D01*
X164574646Y-102736172D01*
X164415405Y-102620476D01*
X164354937Y-102589666D01*
X164240029Y-102531117D01*
X164052826Y-102470290D01*
X163858422Y-102439500D01*
X163858417Y-102439500D01*
X163661583Y-102439500D01*
X163661578Y-102439500D01*
X163467173Y-102470290D01*
X163279970Y-102531117D01*
X163104594Y-102620476D01*
X163062471Y-102651081D01*
X162945354Y-102736172D01*
X162945352Y-102736174D01*
X162945351Y-102736174D01*
X162806174Y-102875351D01*
X162806174Y-102875352D01*
X162806172Y-102875354D01*
X162759070Y-102940184D01*
X162690476Y-103034594D01*
X162600485Y-103211213D01*
X162552511Y-103262009D01*
X162484690Y-103278804D01*
X162418555Y-103256267D01*
X162379515Y-103211213D01*
X162352397Y-103157992D01*
X162289524Y-103034595D01*
X162173828Y-102875354D01*
X162034646Y-102736172D01*
X161875405Y-102620476D01*
X161814937Y-102589666D01*
X161700029Y-102531117D01*
X161512826Y-102470290D01*
X161318422Y-102439500D01*
X161318417Y-102439500D01*
X161121583Y-102439500D01*
X161121578Y-102439500D01*
X160927173Y-102470290D01*
X160739970Y-102531117D01*
X160564594Y-102620476D01*
X160522471Y-102651081D01*
X160405354Y-102736172D01*
X160405352Y-102736174D01*
X160405351Y-102736174D01*
X160266174Y-102875351D01*
X160266174Y-102875352D01*
X160266172Y-102875354D01*
X160219070Y-102940184D01*
X160150476Y-103034594D01*
X160061117Y-103209970D01*
X160000290Y-103397173D01*
X159969500Y-103591577D01*
X159969500Y-103788422D01*
X160000290Y-103982826D01*
X160061117Y-104170029D01*
X160124308Y-104294048D01*
X160150476Y-104345405D01*
X160266172Y-104504646D01*
X160405354Y-104643828D01*
X160564595Y-104759524D01*
X160647455Y-104801743D01*
X160739970Y-104848882D01*
X160739972Y-104848882D01*
X160739975Y-104848884D01*
X160840317Y-104881487D01*
X160927173Y-104909709D01*
X161121578Y-104940500D01*
X161121583Y-104940500D01*
X161318422Y-104940500D01*
X161512826Y-104909709D01*
X161700025Y-104848884D01*
X161875405Y-104759524D01*
X162034646Y-104643828D01*
X162173828Y-104504646D01*
X162289524Y-104345405D01*
X162378884Y-104170025D01*
X162379515Y-104168787D01*
X162427489Y-104117990D01*
X162495310Y-104101195D01*
X162561445Y-104123732D01*
X162600485Y-104168787D01*
X162690474Y-104345403D01*
X162725234Y-104393246D01*
X162806172Y-104504646D01*
X162945354Y-104643828D01*
X163104595Y-104759524D01*
X163187455Y-104801743D01*
X163279970Y-104848882D01*
X163279972Y-104848882D01*
X163279975Y-104848884D01*
X163380317Y-104881487D01*
X163467173Y-104909709D01*
X163661578Y-104940500D01*
X163661583Y-104940500D01*
X163858422Y-104940500D01*
X164052826Y-104909709D01*
X164240025Y-104848884D01*
X164415405Y-104759524D01*
X164574646Y-104643828D01*
X164713828Y-104504646D01*
X164829524Y-104345405D01*
X164918884Y-104170025D01*
X164919515Y-104168787D01*
X164967489Y-104117990D01*
X165035310Y-104101195D01*
X165101445Y-104123732D01*
X165140485Y-104168787D01*
X165230474Y-104345403D01*
X165265234Y-104393246D01*
X165346172Y-104504646D01*
X165485354Y-104643828D01*
X165644595Y-104759524D01*
X165727455Y-104801743D01*
X165819970Y-104848882D01*
X165819972Y-104848882D01*
X165819975Y-104848884D01*
X165920317Y-104881487D01*
X166007173Y-104909709D01*
X166201578Y-104940500D01*
X166201583Y-104940500D01*
X166398422Y-104940500D01*
X166592826Y-104909709D01*
X166780025Y-104848884D01*
X166955405Y-104759524D01*
X167114646Y-104643828D01*
X167253828Y-104504646D01*
X167369524Y-104345405D01*
X167458884Y-104170025D01*
X167459515Y-104168787D01*
X167507489Y-104117990D01*
X167575310Y-104101195D01*
X167641445Y-104123732D01*
X167680485Y-104168787D01*
X167770474Y-104345403D01*
X167805234Y-104393246D01*
X167886172Y-104504646D01*
X168025354Y-104643828D01*
X168184595Y-104759524D01*
X168267455Y-104801743D01*
X168359970Y-104848882D01*
X168359972Y-104848882D01*
X168359975Y-104848884D01*
X168460317Y-104881487D01*
X168547173Y-104909709D01*
X168741578Y-104940500D01*
X168741583Y-104940500D01*
X168938422Y-104940500D01*
X169132826Y-104909709D01*
X169320025Y-104848884D01*
X169495405Y-104759524D01*
X169515695Y-104744781D01*
X169547813Y-104733320D01*
X169579737Y-104721414D01*
X169580634Y-104721609D01*
X169581501Y-104721300D01*
X169614721Y-104729024D01*
X169648010Y-104736266D01*
X169648976Y-104736989D01*
X169649555Y-104737124D01*
X169676264Y-104757417D01*
X169709181Y-104790334D01*
X169742666Y-104851657D01*
X169745500Y-104878015D01*
X169745500Y-110121983D01*
X169725815Y-110189022D01*
X169709180Y-110209666D01*
X169676262Y-110242583D01*
X169614938Y-110276067D01*
X169545247Y-110271081D01*
X169515697Y-110255219D01*
X169495404Y-110240475D01*
X169320029Y-110151117D01*
X169132826Y-110090290D01*
X168938422Y-110059500D01*
X168938417Y-110059500D01*
X168741583Y-110059500D01*
X168741578Y-110059500D01*
X168547173Y-110090290D01*
X168359970Y-110151117D01*
X168184594Y-110240476D01*
X168142471Y-110271081D01*
X168025354Y-110356172D01*
X168025352Y-110356174D01*
X168025351Y-110356174D01*
X167886174Y-110495351D01*
X167886174Y-110495352D01*
X167886172Y-110495354D01*
X167839070Y-110560184D01*
X167770476Y-110654594D01*
X167680485Y-110831213D01*
X167632511Y-110882009D01*
X167564690Y-110898804D01*
X167498555Y-110876267D01*
X167459515Y-110831213D01*
X167432397Y-110777992D01*
X167369524Y-110654595D01*
X167253828Y-110495354D01*
X167114646Y-110356172D01*
X166955405Y-110240476D01*
X166894937Y-110209666D01*
X166780029Y-110151117D01*
X166592826Y-110090290D01*
X166398422Y-110059500D01*
X166398417Y-110059500D01*
X166201583Y-110059500D01*
X166201578Y-110059500D01*
X166007173Y-110090290D01*
X165819970Y-110151117D01*
X165644594Y-110240476D01*
X165602471Y-110271081D01*
X165485354Y-110356172D01*
X165485352Y-110356174D01*
X165485351Y-110356174D01*
X165346174Y-110495351D01*
X165346174Y-110495352D01*
X165346172Y-110495354D01*
X165299070Y-110560184D01*
X165230476Y-110654594D01*
X165140485Y-110831213D01*
X165092511Y-110882009D01*
X165024690Y-110898804D01*
X164958555Y-110876267D01*
X164919515Y-110831213D01*
X164892397Y-110777992D01*
X164829524Y-110654595D01*
X164713828Y-110495354D01*
X164574646Y-110356172D01*
X164415405Y-110240476D01*
X164354937Y-110209666D01*
X164240029Y-110151117D01*
X164052826Y-110090290D01*
X163858422Y-110059500D01*
X163858417Y-110059500D01*
X163661583Y-110059500D01*
X163661578Y-110059500D01*
X163467173Y-110090290D01*
X163279970Y-110151117D01*
X163104594Y-110240476D01*
X163062471Y-110271081D01*
X162945354Y-110356172D01*
X162945352Y-110356174D01*
X162945351Y-110356174D01*
X162806174Y-110495351D01*
X162806174Y-110495352D01*
X162806172Y-110495354D01*
X162759070Y-110560184D01*
X162690476Y-110654594D01*
X162600204Y-110831764D01*
X162552229Y-110882560D01*
X162484408Y-110899355D01*
X162418274Y-110876818D01*
X162379234Y-110831764D01*
X162289096Y-110654858D01*
X162263678Y-110619873D01*
X162263677Y-110619873D01*
X161620000Y-111263551D01*
X161620000Y-111257339D01*
X161592741Y-111155606D01*
X161540080Y-111064394D01*
X161465606Y-110989920D01*
X161374394Y-110937259D01*
X161272661Y-110910000D01*
X161266447Y-110910000D01*
X161910125Y-110266320D01*
X161910125Y-110266319D01*
X161875145Y-110240905D01*
X161699835Y-110151581D01*
X161512705Y-110090778D01*
X161318382Y-110060000D01*
X161121618Y-110060000D01*
X160927294Y-110090778D01*
X160740161Y-110151582D01*
X160564863Y-110240899D01*
X160564859Y-110240902D01*
X160529873Y-110266320D01*
X160529872Y-110266320D01*
X161173554Y-110910000D01*
X161167339Y-110910000D01*
X161065606Y-110937259D01*
X160974394Y-110989920D01*
X160899920Y-111064394D01*
X160847259Y-111155606D01*
X160820000Y-111257339D01*
X160820000Y-111263552D01*
X160176320Y-110619872D01*
X160176320Y-110619873D01*
X160150902Y-110654859D01*
X160150899Y-110654863D01*
X160061582Y-110830161D01*
X160000778Y-111017294D01*
X159970000Y-111211617D01*
X159970000Y-111408382D01*
X160000778Y-111602705D01*
X160061581Y-111789835D01*
X160150906Y-111965147D01*
X160232302Y-112077177D01*
X160255783Y-112142983D01*
X160239958Y-112211037D01*
X160189853Y-112259732D01*
X160135428Y-112274015D01*
X152000000Y-112499999D01*
X152000000Y-130876000D01*
X151980315Y-130943039D01*
X151927511Y-130988794D01*
X151876000Y-131000000D01*
X136624000Y-131000000D01*
X136556961Y-130980315D01*
X136511206Y-130927511D01*
X136500000Y-130876000D01*
X136500000Y-114521577D01*
X137439500Y-114521577D01*
X137439500Y-114718422D01*
X137470290Y-114912826D01*
X137531117Y-115100029D01*
X137620343Y-115275143D01*
X137620476Y-115275405D01*
X137736172Y-115434646D01*
X137875354Y-115573828D01*
X138034595Y-115689524D01*
X138157992Y-115752397D01*
X138211213Y-115779515D01*
X138262009Y-115827489D01*
X138278804Y-115895310D01*
X138256267Y-115961445D01*
X138211213Y-116000485D01*
X138034594Y-116090476D01*
X137943741Y-116156485D01*
X137875354Y-116206172D01*
X137875352Y-116206174D01*
X137875351Y-116206174D01*
X137736174Y-116345351D01*
X137736174Y-116345352D01*
X137736172Y-116345354D01*
X137686485Y-116413741D01*
X137620476Y-116504594D01*
X137531117Y-116679970D01*
X137470290Y-116867173D01*
X137439500Y-117061577D01*
X137439500Y-117258422D01*
X137470290Y-117452826D01*
X137531117Y-117640029D01*
X137620476Y-117815405D01*
X137736172Y-117974646D01*
X137875354Y-118113828D01*
X138034595Y-118229524D01*
X138157992Y-118292397D01*
X138211213Y-118319515D01*
X138262009Y-118367489D01*
X138278804Y-118435310D01*
X138256267Y-118501445D01*
X138211213Y-118540485D01*
X138034594Y-118630476D01*
X137943741Y-118696485D01*
X137875354Y-118746172D01*
X137875352Y-118746174D01*
X137875351Y-118746174D01*
X137736174Y-118885351D01*
X137736174Y-118885352D01*
X137736172Y-118885354D01*
X137686485Y-118953741D01*
X137620476Y-119044594D01*
X137531117Y-119219970D01*
X137470290Y-119407173D01*
X137439500Y-119601577D01*
X137439500Y-119798422D01*
X137470290Y-119992826D01*
X137531117Y-120180029D01*
X137620476Y-120355405D01*
X137736172Y-120514646D01*
X137875354Y-120653828D01*
X138034595Y-120769524D01*
X138157992Y-120832397D01*
X138211213Y-120859515D01*
X138262009Y-120907489D01*
X138278804Y-120975310D01*
X138256267Y-121041445D01*
X138211213Y-121080485D01*
X138034594Y-121170476D01*
X137943741Y-121236485D01*
X137875354Y-121286172D01*
X137875352Y-121286174D01*
X137875351Y-121286174D01*
X137736174Y-121425351D01*
X137736174Y-121425352D01*
X137736172Y-121425354D01*
X137686485Y-121493741D01*
X137620476Y-121584594D01*
X137531117Y-121759970D01*
X137470290Y-121947173D01*
X137439500Y-122141577D01*
X137439500Y-122338422D01*
X137470290Y-122532826D01*
X137531117Y-122720029D01*
X137620476Y-122895405D01*
X137736172Y-123054646D01*
X137875354Y-123193828D01*
X138034595Y-123309524D01*
X138157992Y-123372397D01*
X138211213Y-123399515D01*
X138262009Y-123447489D01*
X138278804Y-123515310D01*
X138256267Y-123581445D01*
X138211213Y-123620485D01*
X138034594Y-123710476D01*
X137943741Y-123776485D01*
X137875354Y-123826172D01*
X137875352Y-123826174D01*
X137875351Y-123826174D01*
X137736174Y-123965351D01*
X137736174Y-123965352D01*
X137736172Y-123965354D01*
X137686485Y-124033741D01*
X137620476Y-124124594D01*
X137531117Y-124299970D01*
X137470290Y-124487173D01*
X137439500Y-124681577D01*
X137439500Y-124878422D01*
X137470290Y-125072826D01*
X137531117Y-125260029D01*
X137603188Y-125401475D01*
X137620476Y-125435405D01*
X137736172Y-125594646D01*
X137875354Y-125733828D01*
X138034595Y-125849524D01*
X138117455Y-125891743D01*
X138209970Y-125938882D01*
X138209972Y-125938882D01*
X138209975Y-125938884D01*
X138310317Y-125971487D01*
X138397173Y-125999709D01*
X138591578Y-126030500D01*
X138591583Y-126030500D01*
X138788422Y-126030500D01*
X138982826Y-125999709D01*
X138984328Y-125999221D01*
X139170025Y-125938884D01*
X139345405Y-125849524D01*
X139504646Y-125733828D01*
X139643828Y-125594646D01*
X139759524Y-125435405D01*
X139848884Y-125260025D01*
X139909709Y-125072826D01*
X139917188Y-125025606D01*
X139940500Y-124878422D01*
X139940500Y-124681577D01*
X139909709Y-124487173D01*
X139848882Y-124299970D01*
X139801743Y-124207455D01*
X139759524Y-124124595D01*
X139643828Y-123965354D01*
X139504646Y-123826172D01*
X139380975Y-123736319D01*
X139345403Y-123710474D01*
X139168787Y-123620485D01*
X139117990Y-123572511D01*
X139101195Y-123504690D01*
X139123732Y-123438555D01*
X139168787Y-123399515D01*
X139345403Y-123309525D01*
X139345402Y-123309525D01*
X139345405Y-123309524D01*
X139504646Y-123193828D01*
X139643828Y-123054646D01*
X139759524Y-122895405D01*
X139848884Y-122720025D01*
X139909709Y-122532826D01*
X139931917Y-122392611D01*
X139940500Y-122338422D01*
X139940500Y-122141577D01*
X139909709Y-121947173D01*
X139848882Y-121759970D01*
X139759523Y-121584594D01*
X139643828Y-121425354D01*
X139504646Y-121286172D01*
X139425025Y-121228324D01*
X139345403Y-121170474D01*
X139168787Y-121080485D01*
X139117990Y-121032511D01*
X139101195Y-120964690D01*
X139123732Y-120898555D01*
X139168787Y-120859515D01*
X139345403Y-120769525D01*
X139345402Y-120769525D01*
X139345405Y-120769524D01*
X139504646Y-120653828D01*
X139643828Y-120514646D01*
X139759524Y-120355405D01*
X139848884Y-120180025D01*
X139909709Y-119992826D01*
X139940500Y-119798422D01*
X139940500Y-119601577D01*
X139909709Y-119407173D01*
X139848882Y-119219970D01*
X139759523Y-119044594D01*
X139643828Y-118885354D01*
X139504646Y-118746172D01*
X139425025Y-118688324D01*
X139345403Y-118630474D01*
X139168787Y-118540485D01*
X139117990Y-118492511D01*
X139101195Y-118424690D01*
X139123732Y-118358555D01*
X139168787Y-118319515D01*
X139345403Y-118229525D01*
X139345402Y-118229525D01*
X139345405Y-118229524D01*
X139504646Y-118113828D01*
X139643828Y-117974646D01*
X139759524Y-117815405D01*
X139848884Y-117640025D01*
X139909709Y-117452826D01*
X139915947Y-117413440D01*
X139940500Y-117258422D01*
X139940500Y-117061577D01*
X139909709Y-116867173D01*
X139848882Y-116679970D01*
X139759523Y-116504594D01*
X139643828Y-116345354D01*
X139504646Y-116206172D01*
X139425025Y-116148324D01*
X139345403Y-116090474D01*
X139168787Y-116000485D01*
X139117990Y-115952511D01*
X139101195Y-115884690D01*
X139123732Y-115818555D01*
X139168787Y-115779515D01*
X139345403Y-115689525D01*
X139345402Y-115689525D01*
X139345405Y-115689524D01*
X139504646Y-115573828D01*
X139643828Y-115434646D01*
X139759524Y-115275405D01*
X139848884Y-115100025D01*
X139909709Y-114912826D01*
X139917188Y-114865606D01*
X139940500Y-114718422D01*
X139940500Y-114521577D01*
X145059500Y-114521577D01*
X145059500Y-114718422D01*
X145090290Y-114912826D01*
X145151117Y-115100029D01*
X145240343Y-115275143D01*
X145240476Y-115275405D01*
X145356172Y-115434646D01*
X145495354Y-115573828D01*
X145654595Y-115689524D01*
X145777992Y-115752397D01*
X145831213Y-115779515D01*
X145882009Y-115827489D01*
X145898804Y-115895310D01*
X145876267Y-115961445D01*
X145831213Y-116000485D01*
X145654594Y-116090476D01*
X145563741Y-116156485D01*
X145495354Y-116206172D01*
X145495352Y-116206174D01*
X145495351Y-116206174D01*
X145356174Y-116345351D01*
X145356174Y-116345352D01*
X145356172Y-116345354D01*
X145306485Y-116413741D01*
X145240476Y-116504594D01*
X145151117Y-116679970D01*
X145090290Y-116867173D01*
X145059500Y-117061577D01*
X145059500Y-117258422D01*
X145090290Y-117452826D01*
X145151117Y-117640029D01*
X145240476Y-117815405D01*
X145356172Y-117974646D01*
X145495354Y-118113828D01*
X145654595Y-118229524D01*
X145777992Y-118292397D01*
X145831213Y-118319515D01*
X145882009Y-118367489D01*
X145898804Y-118435310D01*
X145876267Y-118501445D01*
X145831213Y-118540485D01*
X145654594Y-118630476D01*
X145563741Y-118696485D01*
X145495354Y-118746172D01*
X145495352Y-118746174D01*
X145495351Y-118746174D01*
X145356174Y-118885351D01*
X145356174Y-118885352D01*
X145356172Y-118885354D01*
X145306485Y-118953741D01*
X145240476Y-119044594D01*
X145151117Y-119219970D01*
X145090290Y-119407173D01*
X145059500Y-119601577D01*
X145059500Y-119798422D01*
X145090290Y-119992826D01*
X145151117Y-120180029D01*
X145240476Y-120355405D01*
X145356172Y-120514646D01*
X145495354Y-120653828D01*
X145654595Y-120769524D01*
X145777992Y-120832397D01*
X145831213Y-120859515D01*
X145882009Y-120907489D01*
X145898804Y-120975310D01*
X145876267Y-121041445D01*
X145831213Y-121080485D01*
X145654594Y-121170476D01*
X145563741Y-121236485D01*
X145495354Y-121286172D01*
X145495352Y-121286174D01*
X145495351Y-121286174D01*
X145356174Y-121425351D01*
X145356174Y-121425352D01*
X145356172Y-121425354D01*
X145306485Y-121493741D01*
X145240476Y-121584594D01*
X145151117Y-121759970D01*
X145090290Y-121947173D01*
X145059500Y-122141577D01*
X145059500Y-122338422D01*
X145090290Y-122532826D01*
X145151117Y-122720029D01*
X145240476Y-122895405D01*
X145356172Y-123054646D01*
X145495354Y-123193828D01*
X145546470Y-123230966D01*
X145654596Y-123309525D01*
X145831763Y-123399795D01*
X145882560Y-123447769D01*
X145899355Y-123515590D01*
X145876818Y-123581725D01*
X145831764Y-123620765D01*
X145654859Y-123710902D01*
X145619873Y-123736320D01*
X145619872Y-123736320D01*
X146263554Y-124380000D01*
X146257339Y-124380000D01*
X146155606Y-124407259D01*
X146064394Y-124459920D01*
X145989920Y-124534394D01*
X145937259Y-124625606D01*
X145910000Y-124727339D01*
X145910000Y-124733552D01*
X145266320Y-124089872D01*
X145266320Y-124089873D01*
X145240902Y-124124859D01*
X145240899Y-124124863D01*
X145151582Y-124300161D01*
X145090778Y-124487294D01*
X145060000Y-124681617D01*
X145060000Y-124878382D01*
X145090778Y-125072705D01*
X145151581Y-125259835D01*
X145240905Y-125435145D01*
X145266319Y-125470125D01*
X145266320Y-125470125D01*
X145910000Y-124826445D01*
X145910000Y-124832661D01*
X145937259Y-124934394D01*
X145989920Y-125025606D01*
X146064394Y-125100080D01*
X146155606Y-125152741D01*
X146257339Y-125180000D01*
X146263553Y-125180000D01*
X145619873Y-125823677D01*
X145619873Y-125823678D01*
X145654858Y-125849096D01*
X145830164Y-125938418D01*
X146017294Y-125999221D01*
X146211618Y-126030000D01*
X146408382Y-126030000D01*
X146602705Y-125999221D01*
X146789835Y-125938418D01*
X146965143Y-125849095D01*
X147000125Y-125823678D01*
X147000126Y-125823678D01*
X146356448Y-125180000D01*
X146362661Y-125180000D01*
X146464394Y-125152741D01*
X146555606Y-125100080D01*
X146630080Y-125025606D01*
X146682741Y-124934394D01*
X146710000Y-124832661D01*
X146710000Y-124826447D01*
X147353678Y-125470126D01*
X147353678Y-125470125D01*
X147379095Y-125435143D01*
X147468418Y-125259835D01*
X147529221Y-125072705D01*
X147560000Y-124878382D01*
X147560000Y-124681617D01*
X147529221Y-124487294D01*
X147468418Y-124300164D01*
X147379096Y-124124858D01*
X147353678Y-124089873D01*
X147353677Y-124089873D01*
X146710000Y-124733551D01*
X146710000Y-124727339D01*
X146682741Y-124625606D01*
X146630080Y-124534394D01*
X146555606Y-124459920D01*
X146464394Y-124407259D01*
X146362661Y-124380000D01*
X146356447Y-124380000D01*
X147000125Y-123736320D01*
X147000125Y-123736319D01*
X146965145Y-123710905D01*
X146788235Y-123620765D01*
X146737439Y-123572790D01*
X146720644Y-123504969D01*
X146743182Y-123438834D01*
X146788236Y-123399795D01*
X146790022Y-123398884D01*
X146790025Y-123398884D01*
X146965405Y-123309524D01*
X147124646Y-123193828D01*
X147263828Y-123054646D01*
X147379524Y-122895405D01*
X147468884Y-122720025D01*
X147529709Y-122532826D01*
X147551917Y-122392611D01*
X147560500Y-122338422D01*
X147560500Y-122141577D01*
X147529709Y-121947173D01*
X147468882Y-121759970D01*
X147379523Y-121584594D01*
X147263828Y-121425354D01*
X147124646Y-121286172D01*
X147045025Y-121228324D01*
X146965403Y-121170474D01*
X146788787Y-121080485D01*
X146737990Y-121032511D01*
X146721195Y-120964690D01*
X146743732Y-120898555D01*
X146788787Y-120859515D01*
X146965403Y-120769525D01*
X146965402Y-120769525D01*
X146965405Y-120769524D01*
X147124646Y-120653828D01*
X147263828Y-120514646D01*
X147379524Y-120355405D01*
X147468884Y-120180025D01*
X147529709Y-119992826D01*
X147560500Y-119798422D01*
X147560500Y-119601577D01*
X147529709Y-119407173D01*
X147468882Y-119219970D01*
X147379523Y-119044594D01*
X147263828Y-118885354D01*
X147124646Y-118746172D01*
X147045025Y-118688324D01*
X146965403Y-118630474D01*
X146788787Y-118540485D01*
X146737990Y-118492511D01*
X146721195Y-118424690D01*
X146743732Y-118358555D01*
X146788787Y-118319515D01*
X146965403Y-118229525D01*
X146965402Y-118229525D01*
X146965405Y-118229524D01*
X147124646Y-118113828D01*
X147263828Y-117974646D01*
X147379524Y-117815405D01*
X147468884Y-117640025D01*
X147529709Y-117452826D01*
X147535947Y-117413440D01*
X147560500Y-117258422D01*
X147560500Y-117061577D01*
X149039500Y-117061577D01*
X149039500Y-117258422D01*
X149070290Y-117452826D01*
X149131117Y-117640029D01*
X149220476Y-117815405D01*
X149336172Y-117974646D01*
X149475354Y-118113828D01*
X149634595Y-118229524D01*
X149757992Y-118292397D01*
X149811213Y-118319515D01*
X149862009Y-118367489D01*
X149878804Y-118435310D01*
X149856267Y-118501445D01*
X149811213Y-118540485D01*
X149634594Y-118630476D01*
X149543741Y-118696485D01*
X149475354Y-118746172D01*
X149475352Y-118746174D01*
X149475351Y-118746174D01*
X149336174Y-118885351D01*
X149336174Y-118885352D01*
X149336172Y-118885354D01*
X149286485Y-118953741D01*
X149220476Y-119044594D01*
X149131117Y-119219970D01*
X149070290Y-119407173D01*
X149039500Y-119601577D01*
X149039500Y-119798422D01*
X149070290Y-119992826D01*
X149131117Y-120180029D01*
X149220476Y-120355405D01*
X149336172Y-120514646D01*
X149475354Y-120653828D01*
X149634595Y-120769524D01*
X149757992Y-120832397D01*
X149811213Y-120859515D01*
X149862009Y-120907489D01*
X149878804Y-120975310D01*
X149856267Y-121041445D01*
X149811213Y-121080485D01*
X149634594Y-121170476D01*
X149543741Y-121236485D01*
X149475354Y-121286172D01*
X149475352Y-121286174D01*
X149475351Y-121286174D01*
X149336174Y-121425351D01*
X149336174Y-121425352D01*
X149336172Y-121425354D01*
X149286485Y-121493741D01*
X149220476Y-121584594D01*
X149131117Y-121759970D01*
X149070290Y-121947173D01*
X149039500Y-122141577D01*
X149039500Y-122338422D01*
X149070290Y-122532826D01*
X149131117Y-122720029D01*
X149220476Y-122895405D01*
X149336172Y-123054646D01*
X149475354Y-123193828D01*
X149634595Y-123309524D01*
X149757992Y-123372397D01*
X149811213Y-123399515D01*
X149862009Y-123447489D01*
X149878804Y-123515310D01*
X149856267Y-123581445D01*
X149811213Y-123620485D01*
X149634594Y-123710476D01*
X149543741Y-123776485D01*
X149475354Y-123826172D01*
X149475352Y-123826174D01*
X149475351Y-123826174D01*
X149336174Y-123965351D01*
X149336174Y-123965352D01*
X149336172Y-123965354D01*
X149286485Y-124033741D01*
X149220476Y-124124594D01*
X149131117Y-124299970D01*
X149070290Y-124487173D01*
X149039500Y-124681577D01*
X149039500Y-124878422D01*
X149070290Y-125072826D01*
X149131117Y-125260029D01*
X149203188Y-125401475D01*
X149220476Y-125435405D01*
X149336172Y-125594646D01*
X149475354Y-125733828D01*
X149634595Y-125849524D01*
X149717455Y-125891743D01*
X149809970Y-125938882D01*
X149809972Y-125938882D01*
X149809975Y-125938884D01*
X149910317Y-125971487D01*
X149997173Y-125999709D01*
X150191578Y-126030500D01*
X150191583Y-126030500D01*
X150388422Y-126030500D01*
X150582826Y-125999709D01*
X150584328Y-125999221D01*
X150770025Y-125938884D01*
X150945405Y-125849524D01*
X151104646Y-125733828D01*
X151243828Y-125594646D01*
X151359524Y-125435405D01*
X151448884Y-125260025D01*
X151509709Y-125072826D01*
X151517188Y-125025606D01*
X151540500Y-124878422D01*
X151540500Y-124681577D01*
X151509709Y-124487173D01*
X151448882Y-124299970D01*
X151401743Y-124207455D01*
X151359524Y-124124595D01*
X151243828Y-123965354D01*
X151104646Y-123826172D01*
X150980975Y-123736319D01*
X150945403Y-123710474D01*
X150768787Y-123620485D01*
X150717990Y-123572511D01*
X150701195Y-123504690D01*
X150723732Y-123438555D01*
X150768787Y-123399515D01*
X150945403Y-123309525D01*
X150945402Y-123309525D01*
X150945405Y-123309524D01*
X151104646Y-123193828D01*
X151243828Y-123054646D01*
X151359524Y-122895405D01*
X151448884Y-122720025D01*
X151509709Y-122532826D01*
X151531917Y-122392611D01*
X151540500Y-122338422D01*
X151540500Y-122141577D01*
X151509709Y-121947173D01*
X151448882Y-121759970D01*
X151359523Y-121584594D01*
X151243828Y-121425354D01*
X151104646Y-121286172D01*
X151025025Y-121228324D01*
X150945403Y-121170474D01*
X150768787Y-121080485D01*
X150717990Y-121032511D01*
X150701195Y-120964690D01*
X150723732Y-120898555D01*
X150768787Y-120859515D01*
X150945403Y-120769525D01*
X150945402Y-120769525D01*
X150945405Y-120769524D01*
X151104646Y-120653828D01*
X151243828Y-120514646D01*
X151359524Y-120355405D01*
X151448884Y-120180025D01*
X151509709Y-119992826D01*
X151540500Y-119798422D01*
X151540500Y-119601577D01*
X151509709Y-119407173D01*
X151448882Y-119219970D01*
X151359523Y-119044594D01*
X151243828Y-118885354D01*
X151104646Y-118746172D01*
X151025025Y-118688324D01*
X150945403Y-118630474D01*
X150768787Y-118540485D01*
X150717990Y-118492511D01*
X150701195Y-118424690D01*
X150723732Y-118358555D01*
X150768787Y-118319515D01*
X150945403Y-118229525D01*
X150945402Y-118229525D01*
X150945405Y-118229524D01*
X151104646Y-118113828D01*
X151243828Y-117974646D01*
X151359524Y-117815405D01*
X151448884Y-117640025D01*
X151509709Y-117452826D01*
X151515947Y-117413440D01*
X151540500Y-117258422D01*
X151540500Y-117061577D01*
X151509709Y-116867173D01*
X151448882Y-116679970D01*
X151359523Y-116504594D01*
X151243828Y-116345354D01*
X151104646Y-116206172D01*
X150945405Y-116090476D01*
X150770025Y-116001116D01*
X150770024Y-116001115D01*
X150768235Y-116000204D01*
X150717439Y-115952230D01*
X150700644Y-115884409D01*
X150723181Y-115818274D01*
X150768236Y-115779234D01*
X150945141Y-115689097D01*
X150980125Y-115663678D01*
X150980126Y-115663678D01*
X150336448Y-115020000D01*
X150342661Y-115020000D01*
X150444394Y-114992741D01*
X150535606Y-114940080D01*
X150610080Y-114865606D01*
X150662741Y-114774394D01*
X150690000Y-114672661D01*
X150690000Y-114666447D01*
X151333678Y-115310126D01*
X151333678Y-115310125D01*
X151359095Y-115275143D01*
X151448418Y-115099835D01*
X151509221Y-114912705D01*
X151540000Y-114718382D01*
X151540000Y-114521617D01*
X151509221Y-114327294D01*
X151448418Y-114140164D01*
X151359096Y-113964858D01*
X151333678Y-113929873D01*
X151333677Y-113929873D01*
X150690000Y-114573551D01*
X150690000Y-114567339D01*
X150662741Y-114465606D01*
X150610080Y-114374394D01*
X150535606Y-114299920D01*
X150444394Y-114247259D01*
X150342661Y-114220000D01*
X150336447Y-114220000D01*
X150980125Y-113576320D01*
X150980125Y-113576319D01*
X150945145Y-113550905D01*
X150769835Y-113461581D01*
X150582705Y-113400778D01*
X150388382Y-113370000D01*
X150191618Y-113370000D01*
X149997294Y-113400778D01*
X149810161Y-113461582D01*
X149634863Y-113550899D01*
X149634859Y-113550902D01*
X149599873Y-113576320D01*
X149599872Y-113576320D01*
X150243554Y-114220000D01*
X150237339Y-114220000D01*
X150135606Y-114247259D01*
X150044394Y-114299920D01*
X149969920Y-114374394D01*
X149917259Y-114465606D01*
X149890000Y-114567339D01*
X149890000Y-114573552D01*
X149246320Y-113929872D01*
X149246320Y-113929873D01*
X149220902Y-113964859D01*
X149220899Y-113964863D01*
X149131582Y-114140161D01*
X149070778Y-114327294D01*
X149040000Y-114521617D01*
X149040000Y-114718382D01*
X149070778Y-114912705D01*
X149131581Y-115099835D01*
X149220905Y-115275145D01*
X149246319Y-115310125D01*
X149246320Y-115310125D01*
X149890000Y-114666445D01*
X149890000Y-114672661D01*
X149917259Y-114774394D01*
X149969920Y-114865606D01*
X150044394Y-114940080D01*
X150135606Y-114992741D01*
X150237339Y-115020000D01*
X150243553Y-115020000D01*
X149599873Y-115663677D01*
X149599873Y-115663678D01*
X149634858Y-115689096D01*
X149811764Y-115779234D01*
X149862560Y-115827209D01*
X149879355Y-115895030D01*
X149856818Y-115961164D01*
X149811764Y-116000204D01*
X149634594Y-116090476D01*
X149543741Y-116156485D01*
X149475354Y-116206172D01*
X149475352Y-116206174D01*
X149475351Y-116206174D01*
X149336174Y-116345351D01*
X149336174Y-116345352D01*
X149336172Y-116345354D01*
X149286485Y-116413741D01*
X149220476Y-116504594D01*
X149131117Y-116679970D01*
X149070290Y-116867173D01*
X149039500Y-117061577D01*
X147560500Y-117061577D01*
X147529709Y-116867173D01*
X147468882Y-116679970D01*
X147379523Y-116504594D01*
X147263828Y-116345354D01*
X147124646Y-116206172D01*
X147045025Y-116148324D01*
X146965403Y-116090474D01*
X146788787Y-116000485D01*
X146737990Y-115952511D01*
X146721195Y-115884690D01*
X146743732Y-115818555D01*
X146788787Y-115779515D01*
X146965403Y-115689525D01*
X146965402Y-115689525D01*
X146965405Y-115689524D01*
X147124646Y-115573828D01*
X147263828Y-115434646D01*
X147379524Y-115275405D01*
X147468884Y-115100025D01*
X147529709Y-114912826D01*
X147537188Y-114865606D01*
X147560500Y-114718422D01*
X147560500Y-114521577D01*
X147529709Y-114327173D01*
X147468882Y-114139970D01*
X147421743Y-114047455D01*
X147379524Y-113964595D01*
X147263828Y-113805354D01*
X147124646Y-113666172D01*
X146965405Y-113550476D01*
X146790029Y-113461117D01*
X146602826Y-113400290D01*
X146408422Y-113369500D01*
X146408417Y-113369500D01*
X146211583Y-113369500D01*
X146211578Y-113369500D01*
X146017173Y-113400290D01*
X145829970Y-113461117D01*
X145654594Y-113550476D01*
X145563741Y-113616485D01*
X145495354Y-113666172D01*
X145495352Y-113666174D01*
X145495351Y-113666174D01*
X145356174Y-113805351D01*
X145356174Y-113805352D01*
X145356172Y-113805354D01*
X145306485Y-113873741D01*
X145240476Y-113964594D01*
X145151117Y-114139970D01*
X145090290Y-114327173D01*
X145059500Y-114521577D01*
X139940500Y-114521577D01*
X139909709Y-114327173D01*
X139848882Y-114139970D01*
X139801743Y-114047455D01*
X139759524Y-113964595D01*
X139643828Y-113805354D01*
X139504646Y-113666172D01*
X139345405Y-113550476D01*
X139170029Y-113461117D01*
X138982826Y-113400290D01*
X138788422Y-113369500D01*
X138788417Y-113369500D01*
X138591583Y-113369500D01*
X138591578Y-113369500D01*
X138397173Y-113400290D01*
X138209970Y-113461117D01*
X138034594Y-113550476D01*
X137943741Y-113616485D01*
X137875354Y-113666172D01*
X137875352Y-113666174D01*
X137875351Y-113666174D01*
X137736174Y-113805351D01*
X137736174Y-113805352D01*
X137736172Y-113805354D01*
X137686485Y-113873741D01*
X137620476Y-113964594D01*
X137531117Y-114139970D01*
X137470290Y-114327173D01*
X137439500Y-114521577D01*
X136500000Y-114521577D01*
X136500000Y-110124000D01*
X136519685Y-110056961D01*
X136572489Y-110011206D01*
X136624000Y-110000000D01*
X142000000Y-110000000D01*
X142000000Y-107911304D01*
X143499500Y-107911304D01*
X143499500Y-108088695D01*
X143534103Y-108262658D01*
X143534106Y-108262667D01*
X143601983Y-108426540D01*
X143601990Y-108426553D01*
X143700535Y-108574034D01*
X143700538Y-108574038D01*
X143825961Y-108699461D01*
X143825965Y-108699464D01*
X143973446Y-108798009D01*
X143973459Y-108798016D01*
X144096363Y-108848923D01*
X144137334Y-108865894D01*
X144137336Y-108865894D01*
X144137341Y-108865896D01*
X144311304Y-108900499D01*
X144311307Y-108900500D01*
X144311309Y-108900500D01*
X144488693Y-108900500D01*
X144488694Y-108900499D01*
X144546682Y-108888964D01*
X144662658Y-108865896D01*
X144662661Y-108865894D01*
X144662666Y-108865894D01*
X144826547Y-108798013D01*
X144974035Y-108699464D01*
X145099464Y-108574035D01*
X145198013Y-108426547D01*
X145265894Y-108262666D01*
X145300500Y-108088691D01*
X145300500Y-107911309D01*
X145300500Y-107911306D01*
X145300499Y-107911304D01*
X146299500Y-107911304D01*
X146299500Y-108088695D01*
X146334103Y-108262658D01*
X146334106Y-108262667D01*
X146401983Y-108426540D01*
X146401990Y-108426553D01*
X146500535Y-108574034D01*
X146500538Y-108574038D01*
X146625961Y-108699461D01*
X146625965Y-108699464D01*
X146773446Y-108798009D01*
X146773459Y-108798016D01*
X146896363Y-108848923D01*
X146937334Y-108865894D01*
X146937336Y-108865894D01*
X146937341Y-108865896D01*
X147111304Y-108900499D01*
X147111307Y-108900500D01*
X147111309Y-108900500D01*
X147288693Y-108900500D01*
X147288694Y-108900499D01*
X147346682Y-108888964D01*
X147462658Y-108865896D01*
X147462661Y-108865894D01*
X147462666Y-108865894D01*
X147626547Y-108798013D01*
X147774035Y-108699464D01*
X147899464Y-108574035D01*
X147998013Y-108426547D01*
X148065894Y-108262666D01*
X148100500Y-108088691D01*
X148100500Y-107911309D01*
X148100500Y-107911306D01*
X148100499Y-107911304D01*
X148065896Y-107737341D01*
X148065893Y-107737332D01*
X147998016Y-107573459D01*
X147998009Y-107573446D01*
X147899464Y-107425965D01*
X147899461Y-107425961D01*
X147774038Y-107300538D01*
X147774034Y-107300535D01*
X147626553Y-107201990D01*
X147626540Y-107201983D01*
X147462667Y-107134106D01*
X147462658Y-107134103D01*
X147288694Y-107099500D01*
X147288691Y-107099500D01*
X147111309Y-107099500D01*
X147111306Y-107099500D01*
X146937341Y-107134103D01*
X146937332Y-107134106D01*
X146773459Y-107201983D01*
X146773446Y-107201990D01*
X146625965Y-107300535D01*
X146625961Y-107300538D01*
X146500538Y-107425961D01*
X146500535Y-107425965D01*
X146401990Y-107573446D01*
X146401983Y-107573459D01*
X146334106Y-107737332D01*
X146334103Y-107737341D01*
X146299500Y-107911304D01*
X145300499Y-107911304D01*
X145265896Y-107737341D01*
X145265893Y-107737332D01*
X145198016Y-107573459D01*
X145198009Y-107573446D01*
X145099464Y-107425965D01*
X145099461Y-107425961D01*
X144974038Y-107300538D01*
X144974034Y-107300535D01*
X144826553Y-107201990D01*
X144826540Y-107201983D01*
X144662667Y-107134106D01*
X144662658Y-107134103D01*
X144488694Y-107099500D01*
X144488691Y-107099500D01*
X144311309Y-107099500D01*
X144311306Y-107099500D01*
X144137341Y-107134103D01*
X144137332Y-107134106D01*
X143973459Y-107201983D01*
X143973446Y-107201990D01*
X143825965Y-107300535D01*
X143825961Y-107300538D01*
X143700538Y-107425961D01*
X143700535Y-107425965D01*
X143601990Y-107573446D01*
X143601983Y-107573459D01*
X143534106Y-107737332D01*
X143534103Y-107737341D01*
X143499500Y-107911304D01*
X142000000Y-107911304D01*
X142000000Y-93161577D01*
X142839500Y-93161577D01*
X142839500Y-93358422D01*
X142870290Y-93552826D01*
X142931117Y-93740029D01*
X142987191Y-93850080D01*
X143020476Y-93915405D01*
X143136172Y-94074646D01*
X143275354Y-94213828D01*
X143434595Y-94329524D01*
X143525741Y-94375965D01*
X143611213Y-94419515D01*
X143662009Y-94467489D01*
X143678804Y-94535310D01*
X143656267Y-94601445D01*
X143611213Y-94640485D01*
X143434594Y-94730476D01*
X143366431Y-94780000D01*
X143275354Y-94846172D01*
X143275352Y-94846174D01*
X143275351Y-94846174D01*
X143136174Y-94985351D01*
X143136174Y-94985352D01*
X143136172Y-94985354D01*
X143097420Y-95038691D01*
X143020476Y-95144594D01*
X142931117Y-95319970D01*
X142870290Y-95507173D01*
X142839500Y-95701577D01*
X142839500Y-95898422D01*
X142870290Y-96092826D01*
X142931117Y-96280029D01*
X143020476Y-96455405D01*
X143136172Y-96614646D01*
X143275354Y-96753828D01*
X143434595Y-96869524D01*
X143544455Y-96925500D01*
X143611213Y-96959515D01*
X143662009Y-97007489D01*
X143678804Y-97075310D01*
X143656267Y-97141445D01*
X143611213Y-97180485D01*
X143434594Y-97270476D01*
X143343741Y-97336485D01*
X143275354Y-97386172D01*
X143275352Y-97386174D01*
X143275351Y-97386174D01*
X143136174Y-97525351D01*
X143136174Y-97525352D01*
X143136172Y-97525354D01*
X143086485Y-97593741D01*
X143020476Y-97684594D01*
X142931117Y-97859970D01*
X142870290Y-98047173D01*
X142839500Y-98241577D01*
X142839500Y-98438422D01*
X142870290Y-98632826D01*
X142931117Y-98820029D01*
X143020476Y-98995405D01*
X143136172Y-99154646D01*
X143275354Y-99293828D01*
X143434595Y-99409524D01*
X143557992Y-99472397D01*
X143611213Y-99499515D01*
X143662009Y-99547489D01*
X143678804Y-99615310D01*
X143656267Y-99681445D01*
X143611213Y-99720485D01*
X143434594Y-99810476D01*
X143346475Y-99874499D01*
X143275354Y-99926172D01*
X143275352Y-99926174D01*
X143275351Y-99926174D01*
X143136174Y-100065351D01*
X143136174Y-100065352D01*
X143136172Y-100065354D01*
X143086485Y-100133741D01*
X143020476Y-100224594D01*
X142931117Y-100399970D01*
X142870290Y-100587173D01*
X142839500Y-100781577D01*
X142839500Y-100978422D01*
X142870290Y-101172826D01*
X142931117Y-101360029D01*
X143020476Y-101535405D01*
X143136172Y-101694646D01*
X143275354Y-101833828D01*
X143434595Y-101949524D01*
X143517455Y-101991743D01*
X143609970Y-102038882D01*
X143609972Y-102038882D01*
X143609975Y-102038884D01*
X143710317Y-102071487D01*
X143797173Y-102099709D01*
X143991578Y-102130500D01*
X143991583Y-102130500D01*
X144188422Y-102130500D01*
X144382826Y-102099709D01*
X144570025Y-102038884D01*
X144745405Y-101949524D01*
X144904646Y-101833828D01*
X145043828Y-101694646D01*
X145159524Y-101535405D01*
X145248884Y-101360025D01*
X145309709Y-101172826D01*
X145340500Y-100978422D01*
X145340500Y-100781577D01*
X145309709Y-100587173D01*
X145248882Y-100399970D01*
X145159523Y-100224594D01*
X145043828Y-100065354D01*
X144904646Y-99926172D01*
X144762625Y-99822987D01*
X144745403Y-99810474D01*
X144568787Y-99720485D01*
X144517990Y-99672511D01*
X144501195Y-99604690D01*
X144523732Y-99538555D01*
X144568787Y-99499515D01*
X144745403Y-99409525D01*
X144745402Y-99409525D01*
X144745405Y-99409524D01*
X144904646Y-99293828D01*
X145043828Y-99154646D01*
X145159524Y-98995405D01*
X145248884Y-98820025D01*
X145309709Y-98632826D01*
X145340500Y-98438422D01*
X145340500Y-98241577D01*
X145309709Y-98047173D01*
X145248882Y-97859970D01*
X145159523Y-97684594D01*
X145043828Y-97525354D01*
X144904646Y-97386172D01*
X144825025Y-97328324D01*
X144745403Y-97270474D01*
X144568787Y-97180485D01*
X144517990Y-97132511D01*
X144501195Y-97064690D01*
X144523732Y-96998555D01*
X144568787Y-96959515D01*
X144745403Y-96869525D01*
X144745402Y-96869525D01*
X144745405Y-96869524D01*
X144904646Y-96753828D01*
X145043828Y-96614646D01*
X145159524Y-96455405D01*
X145248884Y-96280025D01*
X145309709Y-96092826D01*
X145340500Y-95898422D01*
X145340500Y-95701577D01*
X145309709Y-95507173D01*
X145248882Y-95319970D01*
X145159523Y-95144594D01*
X145043828Y-94985354D01*
X144904646Y-94846172D01*
X144771877Y-94749709D01*
X144745403Y-94730474D01*
X144568787Y-94640485D01*
X144517990Y-94592511D01*
X144501195Y-94524690D01*
X144523732Y-94458555D01*
X144568787Y-94419515D01*
X144745403Y-94329525D01*
X144745402Y-94329525D01*
X144745405Y-94329524D01*
X144904646Y-94213828D01*
X145043828Y-94074646D01*
X145159524Y-93915405D01*
X145248884Y-93740025D01*
X145309709Y-93552826D01*
X145321665Y-93477339D01*
X145340500Y-93358422D01*
X145340500Y-93161577D01*
X145309709Y-92967173D01*
X145248882Y-92779970D01*
X145159523Y-92604594D01*
X145043828Y-92445354D01*
X144904646Y-92306172D01*
X144745405Y-92190476D01*
X144570025Y-92101116D01*
X144570024Y-92101115D01*
X144568235Y-92100204D01*
X144517439Y-92052230D01*
X144500644Y-91984409D01*
X144523181Y-91918274D01*
X144568236Y-91879234D01*
X144745141Y-91789097D01*
X144780125Y-91763678D01*
X144780126Y-91763678D01*
X144136448Y-91120000D01*
X144142661Y-91120000D01*
X144244394Y-91092741D01*
X144335606Y-91040080D01*
X144410080Y-90965606D01*
X144462741Y-90874394D01*
X144490000Y-90772661D01*
X144490000Y-90766448D01*
X145133678Y-91410126D01*
X145133678Y-91410125D01*
X145159095Y-91375143D01*
X145248418Y-91199835D01*
X145309221Y-91012705D01*
X145340000Y-90818382D01*
X145340000Y-90621617D01*
X145339994Y-90621577D01*
X150459500Y-90621577D01*
X150459500Y-90818422D01*
X150490290Y-91012826D01*
X150551117Y-91200029D01*
X150640343Y-91375143D01*
X150640476Y-91375405D01*
X150756172Y-91534646D01*
X150895354Y-91673828D01*
X151054595Y-91789524D01*
X151084276Y-91804647D01*
X151231213Y-91879515D01*
X151282009Y-91927489D01*
X151298804Y-91995310D01*
X151276267Y-92061445D01*
X151231213Y-92100485D01*
X151054594Y-92190476D01*
X150965828Y-92254969D01*
X150895354Y-92306172D01*
X150895352Y-92306174D01*
X150895351Y-92306174D01*
X150756174Y-92445351D01*
X150756174Y-92445352D01*
X150756172Y-92445354D01*
X150706485Y-92513741D01*
X150640476Y-92604594D01*
X150551117Y-92779970D01*
X150490290Y-92967173D01*
X150459500Y-93161577D01*
X150459500Y-93358422D01*
X150490290Y-93552826D01*
X150551117Y-93740029D01*
X150607191Y-93850080D01*
X150640476Y-93915405D01*
X150756172Y-94074646D01*
X150895354Y-94213828D01*
X151054595Y-94329524D01*
X151145741Y-94375965D01*
X151231213Y-94419515D01*
X151282009Y-94467489D01*
X151298804Y-94535310D01*
X151276267Y-94601445D01*
X151231213Y-94640485D01*
X151054594Y-94730476D01*
X150986431Y-94780000D01*
X150895354Y-94846172D01*
X150895352Y-94846174D01*
X150895351Y-94846174D01*
X150756174Y-94985351D01*
X150756174Y-94985352D01*
X150756172Y-94985354D01*
X150717420Y-95038691D01*
X150640476Y-95144594D01*
X150551117Y-95319970D01*
X150490290Y-95507173D01*
X150459500Y-95701577D01*
X150459500Y-95898422D01*
X150490290Y-96092826D01*
X150551117Y-96280029D01*
X150640476Y-96455405D01*
X150756172Y-96614646D01*
X150895354Y-96753828D01*
X151054595Y-96869524D01*
X151164455Y-96925500D01*
X151231213Y-96959515D01*
X151282009Y-97007489D01*
X151298804Y-97075310D01*
X151276267Y-97141445D01*
X151231213Y-97180485D01*
X151054594Y-97270476D01*
X150963741Y-97336485D01*
X150895354Y-97386172D01*
X150895352Y-97386174D01*
X150895351Y-97386174D01*
X150756174Y-97525351D01*
X150756174Y-97525352D01*
X150756172Y-97525354D01*
X150706485Y-97593741D01*
X150640476Y-97684594D01*
X150551117Y-97859970D01*
X150490290Y-98047173D01*
X150459500Y-98241577D01*
X150459500Y-98438422D01*
X150490290Y-98632826D01*
X150551117Y-98820029D01*
X150640476Y-98995405D01*
X150756172Y-99154646D01*
X150895354Y-99293828D01*
X151054595Y-99409524D01*
X151177992Y-99472397D01*
X151231213Y-99499515D01*
X151282009Y-99547489D01*
X151298804Y-99615310D01*
X151276267Y-99681445D01*
X151231213Y-99720485D01*
X151054594Y-99810476D01*
X150966475Y-99874499D01*
X150895354Y-99926172D01*
X150895352Y-99926174D01*
X150895351Y-99926174D01*
X150756174Y-100065351D01*
X150756174Y-100065352D01*
X150756172Y-100065354D01*
X150706485Y-100133741D01*
X150640476Y-100224594D01*
X150551117Y-100399970D01*
X150490290Y-100587173D01*
X150459500Y-100781577D01*
X150459500Y-100978422D01*
X150490290Y-101172826D01*
X150551117Y-101360029D01*
X150640476Y-101535405D01*
X150756172Y-101694646D01*
X150895354Y-101833828D01*
X151054595Y-101949524D01*
X151137455Y-101991743D01*
X151229970Y-102038882D01*
X151229972Y-102038882D01*
X151229975Y-102038884D01*
X151330317Y-102071487D01*
X151417173Y-102099709D01*
X151611578Y-102130500D01*
X151611583Y-102130500D01*
X151808422Y-102130500D01*
X152002826Y-102099709D01*
X152190025Y-102038884D01*
X152365405Y-101949524D01*
X152524646Y-101833828D01*
X152663828Y-101694646D01*
X152779524Y-101535405D01*
X152868884Y-101360025D01*
X152929709Y-101172826D01*
X152960500Y-100978422D01*
X152960500Y-100781577D01*
X152929709Y-100587173D01*
X152868882Y-100399970D01*
X152779523Y-100224594D01*
X152663828Y-100065354D01*
X152524646Y-99926172D01*
X152382625Y-99822987D01*
X152365403Y-99810474D01*
X152188787Y-99720485D01*
X152137990Y-99672511D01*
X152121195Y-99604690D01*
X152143732Y-99538555D01*
X152188787Y-99499515D01*
X152365403Y-99409525D01*
X152365402Y-99409525D01*
X152365405Y-99409524D01*
X152524646Y-99293828D01*
X152663828Y-99154646D01*
X152779524Y-98995405D01*
X152868884Y-98820025D01*
X152929709Y-98632826D01*
X152960500Y-98438422D01*
X152960500Y-98241577D01*
X152929709Y-98047173D01*
X152868882Y-97859970D01*
X152779523Y-97684594D01*
X152663828Y-97525354D01*
X152524646Y-97386172D01*
X152445025Y-97328324D01*
X152365403Y-97270474D01*
X152188787Y-97180485D01*
X152137990Y-97132511D01*
X152121195Y-97064690D01*
X152143732Y-96998555D01*
X152188787Y-96959515D01*
X152365403Y-96869525D01*
X152365402Y-96869525D01*
X152365405Y-96869524D01*
X152524646Y-96753828D01*
X152663828Y-96614646D01*
X152779524Y-96455405D01*
X152868884Y-96280025D01*
X152929709Y-96092826D01*
X152960500Y-95898422D01*
X152960500Y-95701577D01*
X152929709Y-95507173D01*
X152868882Y-95319970D01*
X152779523Y-95144594D01*
X152663828Y-94985354D01*
X152539778Y-94861304D01*
X154799500Y-94861304D01*
X154799500Y-95038695D01*
X154834103Y-95212658D01*
X154834106Y-95212667D01*
X154901983Y-95376540D01*
X154901990Y-95376553D01*
X155000535Y-95524034D01*
X155000538Y-95524038D01*
X155125961Y-95649461D01*
X155125965Y-95649464D01*
X155273446Y-95748009D01*
X155273459Y-95748016D01*
X155396363Y-95798923D01*
X155437334Y-95815894D01*
X155437336Y-95815894D01*
X155437341Y-95815896D01*
X155611304Y-95850499D01*
X155611307Y-95850500D01*
X155611309Y-95850500D01*
X155788693Y-95850500D01*
X155788694Y-95850499D01*
X155846682Y-95838964D01*
X155962658Y-95815896D01*
X155962661Y-95815894D01*
X155962666Y-95815894D01*
X156126547Y-95748013D01*
X156274035Y-95649464D01*
X156399464Y-95524035D01*
X156498013Y-95376547D01*
X156565894Y-95212666D01*
X156579435Y-95144594D01*
X156600499Y-95038695D01*
X156600500Y-95038693D01*
X156600500Y-94861306D01*
X156600499Y-94861304D01*
X156565896Y-94687341D01*
X156565893Y-94687332D01*
X156498016Y-94523459D01*
X156498009Y-94523446D01*
X156399464Y-94375965D01*
X156399461Y-94375961D01*
X156274038Y-94250538D01*
X156274034Y-94250535D01*
X156126553Y-94151990D01*
X156126540Y-94151983D01*
X155962667Y-94084106D01*
X155962658Y-94084103D01*
X155788694Y-94049500D01*
X155788691Y-94049500D01*
X155611309Y-94049500D01*
X155611306Y-94049500D01*
X155437341Y-94084103D01*
X155437332Y-94084106D01*
X155273459Y-94151983D01*
X155273446Y-94151990D01*
X155125965Y-94250535D01*
X155125961Y-94250538D01*
X155000538Y-94375961D01*
X155000535Y-94375965D01*
X154901990Y-94523446D01*
X154901983Y-94523459D01*
X154834106Y-94687332D01*
X154834103Y-94687341D01*
X154799500Y-94861304D01*
X152539778Y-94861304D01*
X152524646Y-94846172D01*
X152391877Y-94749709D01*
X152365403Y-94730474D01*
X152188787Y-94640485D01*
X152137990Y-94592511D01*
X152121195Y-94524690D01*
X152143732Y-94458555D01*
X152188787Y-94419515D01*
X152365403Y-94329525D01*
X152365402Y-94329525D01*
X152365405Y-94329524D01*
X152524646Y-94213828D01*
X152663828Y-94074646D01*
X152779524Y-93915405D01*
X152868884Y-93740025D01*
X152929709Y-93552826D01*
X152941665Y-93477339D01*
X152960500Y-93358422D01*
X152960500Y-93161577D01*
X152929709Y-92967173D01*
X152868882Y-92779970D01*
X152779523Y-92604594D01*
X152663828Y-92445354D01*
X152524646Y-92306172D01*
X152391877Y-92209709D01*
X152365403Y-92190474D01*
X152188787Y-92100485D01*
X152137990Y-92052511D01*
X152121195Y-91984690D01*
X152143732Y-91918555D01*
X152188787Y-91879515D01*
X152365403Y-91789525D01*
X152365402Y-91789525D01*
X152365405Y-91789524D01*
X152524646Y-91673828D01*
X152663828Y-91534646D01*
X152779524Y-91375405D01*
X152868884Y-91200025D01*
X152929709Y-91012826D01*
X152948913Y-90891577D01*
X152960500Y-90818422D01*
X152960500Y-90621577D01*
X152929709Y-90427173D01*
X152868882Y-90239970D01*
X152821743Y-90147455D01*
X152779524Y-90064595D01*
X152663828Y-89905354D01*
X152524646Y-89766172D01*
X152365405Y-89650476D01*
X152361635Y-89648555D01*
X152190029Y-89561117D01*
X152002826Y-89500290D01*
X151808422Y-89469500D01*
X151808417Y-89469500D01*
X151611583Y-89469500D01*
X151611578Y-89469500D01*
X151417173Y-89500290D01*
X151229970Y-89561117D01*
X151054594Y-89650476D01*
X150963741Y-89716485D01*
X150895354Y-89766172D01*
X150895352Y-89766174D01*
X150895351Y-89766174D01*
X150756174Y-89905351D01*
X150756174Y-89905352D01*
X150756172Y-89905354D01*
X150706485Y-89973741D01*
X150640476Y-90064594D01*
X150551117Y-90239970D01*
X150490290Y-90427173D01*
X150459500Y-90621577D01*
X145339994Y-90621577D01*
X145309221Y-90427294D01*
X145248418Y-90240164D01*
X145159096Y-90064858D01*
X145133678Y-90029873D01*
X145133677Y-90029873D01*
X144490000Y-90673551D01*
X144490000Y-90667339D01*
X144462741Y-90565606D01*
X144410080Y-90474394D01*
X144335606Y-90399920D01*
X144244394Y-90347259D01*
X144142661Y-90320000D01*
X144136447Y-90320000D01*
X144780125Y-89676320D01*
X144780125Y-89676319D01*
X144745145Y-89650905D01*
X144569835Y-89561581D01*
X144382705Y-89500778D01*
X144188382Y-89470000D01*
X143991618Y-89470000D01*
X143797294Y-89500778D01*
X143610161Y-89561582D01*
X143434863Y-89650899D01*
X143434859Y-89650902D01*
X143399873Y-89676320D01*
X143399872Y-89676320D01*
X144043554Y-90320000D01*
X144037339Y-90320000D01*
X143935606Y-90347259D01*
X143844394Y-90399920D01*
X143769920Y-90474394D01*
X143717259Y-90565606D01*
X143690000Y-90667339D01*
X143690000Y-90673552D01*
X143046320Y-90029872D01*
X143046320Y-90029873D01*
X143020902Y-90064859D01*
X143020899Y-90064863D01*
X142931582Y-90240161D01*
X142870778Y-90427294D01*
X142840000Y-90621617D01*
X142840000Y-90818382D01*
X142870778Y-91012705D01*
X142931581Y-91199835D01*
X143020905Y-91375145D01*
X143046319Y-91410125D01*
X143046320Y-91410125D01*
X143690000Y-90766445D01*
X143690000Y-90772661D01*
X143717259Y-90874394D01*
X143769920Y-90965606D01*
X143844394Y-91040080D01*
X143935606Y-91092741D01*
X144037339Y-91120000D01*
X144043553Y-91120000D01*
X143399873Y-91763677D01*
X143399873Y-91763678D01*
X143434858Y-91789096D01*
X143611764Y-91879234D01*
X143662560Y-91927209D01*
X143679355Y-91995030D01*
X143656818Y-92061164D01*
X143611764Y-92100204D01*
X143434594Y-92190476D01*
X143345828Y-92254969D01*
X143275354Y-92306172D01*
X143275352Y-92306174D01*
X143275351Y-92306174D01*
X143136174Y-92445351D01*
X143136174Y-92445352D01*
X143136172Y-92445354D01*
X143086485Y-92513741D01*
X143020476Y-92604594D01*
X142931117Y-92779970D01*
X142870290Y-92967173D01*
X142839500Y-93161577D01*
X142000000Y-93161577D01*
X142000000Y-89124000D01*
X142019685Y-89056961D01*
X142072489Y-89011206D01*
X142124000Y-89000000D01*
X149500000Y-89000000D01*
X149500000Y-87602135D01*
X156049500Y-87602135D01*
X156049500Y-89397870D01*
X156049501Y-89397876D01*
X156055908Y-89457483D01*
X156106202Y-89592328D01*
X156106206Y-89592335D01*
X156192452Y-89707544D01*
X156192455Y-89707547D01*
X156307664Y-89793793D01*
X156307671Y-89793797D01*
X156442517Y-89844091D01*
X156442516Y-89844091D01*
X156449444Y-89844835D01*
X156502127Y-89850500D01*
X158297872Y-89850499D01*
X158357483Y-89844091D01*
X158492331Y-89793796D01*
X158607546Y-89707546D01*
X158693796Y-89592331D01*
X158744091Y-89457483D01*
X158750500Y-89397873D01*
X158750499Y-87602128D01*
X158744091Y-87542517D01*
X158731340Y-87508331D01*
X158693797Y-87407671D01*
X158693793Y-87407664D01*
X158607547Y-87292455D01*
X158607544Y-87292452D01*
X158492335Y-87206206D01*
X158492328Y-87206202D01*
X158357482Y-87155908D01*
X158357483Y-87155908D01*
X158297883Y-87149501D01*
X158297881Y-87149500D01*
X158297873Y-87149500D01*
X158297864Y-87149500D01*
X156502129Y-87149500D01*
X156502123Y-87149501D01*
X156442516Y-87155908D01*
X156307671Y-87206202D01*
X156307664Y-87206206D01*
X156192455Y-87292452D01*
X156192452Y-87292455D01*
X156106206Y-87407664D01*
X156106202Y-87407671D01*
X156055908Y-87542517D01*
X156049501Y-87602116D01*
X156049501Y-87602123D01*
X156049500Y-87602135D01*
X149500000Y-87602135D01*
X149500000Y-86111304D01*
X150099500Y-86111304D01*
X150099500Y-86288695D01*
X150134103Y-86462658D01*
X150134106Y-86462667D01*
X150201983Y-86626540D01*
X150201990Y-86626553D01*
X150300535Y-86774034D01*
X150300538Y-86774038D01*
X150425961Y-86899461D01*
X150425965Y-86899464D01*
X150573446Y-86998009D01*
X150573459Y-86998016D01*
X150696363Y-87048923D01*
X150737334Y-87065894D01*
X150737336Y-87065894D01*
X150737341Y-87065896D01*
X150911304Y-87100499D01*
X150911307Y-87100500D01*
X150911309Y-87100500D01*
X151088693Y-87100500D01*
X151088694Y-87100499D01*
X151146682Y-87088964D01*
X151262658Y-87065896D01*
X151262661Y-87065894D01*
X151262666Y-87065894D01*
X151426547Y-86998013D01*
X151574035Y-86899464D01*
X151699464Y-86774035D01*
X151798013Y-86626547D01*
X151865894Y-86462666D01*
X151880343Y-86390029D01*
X151900499Y-86288695D01*
X151900500Y-86288693D01*
X151900500Y-86111306D01*
X151900499Y-86111304D01*
X151865896Y-85937341D01*
X151865893Y-85937332D01*
X151798016Y-85773459D01*
X151798009Y-85773446D01*
X151699464Y-85625965D01*
X151699461Y-85625961D01*
X151574038Y-85500538D01*
X151574034Y-85500535D01*
X151426553Y-85401990D01*
X151426540Y-85401983D01*
X151288434Y-85344779D01*
X151288433Y-85344779D01*
X151262666Y-85334106D01*
X151262662Y-85334105D01*
X151262658Y-85334103D01*
X151088694Y-85299500D01*
X151088691Y-85299500D01*
X150911309Y-85299500D01*
X150911306Y-85299500D01*
X150737341Y-85334103D01*
X150737332Y-85334106D01*
X150573459Y-85401983D01*
X150573446Y-85401990D01*
X150425965Y-85500535D01*
X150425961Y-85500538D01*
X150300538Y-85625961D01*
X150300535Y-85625965D01*
X150201990Y-85773446D01*
X150201983Y-85773459D01*
X150134106Y-85937332D01*
X150134103Y-85937341D01*
X150099500Y-86111304D01*
X149500000Y-86111304D01*
X149500000Y-85236304D01*
X155674500Y-85236304D01*
X155674500Y-85413695D01*
X155709103Y-85587658D01*
X155709106Y-85587667D01*
X155776983Y-85751540D01*
X155776990Y-85751553D01*
X155875535Y-85899034D01*
X155875538Y-85899038D01*
X156000961Y-86024461D01*
X156000965Y-86024464D01*
X156148446Y-86123009D01*
X156148459Y-86123016D01*
X156271363Y-86173923D01*
X156312334Y-86190894D01*
X156312336Y-86190894D01*
X156312341Y-86190896D01*
X156486304Y-86225499D01*
X156486307Y-86225500D01*
X156486309Y-86225500D01*
X156663693Y-86225500D01*
X156663694Y-86225499D01*
X156721682Y-86213964D01*
X156837658Y-86190896D01*
X156837661Y-86190894D01*
X156837666Y-86190894D01*
X157001547Y-86123013D01*
X157149035Y-86024464D01*
X157274464Y-85899035D01*
X157373013Y-85751547D01*
X157440894Y-85587666D01*
X157475500Y-85413691D01*
X157475500Y-85236309D01*
X157475500Y-85236306D01*
X157475499Y-85236304D01*
X157440896Y-85062341D01*
X157440893Y-85062332D01*
X157373016Y-84898459D01*
X157373009Y-84898446D01*
X157274464Y-84750965D01*
X157274461Y-84750961D01*
X157149038Y-84625538D01*
X157149034Y-84625535D01*
X157001553Y-84526990D01*
X157001540Y-84526983D01*
X156837667Y-84459106D01*
X156837658Y-84459103D01*
X156663694Y-84424500D01*
X156663691Y-84424500D01*
X156486309Y-84424500D01*
X156486306Y-84424500D01*
X156312341Y-84459103D01*
X156312332Y-84459106D01*
X156148459Y-84526983D01*
X156148446Y-84526990D01*
X156000965Y-84625535D01*
X156000961Y-84625538D01*
X155875538Y-84750961D01*
X155875535Y-84750965D01*
X155776990Y-84898446D01*
X155776983Y-84898459D01*
X155709106Y-85062332D01*
X155709103Y-85062341D01*
X155674500Y-85236304D01*
X149500000Y-85236304D01*
X149500000Y-83711304D01*
X150099500Y-83711304D01*
X150099500Y-83888695D01*
X150134103Y-84062658D01*
X150134106Y-84062667D01*
X150201983Y-84226540D01*
X150201990Y-84226553D01*
X150300535Y-84374034D01*
X150300538Y-84374038D01*
X150425961Y-84499461D01*
X150425965Y-84499464D01*
X150573446Y-84598009D01*
X150573459Y-84598016D01*
X150662000Y-84634690D01*
X150737334Y-84665894D01*
X150737336Y-84665894D01*
X150737341Y-84665896D01*
X150911304Y-84700499D01*
X150911307Y-84700500D01*
X150911309Y-84700500D01*
X151088693Y-84700500D01*
X151088694Y-84700499D01*
X151146682Y-84688964D01*
X151262658Y-84665896D01*
X151262661Y-84665894D01*
X151262666Y-84665894D01*
X151426547Y-84598013D01*
X151574035Y-84499464D01*
X151699464Y-84374035D01*
X151798013Y-84226547D01*
X151865894Y-84062666D01*
X151900500Y-83888691D01*
X151900500Y-83711309D01*
X151900500Y-83711306D01*
X151900499Y-83711304D01*
X151865896Y-83537341D01*
X151865893Y-83537332D01*
X151798016Y-83373459D01*
X151798014Y-83373455D01*
X151798013Y-83373453D01*
X151729941Y-83271577D01*
X159139500Y-83271577D01*
X159139500Y-83468422D01*
X159170290Y-83662826D01*
X159231117Y-83850029D01*
X159320476Y-84025405D01*
X159436172Y-84184646D01*
X159575354Y-84323828D01*
X159734595Y-84439524D01*
X159852229Y-84499461D01*
X159911213Y-84529515D01*
X159962009Y-84577489D01*
X159978804Y-84645310D01*
X159956267Y-84711445D01*
X159911213Y-84750485D01*
X159734594Y-84840476D01*
X159654797Y-84898453D01*
X159575354Y-84956172D01*
X159575352Y-84956174D01*
X159575351Y-84956174D01*
X159436174Y-85095351D01*
X159436174Y-85095352D01*
X159436172Y-85095354D01*
X159386485Y-85163741D01*
X159320476Y-85254594D01*
X159231117Y-85429970D01*
X159170290Y-85617173D01*
X159139500Y-85811577D01*
X159139500Y-86008422D01*
X159170290Y-86202826D01*
X159231117Y-86390029D01*
X159320476Y-86565405D01*
X159436172Y-86724646D01*
X159575354Y-86863828D01*
X159734595Y-86979524D01*
X159857992Y-87042397D01*
X159911213Y-87069515D01*
X159962009Y-87117489D01*
X159978804Y-87185310D01*
X159956267Y-87251445D01*
X159911213Y-87290485D01*
X159734594Y-87380476D01*
X159643741Y-87446485D01*
X159575354Y-87496172D01*
X159575352Y-87496174D01*
X159575351Y-87496174D01*
X159436174Y-87635351D01*
X159436174Y-87635352D01*
X159436172Y-87635354D01*
X159386485Y-87703741D01*
X159320476Y-87794594D01*
X159231117Y-87969970D01*
X159170290Y-88157173D01*
X159139500Y-88351577D01*
X159139500Y-88548422D01*
X159170290Y-88742826D01*
X159231117Y-88930029D01*
X159320476Y-89105405D01*
X159436172Y-89264646D01*
X159575354Y-89403828D01*
X159734595Y-89519524D01*
X159817137Y-89561581D01*
X159911213Y-89609515D01*
X159962009Y-89657489D01*
X159978804Y-89725310D01*
X159956267Y-89791445D01*
X159911213Y-89830485D01*
X159734594Y-89920476D01*
X159643741Y-89986485D01*
X159575354Y-90036172D01*
X159575352Y-90036174D01*
X159575351Y-90036174D01*
X159436174Y-90175351D01*
X159436174Y-90175352D01*
X159436172Y-90175354D01*
X159389225Y-90239970D01*
X159320476Y-90334594D01*
X159231117Y-90509970D01*
X159170290Y-90697173D01*
X159139500Y-90891577D01*
X159139500Y-91088422D01*
X159170290Y-91282826D01*
X159231117Y-91470029D01*
X159320476Y-91645405D01*
X159436172Y-91804646D01*
X159575354Y-91943828D01*
X159734595Y-92059524D01*
X159857992Y-92122397D01*
X159911213Y-92149515D01*
X159962009Y-92197489D01*
X159978804Y-92265310D01*
X159956267Y-92331445D01*
X159911213Y-92370485D01*
X159734594Y-92460476D01*
X159643741Y-92526485D01*
X159575354Y-92576172D01*
X159575352Y-92576174D01*
X159575351Y-92576174D01*
X159436174Y-92715351D01*
X159436174Y-92715352D01*
X159436172Y-92715354D01*
X159389225Y-92779970D01*
X159320476Y-92874594D01*
X159231117Y-93049970D01*
X159170290Y-93237173D01*
X159139500Y-93431577D01*
X159139500Y-93628422D01*
X159170290Y-93822826D01*
X159231117Y-94010029D01*
X159303447Y-94151983D01*
X159320476Y-94185405D01*
X159436172Y-94344646D01*
X159575354Y-94483828D01*
X159734595Y-94599524D01*
X159814986Y-94640485D01*
X159909970Y-94688882D01*
X159909972Y-94688882D01*
X159909975Y-94688884D01*
X160010317Y-94721487D01*
X160097173Y-94749709D01*
X160291578Y-94780500D01*
X160291583Y-94780500D01*
X160488422Y-94780500D01*
X160682826Y-94749709D01*
X160684328Y-94749221D01*
X160870025Y-94688884D01*
X161045405Y-94599524D01*
X161204646Y-94483828D01*
X161343828Y-94344646D01*
X161459524Y-94185405D01*
X161548884Y-94010025D01*
X161609709Y-93822826D01*
X161622823Y-93740029D01*
X161640500Y-93628422D01*
X161640500Y-93431577D01*
X161609709Y-93237173D01*
X161548882Y-93049970D01*
X161501743Y-92957455D01*
X161459524Y-92874595D01*
X161343828Y-92715354D01*
X161204646Y-92576172D01*
X161080975Y-92486319D01*
X161045403Y-92460474D01*
X160868787Y-92370485D01*
X160817990Y-92322511D01*
X160801195Y-92254690D01*
X160823732Y-92188555D01*
X160868787Y-92149515D01*
X161045403Y-92059525D01*
X161045402Y-92059525D01*
X161045405Y-92059524D01*
X161204646Y-91943828D01*
X161343828Y-91804646D01*
X161459524Y-91645405D01*
X161548884Y-91470025D01*
X161609709Y-91282826D01*
X161622823Y-91200029D01*
X161640500Y-91088422D01*
X161640500Y-90891577D01*
X161609709Y-90697173D01*
X161548882Y-90509970D01*
X161501743Y-90417455D01*
X161459524Y-90334595D01*
X161343828Y-90175354D01*
X161204646Y-90036172D01*
X161125025Y-89978324D01*
X161045403Y-89920474D01*
X160868787Y-89830485D01*
X160817990Y-89782511D01*
X160801195Y-89714690D01*
X160823732Y-89648555D01*
X160868787Y-89609515D01*
X161045403Y-89519525D01*
X161045402Y-89519525D01*
X161045405Y-89519524D01*
X161204646Y-89403828D01*
X161343828Y-89264646D01*
X161459524Y-89105405D01*
X161548884Y-88930025D01*
X161609709Y-88742826D01*
X161636443Y-88574035D01*
X161640500Y-88548422D01*
X161640500Y-88351577D01*
X161609709Y-88157173D01*
X161548882Y-87969970D01*
X161501743Y-87877455D01*
X161459524Y-87794595D01*
X161343828Y-87635354D01*
X161204646Y-87496172D01*
X161125025Y-87438324D01*
X161045403Y-87380474D01*
X160868787Y-87290485D01*
X160817990Y-87242511D01*
X160801195Y-87174690D01*
X160823732Y-87108555D01*
X160868787Y-87069515D01*
X161045403Y-86979525D01*
X161045402Y-86979525D01*
X161045405Y-86979524D01*
X161204646Y-86863828D01*
X161343828Y-86724646D01*
X161459524Y-86565405D01*
X161548884Y-86390025D01*
X161609709Y-86202826D01*
X161624204Y-86111309D01*
X161640500Y-86008422D01*
X161640500Y-85811577D01*
X161609709Y-85617173D01*
X161548882Y-85429970D01*
X161459523Y-85254594D01*
X161446236Y-85236306D01*
X161343828Y-85095354D01*
X161204646Y-84956172D01*
X161125025Y-84898324D01*
X161045403Y-84840474D01*
X160868787Y-84750485D01*
X160817990Y-84702511D01*
X160801195Y-84634690D01*
X160823732Y-84568555D01*
X160868787Y-84529515D01*
X161045403Y-84439525D01*
X161045402Y-84439525D01*
X161045405Y-84439524D01*
X161204646Y-84323828D01*
X161343828Y-84184646D01*
X161459524Y-84025405D01*
X161548884Y-83850025D01*
X161609709Y-83662826D01*
X161629585Y-83537334D01*
X161640500Y-83468422D01*
X161640500Y-83271577D01*
X161609709Y-83077173D01*
X161548882Y-82889970D01*
X161459523Y-82714594D01*
X161343828Y-82555354D01*
X161204646Y-82416172D01*
X161045405Y-82300476D01*
X160870029Y-82211117D01*
X160682826Y-82150290D01*
X160488422Y-82119500D01*
X160488417Y-82119500D01*
X160291583Y-82119500D01*
X160291578Y-82119500D01*
X160097173Y-82150290D01*
X159909970Y-82211117D01*
X159734594Y-82300476D01*
X159643741Y-82366485D01*
X159575354Y-82416172D01*
X159575352Y-82416174D01*
X159575351Y-82416174D01*
X159436174Y-82555351D01*
X159436174Y-82555352D01*
X159436172Y-82555354D01*
X159386485Y-82623741D01*
X159320476Y-82714594D01*
X159231117Y-82889970D01*
X159170290Y-83077173D01*
X159139500Y-83271577D01*
X151729941Y-83271577D01*
X151699464Y-83225965D01*
X151699461Y-83225961D01*
X151574038Y-83100538D01*
X151574034Y-83100535D01*
X151426553Y-83001990D01*
X151426540Y-83001983D01*
X151262667Y-82934106D01*
X151262658Y-82934103D01*
X151088694Y-82899500D01*
X151088691Y-82899500D01*
X150911309Y-82899500D01*
X150911306Y-82899500D01*
X150737341Y-82934103D01*
X150737332Y-82934106D01*
X150573459Y-83001983D01*
X150573446Y-83001990D01*
X150425965Y-83100535D01*
X150425961Y-83100538D01*
X150300538Y-83225961D01*
X150300535Y-83225965D01*
X150201990Y-83373446D01*
X150201983Y-83373459D01*
X150134106Y-83537332D01*
X150134103Y-83537341D01*
X150099500Y-83711304D01*
X149500000Y-83711304D01*
X149500000Y-80624000D01*
X149519685Y-80556961D01*
X149572489Y-80511206D01*
X149624000Y-80500000D01*
X154317969Y-80500000D01*
X154385008Y-80519685D01*
G37*
%TD.AperFunction*%
%TD*%
%TA.AperFunction,NonConductor*%
G36*
X162561164Y-111743181D02*
G01*
X162600204Y-111788235D01*
X162601115Y-111790024D01*
X162601116Y-111790025D01*
X162664308Y-111914048D01*
X162690478Y-111965408D01*
X162721447Y-112008034D01*
X162744927Y-112073840D01*
X162729101Y-112141894D01*
X162678996Y-112190589D01*
X162624572Y-112204871D01*
X162356279Y-112212324D01*
X162288719Y-112194509D01*
X162241516Y-112142996D01*
X162229655Y-112074140D01*
X162252519Y-112015485D01*
X162289096Y-111965142D01*
X162379234Y-111788236D01*
X162427208Y-111737439D01*
X162495029Y-111720644D01*
X162561164Y-111743181D01*
G37*
%TD.AperFunction*%
%TA.AperFunction,Conductor*%
%TO.N,+5V_EXT*%
G36*
X155443039Y-54019685D02*
G01*
X155488794Y-54072489D01*
X155500000Y-54124000D01*
X155500000Y-64500000D01*
X159533288Y-64500000D01*
X159600327Y-64519685D01*
X159633602Y-64551109D01*
X159636172Y-64554646D01*
X159775354Y-64693828D01*
X159934595Y-64809524D01*
X160057992Y-64872397D01*
X160111213Y-64899515D01*
X160162009Y-64947489D01*
X160178804Y-65015310D01*
X160156267Y-65081445D01*
X160111213Y-65120485D01*
X159934594Y-65210476D01*
X159843741Y-65276485D01*
X159775354Y-65326172D01*
X159775352Y-65326174D01*
X159775351Y-65326174D01*
X159636174Y-65465351D01*
X159636174Y-65465352D01*
X159636172Y-65465354D01*
X159634850Y-65467174D01*
X159520476Y-65624594D01*
X159431117Y-65799970D01*
X159370290Y-65987173D01*
X159339500Y-66181577D01*
X159339500Y-66378422D01*
X159370290Y-66572826D01*
X159431117Y-66760029D01*
X159520344Y-66935145D01*
X159520476Y-66935405D01*
X159636172Y-67094646D01*
X159775354Y-67233828D01*
X159934595Y-67349524D01*
X160017455Y-67391743D01*
X160109970Y-67438882D01*
X160109972Y-67438882D01*
X160109975Y-67438884D01*
X160210317Y-67471487D01*
X160297173Y-67499709D01*
X160491578Y-67530500D01*
X160491583Y-67530500D01*
X160688422Y-67530500D01*
X160882826Y-67499709D01*
X160884328Y-67499221D01*
X161070025Y-67438884D01*
X161245405Y-67349524D01*
X161404646Y-67233828D01*
X161543828Y-67094646D01*
X161659524Y-66935405D01*
X161748884Y-66760025D01*
X161809709Y-66572826D01*
X161817188Y-66525606D01*
X161840500Y-66378422D01*
X161840500Y-66181577D01*
X161809709Y-65987173D01*
X161748882Y-65799970D01*
X161667875Y-65640985D01*
X161659524Y-65624595D01*
X161543828Y-65465354D01*
X161404646Y-65326172D01*
X161280975Y-65236319D01*
X161245403Y-65210474D01*
X161068787Y-65120485D01*
X161017990Y-65072511D01*
X161001195Y-65004690D01*
X161023732Y-64938555D01*
X161068787Y-64899515D01*
X161245403Y-64809525D01*
X161245402Y-64809525D01*
X161245405Y-64809524D01*
X161404646Y-64693828D01*
X161543828Y-64554646D01*
X161546397Y-64551109D01*
X161601729Y-64508447D01*
X161646712Y-64500000D01*
X167153288Y-64500000D01*
X167220327Y-64519685D01*
X167253602Y-64551109D01*
X167256172Y-64554646D01*
X167395354Y-64693828D01*
X167514784Y-64780600D01*
X167554596Y-64809525D01*
X167731763Y-64899795D01*
X167782560Y-64947769D01*
X167799355Y-65015590D01*
X167776818Y-65081725D01*
X167731764Y-65120765D01*
X167554859Y-65210902D01*
X167519873Y-65236320D01*
X167519872Y-65236320D01*
X168163554Y-65880000D01*
X168157339Y-65880000D01*
X168055606Y-65907259D01*
X167964394Y-65959920D01*
X167889920Y-66034394D01*
X167837259Y-66125606D01*
X167810000Y-66227339D01*
X167810000Y-66233552D01*
X167166320Y-65589872D01*
X167166320Y-65589873D01*
X167140902Y-65624859D01*
X167140899Y-65624863D01*
X167051582Y-65800161D01*
X166990778Y-65987294D01*
X166960000Y-66181617D01*
X166960000Y-66378382D01*
X166990778Y-66572705D01*
X167051581Y-66759835D01*
X167140905Y-66935145D01*
X167166319Y-66970125D01*
X167166320Y-66970125D01*
X167810000Y-66326445D01*
X167810000Y-66332661D01*
X167837259Y-66434394D01*
X167889920Y-66525606D01*
X167964394Y-66600080D01*
X168055606Y-66652741D01*
X168157339Y-66680000D01*
X168163553Y-66680000D01*
X167519873Y-67323677D01*
X167519873Y-67323678D01*
X167554858Y-67349096D01*
X167730164Y-67438418D01*
X167917294Y-67499221D01*
X168111618Y-67530000D01*
X168308382Y-67530000D01*
X168502705Y-67499221D01*
X168689835Y-67438418D01*
X168865143Y-67349095D01*
X168900125Y-67323678D01*
X168900126Y-67323678D01*
X168256448Y-66680000D01*
X168262661Y-66680000D01*
X168364394Y-66652741D01*
X168455606Y-66600080D01*
X168530080Y-66525606D01*
X168582741Y-66434394D01*
X168610000Y-66332661D01*
X168610000Y-66326448D01*
X169253678Y-66970126D01*
X169253678Y-66970125D01*
X169275682Y-66939841D01*
X169331012Y-66897176D01*
X169400625Y-66891197D01*
X169462420Y-66923803D01*
X169496778Y-66984642D01*
X169500000Y-67012727D01*
X169500000Y-69125500D01*
X169480315Y-69192539D01*
X169427511Y-69238294D01*
X169376000Y-69249500D01*
X168302129Y-69249500D01*
X168302123Y-69249501D01*
X168242516Y-69255908D01*
X168107671Y-69306202D01*
X168107664Y-69306206D01*
X167992456Y-69392452D01*
X167992455Y-69392453D01*
X167992454Y-69392454D01*
X167949141Y-69450312D01*
X167893209Y-69492182D01*
X167849876Y-69500000D01*
X152467452Y-69500000D01*
X152400413Y-69480315D01*
X152354658Y-69427511D01*
X152344714Y-69358353D01*
X152373739Y-69294797D01*
X152394563Y-69275684D01*
X152424646Y-69253828D01*
X152563828Y-69114646D01*
X152679524Y-68955405D01*
X152768884Y-68780025D01*
X152829709Y-68592826D01*
X152860500Y-68398422D01*
X152860500Y-68201577D01*
X152829709Y-68007173D01*
X152768882Y-67819970D01*
X152679523Y-67644594D01*
X152563828Y-67485354D01*
X152424646Y-67346172D01*
X152270019Y-67233828D01*
X152265403Y-67230474D01*
X152088787Y-67140485D01*
X152037990Y-67092511D01*
X152021195Y-67024690D01*
X152043732Y-66958555D01*
X152088787Y-66919515D01*
X152265403Y-66829525D01*
X152265402Y-66829525D01*
X152265405Y-66829524D01*
X152424646Y-66713828D01*
X152563828Y-66574646D01*
X152679524Y-66415405D01*
X152768884Y-66240025D01*
X152829709Y-66052826D01*
X152840107Y-65987174D01*
X152860500Y-65858422D01*
X152860500Y-65661577D01*
X152829709Y-65467173D01*
X152768882Y-65279970D01*
X152721743Y-65187455D01*
X152679524Y-65104595D01*
X152563828Y-64945354D01*
X152424646Y-64806172D01*
X152270019Y-64693828D01*
X152265403Y-64690474D01*
X152088787Y-64600485D01*
X152037990Y-64552511D01*
X152021195Y-64484690D01*
X152043732Y-64418555D01*
X152088787Y-64379515D01*
X152265403Y-64289525D01*
X152265402Y-64289525D01*
X152265405Y-64289524D01*
X152424646Y-64173828D01*
X152563828Y-64034646D01*
X152679524Y-63875405D01*
X152768884Y-63700025D01*
X152829709Y-63512826D01*
X152840107Y-63447174D01*
X152860500Y-63318422D01*
X152860500Y-63121577D01*
X152829709Y-62927173D01*
X152768882Y-62739970D01*
X152721743Y-62647455D01*
X152679524Y-62564595D01*
X152563828Y-62405354D01*
X152424646Y-62266172D01*
X152265405Y-62150476D01*
X152090029Y-62061117D01*
X151902826Y-62000290D01*
X151708422Y-61969500D01*
X151708417Y-61969500D01*
X151511583Y-61969500D01*
X151511578Y-61969500D01*
X151317173Y-62000290D01*
X151129970Y-62061117D01*
X150954594Y-62150476D01*
X150863741Y-62216485D01*
X150795354Y-62266172D01*
X150795352Y-62266174D01*
X150795351Y-62266174D01*
X150656174Y-62405351D01*
X150656174Y-62405352D01*
X150656172Y-62405354D01*
X150606485Y-62473741D01*
X150540476Y-62564594D01*
X150451117Y-62739970D01*
X150390290Y-62927173D01*
X150359500Y-63121577D01*
X150359500Y-63318422D01*
X150390290Y-63512826D01*
X150451117Y-63700029D01*
X150521630Y-63838417D01*
X150540476Y-63875405D01*
X150656172Y-64034646D01*
X150795354Y-64173828D01*
X150954595Y-64289524D01*
X151077992Y-64352397D01*
X151131213Y-64379515D01*
X151182009Y-64427489D01*
X151198804Y-64495310D01*
X151176267Y-64561445D01*
X151131213Y-64600485D01*
X150954594Y-64690476D01*
X150863741Y-64756485D01*
X150795354Y-64806172D01*
X150795352Y-64806174D01*
X150795351Y-64806174D01*
X150656174Y-64945351D01*
X150656174Y-64945352D01*
X150656172Y-64945354D01*
X150613062Y-65004690D01*
X150540476Y-65104594D01*
X150451117Y-65279970D01*
X150390290Y-65467173D01*
X150359500Y-65661577D01*
X150359500Y-65858422D01*
X150390290Y-66052826D01*
X150451117Y-66240029D01*
X150498316Y-66332661D01*
X150540476Y-66415405D01*
X150656172Y-66574646D01*
X150795354Y-66713828D01*
X150954595Y-66829524D01*
X151075636Y-66891197D01*
X151131213Y-66919515D01*
X151182009Y-66967489D01*
X151198804Y-67035310D01*
X151176267Y-67101445D01*
X151131213Y-67140485D01*
X150954594Y-67230476D01*
X150863741Y-67296485D01*
X150795354Y-67346172D01*
X150795352Y-67346174D01*
X150795351Y-67346174D01*
X150656174Y-67485351D01*
X150656174Y-67485352D01*
X150656172Y-67485354D01*
X150606485Y-67553741D01*
X150540476Y-67644594D01*
X150451117Y-67819970D01*
X150390290Y-68007173D01*
X150359500Y-68201577D01*
X150359500Y-68398422D01*
X150390290Y-68592826D01*
X150451117Y-68780029D01*
X150540476Y-68955405D01*
X150656172Y-69114646D01*
X150795354Y-69253828D01*
X150825434Y-69275683D01*
X150868099Y-69331013D01*
X150874078Y-69400626D01*
X150841472Y-69462421D01*
X150780633Y-69496778D01*
X150752548Y-69500000D01*
X144847452Y-69500000D01*
X144780413Y-69480315D01*
X144734658Y-69427511D01*
X144724714Y-69358353D01*
X144753739Y-69294797D01*
X144774563Y-69275684D01*
X144804646Y-69253828D01*
X144943828Y-69114646D01*
X145059524Y-68955405D01*
X145148884Y-68780025D01*
X145209709Y-68592826D01*
X145240500Y-68398422D01*
X145240500Y-68201577D01*
X145209709Y-68007173D01*
X145148882Y-67819970D01*
X145059523Y-67644594D01*
X144943828Y-67485354D01*
X144804646Y-67346172D01*
X144650019Y-67233828D01*
X144645403Y-67230474D01*
X144468787Y-67140485D01*
X144417990Y-67092511D01*
X144401195Y-67024690D01*
X144423732Y-66958555D01*
X144468787Y-66919515D01*
X144645403Y-66829525D01*
X144645402Y-66829525D01*
X144645405Y-66829524D01*
X144804646Y-66713828D01*
X144943828Y-66574646D01*
X145059524Y-66415405D01*
X145148884Y-66240025D01*
X145209709Y-66052826D01*
X145220107Y-65987174D01*
X145240500Y-65858422D01*
X145240500Y-65661577D01*
X145209709Y-65467173D01*
X145148882Y-65279970D01*
X145101743Y-65187455D01*
X145059524Y-65104595D01*
X144943828Y-64945354D01*
X144804646Y-64806172D01*
X144645405Y-64690476D01*
X144470025Y-64601116D01*
X144470024Y-64601115D01*
X144468235Y-64600204D01*
X144417439Y-64552230D01*
X144400644Y-64484409D01*
X144423181Y-64418274D01*
X144468236Y-64379234D01*
X144645141Y-64289097D01*
X144680125Y-64263678D01*
X144680126Y-64263678D01*
X144036448Y-63620000D01*
X144042661Y-63620000D01*
X144144394Y-63592741D01*
X144235606Y-63540080D01*
X144310080Y-63465606D01*
X144362741Y-63374394D01*
X144390000Y-63272661D01*
X144390000Y-63266448D01*
X145033678Y-63910126D01*
X145033678Y-63910125D01*
X145059095Y-63875143D01*
X145148418Y-63699835D01*
X145209221Y-63512705D01*
X145240000Y-63318382D01*
X145240000Y-63121617D01*
X145209221Y-62927294D01*
X145148418Y-62740164D01*
X145059096Y-62564858D01*
X145033678Y-62529873D01*
X145033677Y-62529873D01*
X144390000Y-63173551D01*
X144390000Y-63167339D01*
X144362741Y-63065606D01*
X144310080Y-62974394D01*
X144235606Y-62899920D01*
X144144394Y-62847259D01*
X144042661Y-62820000D01*
X144036447Y-62820000D01*
X144680125Y-62176320D01*
X144680125Y-62176319D01*
X144645145Y-62150905D01*
X144469835Y-62061581D01*
X144282705Y-62000778D01*
X144088382Y-61970000D01*
X143891618Y-61970000D01*
X143697294Y-62000778D01*
X143510161Y-62061582D01*
X143334863Y-62150899D01*
X143334859Y-62150902D01*
X143299873Y-62176320D01*
X143299872Y-62176320D01*
X143943554Y-62820000D01*
X143937339Y-62820000D01*
X143835606Y-62847259D01*
X143744394Y-62899920D01*
X143669920Y-62974394D01*
X143617259Y-63065606D01*
X143590000Y-63167339D01*
X143590000Y-63173552D01*
X142946320Y-62529872D01*
X142946320Y-62529873D01*
X142920902Y-62564859D01*
X142920899Y-62564863D01*
X142831582Y-62740161D01*
X142770778Y-62927294D01*
X142740000Y-63121617D01*
X142740000Y-63318382D01*
X142770778Y-63512705D01*
X142831581Y-63699835D01*
X142920905Y-63875145D01*
X142946319Y-63910125D01*
X142946320Y-63910125D01*
X143590000Y-63266445D01*
X143590000Y-63272661D01*
X143617259Y-63374394D01*
X143669920Y-63465606D01*
X143744394Y-63540080D01*
X143835606Y-63592741D01*
X143937339Y-63620000D01*
X143943553Y-63620000D01*
X143299873Y-64263677D01*
X143299873Y-64263678D01*
X143334858Y-64289096D01*
X143511764Y-64379234D01*
X143562560Y-64427209D01*
X143579355Y-64495030D01*
X143556818Y-64561164D01*
X143511764Y-64600204D01*
X143334594Y-64690476D01*
X143243741Y-64756485D01*
X143175354Y-64806172D01*
X143175352Y-64806174D01*
X143175351Y-64806174D01*
X143036174Y-64945351D01*
X143036174Y-64945352D01*
X143036172Y-64945354D01*
X142993062Y-65004690D01*
X142920476Y-65104594D01*
X142831117Y-65279970D01*
X142770290Y-65467173D01*
X142739500Y-65661577D01*
X142739500Y-65858422D01*
X142770290Y-66052826D01*
X142831117Y-66240029D01*
X142878316Y-66332661D01*
X142920476Y-66415405D01*
X143036172Y-66574646D01*
X143175354Y-66713828D01*
X143334595Y-66829524D01*
X143455636Y-66891197D01*
X143511213Y-66919515D01*
X143562009Y-66967489D01*
X143578804Y-67035310D01*
X143556267Y-67101445D01*
X143511213Y-67140485D01*
X143334594Y-67230476D01*
X143243741Y-67296485D01*
X143175354Y-67346172D01*
X143175352Y-67346174D01*
X143175351Y-67346174D01*
X143036174Y-67485351D01*
X143036174Y-67485352D01*
X143036172Y-67485354D01*
X142986485Y-67553741D01*
X142920476Y-67644594D01*
X142831117Y-67819970D01*
X142770290Y-68007173D01*
X142739500Y-68201577D01*
X142739500Y-68398422D01*
X142770290Y-68592826D01*
X142831117Y-68780029D01*
X142920476Y-68955405D01*
X143036172Y-69114646D01*
X143175354Y-69253828D01*
X143205434Y-69275683D01*
X143248099Y-69331013D01*
X143254078Y-69400626D01*
X143221472Y-69462421D01*
X143160633Y-69496778D01*
X143132548Y-69500000D01*
X142124000Y-69500000D01*
X142056961Y-69480315D01*
X142011206Y-69427511D01*
X142000000Y-69376000D01*
X142000000Y-59111304D01*
X150049500Y-59111304D01*
X150049500Y-59288695D01*
X150084103Y-59462658D01*
X150084106Y-59462667D01*
X150151983Y-59626540D01*
X150151990Y-59626553D01*
X150250535Y-59774034D01*
X150250538Y-59774038D01*
X150375961Y-59899461D01*
X150375965Y-59899464D01*
X150523446Y-59998009D01*
X150523459Y-59998016D01*
X150627514Y-60041116D01*
X150687334Y-60065894D01*
X150687336Y-60065894D01*
X150687341Y-60065896D01*
X150861304Y-60100499D01*
X150861307Y-60100500D01*
X150861309Y-60100500D01*
X151038693Y-60100500D01*
X151038694Y-60100499D01*
X151096682Y-60088964D01*
X151212658Y-60065896D01*
X151212661Y-60065894D01*
X151212666Y-60065894D01*
X151376547Y-59998013D01*
X151524035Y-59899464D01*
X151649464Y-59774035D01*
X151748013Y-59626547D01*
X151815894Y-59462666D01*
X151850500Y-59288691D01*
X151850500Y-59111309D01*
X151850500Y-59111306D01*
X151850499Y-59111304D01*
X151815896Y-58937341D01*
X151815893Y-58937332D01*
X151748016Y-58773459D01*
X151748009Y-58773446D01*
X151649464Y-58625965D01*
X151649461Y-58625961D01*
X151524038Y-58500538D01*
X151524034Y-58500535D01*
X151376553Y-58401990D01*
X151376540Y-58401983D01*
X151212667Y-58334106D01*
X151212658Y-58334103D01*
X151038694Y-58299500D01*
X151038691Y-58299500D01*
X150861309Y-58299500D01*
X150861306Y-58299500D01*
X150687341Y-58334103D01*
X150687332Y-58334106D01*
X150523459Y-58401983D01*
X150523446Y-58401990D01*
X150375965Y-58500535D01*
X150375961Y-58500538D01*
X150250538Y-58625961D01*
X150250535Y-58625965D01*
X150151990Y-58773446D01*
X150151983Y-58773459D01*
X150084106Y-58937332D01*
X150084103Y-58937341D01*
X150049500Y-59111304D01*
X142000000Y-59111304D01*
X142000000Y-56711304D01*
X150049500Y-56711304D01*
X150049500Y-56888695D01*
X150084103Y-57062658D01*
X150084106Y-57062667D01*
X150151983Y-57226540D01*
X150151990Y-57226553D01*
X150250535Y-57374034D01*
X150250538Y-57374038D01*
X150375961Y-57499461D01*
X150375965Y-57499464D01*
X150523446Y-57598009D01*
X150523459Y-57598016D01*
X150646363Y-57648923D01*
X150687334Y-57665894D01*
X150687336Y-57665894D01*
X150687341Y-57665896D01*
X150861304Y-57700499D01*
X150861307Y-57700500D01*
X150861309Y-57700500D01*
X151038693Y-57700500D01*
X151038694Y-57700499D01*
X151096682Y-57688964D01*
X151212658Y-57665896D01*
X151212661Y-57665894D01*
X151212666Y-57665894D01*
X151376547Y-57598013D01*
X151524035Y-57499464D01*
X151649464Y-57374035D01*
X151748013Y-57226547D01*
X151815894Y-57062666D01*
X151850500Y-56888691D01*
X151850500Y-56711309D01*
X151850500Y-56711306D01*
X151850499Y-56711304D01*
X151815896Y-56537341D01*
X151815893Y-56537332D01*
X151748016Y-56373459D01*
X151748009Y-56373446D01*
X151649464Y-56225965D01*
X151649461Y-56225961D01*
X151524038Y-56100538D01*
X151524034Y-56100535D01*
X151376553Y-56001990D01*
X151376540Y-56001983D01*
X151212667Y-55934106D01*
X151212658Y-55934103D01*
X151038694Y-55899500D01*
X151038691Y-55899500D01*
X150861309Y-55899500D01*
X150861306Y-55899500D01*
X150687341Y-55934103D01*
X150687332Y-55934106D01*
X150523459Y-56001983D01*
X150523446Y-56001990D01*
X150375965Y-56100535D01*
X150375961Y-56100538D01*
X150250538Y-56225961D01*
X150250535Y-56225965D01*
X150151990Y-56373446D01*
X150151983Y-56373459D01*
X150084106Y-56537332D01*
X150084103Y-56537341D01*
X150049500Y-56711304D01*
X142000000Y-56711304D01*
X142000000Y-54124000D01*
X142019685Y-54056961D01*
X142072489Y-54011206D01*
X142124000Y-54000000D01*
X155376000Y-54000000D01*
X155443039Y-54019685D01*
G37*
%TD.AperFunction*%
%TA.AperFunction,Conductor*%
G36*
X169443039Y-64519685D02*
G01*
X169488794Y-64572489D01*
X169500000Y-64624000D01*
X169500000Y-65547272D01*
X169480315Y-65614311D01*
X169427511Y-65660066D01*
X169358353Y-65670010D01*
X169294797Y-65640985D01*
X169275682Y-65620157D01*
X169253679Y-65589873D01*
X169253677Y-65589873D01*
X168610000Y-66233551D01*
X168610000Y-66227339D01*
X168582741Y-66125606D01*
X168530080Y-66034394D01*
X168455606Y-65959920D01*
X168364394Y-65907259D01*
X168262661Y-65880000D01*
X168256447Y-65880000D01*
X168900125Y-65236320D01*
X168900125Y-65236319D01*
X168865145Y-65210905D01*
X168688235Y-65120765D01*
X168637439Y-65072790D01*
X168620644Y-65004969D01*
X168643182Y-64938834D01*
X168688236Y-64899795D01*
X168690022Y-64898884D01*
X168690025Y-64898884D01*
X168865405Y-64809524D01*
X169024646Y-64693828D01*
X169163828Y-64554646D01*
X169166397Y-64551109D01*
X169170727Y-64547771D01*
X169172999Y-64542797D01*
X169198100Y-64526665D01*
X169221729Y-64508447D01*
X169228397Y-64507194D01*
X169231777Y-64505023D01*
X169266712Y-64500000D01*
X169376000Y-64500000D01*
X169443039Y-64519685D01*
G37*
%TD.AperFunction*%
%TD*%
%TA.AperFunction,Conductor*%
%TO.N,+3V3DRV*%
G36*
X153943039Y-137119685D02*
G01*
X153988794Y-137172489D01*
X154000000Y-137224000D01*
X154000000Y-146876000D01*
X153980315Y-146943039D01*
X153927511Y-146988794D01*
X153876000Y-147000000D01*
X148009234Y-147000000D01*
X147942195Y-146980315D01*
X147921553Y-146963681D01*
X147436319Y-146478447D01*
X147402834Y-146417124D01*
X147400000Y-146390766D01*
X147400000Y-142051255D01*
X147419685Y-141984216D01*
X147472489Y-141938461D01*
X147541647Y-141928517D01*
X147548290Y-141929658D01*
X147821080Y-141984216D01*
X147899999Y-142000000D01*
X147900000Y-142000000D01*
X147900000Y-137224000D01*
X147919685Y-137156961D01*
X147972489Y-137111206D01*
X148024000Y-137100000D01*
X153876000Y-137100000D01*
X153943039Y-137119685D01*
G37*
%TD.AperFunction*%
%TD*%
%TA.AperFunction,Conductor*%
%TO.N,+VDD_FILTERED*%
G36*
X259981138Y-73113329D02*
G01*
X259987324Y-73115891D01*
X259987336Y-73115895D01*
X260161304Y-73150499D01*
X260161307Y-73150500D01*
X260276000Y-73150500D01*
X260343039Y-73170185D01*
X260388794Y-73222989D01*
X260400000Y-73274500D01*
X260400000Y-77773477D01*
X260390561Y-77820929D01*
X260330264Y-77966498D01*
X260330261Y-77966510D01*
X260299500Y-78121153D01*
X260299500Y-78278846D01*
X260330261Y-78433489D01*
X260330264Y-78433501D01*
X260390561Y-78579071D01*
X260400000Y-78626523D01*
X260400000Y-82276000D01*
X260380315Y-82343039D01*
X260327511Y-82388794D01*
X260276000Y-82400000D01*
X254591301Y-82400000D01*
X254543850Y-82390561D01*
X254447036Y-82350460D01*
X254447030Y-82350458D01*
X254316533Y-82324500D01*
X254316531Y-82324500D01*
X254183469Y-82324500D01*
X254183467Y-82324500D01*
X254052969Y-82350458D01*
X254052963Y-82350460D01*
X254011921Y-82367460D01*
X253956149Y-82390561D01*
X253908699Y-82400000D01*
X250924500Y-82400000D01*
X250857461Y-82380315D01*
X250811706Y-82327511D01*
X250800500Y-82276000D01*
X250800500Y-82211306D01*
X250800499Y-82211304D01*
X250765896Y-82037341D01*
X250765893Y-82037332D01*
X250761408Y-82026505D01*
X250698944Y-81875700D01*
X250698016Y-81873459D01*
X250698009Y-81873446D01*
X250599464Y-81725965D01*
X250599461Y-81725961D01*
X250474038Y-81600538D01*
X250474034Y-81600535D01*
X250326553Y-81501990D01*
X250326540Y-81501983D01*
X250162667Y-81434106D01*
X250162658Y-81434103D01*
X249988694Y-81399500D01*
X249988691Y-81399500D01*
X249811309Y-81399500D01*
X249811306Y-81399500D01*
X249637341Y-81434103D01*
X249637332Y-81434106D01*
X249473459Y-81501983D01*
X249473446Y-81501990D01*
X249325965Y-81600535D01*
X249325961Y-81600538D01*
X249237681Y-81688819D01*
X249176358Y-81722304D01*
X249106666Y-81717320D01*
X249062319Y-81688819D01*
X248974038Y-81600538D01*
X248974034Y-81600535D01*
X248826553Y-81501990D01*
X248826540Y-81501983D01*
X248662667Y-81434106D01*
X248662658Y-81434103D01*
X248488694Y-81399500D01*
X248488691Y-81399500D01*
X248311309Y-81399500D01*
X248311306Y-81399500D01*
X248137341Y-81434103D01*
X248137332Y-81434106D01*
X247973459Y-81501983D01*
X247973446Y-81501990D01*
X247825965Y-81600535D01*
X247825961Y-81600538D01*
X247787681Y-81638819D01*
X247726358Y-81672304D01*
X247656666Y-81667320D01*
X247612319Y-81638819D01*
X247574038Y-81600538D01*
X247574034Y-81600535D01*
X247426553Y-81501990D01*
X247426540Y-81501983D01*
X247262667Y-81434106D01*
X247262658Y-81434103D01*
X247088694Y-81399500D01*
X247088691Y-81399500D01*
X246911309Y-81399500D01*
X246911306Y-81399500D01*
X246737341Y-81434103D01*
X246737332Y-81434106D01*
X246573459Y-81501983D01*
X246573446Y-81501990D01*
X246425965Y-81600535D01*
X246425961Y-81600538D01*
X246387681Y-81638819D01*
X246326358Y-81672304D01*
X246256666Y-81667320D01*
X246212319Y-81638819D01*
X246174038Y-81600538D01*
X246174034Y-81600535D01*
X246026553Y-81501990D01*
X246026540Y-81501983D01*
X245862667Y-81434106D01*
X245862658Y-81434103D01*
X245688694Y-81399500D01*
X245688691Y-81399500D01*
X245511309Y-81399500D01*
X245511306Y-81399500D01*
X245337341Y-81434103D01*
X245337332Y-81434106D01*
X245173459Y-81501983D01*
X245173446Y-81501990D01*
X245025965Y-81600535D01*
X245025961Y-81600538D01*
X244937681Y-81688819D01*
X244876358Y-81722304D01*
X244806666Y-81717320D01*
X244762319Y-81688819D01*
X244674038Y-81600538D01*
X244674034Y-81600535D01*
X244526553Y-81501990D01*
X244526540Y-81501983D01*
X244362667Y-81434106D01*
X244362658Y-81434103D01*
X244188694Y-81399500D01*
X244188691Y-81399500D01*
X244011309Y-81399500D01*
X244011306Y-81399500D01*
X243837341Y-81434103D01*
X243837332Y-81434106D01*
X243673459Y-81501983D01*
X243673446Y-81501990D01*
X243525965Y-81600535D01*
X243525961Y-81600538D01*
X243400538Y-81725961D01*
X243400535Y-81725965D01*
X243301990Y-81873446D01*
X243301983Y-81873459D01*
X243234106Y-82037332D01*
X243234103Y-82037341D01*
X243199500Y-82211304D01*
X243199500Y-82276000D01*
X243179815Y-82343039D01*
X243127011Y-82388794D01*
X243075500Y-82400000D01*
X240501380Y-82400000D01*
X240486272Y-82395564D01*
X240470539Y-82396103D01*
X240453437Y-82385922D01*
X240434341Y-82380315D01*
X240423253Y-82367954D01*
X240410502Y-82360363D01*
X240395568Y-82337088D01*
X240390415Y-82331343D01*
X240388481Y-82327466D01*
X240348620Y-82231231D01*
X240316538Y-82183216D01*
X240313035Y-82176193D01*
X240308208Y-82149213D01*
X240300020Y-82123062D01*
X240300000Y-82120850D01*
X240300000Y-80611304D01*
X241599500Y-80611304D01*
X241599500Y-80788695D01*
X241634103Y-80962658D01*
X241634106Y-80962667D01*
X241701983Y-81126540D01*
X241701990Y-81126553D01*
X241800535Y-81274034D01*
X241800538Y-81274038D01*
X241925961Y-81399461D01*
X241925965Y-81399464D01*
X242073446Y-81498009D01*
X242073459Y-81498016D01*
X242196363Y-81548923D01*
X242237334Y-81565894D01*
X242237336Y-81565894D01*
X242237341Y-81565896D01*
X242411304Y-81600499D01*
X242411307Y-81600500D01*
X242411309Y-81600500D01*
X242588693Y-81600500D01*
X242588694Y-81600499D01*
X242646682Y-81588964D01*
X242762658Y-81565896D01*
X242762661Y-81565894D01*
X242762666Y-81565894D01*
X242916953Y-81501987D01*
X242926540Y-81498016D01*
X242926540Y-81498015D01*
X242926547Y-81498013D01*
X243074035Y-81399464D01*
X243199464Y-81274035D01*
X243298013Y-81126547D01*
X243365894Y-80962666D01*
X243400500Y-80788691D01*
X243400500Y-80611309D01*
X243400500Y-80611306D01*
X243400499Y-80611304D01*
X243370803Y-80462011D01*
X250648793Y-80462011D01*
X250648793Y-80639402D01*
X250683396Y-80813365D01*
X250683399Y-80813374D01*
X250751276Y-80977247D01*
X250751283Y-80977260D01*
X250849828Y-81124741D01*
X250849831Y-81124745D01*
X250975254Y-81250168D01*
X250975258Y-81250171D01*
X251122739Y-81348716D01*
X251122752Y-81348723D01*
X251245247Y-81399461D01*
X251286627Y-81416601D01*
X251286629Y-81416601D01*
X251286634Y-81416603D01*
X251460597Y-81451206D01*
X251460600Y-81451207D01*
X251460602Y-81451207D01*
X251637986Y-81451207D01*
X251637987Y-81451206D01*
X251723956Y-81434106D01*
X251811951Y-81416603D01*
X251811954Y-81416601D01*
X251811959Y-81416601D01*
X251975840Y-81348720D01*
X252123328Y-81250171D01*
X252248757Y-81124742D01*
X252347306Y-80977254D01*
X252353349Y-80962666D01*
X252357251Y-80953242D01*
X252415187Y-80813373D01*
X252420097Y-80788693D01*
X252449792Y-80639402D01*
X252449793Y-80639400D01*
X252449793Y-80462013D01*
X252449792Y-80462011D01*
X252415189Y-80288048D01*
X252415186Y-80288039D01*
X252409144Y-80273453D01*
X252378498Y-80199464D01*
X252347309Y-80124166D01*
X252347302Y-80124153D01*
X252248757Y-79976672D01*
X252248754Y-79976668D01*
X252123331Y-79851245D01*
X252123327Y-79851242D01*
X251975846Y-79752697D01*
X251975833Y-79752690D01*
X251811960Y-79684813D01*
X251811951Y-79684810D01*
X251637987Y-79650207D01*
X251637984Y-79650207D01*
X251460602Y-79650207D01*
X251460599Y-79650207D01*
X251286634Y-79684810D01*
X251286625Y-79684813D01*
X251122752Y-79752690D01*
X251122739Y-79752697D01*
X250975258Y-79851242D01*
X250975254Y-79851245D01*
X250849831Y-79976668D01*
X250849828Y-79976672D01*
X250751283Y-80124153D01*
X250751276Y-80124166D01*
X250683399Y-80288039D01*
X250683396Y-80288048D01*
X250648793Y-80462011D01*
X243370803Y-80462011D01*
X243365896Y-80437341D01*
X243365893Y-80437332D01*
X243298016Y-80273459D01*
X243298009Y-80273446D01*
X243199464Y-80125965D01*
X243199461Y-80125961D01*
X243074038Y-80000538D01*
X243074034Y-80000535D01*
X242926553Y-79901990D01*
X242926540Y-79901983D01*
X242762667Y-79834106D01*
X242762658Y-79834103D01*
X242588694Y-79799500D01*
X242588691Y-79799500D01*
X242411309Y-79799500D01*
X242411306Y-79799500D01*
X242237341Y-79834103D01*
X242237332Y-79834106D01*
X242073459Y-79901983D01*
X242073446Y-79901990D01*
X241925965Y-80000535D01*
X241925961Y-80000538D01*
X241800538Y-80125961D01*
X241800535Y-80125965D01*
X241701990Y-80273446D01*
X241701983Y-80273459D01*
X241634106Y-80437332D01*
X241634103Y-80437341D01*
X241599500Y-80611304D01*
X240300000Y-80611304D01*
X240300000Y-79066533D01*
X245074499Y-79066533D01*
X245100458Y-79197030D01*
X245100461Y-79197040D01*
X245151376Y-79319961D01*
X245151386Y-79319979D01*
X245225301Y-79430601D01*
X245225307Y-79430609D01*
X245319390Y-79524692D01*
X245319398Y-79524698D01*
X245430020Y-79598613D01*
X245430023Y-79598614D01*
X245430031Y-79598620D01*
X245430037Y-79598622D01*
X245430038Y-79598623D01*
X245552959Y-79649538D01*
X245552964Y-79649540D01*
X245552968Y-79649540D01*
X245552969Y-79649541D01*
X245683466Y-79675500D01*
X245683469Y-79675500D01*
X245816533Y-79675500D01*
X245882227Y-79662431D01*
X245947036Y-79649540D01*
X245959482Y-79644384D01*
X246028946Y-79636913D01*
X246091427Y-79668185D01*
X246127083Y-79728272D01*
X246128553Y-79734752D01*
X246134104Y-79762659D01*
X246134106Y-79762667D01*
X246201983Y-79926540D01*
X246201990Y-79926553D01*
X246300535Y-80074034D01*
X246300538Y-80074038D01*
X246425961Y-80199461D01*
X246425965Y-80199464D01*
X246573446Y-80298009D01*
X246573459Y-80298016D01*
X246678110Y-80341363D01*
X246737334Y-80365894D01*
X246737336Y-80365894D01*
X246737341Y-80365896D01*
X246911304Y-80400499D01*
X246911307Y-80400500D01*
X246911309Y-80400500D01*
X247088693Y-80400500D01*
X247088694Y-80400499D01*
X247146682Y-80388964D01*
X247262658Y-80365896D01*
X247262661Y-80365894D01*
X247262666Y-80365894D01*
X247426547Y-80298013D01*
X247574035Y-80199464D01*
X247699464Y-80074035D01*
X247798013Y-79926547D01*
X247865894Y-79762666D01*
X247865894Y-79762661D01*
X247865896Y-79762658D01*
X247900499Y-79588695D01*
X247900500Y-79588693D01*
X247900500Y-79411306D01*
X247900499Y-79411304D01*
X247865896Y-79237341D01*
X247865893Y-79237332D01*
X247798016Y-79073459D01*
X247798009Y-79073446D01*
X247699464Y-78925965D01*
X247699461Y-78925961D01*
X247574038Y-78800538D01*
X247574034Y-78800535D01*
X247426553Y-78701990D01*
X247426540Y-78701983D01*
X247262667Y-78634106D01*
X247262658Y-78634103D01*
X247088694Y-78599500D01*
X247088691Y-78599500D01*
X246911309Y-78599500D01*
X246911306Y-78599500D01*
X246737341Y-78634103D01*
X246737332Y-78634106D01*
X246573459Y-78701983D01*
X246573448Y-78701989D01*
X246530110Y-78730947D01*
X246463432Y-78751824D01*
X246396052Y-78733339D01*
X246352505Y-78684859D01*
X246351490Y-78685402D01*
X246348623Y-78680038D01*
X246348620Y-78680031D01*
X246312887Y-78626553D01*
X246274698Y-78569398D01*
X246274692Y-78569390D01*
X246180609Y-78475307D01*
X246180601Y-78475301D01*
X246069979Y-78401386D01*
X246069972Y-78401382D01*
X246069969Y-78401380D01*
X246069965Y-78401378D01*
X246069961Y-78401376D01*
X245947040Y-78350461D01*
X245947030Y-78350458D01*
X245816533Y-78324500D01*
X245816531Y-78324500D01*
X245683469Y-78324500D01*
X245683467Y-78324500D01*
X245552969Y-78350458D01*
X245552959Y-78350461D01*
X245430038Y-78401376D01*
X245430020Y-78401386D01*
X245319398Y-78475301D01*
X245319390Y-78475307D01*
X245225307Y-78569390D01*
X245225301Y-78569398D01*
X245151386Y-78680020D01*
X245151376Y-78680038D01*
X245100461Y-78802959D01*
X245100458Y-78802969D01*
X245074500Y-78933466D01*
X245074500Y-78933469D01*
X245074500Y-79066531D01*
X245074500Y-79066533D01*
X245074499Y-79066533D01*
X240300000Y-79066533D01*
X240300000Y-78610847D01*
X240319685Y-78543808D01*
X240320865Y-78542005D01*
X240398013Y-78426547D01*
X240465894Y-78262666D01*
X240496002Y-78111304D01*
X253899500Y-78111304D01*
X253899500Y-78288695D01*
X253934103Y-78462658D01*
X253934106Y-78462667D01*
X254001983Y-78626540D01*
X254001990Y-78626553D01*
X254100535Y-78774034D01*
X254100538Y-78774038D01*
X254225961Y-78899461D01*
X254225965Y-78899464D01*
X254373446Y-78998009D01*
X254373459Y-78998016D01*
X254496363Y-79048923D01*
X254537334Y-79065894D01*
X254537336Y-79065894D01*
X254537341Y-79065896D01*
X254711304Y-79100499D01*
X254711307Y-79100500D01*
X254711309Y-79100500D01*
X254888693Y-79100500D01*
X254888694Y-79100499D01*
X254946682Y-79088964D01*
X255062658Y-79065896D01*
X255062661Y-79065894D01*
X255062666Y-79065894D01*
X255226547Y-78998013D01*
X255374035Y-78899464D01*
X255499464Y-78774035D01*
X255598013Y-78626547D01*
X255665894Y-78462666D01*
X255671696Y-78433501D01*
X255678383Y-78399882D01*
X255710768Y-78337971D01*
X255771483Y-78303397D01*
X255841253Y-78307136D01*
X255897925Y-78348003D01*
X255921617Y-78399882D01*
X255934103Y-78462658D01*
X255934106Y-78462667D01*
X256001983Y-78626540D01*
X256001990Y-78626553D01*
X256100535Y-78774034D01*
X256100538Y-78774038D01*
X256225961Y-78899461D01*
X256225965Y-78899464D01*
X256373446Y-78998009D01*
X256373459Y-78998016D01*
X256496363Y-79048923D01*
X256537334Y-79065894D01*
X256537336Y-79065894D01*
X256537341Y-79065896D01*
X256711304Y-79100499D01*
X256711307Y-79100500D01*
X256711309Y-79100500D01*
X256888693Y-79100500D01*
X256888694Y-79100499D01*
X256946682Y-79088964D01*
X257062658Y-79065896D01*
X257062661Y-79065894D01*
X257062666Y-79065894D01*
X257226547Y-78998013D01*
X257374035Y-78899464D01*
X257499464Y-78774035D01*
X257598013Y-78626547D01*
X257665894Y-78462666D01*
X257671696Y-78433501D01*
X257678383Y-78399882D01*
X257710768Y-78337971D01*
X257771483Y-78303397D01*
X257841253Y-78307136D01*
X257897925Y-78348003D01*
X257921617Y-78399882D01*
X257934103Y-78462658D01*
X257934106Y-78462667D01*
X258001983Y-78626540D01*
X258001990Y-78626553D01*
X258100535Y-78774034D01*
X258100538Y-78774038D01*
X258225961Y-78899461D01*
X258225965Y-78899464D01*
X258373446Y-78998009D01*
X258373459Y-78998016D01*
X258496363Y-79048923D01*
X258537334Y-79065894D01*
X258537336Y-79065894D01*
X258537341Y-79065896D01*
X258711304Y-79100499D01*
X258711307Y-79100500D01*
X258711309Y-79100500D01*
X258888693Y-79100500D01*
X258888694Y-79100499D01*
X258946682Y-79088964D01*
X259062658Y-79065896D01*
X259062661Y-79065894D01*
X259062666Y-79065894D01*
X259226547Y-78998013D01*
X259374035Y-78899464D01*
X259499464Y-78774035D01*
X259598013Y-78626547D01*
X259665894Y-78462666D01*
X259671696Y-78433501D01*
X259700499Y-78288695D01*
X259700500Y-78288693D01*
X259700500Y-78111306D01*
X259700499Y-78111304D01*
X259665896Y-77937341D01*
X259665893Y-77937332D01*
X259598016Y-77773459D01*
X259598009Y-77773446D01*
X259499464Y-77625965D01*
X259499461Y-77625961D01*
X259374038Y-77500538D01*
X259374034Y-77500535D01*
X259226553Y-77401990D01*
X259226540Y-77401983D01*
X259062667Y-77334106D01*
X259062658Y-77334103D01*
X258888694Y-77299500D01*
X258888691Y-77299500D01*
X258711309Y-77299500D01*
X258711306Y-77299500D01*
X258537341Y-77334103D01*
X258537332Y-77334106D01*
X258373459Y-77401983D01*
X258373446Y-77401990D01*
X258225965Y-77500535D01*
X258225961Y-77500538D01*
X258100538Y-77625961D01*
X258100535Y-77625965D01*
X258001990Y-77773446D01*
X258001983Y-77773459D01*
X257934106Y-77937332D01*
X257934104Y-77937340D01*
X257921617Y-78000118D01*
X257889232Y-78062028D01*
X257828516Y-78096603D01*
X257758747Y-78092863D01*
X257702075Y-78051996D01*
X257678383Y-78000118D01*
X257665895Y-77937340D01*
X257665894Y-77937334D01*
X257617678Y-77820929D01*
X257598016Y-77773459D01*
X257598009Y-77773446D01*
X257499464Y-77625965D01*
X257499461Y-77625961D01*
X257374038Y-77500538D01*
X257374034Y-77500535D01*
X257226553Y-77401990D01*
X257226540Y-77401983D01*
X257062667Y-77334106D01*
X257062658Y-77334103D01*
X256888694Y-77299500D01*
X256888691Y-77299500D01*
X256711309Y-77299500D01*
X256711306Y-77299500D01*
X256537341Y-77334103D01*
X256537332Y-77334106D01*
X256373459Y-77401983D01*
X256373446Y-77401990D01*
X256225965Y-77500535D01*
X256225961Y-77500538D01*
X256100538Y-77625961D01*
X256100535Y-77625965D01*
X256001990Y-77773446D01*
X256001983Y-77773459D01*
X255934106Y-77937332D01*
X255934104Y-77937340D01*
X255921617Y-78000118D01*
X255889232Y-78062028D01*
X255828516Y-78096603D01*
X255758747Y-78092863D01*
X255702075Y-78051996D01*
X255678383Y-78000118D01*
X255665895Y-77937340D01*
X255665894Y-77937334D01*
X255617678Y-77820929D01*
X255598016Y-77773459D01*
X255598009Y-77773446D01*
X255499464Y-77625965D01*
X255499461Y-77625961D01*
X255374038Y-77500538D01*
X255374034Y-77500535D01*
X255226553Y-77401990D01*
X255226540Y-77401983D01*
X255062667Y-77334106D01*
X255062658Y-77334103D01*
X254888694Y-77299500D01*
X254888691Y-77299500D01*
X254711309Y-77299500D01*
X254711306Y-77299500D01*
X254537341Y-77334103D01*
X254537332Y-77334106D01*
X254373459Y-77401983D01*
X254373446Y-77401990D01*
X254225965Y-77500535D01*
X254225961Y-77500538D01*
X254100538Y-77625961D01*
X254100535Y-77625965D01*
X254001990Y-77773446D01*
X254001983Y-77773459D01*
X253934106Y-77937332D01*
X253934103Y-77937341D01*
X253899500Y-78111304D01*
X240496002Y-78111304D01*
X240500500Y-78088691D01*
X240500500Y-77911309D01*
X240500500Y-77911306D01*
X240500499Y-77911304D01*
X240465896Y-77737341D01*
X240465893Y-77737332D01*
X240398016Y-77573459D01*
X240398009Y-77573446D01*
X240320898Y-77458042D01*
X240300020Y-77391365D01*
X240300000Y-77389151D01*
X240300000Y-76602494D01*
X240300099Y-76597529D01*
X240328073Y-75899464D01*
X240359658Y-75111304D01*
X246199500Y-75111304D01*
X246199500Y-75288695D01*
X246234103Y-75462658D01*
X246234106Y-75462667D01*
X246301983Y-75626540D01*
X246301990Y-75626553D01*
X246400535Y-75774034D01*
X246400538Y-75774038D01*
X246525961Y-75899461D01*
X246525965Y-75899464D01*
X246673446Y-75998009D01*
X246673459Y-75998016D01*
X246796363Y-76048923D01*
X246837334Y-76065894D01*
X246837336Y-76065894D01*
X246837341Y-76065896D01*
X247011304Y-76100499D01*
X247011307Y-76100500D01*
X247011309Y-76100500D01*
X247188693Y-76100500D01*
X247188694Y-76100499D01*
X247246682Y-76088964D01*
X247362658Y-76065896D01*
X247362661Y-76065894D01*
X247362666Y-76065894D01*
X247526547Y-75998013D01*
X247674035Y-75899464D01*
X247799464Y-75774035D01*
X247898013Y-75626547D01*
X247965894Y-75462666D01*
X248000500Y-75288691D01*
X248000500Y-75111309D01*
X248000500Y-75111306D01*
X248000499Y-75111304D01*
X247965896Y-74937341D01*
X247965893Y-74937332D01*
X247898016Y-74773459D01*
X247898009Y-74773446D01*
X247799464Y-74625965D01*
X247799461Y-74625961D01*
X247674038Y-74500538D01*
X247674034Y-74500535D01*
X247526553Y-74401990D01*
X247526540Y-74401983D01*
X247362667Y-74334106D01*
X247362658Y-74334103D01*
X247188694Y-74299500D01*
X247188691Y-74299500D01*
X247011309Y-74299500D01*
X247011306Y-74299500D01*
X246837341Y-74334103D01*
X246837332Y-74334106D01*
X246673459Y-74401983D01*
X246673446Y-74401990D01*
X246525965Y-74500535D01*
X246525961Y-74500538D01*
X246400538Y-74625961D01*
X246400535Y-74625965D01*
X246301990Y-74773446D01*
X246301983Y-74773459D01*
X246234106Y-74937332D01*
X246234103Y-74937341D01*
X246199500Y-75111304D01*
X240359658Y-75111304D01*
X240428860Y-73384453D01*
X240451214Y-73318257D01*
X240505807Y-73274653D01*
X240551725Y-73265424D01*
X242492239Y-73249251D01*
X242559439Y-73268376D01*
X242605632Y-73320797D01*
X242616152Y-73389871D01*
X242587657Y-73453666D01*
X242562163Y-73476349D01*
X242525961Y-73500538D01*
X242400538Y-73625961D01*
X242400535Y-73625965D01*
X242301990Y-73773446D01*
X242301983Y-73773459D01*
X242234106Y-73937332D01*
X242234103Y-73937341D01*
X242199500Y-74111304D01*
X242199500Y-74288695D01*
X242234103Y-74462658D01*
X242234106Y-74462667D01*
X242301983Y-74626540D01*
X242301990Y-74626553D01*
X242400535Y-74774034D01*
X242400538Y-74774038D01*
X242525961Y-74899461D01*
X242525965Y-74899464D01*
X242673446Y-74998009D01*
X242673459Y-74998016D01*
X242796363Y-75048923D01*
X242837334Y-75065894D01*
X242837336Y-75065894D01*
X242837341Y-75065896D01*
X243011304Y-75100499D01*
X243011307Y-75100500D01*
X243011309Y-75100500D01*
X243188693Y-75100500D01*
X243188694Y-75100499D01*
X243246682Y-75088964D01*
X243362658Y-75065896D01*
X243362661Y-75065894D01*
X243362666Y-75065894D01*
X243526547Y-74998013D01*
X243674035Y-74899464D01*
X243799464Y-74774035D01*
X243898013Y-74626547D01*
X243965894Y-74462666D01*
X244000500Y-74288691D01*
X244000500Y-74111309D01*
X244000500Y-74111306D01*
X244000499Y-74111304D01*
X243965896Y-73937341D01*
X243965893Y-73937332D01*
X243898016Y-73773459D01*
X243898009Y-73773446D01*
X243799464Y-73625965D01*
X243799461Y-73625961D01*
X243674038Y-73500538D01*
X243674034Y-73500535D01*
X243622888Y-73466360D01*
X243578083Y-73412748D01*
X243569376Y-73343423D01*
X243599531Y-73280395D01*
X243658974Y-73243676D01*
X243690742Y-73239262D01*
X250443469Y-73182982D01*
X250510670Y-73202107D01*
X250556863Y-73254528D01*
X250567383Y-73323602D01*
X250538888Y-73387397D01*
X250530085Y-73396041D01*
X250530272Y-73396228D01*
X250400538Y-73525961D01*
X250400535Y-73525965D01*
X250301990Y-73673446D01*
X250301983Y-73673459D01*
X250234106Y-73837332D01*
X250234103Y-73837341D01*
X250199500Y-74011304D01*
X250199500Y-74188695D01*
X250234103Y-74362658D01*
X250234106Y-74362667D01*
X250301983Y-74526540D01*
X250301990Y-74526553D01*
X250400535Y-74674034D01*
X250400538Y-74674038D01*
X250525961Y-74799461D01*
X250525965Y-74799464D01*
X250673446Y-74898009D01*
X250673459Y-74898016D01*
X250768378Y-74937332D01*
X250837334Y-74965894D01*
X250837336Y-74965894D01*
X250837341Y-74965896D01*
X251011304Y-75000499D01*
X251011307Y-75000500D01*
X251011309Y-75000500D01*
X251188693Y-75000500D01*
X251188694Y-75000499D01*
X251246682Y-74988964D01*
X251362658Y-74965896D01*
X251362661Y-74965894D01*
X251362666Y-74965894D01*
X251526547Y-74898013D01*
X251674035Y-74799464D01*
X251799464Y-74674035D01*
X251898013Y-74526547D01*
X251965894Y-74362666D01*
X252000500Y-74188691D01*
X252000500Y-74011309D01*
X252000500Y-74011306D01*
X252000499Y-74011304D01*
X251965896Y-73837341D01*
X251965893Y-73837332D01*
X251898016Y-73673459D01*
X251898009Y-73673446D01*
X251799464Y-73525965D01*
X251799461Y-73525961D01*
X251674038Y-73400538D01*
X251674032Y-73400533D01*
X251672146Y-73399273D01*
X251671381Y-73398357D01*
X251669327Y-73396672D01*
X251669646Y-73396282D01*
X251627341Y-73345660D01*
X251618635Y-73276335D01*
X251648791Y-73213308D01*
X251708234Y-73176590D01*
X251740002Y-73172176D01*
X259932656Y-73103895D01*
X259981138Y-73113329D01*
G37*
%TD.AperFunction*%
%TD*%
%TA.AperFunction,Conductor*%
%TO.N,+5V*%
G36*
X159476499Y-180299505D02*
G01*
X159543456Y-180319458D01*
X159589000Y-180372444D01*
X159600000Y-180423504D01*
X159600000Y-185176000D01*
X159580315Y-185243039D01*
X159527511Y-185288794D01*
X159476000Y-185300000D01*
X148337019Y-185300000D01*
X148269980Y-185280315D01*
X148224225Y-185227511D01*
X148213634Y-185163662D01*
X148228028Y-185019718D01*
X148300000Y-184300000D01*
X148299999Y-184300000D01*
X147224000Y-184300000D01*
X147156961Y-184280315D01*
X147111206Y-184227511D01*
X147100000Y-184176000D01*
X147100000Y-180374496D01*
X147119685Y-180307457D01*
X147172489Y-180261702D01*
X147224491Y-180250497D01*
X159476499Y-180299505D01*
G37*
%TD.AperFunction*%
%TD*%
%TA.AperFunction,Conductor*%
%TO.N,+3V3*%
G36*
X177643039Y-149919685D02*
G01*
X177688794Y-149972489D01*
X177700000Y-150024000D01*
X177700000Y-158776000D01*
X177680315Y-158843039D01*
X177627511Y-158888794D01*
X177576000Y-158900000D01*
X170124000Y-158900000D01*
X170056961Y-158880315D01*
X170011206Y-158827511D01*
X170000000Y-158776000D01*
X170000000Y-150024000D01*
X170019685Y-149956961D01*
X170072489Y-149911206D01*
X170124000Y-149900000D01*
X177576000Y-149900000D01*
X177643039Y-149919685D01*
G37*
%TD.AperFunction*%
%TD*%
%TA.AperFunction,Conductor*%
%TO.N,+3V3A*%
G36*
X163044215Y-140619685D02*
G01*
X163089970Y-140672489D01*
X163101170Y-140722819D01*
X163198808Y-150974819D01*
X163179763Y-151042043D01*
X163127397Y-151088299D01*
X163074814Y-151100000D01*
X158224000Y-151100000D01*
X158156961Y-151080315D01*
X158111206Y-151027511D01*
X158100000Y-150976000D01*
X158100000Y-140724000D01*
X158119685Y-140656961D01*
X158172489Y-140611206D01*
X158224000Y-140600000D01*
X162977176Y-140600000D01*
X163044215Y-140619685D01*
G37*
%TD.AperFunction*%
%TD*%
%TA.AperFunction,Conductor*%
%TO.N,-5V*%
G36*
X163943039Y-162119685D02*
G01*
X163988794Y-162172489D01*
X164000000Y-162224000D01*
X164000000Y-167376000D01*
X163980315Y-167443039D01*
X163927511Y-167488794D01*
X163876000Y-167500000D01*
X161727539Y-167500000D01*
X161660500Y-167480315D01*
X161639858Y-167463681D01*
X158286319Y-164110141D01*
X158252834Y-164048818D01*
X158250000Y-164022460D01*
X158250000Y-162224000D01*
X158269685Y-162156961D01*
X158322489Y-162111206D01*
X158374000Y-162100000D01*
X163876000Y-162100000D01*
X163943039Y-162119685D01*
G37*
%TD.AperFunction*%
%TD*%
%TA.AperFunction,NonConductor*%
G36*
X158455203Y-166413520D02*
G01*
X158461681Y-166419552D01*
X159330448Y-167288319D01*
X159363933Y-167349642D01*
X159358949Y-167419334D01*
X159317077Y-167475267D01*
X159251613Y-167499684D01*
X159242767Y-167500000D01*
X158374000Y-167500000D01*
X158306961Y-167480315D01*
X158261206Y-167427511D01*
X158250000Y-167376000D01*
X158250000Y-166507233D01*
X158269685Y-166440194D01*
X158322489Y-166394439D01*
X158391647Y-166384495D01*
X158455203Y-166413520D01*
G37*
%TD.AperFunction*%
%TA.AperFunction,Conductor*%
%TO.N,-3V5*%
G36*
X203679404Y-71879185D02*
G01*
X203725159Y-71931989D01*
X203736322Y-71980238D01*
X203996651Y-81872738D01*
X203978737Y-81940272D01*
X203927155Y-81987400D01*
X203872694Y-82000000D01*
X195124000Y-82000000D01*
X195056961Y-81980315D01*
X195011206Y-81927511D01*
X195000000Y-81876000D01*
X195000000Y-78802135D01*
X196749500Y-78802135D01*
X196749500Y-80597870D01*
X196749501Y-80597876D01*
X196755908Y-80657483D01*
X196806202Y-80792328D01*
X196806206Y-80792335D01*
X196892452Y-80907544D01*
X196892455Y-80907547D01*
X197007664Y-80993793D01*
X197007671Y-80993797D01*
X197142517Y-81044091D01*
X197142516Y-81044091D01*
X197149444Y-81044835D01*
X197202127Y-81050500D01*
X198997872Y-81050499D01*
X199057483Y-81044091D01*
X199192331Y-80993796D01*
X199307546Y-80907546D01*
X199393796Y-80792331D01*
X199444091Y-80657483D01*
X199450500Y-80597873D01*
X199450499Y-78802128D01*
X199444091Y-78742517D01*
X199393796Y-78607669D01*
X199393795Y-78607668D01*
X199393793Y-78607664D01*
X199307547Y-78492455D01*
X199307544Y-78492452D01*
X199192335Y-78406206D01*
X199192328Y-78406202D01*
X199057482Y-78355908D01*
X199057483Y-78355908D01*
X198997883Y-78349501D01*
X198997881Y-78349500D01*
X198997873Y-78349500D01*
X198997864Y-78349500D01*
X197202129Y-78349500D01*
X197202123Y-78349501D01*
X197142516Y-78355908D01*
X197007671Y-78406202D01*
X197007664Y-78406206D01*
X196892455Y-78492452D01*
X196892452Y-78492455D01*
X196806206Y-78607664D01*
X196806202Y-78607671D01*
X196755908Y-78742517D01*
X196749501Y-78802116D01*
X196749501Y-78802123D01*
X196749500Y-78802135D01*
X195000000Y-78802135D01*
X195000000Y-71983500D01*
X195019685Y-71916461D01*
X195072489Y-71870706D01*
X195124000Y-71859500D01*
X203612365Y-71859500D01*
X203679404Y-71879185D01*
G37*
%TD.AperFunction*%
%TD*%
%TA.AperFunction,Conductor*%
%TO.N,+5V*%
G36*
X186693039Y-76769685D02*
G01*
X186738794Y-76822489D01*
X186750000Y-76874000D01*
X186750000Y-84626000D01*
X186730315Y-84693039D01*
X186677511Y-84738794D01*
X186626000Y-84750000D01*
X178624000Y-84750000D01*
X178556961Y-84730315D01*
X178511206Y-84677511D01*
X178500000Y-84626000D01*
X178500000Y-83315211D01*
X178519685Y-83248172D01*
X178555109Y-83212110D01*
X178574035Y-83199464D01*
X178699464Y-83074035D01*
X178798013Y-82926547D01*
X178865894Y-82762666D01*
X178900500Y-82588691D01*
X178900500Y-82411309D01*
X178900500Y-82411306D01*
X178900499Y-82411304D01*
X178865896Y-82237341D01*
X178865893Y-82237332D01*
X178798016Y-82073459D01*
X178798009Y-82073446D01*
X178699464Y-81925965D01*
X178699461Y-81925961D01*
X178574036Y-81800536D01*
X178555107Y-81787888D01*
X178510303Y-81734275D01*
X178500000Y-81684787D01*
X178500000Y-76874000D01*
X178519685Y-76806961D01*
X178572489Y-76761206D01*
X178624000Y-76750000D01*
X186626000Y-76750000D01*
X186693039Y-76769685D01*
G37*
%TD.AperFunction*%
%TD*%
%TA.AperFunction,Conductor*%
%TO.N,+3V3DRV*%
G36*
X253043039Y-98269685D02*
G01*
X253088794Y-98322489D01*
X253100000Y-98374000D01*
X253100000Y-103876000D01*
X253080315Y-103943039D01*
X253027511Y-103988794D01*
X252976000Y-104000000D01*
X241124000Y-104000000D01*
X241056961Y-103980315D01*
X241011206Y-103927511D01*
X241000000Y-103876000D01*
X241000000Y-98374000D01*
X241019685Y-98306961D01*
X241072489Y-98261206D01*
X241124000Y-98250000D01*
X252976000Y-98250000D01*
X253043039Y-98269685D01*
G37*
%TD.AperFunction*%
%TD*%
M02*
