%TF.GenerationSoftware,KiCad,Pcbnew,9.0.5-9.0.5~ubuntu24.04.1*%
%TF.CreationDate,2025-11-23T20:56:38+01:00*%
%TF.ProjectId,DigitalOsciloscope,44696769-7461-46c4-9f73-63696c6f7363,rev?*%
%TF.SameCoordinates,Original*%
%TF.FileFunction,Soldermask,Top*%
%TF.FilePolarity,Negative*%
%FSLAX46Y46*%
G04 Gerber Fmt 4.6, Leading zero omitted, Abs format (unit mm)*
G04 Created by KiCad (PCBNEW 9.0.5-9.0.5~ubuntu24.04.1) date 2025-11-23 20:56:38*
%MOMM*%
%LPD*%
G01*
G04 APERTURE LIST*
G04 Aperture macros list*
%AMRoundRect*
0 Rectangle with rounded corners*
0 $1 Rounding radius*
0 $2 $3 $4 $5 $6 $7 $8 $9 X,Y pos of 4 corners*
0 Add a 4 corners polygon primitive as box body*
4,1,4,$2,$3,$4,$5,$6,$7,$8,$9,$2,$3,0*
0 Add four circle primitives for the rounded corners*
1,1,$1+$1,$2,$3*
1,1,$1+$1,$4,$5*
1,1,$1+$1,$6,$7*
1,1,$1+$1,$8,$9*
0 Add four rect primitives between the rounded corners*
20,1,$1+$1,$2,$3,$4,$5,0*
20,1,$1+$1,$4,$5,$6,$7,0*
20,1,$1+$1,$6,$7,$8,$9,0*
20,1,$1+$1,$8,$9,$2,$3,0*%
%AMFreePoly0*
4,1,9,3.862500,-0.866500,0.737500,-0.866500,0.737500,-0.450000,-0.737500,-0.450000,-0.737500,0.450000,0.737500,0.450000,0.737500,0.866500,3.862500,0.866500,3.862500,-0.866500,3.862500,-0.866500,$1*%
G04 Aperture macros list end*
%ADD10R,0.703200X0.274600*%
%ADD11R,1.600000X1.600000*%
%ADD12C,1.704000*%
%ADD13C,1.712000*%
%ADD14RoundRect,0.102000X0.754000X-0.754000X0.754000X0.754000X-0.754000X0.754000X-0.754000X-0.754000X0*%
%ADD15C,3.200000*%
%ADD16C,6.554000*%
%ADD17C,1.794000*%
%ADD18RoundRect,0.102000X0.795000X0.795000X-0.795000X0.795000X-0.795000X-0.795000X0.795000X-0.795000X0*%
%ADD19RoundRect,0.062500X-0.062500X0.375000X-0.062500X-0.375000X0.062500X-0.375000X0.062500X0.375000X0*%
%ADD20RoundRect,0.062500X-0.375000X0.062500X-0.375000X-0.062500X0.375000X-0.062500X0.375000X0.062500X0*%
%ADD21R,7.150000X7.150000*%
%ADD22RoundRect,0.100500X-0.986500X-0.301500X0.986500X-0.301500X0.986500X0.301500X-0.986500X0.301500X0*%
%ADD23RoundRect,0.100000X-0.100000X0.225000X-0.100000X-0.225000X0.100000X-0.225000X0.100000X0.225000X0*%
%ADD24RoundRect,0.250000X-0.450000X0.262500X-0.450000X-0.262500X0.450000X-0.262500X0.450000X0.262500X0*%
%ADD25RoundRect,0.250000X0.450000X-0.262500X0.450000X0.262500X-0.450000X0.262500X-0.450000X-0.262500X0*%
%ADD26RoundRect,0.250000X-0.262500X-0.450000X0.262500X-0.450000X0.262500X0.450000X-0.262500X0.450000X0*%
%ADD27RoundRect,0.250000X-0.475000X0.250000X-0.475000X-0.250000X0.475000X-0.250000X0.475000X0.250000X0*%
%ADD28RoundRect,0.250000X0.262500X0.450000X-0.262500X0.450000X-0.262500X-0.450000X0.262500X-0.450000X0*%
%ADD29RoundRect,0.250000X0.475000X-0.250000X0.475000X0.250000X-0.475000X0.250000X-0.475000X-0.250000X0*%
%ADD30RoundRect,0.150000X0.587500X0.150000X-0.587500X0.150000X-0.587500X-0.150000X0.587500X-0.150000X0*%
%ADD31R,1.700000X1.700000*%
%ADD32C,1.700000*%
%ADD33RoundRect,0.250000X-0.550000X1.250000X-0.550000X-1.250000X0.550000X-1.250000X0.550000X1.250000X0*%
%ADD34RoundRect,0.218750X0.218750X0.381250X-0.218750X0.381250X-0.218750X-0.381250X0.218750X-0.381250X0*%
%ADD35RoundRect,0.250000X-0.250000X-0.475000X0.250000X-0.475000X0.250000X0.475000X-0.250000X0.475000X0*%
%ADD36RoundRect,0.218750X0.381250X-0.218750X0.381250X0.218750X-0.381250X0.218750X-0.381250X-0.218750X0*%
%ADD37R,2.000000X1.800000*%
%ADD38RoundRect,0.150000X0.150000X-0.587500X0.150000X0.587500X-0.150000X0.587500X-0.150000X-0.587500X0*%
%ADD39RoundRect,0.250000X0.250000X0.475000X-0.250000X0.475000X-0.250000X-0.475000X0.250000X-0.475000X0*%
%ADD40RoundRect,0.218750X-0.218750X-0.381250X0.218750X-0.381250X0.218750X0.381250X-0.218750X0.381250X0*%
%ADD41RoundRect,0.225000X-0.425000X-0.225000X0.425000X-0.225000X0.425000X0.225000X-0.425000X0.225000X0*%
%ADD42FreePoly0,0.000000*%
%ADD43RoundRect,0.218750X-0.381250X0.218750X-0.381250X-0.218750X0.381250X-0.218750X0.381250X0.218750X0*%
%ADD44RoundRect,0.243750X0.243750X0.456250X-0.243750X0.456250X-0.243750X-0.456250X0.243750X-0.456250X0*%
%ADD45R,2.300000X1.600000*%
%ADD46R,0.711200X0.254000*%
%ADD47R,0.254000X0.711200*%
%ADD48R,4.495800X4.495800*%
%ADD49R,1.676400X0.508000*%
%ADD50C,3.556000*%
%ADD51C,3.810000*%
%ADD52RoundRect,0.250001X1.149999X-1.149999X1.149999X1.149999X-1.149999X1.149999X-1.149999X-1.149999X0*%
%ADD53C,2.800000*%
%ADD54RoundRect,0.150000X-0.512500X-0.150000X0.512500X-0.150000X0.512500X0.150000X-0.512500X0.150000X0*%
%ADD55RoundRect,0.225000X0.225000X0.375000X-0.225000X0.375000X-0.225000X-0.375000X0.225000X-0.375000X0*%
%ADD56RoundRect,0.225000X-0.375000X0.225000X-0.375000X-0.225000X0.375000X-0.225000X0.375000X0.225000X0*%
%ADD57RoundRect,0.225000X0.375000X-0.225000X0.375000X0.225000X-0.375000X0.225000X-0.375000X-0.225000X0*%
%ADD58R,0.508000X1.257300*%
%ADD59RoundRect,0.225000X-0.225000X-0.375000X0.225000X-0.375000X0.225000X0.375000X-0.225000X0.375000X0*%
%ADD60RoundRect,0.250000X0.550000X-1.250000X0.550000X1.250000X-0.550000X1.250000X-0.550000X-1.250000X0*%
%ADD61RoundRect,0.225000X-0.225000X0.425000X-0.225000X-0.425000X0.225000X-0.425000X0.225000X0.425000X0*%
%ADD62FreePoly0,270.000000*%
%ADD63R,0.508000X1.676400*%
%ADD64RoundRect,0.225000X0.225000X-0.425000X0.225000X0.425000X-0.225000X0.425000X-0.225000X-0.425000X0*%
%ADD65FreePoly0,90.000000*%
%ADD66RoundRect,0.250000X1.250000X0.550000X-1.250000X0.550000X-1.250000X-0.550000X1.250000X-0.550000X0*%
G04 APERTURE END LIST*
D10*
%TO.C,U6*%
X192323399Y-90549999D03*
X192323399Y-91050000D03*
X192323399Y-91550000D03*
X192323399Y-92050001D03*
X195276601Y-92050001D03*
X195276601Y-91550000D03*
X195276601Y-91050000D03*
X195276601Y-90549999D03*
D11*
X193800000Y-91300000D03*
%TD*%
D10*
%TO.C,U5*%
X191623399Y-63299999D03*
X191623399Y-63800000D03*
X191623399Y-64300000D03*
X191623399Y-64800001D03*
X194576601Y-64800001D03*
X194576601Y-64300000D03*
X194576601Y-63800000D03*
X194576601Y-63299999D03*
D11*
X193100000Y-64050000D03*
%TD*%
D12*
%TO.C,K2*%
X151710000Y-90720000D03*
X151710000Y-93260000D03*
X151710000Y-95800000D03*
X151710000Y-98340000D03*
X151710000Y-100880000D03*
X144090000Y-100880000D03*
X144090000Y-98340000D03*
X144090000Y-95800000D03*
X144090000Y-93260000D03*
X144090000Y-90720000D03*
%TD*%
%TO.C,K3*%
X160390000Y-93530000D03*
X160390000Y-90990000D03*
X160390000Y-88450000D03*
X160390000Y-85910000D03*
X160390000Y-83370000D03*
X168010000Y-83370000D03*
X168010000Y-85910000D03*
X168010000Y-88450000D03*
X168010000Y-90990000D03*
X168010000Y-93530000D03*
%TD*%
D13*
%TO.C,U11*%
X259800000Y-196600000D03*
D14*
X259800000Y-199140000D03*
D13*
X259820000Y-135640000D03*
D14*
X259820000Y-138180000D03*
D13*
X239480000Y-143260000D03*
X239480000Y-145800000D03*
X236940000Y-143260000D03*
X236940000Y-145800000D03*
X234400000Y-143260000D03*
X234400000Y-145800000D03*
X231860000Y-143260000D03*
X231860000Y-145800000D03*
X229320000Y-143260000D03*
X229320000Y-145800000D03*
X226780000Y-143260000D03*
X226780000Y-145800000D03*
X224240000Y-143260000D03*
X224240000Y-145800000D03*
X221700000Y-143260000D03*
X221700000Y-145800000D03*
X219160000Y-143260000D03*
X219160000Y-145800000D03*
X216620000Y-143260000D03*
X216620000Y-145800000D03*
X214080000Y-143260000D03*
X214080000Y-145800000D03*
X211540000Y-143260000D03*
X211540000Y-145800000D03*
X209000000Y-143260000D03*
X209000000Y-145800000D03*
X206460000Y-143260000D03*
X206460000Y-145800000D03*
X203920000Y-143260000D03*
X203920000Y-145800000D03*
X201380000Y-143260000D03*
X201380000Y-145800000D03*
X198840000Y-143260000D03*
D14*
X198840000Y-145800000D03*
D13*
X239480000Y-188980000D03*
X239480000Y-191520000D03*
X236940000Y-188980000D03*
X236940000Y-191520000D03*
X234400000Y-188980000D03*
X234400000Y-191520000D03*
X231860000Y-188980000D03*
X231860000Y-191520000D03*
X229320000Y-188980000D03*
X229320000Y-191520000D03*
X226780000Y-188980000D03*
X226780000Y-191520000D03*
X224240000Y-188980000D03*
X224240000Y-191520000D03*
X221700000Y-188980000D03*
X221700000Y-191520000D03*
X219160000Y-188980000D03*
X219160000Y-191520000D03*
X216620000Y-188980000D03*
X216620000Y-191520000D03*
X214080000Y-188980000D03*
X214080000Y-191520000D03*
X211540000Y-188980000D03*
X211540000Y-191520000D03*
X209000000Y-188980000D03*
X209000000Y-191520000D03*
X206460000Y-188980000D03*
X206460000Y-191520000D03*
X203920000Y-188980000D03*
D14*
X203920000Y-191520000D03*
D13*
X198840000Y-188980000D03*
X198840000Y-191520000D03*
X196300000Y-188980000D03*
X196300000Y-191520000D03*
X193760000Y-188980000D03*
X193760000Y-191520000D03*
X191220000Y-188980000D03*
X191220000Y-191520000D03*
X188680000Y-188980000D03*
X188680000Y-191520000D03*
X186140000Y-188980000D03*
X186140000Y-191520000D03*
X183600000Y-188980000D03*
X183600000Y-191520000D03*
X181060000Y-188980000D03*
D14*
X181060000Y-191520000D03*
D13*
X194776000Y-143260000D03*
X194776000Y-145800000D03*
X192236000Y-143260000D03*
X192236000Y-145800000D03*
X189696000Y-143260000D03*
X189696000Y-145800000D03*
X187156000Y-143260000D03*
X187156000Y-145800000D03*
X184616000Y-143260000D03*
X184616000Y-145800000D03*
X182076000Y-143260000D03*
X182076000Y-145800000D03*
X179536000Y-143260000D03*
X179536000Y-145800000D03*
X176996000Y-143260000D03*
X176996000Y-145800000D03*
X174456000Y-143260000D03*
X174456000Y-145800000D03*
X171916000Y-143260000D03*
D14*
X171916000Y-145800000D03*
D13*
X145500000Y-135640000D03*
D14*
X142960000Y-135640000D03*
D13*
X145500000Y-199140000D03*
D14*
X142960000Y-199140000D03*
D15*
X168360000Y-143260000D03*
X243290000Y-144530000D03*
X219160000Y-158500000D03*
X243290000Y-190250000D03*
X167090000Y-191520000D03*
%TD*%
D16*
%TO.C,U10*%
X224790000Y-126290000D03*
X267210000Y-126290000D03*
X224790000Y-57460000D03*
X267210000Y-57460000D03*
D17*
X268860000Y-70670000D03*
X266320000Y-70670000D03*
X268860000Y-73210000D03*
X266320000Y-73210000D03*
X268860000Y-75750000D03*
X266320000Y-75750000D03*
X268860000Y-78290000D03*
X266320000Y-78290000D03*
X268860000Y-80830000D03*
X266320000Y-80830000D03*
X268860000Y-83370000D03*
X266320000Y-83370000D03*
X268860000Y-85910000D03*
X266320000Y-85910000D03*
X268860000Y-88450000D03*
X266320000Y-88450000D03*
X268860000Y-90990000D03*
X266320000Y-90990000D03*
X268860000Y-93530000D03*
X266320000Y-93530000D03*
X268860000Y-96070000D03*
X266320000Y-96070000D03*
X268860000Y-98610000D03*
X266320000Y-98610000D03*
X268860000Y-101150000D03*
X266320000Y-101150000D03*
X268860000Y-103690000D03*
X266320000Y-103690000D03*
X268860000Y-106230000D03*
X266320000Y-106230000D03*
X268860000Y-108770000D03*
X266320000Y-108770000D03*
X268860000Y-111310000D03*
X266320000Y-111310000D03*
X268860000Y-113850000D03*
X266320000Y-113850000D03*
X268860000Y-116390000D03*
X266320000Y-116390000D03*
X268860000Y-118930000D03*
D18*
X266320000Y-118930000D03*
D17*
X223010000Y-118930000D03*
X225550000Y-118930000D03*
X223010000Y-116390000D03*
X225550000Y-116390000D03*
X223010000Y-113850000D03*
X225550000Y-113850000D03*
X223010000Y-111310000D03*
X225550000Y-111310000D03*
X223010000Y-108770000D03*
X225550000Y-108770000D03*
X223010000Y-106230000D03*
X225550000Y-106230000D03*
X223010000Y-103690000D03*
X225550000Y-103690000D03*
X223010000Y-101150000D03*
X225550000Y-101150000D03*
X223010000Y-98610000D03*
X225550000Y-98610000D03*
X223010000Y-96070000D03*
X225550000Y-96070000D03*
X223010000Y-93530000D03*
X225550000Y-93530000D03*
X223010000Y-90990000D03*
X225550000Y-90990000D03*
X223010000Y-88450000D03*
X225550000Y-88450000D03*
X223010000Y-85910000D03*
X225550000Y-85910000D03*
X223010000Y-83370000D03*
X225550000Y-83370000D03*
X223010000Y-80830000D03*
X225550000Y-80830000D03*
X223010000Y-78290000D03*
X225550000Y-78290000D03*
X223010000Y-75750000D03*
X225550000Y-75750000D03*
X223010000Y-73210000D03*
X225550000Y-73210000D03*
X223010000Y-70670000D03*
D18*
X225550000Y-70670000D03*
%TD*%
D19*
%TO.C,U9*%
X250750000Y-80692500D03*
X250250000Y-80692500D03*
X249750000Y-80692500D03*
X249250000Y-80692500D03*
X248750000Y-80692500D03*
X248250000Y-80692500D03*
X247750000Y-80692500D03*
X247250000Y-80692500D03*
X246750000Y-80692500D03*
X246250000Y-80692500D03*
X245750000Y-80692500D03*
X245250000Y-80692500D03*
X244750000Y-80692500D03*
X244250000Y-80692500D03*
X243750000Y-80692500D03*
X243250000Y-80692500D03*
D20*
X242562500Y-81380000D03*
X242562500Y-81880000D03*
X242562500Y-82380000D03*
X242562500Y-82880000D03*
X242562500Y-83380000D03*
X242562500Y-83880000D03*
X242562500Y-84380000D03*
X242562500Y-84880000D03*
X242562500Y-85380000D03*
X242562500Y-85880000D03*
X242562500Y-86380000D03*
X242562500Y-86880000D03*
X242562500Y-87380000D03*
X242562500Y-87880000D03*
X242562500Y-88380000D03*
X242562500Y-88880000D03*
D19*
X243250000Y-89567500D03*
X243750000Y-89567500D03*
X244250000Y-89567500D03*
X244750000Y-89567500D03*
X245250000Y-89567500D03*
X245750000Y-89567500D03*
X246250000Y-89567500D03*
X246750000Y-89567500D03*
X247250000Y-89567500D03*
X247750000Y-89567500D03*
X248250000Y-89567500D03*
X248750000Y-89567500D03*
X249250000Y-89567500D03*
X249750000Y-89567500D03*
X250250000Y-89567500D03*
X250750000Y-89567500D03*
D20*
X251437500Y-88880000D03*
X251437500Y-88380000D03*
X251437500Y-87880000D03*
X251437500Y-87380000D03*
X251437500Y-86880000D03*
X251437500Y-86380000D03*
X251437500Y-85880000D03*
X251437500Y-85380000D03*
X251437500Y-84880000D03*
X251437500Y-84380000D03*
X251437500Y-83880000D03*
X251437500Y-83380000D03*
X251437500Y-82880000D03*
X251437500Y-82380000D03*
X251437500Y-81880000D03*
X251437500Y-81380000D03*
D21*
X247000000Y-85130000D03*
%TD*%
D22*
%TO.C,U3*%
X177200000Y-61200000D03*
X177200000Y-62470000D03*
X177200000Y-63740000D03*
X177200000Y-65010000D03*
X182140000Y-65010000D03*
X182140000Y-63740000D03*
X182140000Y-62470000D03*
X182140000Y-61200000D03*
%TD*%
%TO.C,U2*%
X177200000Y-88530000D03*
X177200000Y-89800000D03*
X177200000Y-91070000D03*
X177200000Y-92340000D03*
X182140000Y-92340000D03*
X182140000Y-91070000D03*
X182140000Y-89800000D03*
X182140000Y-88530000D03*
%TD*%
D12*
%TO.C,K7*%
X161220000Y-111310000D03*
X163760000Y-111310000D03*
X166300000Y-111310000D03*
X168840000Y-111310000D03*
X171380000Y-111310000D03*
X171380000Y-103690000D03*
X168840000Y-103690000D03*
X166300000Y-103690000D03*
X163760000Y-103690000D03*
X161220000Y-103690000D03*
%TD*%
%TO.C,K6*%
X150290000Y-114620000D03*
X150290000Y-117160000D03*
X150290000Y-119700000D03*
X150290000Y-122240000D03*
X150290000Y-124780000D03*
X157910000Y-124780000D03*
X157910000Y-122240000D03*
X157910000Y-119700000D03*
X157910000Y-117160000D03*
X157910000Y-114620000D03*
%TD*%
%TO.C,K5*%
X146310000Y-124780000D03*
X146310000Y-122240000D03*
X146310000Y-119700000D03*
X146310000Y-117160000D03*
X146310000Y-114620000D03*
X138690000Y-114620000D03*
X138690000Y-117160000D03*
X138690000Y-119700000D03*
X138690000Y-122240000D03*
X138690000Y-124780000D03*
%TD*%
%TO.C,K1*%
X143990000Y-63220000D03*
X143990000Y-65760000D03*
X143990000Y-68300000D03*
X143990000Y-70840000D03*
X143990000Y-73380000D03*
X151610000Y-73380000D03*
X151610000Y-70840000D03*
X151610000Y-68300000D03*
X151610000Y-65760000D03*
X151610000Y-63220000D03*
%TD*%
D23*
%TO.C,D2*%
X172050000Y-60250000D03*
X171400000Y-60250000D03*
X170750000Y-60250000D03*
X170750000Y-62150000D03*
X171400000Y-62150000D03*
X172050000Y-62150000D03*
%TD*%
%TO.C,D1*%
X172050000Y-87150000D03*
X171400000Y-87150000D03*
X170750000Y-87150000D03*
X170750000Y-89050000D03*
X171400000Y-89050000D03*
X172050000Y-89050000D03*
%TD*%
D24*
%TO.C,R61*%
X216200000Y-116712500D03*
X216200000Y-114887500D03*
%TD*%
D25*
%TO.C,R59*%
X220000000Y-114887500D03*
X220000000Y-116712500D03*
%TD*%
%TO.C,R60*%
X227700000Y-72412500D03*
X227700000Y-70587500D03*
%TD*%
D26*
%TO.C,R35*%
X184312500Y-103800000D03*
X182487500Y-103800000D03*
%TD*%
D27*
%TO.C,C113*%
X153900000Y-152500000D03*
X153900000Y-154400000D03*
%TD*%
D28*
%TO.C,R44*%
X194612500Y-55800000D03*
X192787500Y-55800000D03*
%TD*%
D29*
%TO.C,C85*%
X233300000Y-81150000D03*
X233300000Y-79250000D03*
%TD*%
D30*
%TO.C,Q5*%
X187137500Y-150150000D03*
X187137500Y-148250000D03*
X185262500Y-149200000D03*
%TD*%
D28*
%TO.C,R14*%
X170039950Y-73877450D03*
X168214950Y-73877450D03*
%TD*%
D31*
%TO.C,J10*%
X188700000Y-104260000D03*
D32*
X188700000Y-106800000D03*
%TD*%
D33*
%TO.C,C127*%
X149900000Y-194700000D03*
X149900000Y-199100000D03*
%TD*%
D34*
%TO.C,L20*%
X206462500Y-87700000D03*
X204337500Y-87700000D03*
%TD*%
D35*
%TO.C,C43*%
X155250000Y-133500000D03*
X157150000Y-133500000D03*
%TD*%
D29*
%TO.C,C90*%
X239600000Y-81150000D03*
X239600000Y-79250000D03*
%TD*%
D35*
%TO.C,C1*%
X139000000Y-89600000D03*
X140900000Y-89600000D03*
%TD*%
D36*
%TO.C,L34*%
X246200000Y-69762500D03*
X246200000Y-67637500D03*
%TD*%
D37*
%TO.C,Y1*%
X200100000Y-118860000D03*
X200100000Y-121400000D03*
X200100000Y-123940000D03*
X204300000Y-123940000D03*
X204300000Y-121400000D03*
X204300000Y-118860000D03*
%TD*%
D26*
%TO.C,R7*%
X130175000Y-123200000D03*
X132000000Y-123200000D03*
%TD*%
D38*
%TO.C,Q2*%
X242550000Y-195737500D03*
X244450000Y-195737500D03*
X243500000Y-193862500D03*
%TD*%
D26*
%TO.C,R28*%
X192237500Y-67350000D03*
X194062500Y-67350000D03*
%TD*%
D39*
%TO.C,C144*%
X180450000Y-122600000D03*
X178550000Y-122600000D03*
%TD*%
D34*
%TO.C,L61*%
X180562500Y-114500000D03*
X178437500Y-114500000D03*
%TD*%
D35*
%TO.C,C97*%
X252150000Y-91300000D03*
X254050000Y-91300000D03*
%TD*%
D29*
%TO.C,C95*%
X246000000Y-78250000D03*
X246000000Y-76350000D03*
%TD*%
D40*
%TO.C,L54*%
X143137500Y-194500000D03*
X145262500Y-194500000D03*
%TD*%
D27*
%TO.C,C39*%
X168300000Y-119550000D03*
X168300000Y-121450000D03*
%TD*%
%TO.C,C108*%
X165100000Y-156100000D03*
X165100000Y-158000000D03*
%TD*%
D28*
%TO.C,R78*%
X227712500Y-196900000D03*
X225887500Y-196900000D03*
%TD*%
D29*
%TO.C,C31*%
X177000000Y-69100000D03*
X177000000Y-67200000D03*
%TD*%
D28*
%TO.C,R42*%
X194812500Y-83700000D03*
X192987500Y-83700000D03*
%TD*%
D31*
%TO.C,TP22*%
X218900000Y-96900000D03*
%TD*%
D26*
%TO.C,R98*%
X135575000Y-157900000D03*
X137400000Y-157900000D03*
%TD*%
D41*
%TO.C,U16*%
X146500000Y-142800000D03*
D42*
X146587500Y-144300000D03*
D41*
X146500000Y-145800000D03*
%TD*%
D34*
%TO.C,L3*%
X184162500Y-94800000D03*
X182037500Y-94800000D03*
%TD*%
D26*
%TO.C,R99*%
X135575000Y-150900000D03*
X137400000Y-150900000D03*
%TD*%
D39*
%TO.C,C19*%
X174850000Y-92900000D03*
X172950000Y-92900000D03*
%TD*%
D43*
%TO.C,L36*%
X248000000Y-67637500D03*
X248000000Y-69762500D03*
%TD*%
D44*
%TO.C,D14*%
X133637500Y-157860000D03*
X131762500Y-157860000D03*
%TD*%
D40*
%TO.C,L29*%
X208275000Y-53600000D03*
X210400000Y-53600000D03*
%TD*%
D39*
%TO.C,C30*%
X187450000Y-85300000D03*
X185550000Y-85300000D03*
%TD*%
D31*
%TO.C,J8*%
X198769047Y-104260000D03*
D32*
X198769047Y-106800000D03*
%TD*%
D31*
%TO.C,TP7*%
X179800000Y-74800000D03*
%TD*%
D28*
%TO.C,R83*%
X189300000Y-157600000D03*
X187475000Y-157600000D03*
%TD*%
D31*
%TO.C,TP24*%
X192500000Y-126600000D03*
%TD*%
D25*
%TO.C,R88*%
X167300000Y-154400000D03*
X167300000Y-152575000D03*
%TD*%
%TO.C,R37*%
X230900000Y-56712500D03*
X230900000Y-54887500D03*
%TD*%
D31*
%TO.C,J7*%
X209900000Y-98760000D03*
D32*
X209900000Y-101300000D03*
X209900000Y-103840000D03*
%TD*%
D45*
%TO.C,C5*%
X139450000Y-56800000D03*
X144150000Y-56800000D03*
%TD*%
D31*
%TO.C,J5*%
X209800000Y-118940000D03*
D32*
X209800000Y-121480000D03*
X209800000Y-124020000D03*
%TD*%
D27*
%TO.C,C109*%
X157200000Y-152500000D03*
X157200000Y-154400000D03*
%TD*%
D43*
%TO.C,L57*%
X176500000Y-120737500D03*
X176500000Y-122862500D03*
%TD*%
D39*
%TO.C,C122*%
X148850000Y-138500000D03*
X146950000Y-138500000D03*
%TD*%
D26*
%TO.C,R1*%
X139017500Y-92200000D03*
X140842500Y-92200000D03*
%TD*%
D30*
%TO.C,Q7*%
X192237500Y-164950000D03*
X192237500Y-163050000D03*
X190362500Y-164000000D03*
%TD*%
D25*
%TO.C,R62*%
X264200000Y-105712500D03*
X264200000Y-103887500D03*
%TD*%
D35*
%TO.C,C7*%
X138450000Y-101900000D03*
X140350000Y-101900000D03*
%TD*%
D27*
%TO.C,C52*%
X197600000Y-93900000D03*
X197600000Y-95800000D03*
%TD*%
D39*
%TO.C,C107*%
X145400000Y-181700000D03*
X143500000Y-181700000D03*
%TD*%
D27*
%TO.C,C44*%
X170400000Y-119550000D03*
X170400000Y-121450000D03*
%TD*%
D33*
%TO.C,C104*%
X161100000Y-155000000D03*
X161100000Y-159400000D03*
%TD*%
D44*
%TO.C,D19*%
X133450000Y-140550000D03*
X131575000Y-140550000D03*
%TD*%
D26*
%TO.C,R26*%
X192237500Y-69500000D03*
X194062500Y-69500000D03*
%TD*%
D39*
%TO.C,C24*%
X187400000Y-87400000D03*
X185500000Y-87400000D03*
%TD*%
D25*
%TO.C,R80*%
X189600000Y-150112500D03*
X189600000Y-148287500D03*
%TD*%
D28*
%TO.C,R74*%
X213825000Y-196700000D03*
X212000000Y-196700000D03*
%TD*%
D26*
%TO.C,R13*%
X156175000Y-70600000D03*
X158000000Y-70600000D03*
%TD*%
%TO.C,R86*%
X149387500Y-177400000D03*
X151212500Y-177400000D03*
%TD*%
D40*
%TO.C,L37*%
X240037500Y-97600000D03*
X242162500Y-97600000D03*
%TD*%
D31*
%TO.C,TP20*%
X193400000Y-76600000D03*
%TD*%
D27*
%TO.C,C47*%
X198700000Y-59450000D03*
X198700000Y-61350000D03*
%TD*%
D26*
%TO.C,R3*%
X147687500Y-86200000D03*
X149512500Y-86200000D03*
%TD*%
D25*
%TO.C,R109*%
X157200000Y-166712500D03*
X157200000Y-164887500D03*
%TD*%
D31*
%TO.C,TP3*%
X171800000Y-55800000D03*
%TD*%
D36*
%TO.C,L19*%
X204000000Y-97362500D03*
X204000000Y-95237500D03*
%TD*%
D29*
%TO.C,C86*%
X256800000Y-81350000D03*
X256800000Y-79450000D03*
%TD*%
D25*
%TO.C,R73*%
X219062500Y-195862500D03*
X219062500Y-194037500D03*
%TD*%
%TO.C,R39*%
X216400000Y-106725000D03*
X216400000Y-104900000D03*
%TD*%
D35*
%TO.C,C14*%
X163150000Y-98400000D03*
X165050000Y-98400000D03*
%TD*%
%TO.C,C151*%
X182150000Y-118400000D03*
X184050000Y-118400000D03*
%TD*%
D26*
%TO.C,R27*%
X192887500Y-97000000D03*
X194712500Y-97000000D03*
%TD*%
D29*
%TO.C,C53*%
X197600000Y-88200000D03*
X197600000Y-86300000D03*
%TD*%
D40*
%TO.C,L26*%
X200237500Y-74900000D03*
X202362500Y-74900000D03*
%TD*%
D25*
%TO.C,R51*%
X242100000Y-64025000D03*
X242100000Y-62200000D03*
%TD*%
D31*
%TO.C,TP12*%
X161100000Y-118200000D03*
%TD*%
D29*
%TO.C,C37*%
X166200000Y-121500000D03*
X166200000Y-119600000D03*
%TD*%
D26*
%TO.C,R2*%
X138887500Y-62000000D03*
X140712500Y-62000000D03*
%TD*%
D34*
%TO.C,L8*%
X183812500Y-67200000D03*
X181687500Y-67200000D03*
%TD*%
D27*
%TO.C,C76*%
X237500000Y-62150000D03*
X237500000Y-64050000D03*
%TD*%
D25*
%TO.C,R92*%
X144500000Y-144400000D03*
X144500000Y-142575000D03*
%TD*%
D39*
%TO.C,C63*%
X214300000Y-92200000D03*
X212400000Y-92200000D03*
%TD*%
D29*
%TO.C,C60*%
X219500000Y-71850000D03*
X219500000Y-69950000D03*
%TD*%
D40*
%TO.C,L12*%
X176937500Y-55400000D03*
X179062500Y-55400000D03*
%TD*%
D46*
%TO.C,U20*%
X182254463Y-125953833D03*
X182254463Y-126453959D03*
X182254463Y-126954085D03*
X182254463Y-127454211D03*
X182254463Y-127954337D03*
X182254463Y-128454463D03*
X182254463Y-128954589D03*
X182254463Y-129454715D03*
X182254463Y-129954841D03*
X182254463Y-130454967D03*
D47*
X182899496Y-131100000D03*
X183399622Y-131100000D03*
X183899748Y-131100000D03*
X184399874Y-131100000D03*
X184900000Y-131100000D03*
X185400126Y-131100000D03*
X185900252Y-131100000D03*
X186400378Y-131100000D03*
X186900504Y-131100000D03*
X187400630Y-131100000D03*
D46*
X188045663Y-130454967D03*
X188045663Y-129954841D03*
X188045663Y-129454715D03*
X188045663Y-128954589D03*
X188045663Y-128454463D03*
X188045663Y-127954337D03*
X188045663Y-127454211D03*
X188045663Y-126954085D03*
X188045663Y-126453959D03*
X188045663Y-125953833D03*
D47*
X187400630Y-125308800D03*
X186900504Y-125308800D03*
X186400378Y-125308800D03*
X185900252Y-125308800D03*
X185400126Y-125308800D03*
X184900000Y-125308800D03*
X184399874Y-125308800D03*
X183899748Y-125308800D03*
X183399622Y-125308800D03*
X182899496Y-125308800D03*
D48*
X185150063Y-128204400D03*
%TD*%
D44*
%TO.C,D13*%
X133637500Y-161400000D03*
X131762500Y-161400000D03*
%TD*%
D35*
%TO.C,C114*%
X146250000Y-148300000D03*
X148150000Y-148300000D03*
%TD*%
D26*
%TO.C,R34*%
X182675000Y-75600000D03*
X184500000Y-75600000D03*
%TD*%
D30*
%TO.C,Q4*%
X230637500Y-196150000D03*
X230637500Y-194250000D03*
X228762500Y-195200000D03*
%TD*%
D31*
%TO.C,J9*%
X193700000Y-104260000D03*
D32*
X193700000Y-106800000D03*
%TD*%
D24*
%TO.C,R25*%
X190300000Y-94675000D03*
X190300000Y-96500000D03*
%TD*%
D35*
%TO.C,C20*%
X185450000Y-89500000D03*
X187350000Y-89500000D03*
%TD*%
D49*
%TO.C,U8*%
X217813000Y-78110000D03*
X217813000Y-76840000D03*
X217813000Y-75570000D03*
X217813000Y-74300000D03*
X212987000Y-74300000D03*
X212987000Y-75570000D03*
X212987000Y-76840000D03*
X212987000Y-78110000D03*
%TD*%
D44*
%TO.C,D16*%
X133637500Y-154400000D03*
X131762500Y-154400000D03*
%TD*%
D34*
%TO.C,L52*%
X145462500Y-175500000D03*
X143337500Y-175500000D03*
%TD*%
D29*
%TO.C,C55*%
X233400000Y-67550000D03*
X233400000Y-65650000D03*
%TD*%
D26*
%TO.C,R102*%
X135500000Y-144000000D03*
X137325000Y-144000000D03*
%TD*%
D35*
%TO.C,C79*%
X247850000Y-71600000D03*
X249750000Y-71600000D03*
%TD*%
D27*
%TO.C,C149*%
X175900000Y-125750000D03*
X175900000Y-127650000D03*
%TD*%
D50*
%TO.C,J2*%
X130175000Y-88675000D03*
D51*
X127000000Y-85500000D03*
X127000000Y-91850000D03*
X133350000Y-85500000D03*
X133350000Y-91850000D03*
%TD*%
D31*
%TO.C,TP10*%
X186850000Y-68100000D03*
%TD*%
D35*
%TO.C,C92*%
X250150000Y-77700000D03*
X252050000Y-77700000D03*
%TD*%
D45*
%TO.C,C11*%
X139750000Y-105600000D03*
X135050000Y-105600000D03*
%TD*%
D31*
%TO.C,TP19*%
X189600000Y-76600000D03*
%TD*%
D26*
%TO.C,R31*%
X192887500Y-94900000D03*
X194712500Y-94900000D03*
%TD*%
D25*
%TO.C,R63*%
X270900000Y-68525000D03*
X270900000Y-66700000D03*
%TD*%
%TO.C,R91*%
X155100000Y-145100000D03*
X155100000Y-143275000D03*
%TD*%
D33*
%TO.C,C105*%
X148800000Y-155000000D03*
X148800000Y-159400000D03*
%TD*%
D52*
%TO.C,J12*%
X130467500Y-198250000D03*
D53*
X130467500Y-193250000D03*
X130467500Y-188250000D03*
%TD*%
D26*
%TO.C,R33*%
X197487500Y-91000000D03*
X199312500Y-91000000D03*
%TD*%
D44*
%TO.C,D15*%
X133637500Y-150900000D03*
X131762500Y-150900000D03*
%TD*%
D27*
%TO.C,C75*%
X250800000Y-62200000D03*
X250800000Y-64100000D03*
%TD*%
D26*
%TO.C,R105*%
X135412500Y-140600000D03*
X137237500Y-140600000D03*
%TD*%
D35*
%TO.C,C4*%
X147650000Y-83800000D03*
X149550000Y-83800000D03*
%TD*%
D30*
%TO.C,Q6*%
X192300000Y-156800000D03*
X192300000Y-154900000D03*
X190425000Y-155850000D03*
%TD*%
D27*
%TO.C,C49*%
X200000000Y-86300000D03*
X200000000Y-88200000D03*
%TD*%
D36*
%TO.C,L48*%
X140300000Y-157962500D03*
X140300000Y-155837500D03*
%TD*%
D40*
%TO.C,L62*%
X182137500Y-114500000D03*
X184262500Y-114500000D03*
%TD*%
D25*
%TO.C,R55*%
X192000000Y-115500000D03*
X192000000Y-113675000D03*
%TD*%
D29*
%TO.C,C23*%
X177200000Y-96650000D03*
X177200000Y-94750000D03*
%TD*%
D35*
%TO.C,C145*%
X182150000Y-122600000D03*
X184050000Y-122600000D03*
%TD*%
D24*
%TO.C,R11*%
X144800000Y-77867500D03*
X144800000Y-79692500D03*
%TD*%
D26*
%TO.C,R30*%
X165487500Y-132200000D03*
X167312500Y-132200000D03*
%TD*%
D27*
%TO.C,C41*%
X201000000Y-59450000D03*
X201000000Y-61350000D03*
%TD*%
D45*
%TO.C,C3*%
X139450000Y-85000000D03*
X144150000Y-85000000D03*
%TD*%
D43*
%TO.C,L35*%
X256800000Y-70137500D03*
X256800000Y-72262500D03*
%TD*%
D35*
%TO.C,C67*%
X207850000Y-76900000D03*
X209750000Y-76900000D03*
%TD*%
D24*
%TO.C,R17*%
X176900000Y-73837500D03*
X176900000Y-75662500D03*
%TD*%
D35*
%TO.C,C126*%
X149150000Y-172600000D03*
X151050000Y-172600000D03*
%TD*%
D26*
%TO.C,R5*%
X132517500Y-69400000D03*
X134342500Y-69400000D03*
%TD*%
D29*
%TO.C,C29*%
X179800000Y-96650000D03*
X179800000Y-94750000D03*
%TD*%
D27*
%TO.C,C116*%
X171000000Y-158050000D03*
X171000000Y-159950000D03*
%TD*%
D29*
%TO.C,C136*%
X157200000Y-163050000D03*
X157200000Y-161150000D03*
%TD*%
D44*
%TO.C,D11*%
X133637500Y-168480000D03*
X131762500Y-168480000D03*
%TD*%
D33*
%TO.C,C123*%
X162100000Y-173600000D03*
X162100000Y-178000000D03*
%TD*%
D28*
%TO.C,R46*%
X214412500Y-81500000D03*
X212587500Y-81500000D03*
%TD*%
D43*
%TO.C,L15*%
X205900000Y-95237500D03*
X205900000Y-97362500D03*
%TD*%
D35*
%TO.C,C65*%
X208950000Y-66600000D03*
X210850000Y-66600000D03*
%TD*%
D28*
%TO.C,R18*%
X177812500Y-86300000D03*
X175987500Y-86300000D03*
%TD*%
%TO.C,R107*%
X151525000Y-190600000D03*
X149700000Y-190600000D03*
%TD*%
D54*
%TO.C,U17*%
X152800000Y-164900000D03*
X152800000Y-165850000D03*
X152800000Y-166800000D03*
X155075000Y-166800000D03*
X155075000Y-164900000D03*
%TD*%
D43*
%TO.C,L51*%
X162300000Y-168837500D03*
X162300000Y-170962500D03*
%TD*%
D34*
%TO.C,L39*%
X242162500Y-99400000D03*
X240037500Y-99400000D03*
%TD*%
D55*
%TO.C,D3*%
X142000000Y-128300000D03*
X138700000Y-128300000D03*
%TD*%
D39*
%TO.C,C99*%
X254050000Y-93400000D03*
X252150000Y-93400000D03*
%TD*%
%TO.C,C57*%
X210750000Y-63200000D03*
X208850000Y-63200000D03*
%TD*%
D31*
%TO.C,J4*%
X209900000Y-108860000D03*
D32*
X209900000Y-111400000D03*
X209900000Y-113940000D03*
%TD*%
D43*
%TO.C,L60*%
X176500000Y-116937500D03*
X176500000Y-119062500D03*
%TD*%
D35*
%TO.C,C69*%
X208950000Y-70300000D03*
X210850000Y-70300000D03*
%TD*%
D39*
%TO.C,C118*%
X148850000Y-140600000D03*
X146950000Y-140600000D03*
%TD*%
D44*
%TO.C,D12*%
X133637500Y-164840000D03*
X131762500Y-164840000D03*
%TD*%
%TO.C,D17*%
X133637500Y-147500000D03*
X131762500Y-147500000D03*
%TD*%
D43*
%TO.C,L6*%
X178600000Y-78537500D03*
X178600000Y-80662500D03*
%TD*%
D56*
%TO.C,D6*%
X153600000Y-56150000D03*
X153600000Y-59450000D03*
%TD*%
D49*
%TO.C,U7*%
X215213000Y-60905000D03*
X215213000Y-59635000D03*
X215213000Y-58365000D03*
X215213000Y-57095000D03*
X210387000Y-57095000D03*
X210387000Y-58365000D03*
X210387000Y-59635000D03*
X210387000Y-60905000D03*
%TD*%
D39*
%TO.C,C81*%
X246250000Y-71600000D03*
X244350000Y-71600000D03*
%TD*%
D35*
%TO.C,C13*%
X163100000Y-70600000D03*
X165000000Y-70600000D03*
%TD*%
D36*
%TO.C,L56*%
X177600000Y-136162500D03*
X177600000Y-134037500D03*
%TD*%
D40*
%TO.C,L32*%
X203437500Y-80600000D03*
X205562500Y-80600000D03*
%TD*%
D31*
%TO.C,TP16*%
X204900000Y-91100000D03*
%TD*%
D36*
%TO.C,L21*%
X159000000Y-135362500D03*
X159000000Y-133237500D03*
%TD*%
D40*
%TO.C,L41*%
X139437500Y-191200000D03*
X141562500Y-191200000D03*
%TD*%
D29*
%TO.C,C45*%
X200100000Y-68300000D03*
X200100000Y-66400000D03*
%TD*%
D27*
%TO.C,C130*%
X153900000Y-193900000D03*
X153900000Y-195800000D03*
%TD*%
D40*
%TO.C,L27*%
X216737500Y-88700000D03*
X218862500Y-88700000D03*
%TD*%
D24*
%TO.C,R24*%
X190000000Y-67087500D03*
X190000000Y-68912500D03*
%TD*%
D25*
%TO.C,R22*%
X162500000Y-123012500D03*
X162500000Y-121187500D03*
%TD*%
D34*
%TO.C,L9*%
X183962500Y-83300000D03*
X181837500Y-83300000D03*
%TD*%
D36*
%TO.C,L5*%
X151200000Y-78400000D03*
X151200000Y-76275000D03*
%TD*%
D40*
%TO.C,L53*%
X139437500Y-194500000D03*
X141562500Y-194500000D03*
%TD*%
D27*
%TO.C,C110*%
X146300000Y-150350000D03*
X146300000Y-152250000D03*
%TD*%
D29*
%TO.C,C54*%
X230000000Y-67550000D03*
X230000000Y-65650000D03*
%TD*%
D27*
%TO.C,C22*%
X170500000Y-77100000D03*
X170500000Y-79000000D03*
%TD*%
D26*
%TO.C,R96*%
X135600000Y-164800000D03*
X137425000Y-164800000D03*
%TD*%
D29*
%TO.C,C82*%
X237500000Y-81150000D03*
X237500000Y-79250000D03*
%TD*%
D38*
%TO.C,Q1*%
X242750000Y-184475000D03*
X244650000Y-184475000D03*
X243700000Y-182600000D03*
%TD*%
D40*
%TO.C,L46*%
X147237500Y-165000000D03*
X149362500Y-165000000D03*
%TD*%
D29*
%TO.C,C137*%
X175200000Y-168950000D03*
X175200000Y-167050000D03*
%TD*%
D36*
%TO.C,L2*%
X176500000Y-80762500D03*
X176500000Y-78637500D03*
%TD*%
D25*
%TO.C,R56*%
X195400000Y-118987500D03*
X195400000Y-117162500D03*
%TD*%
D31*
%TO.C,TP14*%
X173000000Y-129100000D03*
%TD*%
%TO.C,TP13*%
X169300000Y-129100000D03*
%TD*%
D28*
%TO.C,R52*%
X255012500Y-69412500D03*
X253187500Y-69412500D03*
%TD*%
D25*
%TO.C,R75*%
X217200000Y-140412500D03*
X217200000Y-138587500D03*
%TD*%
D26*
%TO.C,R32*%
X197387500Y-63800000D03*
X199212500Y-63800000D03*
%TD*%
D39*
%TO.C,C88*%
X252050000Y-75700000D03*
X250150000Y-75700000D03*
%TD*%
D25*
%TO.C,R23*%
X164100000Y-117512500D03*
X164100000Y-115687500D03*
%TD*%
D39*
%TO.C,C72*%
X255100000Y-66012500D03*
X253200000Y-66012500D03*
%TD*%
D26*
%TO.C,R45*%
X212500000Y-64600000D03*
X214325000Y-64600000D03*
%TD*%
%TO.C,R47*%
X212400000Y-88500000D03*
X214225000Y-88500000D03*
%TD*%
D28*
%TO.C,R38*%
X191400000Y-82100000D03*
X189575000Y-82100000D03*
%TD*%
D35*
%TO.C,C56*%
X217200000Y-58000000D03*
X219100000Y-58000000D03*
%TD*%
D24*
%TO.C,R79*%
X222000000Y-194000000D03*
X222000000Y-195825000D03*
%TD*%
D31*
%TO.C,TP15*%
X204750000Y-63650000D03*
%TD*%
D35*
%TO.C,C6*%
X147650000Y-56800000D03*
X149550000Y-56800000D03*
%TD*%
D27*
%TO.C,C50*%
X197700000Y-66350000D03*
X197700000Y-68250000D03*
%TD*%
D26*
%TO.C,R41*%
X219287500Y-61600000D03*
X221112500Y-61600000D03*
%TD*%
D35*
%TO.C,C98*%
X240050000Y-93600000D03*
X241950000Y-93600000D03*
%TD*%
D29*
%TO.C,C91*%
X248100000Y-78250000D03*
X248100000Y-76350000D03*
%TD*%
D40*
%TO.C,L50*%
X143300000Y-177300000D03*
X145425000Y-177300000D03*
%TD*%
D25*
%TO.C,R29*%
X160500000Y-130112500D03*
X160500000Y-128287500D03*
%TD*%
D27*
%TO.C,C58*%
X202900000Y-53550000D03*
X202900000Y-55450000D03*
%TD*%
D43*
%TO.C,L13*%
X206400000Y-67737500D03*
X206400000Y-69862500D03*
%TD*%
D39*
%TO.C,C147*%
X180450000Y-120500000D03*
X178550000Y-120500000D03*
%TD*%
D26*
%TO.C,R100*%
X135575000Y-154400000D03*
X137400000Y-154400000D03*
%TD*%
D56*
%TO.C,D9*%
X157850000Y-91650000D03*
X157850000Y-94950000D03*
%TD*%
D41*
%TO.C,U14*%
X169350000Y-153000000D03*
D42*
X169437500Y-154500000D03*
D41*
X169350000Y-156000000D03*
%TD*%
D40*
%TO.C,L28*%
X207637500Y-81100000D03*
X209762500Y-81100000D03*
%TD*%
D36*
%TO.C,L47*%
X143400000Y-157962500D03*
X143400000Y-155837500D03*
%TD*%
D57*
%TO.C,D5*%
X157700000Y-107150000D03*
X157700000Y-103850000D03*
%TD*%
D25*
%TO.C,R84*%
X194800000Y-164900000D03*
X194800000Y-163075000D03*
%TD*%
D31*
%TO.C,TP23*%
X192500000Y-122900000D03*
%TD*%
D50*
%TO.C,J3*%
X130175000Y-116175000D03*
D51*
X127000000Y-119350000D03*
X133350000Y-119350000D03*
X127000000Y-113000000D03*
X133350000Y-113000000D03*
%TD*%
D40*
%TO.C,L14*%
X203637500Y-58800000D03*
X205762500Y-58800000D03*
%TD*%
D31*
%TO.C,TP9*%
X187300000Y-95700000D03*
%TD*%
D25*
%TO.C,R36*%
X186700000Y-56712500D03*
X186700000Y-54887500D03*
%TD*%
D43*
%TO.C,L22*%
X172500000Y-119437500D03*
X172500000Y-121562500D03*
%TD*%
D26*
%TO.C,R4*%
X147687500Y-59200000D03*
X149512500Y-59200000D03*
%TD*%
D29*
%TO.C,C40*%
X202300000Y-68350000D03*
X202300000Y-66450000D03*
%TD*%
D36*
%TO.C,L24*%
X174400000Y-121562500D03*
X174400000Y-119437500D03*
%TD*%
D39*
%TO.C,C140*%
X179950000Y-130900000D03*
X178050000Y-130900000D03*
%TD*%
D40*
%TO.C,L58*%
X178437500Y-116400000D03*
X180562500Y-116400000D03*
%TD*%
D25*
%TO.C,R82*%
X194800000Y-156900000D03*
X194800000Y-155075000D03*
%TD*%
D31*
%TO.C,TP6*%
X169200000Y-70600000D03*
%TD*%
D26*
%TO.C,R110*%
X170987500Y-174700000D03*
X172812500Y-174700000D03*
%TD*%
D27*
%TO.C,C77*%
X244300000Y-62150000D03*
X244300000Y-64050000D03*
%TD*%
D24*
%TO.C,R67*%
X239400000Y-184487500D03*
X239400000Y-186312500D03*
%TD*%
D27*
%TO.C,C128*%
X168300000Y-174350000D03*
X168300000Y-176250000D03*
%TD*%
%TO.C,C15*%
X172800000Y-71950000D03*
X172800000Y-73850000D03*
%TD*%
D31*
%TO.C,TP4*%
X171800000Y-83000000D03*
%TD*%
D40*
%TO.C,L11*%
X181687500Y-69300000D03*
X183812500Y-69300000D03*
%TD*%
D29*
%TO.C,C94*%
X254700000Y-81350000D03*
X254700000Y-79450000D03*
%TD*%
D26*
%TO.C,R53*%
X240087500Y-69412500D03*
X241912500Y-69412500D03*
%TD*%
%TO.C,R6*%
X132237500Y-97000000D03*
X134062500Y-97000000D03*
%TD*%
D28*
%TO.C,R87*%
X151212500Y-175400000D03*
X149387500Y-175400000D03*
%TD*%
D56*
%TO.C,D7*%
X153200000Y-83350000D03*
X153200000Y-86650000D03*
%TD*%
D45*
%TO.C,C12*%
X139750000Y-78800000D03*
X135050000Y-78800000D03*
%TD*%
D44*
%TO.C,D18*%
X133550000Y-144000000D03*
X131675000Y-144000000D03*
%TD*%
D29*
%TO.C,C134*%
X173100000Y-169000000D03*
X173100000Y-167100000D03*
%TD*%
D26*
%TO.C,R16*%
X156575000Y-83500000D03*
X158400000Y-83500000D03*
%TD*%
%TO.C,R21*%
X185087500Y-64300000D03*
X186912500Y-64300000D03*
%TD*%
D27*
%TO.C,C46*%
X202300000Y-86250000D03*
X202300000Y-88150000D03*
%TD*%
%TO.C,C132*%
X159100000Y-188350000D03*
X159100000Y-190250000D03*
%TD*%
D40*
%TO.C,L45*%
X143137500Y-191200000D03*
X145262500Y-191200000D03*
%TD*%
D44*
%TO.C,D10*%
X133637500Y-171980000D03*
X131762500Y-171980000D03*
%TD*%
D25*
%TO.C,R111*%
X175200000Y-172812500D03*
X175200000Y-170987500D03*
%TD*%
D35*
%TO.C,C38*%
X155250000Y-131300000D03*
X157150000Y-131300000D03*
%TD*%
D39*
%TO.C,C59*%
X214362500Y-66600000D03*
X212462500Y-66600000D03*
%TD*%
D29*
%TO.C,C18*%
X168200000Y-79000000D03*
X168200000Y-77100000D03*
%TD*%
D36*
%TO.C,L1*%
X153400000Y-78462500D03*
X153400000Y-76337500D03*
%TD*%
D25*
%TO.C,R90*%
X155100000Y-148725000D03*
X155100000Y-146900000D03*
%TD*%
D28*
%TO.C,R106*%
X151612500Y-187400000D03*
X149787500Y-187400000D03*
%TD*%
D29*
%TO.C,C143*%
X180200000Y-126750000D03*
X180200000Y-124850000D03*
%TD*%
D28*
%TO.C,R72*%
X239525000Y-197400000D03*
X237700000Y-197400000D03*
%TD*%
D35*
%TO.C,C121*%
X162150000Y-144700000D03*
X164050000Y-144700000D03*
%TD*%
D39*
%TO.C,C35*%
X165950000Y-113700000D03*
X164050000Y-113700000D03*
%TD*%
D52*
%TO.C,J11*%
X130467500Y-181250000D03*
D53*
X130467500Y-176250000D03*
%TD*%
D39*
%TO.C,C25*%
X174650000Y-65500000D03*
X172750000Y-65500000D03*
%TD*%
D29*
%TO.C,C21*%
X157600000Y-74500000D03*
X157600000Y-72600000D03*
%TD*%
D26*
%TO.C,R101*%
X135575000Y-147500000D03*
X137400000Y-147500000D03*
%TD*%
D40*
%TO.C,L42*%
X143537500Y-165000000D03*
X145662500Y-165000000D03*
%TD*%
D39*
%TO.C,C36*%
X157150000Y-129100000D03*
X155250000Y-129100000D03*
%TD*%
D27*
%TO.C,C10*%
X147400000Y-77850000D03*
X147400000Y-79750000D03*
%TD*%
D26*
%TO.C,R12*%
X156500000Y-98400000D03*
X158325000Y-98400000D03*
%TD*%
D35*
%TO.C,C117*%
X162200000Y-146800000D03*
X164100000Y-146800000D03*
%TD*%
D36*
%TO.C,L44*%
X140300000Y-161662500D03*
X140300000Y-159537500D03*
%TD*%
D35*
%TO.C,C148*%
X182100000Y-120500000D03*
X184000000Y-120500000D03*
%TD*%
D25*
%TO.C,R48*%
X255300000Y-64012500D03*
X255300000Y-62187500D03*
%TD*%
D29*
%TO.C,C146*%
X178100000Y-126450000D03*
X178100000Y-124550000D03*
%TD*%
D40*
%TO.C,L4*%
X181837500Y-85200000D03*
X183962500Y-85200000D03*
%TD*%
D26*
%TO.C,R95*%
X135575000Y-168500000D03*
X137400000Y-168500000D03*
%TD*%
D35*
%TO.C,C66*%
X217100000Y-81800000D03*
X219000000Y-81800000D03*
%TD*%
%TO.C,C93*%
X242100000Y-77700000D03*
X244000000Y-77700000D03*
%TD*%
D57*
%TO.C,D8*%
X157400000Y-66250000D03*
X157400000Y-62950000D03*
%TD*%
D27*
%TO.C,C8*%
X144400000Y-104700000D03*
X144400000Y-106600000D03*
%TD*%
D35*
%TO.C,C73*%
X239950000Y-66012500D03*
X241850000Y-66012500D03*
%TD*%
D27*
%TO.C,C112*%
X167200000Y-156100000D03*
X167200000Y-158000000D03*
%TD*%
D26*
%TO.C,R19*%
X176287500Y-59000000D03*
X178112500Y-59000000D03*
%TD*%
D27*
%TO.C,C125*%
X166100000Y-174350000D03*
X166100000Y-176250000D03*
%TD*%
D25*
%TO.C,R71*%
X239400000Y-195525000D03*
X239400000Y-193700000D03*
%TD*%
D39*
%TO.C,C111*%
X145450000Y-179500000D03*
X143550000Y-179500000D03*
%TD*%
D31*
%TO.C,TP21*%
X214800000Y-96900000D03*
%TD*%
D25*
%TO.C,R76*%
X213900000Y-140412500D03*
X213900000Y-138587500D03*
%TD*%
D27*
%TO.C,C28*%
X173000000Y-77150000D03*
X173000000Y-79050000D03*
%TD*%
D31*
%TO.C,TP1*%
X132575000Y-73200000D03*
%TD*%
D29*
%TO.C,C84*%
X261100000Y-81350000D03*
X261100000Y-79450000D03*
%TD*%
D39*
%TO.C,C101*%
X254000000Y-95500000D03*
X252100000Y-95500000D03*
%TD*%
D35*
%TO.C,C89*%
X242150000Y-75700000D03*
X244050000Y-75700000D03*
%TD*%
D40*
%TO.C,L10*%
X180737500Y-55400000D03*
X182862500Y-55400000D03*
%TD*%
D31*
%TO.C,TP26*%
X197500000Y-130200000D03*
%TD*%
D58*
%TO.C,U1*%
X165955000Y-73877450D03*
X164685000Y-73877450D03*
X163415000Y-73877450D03*
X162145000Y-73877450D03*
X162145000Y-79122550D03*
X163415000Y-79122550D03*
X164685000Y-79122550D03*
X165955000Y-79122550D03*
%TD*%
D35*
%TO.C,C129*%
X149100000Y-170500000D03*
X151000000Y-170500000D03*
%TD*%
D26*
%TO.C,R15*%
X158487500Y-78200000D03*
X160312500Y-78200000D03*
%TD*%
D40*
%TO.C,L40*%
X252037500Y-99300000D03*
X254162500Y-99300000D03*
%TD*%
D29*
%TO.C,C133*%
X155100000Y-163050000D03*
X155100000Y-161150000D03*
%TD*%
D39*
%TO.C,C102*%
X204250000Y-115700000D03*
X202350000Y-115700000D03*
%TD*%
%TO.C,C83*%
X246250000Y-73700000D03*
X244350000Y-73700000D03*
%TD*%
D31*
%TO.C,J6*%
X203200000Y-104260000D03*
D32*
X203200000Y-106800000D03*
%TD*%
D29*
%TO.C,C34*%
X182900000Y-59150000D03*
X182900000Y-57250000D03*
%TD*%
D34*
%TO.C,L18*%
X205762500Y-60700000D03*
X203637500Y-60700000D03*
%TD*%
D36*
%TO.C,L17*%
X204400000Y-69862500D03*
X204400000Y-67737500D03*
%TD*%
D39*
%TO.C,C61*%
X209850000Y-74800000D03*
X207950000Y-74800000D03*
%TD*%
D25*
%TO.C,R64*%
X196800000Y-122812500D03*
X196800000Y-120987500D03*
%TD*%
D29*
%TO.C,C48*%
X199800000Y-95850000D03*
X199800000Y-93950000D03*
%TD*%
D40*
%TO.C,L30*%
X196437500Y-74900000D03*
X198562500Y-74900000D03*
%TD*%
D36*
%TO.C,L43*%
X143400000Y-161662500D03*
X143400000Y-159537500D03*
%TD*%
D25*
%TO.C,R68*%
X239400000Y-182600000D03*
X239400000Y-180775000D03*
%TD*%
%TO.C,R50*%
X239800000Y-64012500D03*
X239800000Y-62187500D03*
%TD*%
D28*
%TO.C,R81*%
X184212500Y-151000000D03*
X182387500Y-151000000D03*
%TD*%
D34*
%TO.C,L38*%
X254162500Y-97500000D03*
X252037500Y-97500000D03*
%TD*%
D59*
%TO.C,D4*%
X150550000Y-111100000D03*
X153850000Y-111100000D03*
%TD*%
D24*
%TO.C,R9*%
X147200000Y-104687500D03*
X147200000Y-106512500D03*
%TD*%
D31*
%TO.C,TP11*%
X172300000Y-116100000D03*
%TD*%
%TO.C,TP18*%
X198100000Y-79700000D03*
%TD*%
D27*
%TO.C,C17*%
X160000000Y-72650000D03*
X160000000Y-74550000D03*
%TD*%
D60*
%TO.C,C124*%
X145300000Y-172800000D03*
X145300000Y-168400000D03*
%TD*%
D61*
%TO.C,U13*%
X151000000Y-179450000D03*
D62*
X149500000Y-179537500D03*
D61*
X148000000Y-179450000D03*
%TD*%
D31*
%TO.C,TP5*%
X169200000Y-98400000D03*
%TD*%
D35*
%TO.C,C2*%
X138850000Y-64400000D03*
X140750000Y-64400000D03*
%TD*%
D31*
%TO.C,TP25*%
X192500000Y-130300000D03*
%TD*%
D29*
%TO.C,C78*%
X235400000Y-81150000D03*
X235400000Y-79250000D03*
%TD*%
D26*
%TO.C,R94*%
X135575000Y-172000000D03*
X137400000Y-172000000D03*
%TD*%
%TO.C,R65*%
X206487500Y-127200000D03*
X208312500Y-127200000D03*
%TD*%
D35*
%TO.C,C70*%
X217100000Y-85400000D03*
X219000000Y-85400000D03*
%TD*%
D25*
%TO.C,R104*%
X168300000Y-172612500D03*
X168300000Y-170787500D03*
%TD*%
D60*
%TO.C,C106*%
X142300000Y-152100000D03*
X142300000Y-147700000D03*
%TD*%
D35*
%TO.C,C62*%
X212550000Y-85000000D03*
X214450000Y-85000000D03*
%TD*%
%TO.C,C100*%
X240150000Y-95600000D03*
X242050000Y-95600000D03*
%TD*%
D29*
%TO.C,C33*%
X179500000Y-69100000D03*
X179500000Y-67200000D03*
%TD*%
D31*
%TO.C,TP8*%
X157400000Y-88500000D03*
%TD*%
D41*
%TO.C,U15*%
X157200000Y-147200000D03*
D42*
X157287500Y-148700000D03*
D41*
X157200000Y-150200000D03*
%TD*%
D28*
%TO.C,R85*%
X189312500Y-165800000D03*
X187487500Y-165800000D03*
%TD*%
D27*
%TO.C,C139*%
X179600000Y-134150000D03*
X179600000Y-136050000D03*
%TD*%
D40*
%TO.C,L25*%
X212075000Y-53600000D03*
X214200000Y-53600000D03*
%TD*%
D35*
%TO.C,C27*%
X185050000Y-61400000D03*
X186950000Y-61400000D03*
%TD*%
D28*
%TO.C,R103*%
X150912500Y-168400000D03*
X149087500Y-168400000D03*
%TD*%
D25*
%TO.C,R54*%
X192000000Y-118987500D03*
X192000000Y-117162500D03*
%TD*%
D63*
%TO.C,U4*%
X166405000Y-125187000D03*
X165135000Y-125187000D03*
X163865000Y-125187000D03*
X162595000Y-125187000D03*
X162595000Y-130013000D03*
X163865000Y-130013000D03*
X165135000Y-130013000D03*
X166405000Y-130013000D03*
%TD*%
D25*
%TO.C,R57*%
X195400000Y-115487500D03*
X195400000Y-113662500D03*
%TD*%
D54*
%TO.C,U18*%
X170862500Y-170950000D03*
X170862500Y-171900000D03*
X170862500Y-172850000D03*
X173137500Y-172850000D03*
X173137500Y-170950000D03*
%TD*%
D34*
%TO.C,L31*%
X218225000Y-91900000D03*
X216100000Y-91900000D03*
%TD*%
D31*
%TO.C,TP2*%
X132575000Y-100400000D03*
%TD*%
D35*
%TO.C,C9*%
X138582500Y-74600000D03*
X140482500Y-74600000D03*
%TD*%
D50*
%TO.C,J1*%
X130175000Y-61175000D03*
D51*
X127000000Y-64350000D03*
X133350000Y-64350000D03*
X127000000Y-58000000D03*
X133350000Y-58000000D03*
%TD*%
D40*
%TO.C,L16*%
X204337500Y-85800000D03*
X206462500Y-85800000D03*
%TD*%
D36*
%TO.C,L33*%
X258700000Y-72262500D03*
X258700000Y-70137500D03*
%TD*%
D26*
%TO.C,R97*%
X135575000Y-161400000D03*
X137400000Y-161400000D03*
%TD*%
D27*
%TO.C,C131*%
X156100000Y-193900000D03*
X156100000Y-195800000D03*
%TD*%
D30*
%TO.C,Q3*%
X216800000Y-195900000D03*
X216800000Y-194000000D03*
X214925000Y-194950000D03*
%TD*%
D27*
%TO.C,C138*%
X181700000Y-134150000D03*
X181700000Y-136050000D03*
%TD*%
D35*
%TO.C,C16*%
X155250000Y-81500000D03*
X157150000Y-81500000D03*
%TD*%
D39*
%TO.C,C68*%
X219050000Y-55900000D03*
X217150000Y-55900000D03*
%TD*%
D40*
%TO.C,L55*%
X175637500Y-137800000D03*
X177762500Y-137800000D03*
%TD*%
D26*
%TO.C,R20*%
X185487500Y-91500000D03*
X187312500Y-91500000D03*
%TD*%
D64*
%TO.C,U19*%
X153937500Y-191750000D03*
D65*
X155437500Y-191662500D03*
D64*
X156937500Y-191750000D03*
%TD*%
D40*
%TO.C,L7*%
X182037500Y-96700000D03*
X184162500Y-96700000D03*
%TD*%
D26*
%TO.C,R8*%
X138487500Y-99600000D03*
X140312500Y-99600000D03*
%TD*%
D24*
%TO.C,R93*%
X142400000Y-142587500D03*
X142400000Y-144412500D03*
%TD*%
D39*
%TO.C,C96*%
X242000000Y-91400000D03*
X240100000Y-91400000D03*
%TD*%
D25*
%TO.C,R49*%
X253000000Y-64025000D03*
X253000000Y-62200000D03*
%TD*%
D35*
%TO.C,C71*%
X207850000Y-79100000D03*
X209750000Y-79100000D03*
%TD*%
D31*
%TO.C,TP17*%
X189800000Y-56000000D03*
%TD*%
D29*
%TO.C,C80*%
X258900000Y-81350000D03*
X258900000Y-79450000D03*
%TD*%
D35*
%TO.C,C87*%
X247900000Y-73700000D03*
X249800000Y-73700000D03*
%TD*%
D24*
%TO.C,R69*%
X198800000Y-193587500D03*
X198800000Y-195412500D03*
%TD*%
D29*
%TO.C,C119*%
X153100000Y-181200000D03*
X153100000Y-179300000D03*
%TD*%
D27*
%TO.C,C74*%
X257700000Y-62150000D03*
X257700000Y-64050000D03*
%TD*%
D28*
%TO.C,R108*%
X159012500Y-168600000D03*
X157187500Y-168600000D03*
%TD*%
D29*
%TO.C,C42*%
X202000000Y-95850000D03*
X202000000Y-93950000D03*
%TD*%
D34*
%TO.C,L59*%
X184262500Y-116400000D03*
X182137500Y-116400000D03*
%TD*%
D27*
%TO.C,C135*%
X161300000Y-188350000D03*
X161300000Y-190250000D03*
%TD*%
D25*
%TO.C,R77*%
X233100000Y-196062500D03*
X233100000Y-194237500D03*
%TD*%
D29*
%TO.C,C51*%
X196350000Y-61350000D03*
X196350000Y-59450000D03*
%TD*%
%TO.C,C141*%
X188200000Y-122100000D03*
X188200000Y-120200000D03*
%TD*%
D43*
%TO.C,L49*%
X162300000Y-165237500D03*
X162300000Y-167362500D03*
%TD*%
%TO.C,L23*%
X161000000Y-133237500D03*
X161000000Y-135362500D03*
%TD*%
D39*
%TO.C,C150*%
X180450000Y-118400000D03*
X178550000Y-118400000D03*
%TD*%
D24*
%TO.C,R89*%
X165300000Y-152587500D03*
X165300000Y-154412500D03*
%TD*%
%TO.C,R43*%
X220000000Y-104887500D03*
X220000000Y-106712500D03*
%TD*%
D39*
%TO.C,C64*%
X217750000Y-53700000D03*
X215850000Y-53700000D03*
%TD*%
D24*
%TO.C,R40*%
X193000000Y-57887500D03*
X193000000Y-59712500D03*
%TD*%
D29*
%TO.C,C26*%
X155400000Y-74500000D03*
X155400000Y-72600000D03*
%TD*%
D27*
%TO.C,C120*%
X174800000Y-158050000D03*
X174800000Y-159950000D03*
%TD*%
D66*
%TO.C,C103*%
X146200000Y-185800000D03*
X141800000Y-185800000D03*
%TD*%
D27*
%TO.C,C142*%
X186100000Y-120200000D03*
X186100000Y-122100000D03*
%TD*%
D26*
%TO.C,R10*%
X138600000Y-72200000D03*
X140425000Y-72200000D03*
%TD*%
D29*
%TO.C,C115*%
X155200000Y-181200000D03*
X155200000Y-179300000D03*
%TD*%
D24*
%TO.C,R70*%
X191200000Y-193587500D03*
X191200000Y-195412500D03*
%TD*%
D39*
%TO.C,C32*%
X186950000Y-58900000D03*
X185050000Y-58900000D03*
%TD*%
D12*
%TO.C,K4*%
X168210000Y-66280000D03*
X168210000Y-63740000D03*
X168210000Y-61200000D03*
X168210000Y-58660000D03*
X168210000Y-56120000D03*
X160590000Y-56120000D03*
X160590000Y-58660000D03*
X160590000Y-61200000D03*
X160590000Y-63740000D03*
X160590000Y-66280000D03*
%TD*%
M02*
