M48
; DRILL file {KiCad 9.0.5-9.0.5~ubuntu24.04.1} date 2025-11-23T21:00:39+0100
; FORMAT={-:-/ absolute / metric / decimal}
; #@! TF.CreationDate,2025-11-23T21:00:39+01:00
; #@! TF.GenerationSoftware,Kicad,Pcbnew,9.0.5-9.0.5~ubuntu24.04.1
; #@! TF.FileFunction,Plated,1,4,PTH
FMAT,2
METRIC
; #@! TA.AperFunction,Plated,PTH,ViaDrill
T1C0.200
; #@! TA.AperFunction,Plated,PTH,ViaDrill
T2C0.300
; #@! TA.AperFunction,Plated,PTH,ViaDrill
T3C0.400
; #@! TA.AperFunction,Plated,PTH,ComponentDrill
T4C0.800
; #@! TA.AperFunction,Plated,PTH,ComponentDrill
T5C1.000
; #@! TA.AperFunction,Plated,PTH,ComponentDrill
T6C1.060
; #@! TA.AperFunction,Plated,PTH,ComponentDrill
T7C1.270
; #@! TA.AperFunction,Plated,PTH,ComponentDrill
T8C1.300
; #@! TA.AperFunction,Plated,PTH,ComponentDrill
T9C1.524
; #@! TA.AperFunction,Plated,PTH,ComponentDrill
T10C3.200
%
G90
G05
T1
X221.55Y-89.7
X239.75Y-82.551
X241.25Y-83.556
X241.25Y-84.378
X241.6Y-88.4
X245.75Y-79.0
X246.75Y-90.8
X252.229Y-88.4
X252.4Y-83.4
X253.75Y-83.5
X254.25Y-83.0
X254.5Y-84.75
X254.75Y-84.0
T2
X185.5Y-75.6
X185.6Y-103.8
X195.7Y-54.4
X196.2Y-87.3
X216.1Y-76.8
X216.4Y-103.7
X216.6Y-59.7
X230.0Y-64.5
X230.0Y-68.6
X233.3Y-78.0
X233.4Y-64.5
X233.4Y-68.7
X261.1Y-78.2
X261.2Y-82.5
T3
X130.2Y-150.9
X130.213Y-144.0
X130.3Y-147.6
X130.3Y-154.4
X130.3Y-157.9
X130.3Y-161.4
X130.3Y-164.8
X130.3Y-168.5
X130.35Y-140.55
X130.4Y-170.5
X132.4Y-105.6
X133.0Y-78.8
X136.4Y-173.2
X138.5Y-168.5
X138.512Y-140.55
X138.612Y-143.9
X138.7Y-150.9
X138.7Y-154.4
X138.8Y-147.5
X138.8Y-157.9
X138.8Y-161.3
X138.8Y-164.8
X140.5Y-164.5
X140.5Y-167.0
X140.5Y-170.25
X140.7Y-147.7
X141.5Y-123.5
X141.8Y-184.6
X141.8Y-187.0
X142.0Y-164.5
X142.0Y-167.0
X142.0Y-170.25
X142.3Y-181.7
X142.4Y-179.6
X143.75Y-123.5
X144.2Y-147.6
X144.4Y-108.0
X144.8Y-81.0
X145.3Y-153.4
X145.3Y-166.3
X145.6Y-138.5
X145.6Y-140.6
X146.5Y-92.5
X147.0Y-168.5
X147.2Y-108.0
X147.4Y-81.0
X148.0Y-66.0
X148.0Y-67.5
X148.0Y-92.5
X148.2Y-199.1
X148.4Y-190.6
X148.8Y-161.4
X149.4Y-148.3
X149.4Y-174.2
X149.6Y-78.5
X150.3Y-159.4
X150.95Y-56.8
X150.95Y-59.2
X151.0Y-83.8
X151.0Y-86.2
X151.1Y-82.1
X151.4Y-164.9
X151.4Y-199.1
X151.6Y-150.3
X151.7Y-144.6
X151.8Y-138.5
X151.8Y-141.3
X152.2Y-170.5
X152.3Y-172.6
X153.0Y-138.5
X153.1Y-141.3
X153.1Y-144.6
X153.1Y-178.1
X153.15Y-183.7
X153.6Y-54.85
X153.9Y-155.6
X153.9Y-196.9
X154.1Y-129.1
X154.1Y-131.3
X154.1Y-133.5
X155.1Y-142.1
X155.1Y-160.1
X155.2Y-80.1
X155.2Y-178.05
X155.25Y-75.85
X155.5Y-66.25
X155.5Y-187.0
X155.7Y-94.95
X155.85Y-183.7
X156.05Y-91.7
X156.1Y-196.9
X156.575Y-85.325
X157.2Y-155.6
X157.2Y-160.1
X157.6Y-75.85
X158.1Y-182.65
X159.1Y-191.6
X159.5Y-144.25
X159.5Y-146.0
X159.5Y-159.4
X159.5Y-163.0
X159.75Y-142.0
X159.95Y-75.85
X160.3Y-168.6
X160.4Y-178.0
X160.75Y-163.5
X160.808Y-166.492
X161.3Y-191.6
X161.5Y-186.5
X161.75Y-142.0
X162.0Y-65.0
X162.2Y-80.6
X162.25Y-163.0
X162.5Y-159.4
X162.6Y-131.6
X162.85Y-135.2
X163.0Y-65.0
X163.5Y-75.3
X163.5Y-178.0
X163.55Y-153.35
X163.9Y-131.6
X165.1Y-159.1
X165.2Y-144.7
X165.25Y-138.75
X165.3Y-146.8
X165.401Y-141.1
X165.9Y-77.1
X166.1Y-177.4
X166.2Y-118.4
X167.2Y-159.0
X168.3Y-118.4
X168.3Y-177.3
X169.3Y-135.0
X169.525Y-170.165
X169.8Y-174.8
X170.179Y-88.0
X170.4Y-118.4
X170.5Y-75.6
X170.9Y-161.1
X171.7Y-92.9
X172.75Y-67.05
X172.8Y-70.65
X173.0Y-75.5
X173.0Y-135.0
X173.1Y-165.9
X173.5Y-60.75
X173.973Y-122.75
X174.076Y-86.604
X174.1Y-90.216
X174.25Y-84.75
X174.25Y-84.75
X174.25Y-138.0
X174.5Y-152.0
X174.75Y-57.5
X174.75Y-154.75
X174.8Y-161.1
X175.2Y-165.8
X175.25Y-175.25
X175.3Y-129.0
X175.964Y-176.104
X176.4Y-129.6
X176.5Y-152.0
X176.5Y-154.75
X176.5Y-154.75
X176.8Y-130.9
X176.9Y-72.75
X176.9Y-160.1
X177.0Y-70.5
X177.168Y-128.901
X177.2Y-98.0
X177.5Y-168.844
X177.5Y-171.0
X177.895Y-128.173
X178.0Y-82.5
X178.375Y-112.875
X178.75Y-148.25
X178.8Y-127.7
X179.25Y-63.6
X179.35Y-118.4
X179.35Y-120.5
X179.5Y-70.5
X179.5Y-83.5
X179.5Y-113.5
X179.6Y-123.7
X179.7Y-137.4
X179.8Y-98.0
X180.1Y-78.6
X180.6Y-58.1
X180.75Y-141.0
X180.804Y-123.696
X181.1Y-151.0
X181.2Y-130.182
X181.688Y-70.987
X181.7Y-137.4
X182.0Y-98.0
X182.0Y-124.5
X182.172Y-131.1
X182.192Y-149.292
X182.218Y-140.146
X183.7Y-126.7
X183.7Y-128.2
X183.7Y-129.6
X185.0Y-53.6
X185.127Y-133.962
X185.15Y-128.204
X185.2Y-126.7
X185.2Y-129.6
X185.4Y-133.0
X185.5Y-83.3
X185.8Y-147.5
X186.1Y-118.9
X186.2Y-157.6
X186.2Y-165.8
X186.5Y-126.7
X186.6Y-128.2
X186.6Y-129.6
X187.789Y-123.539
X187.887Y-155.9
X188.1Y-118.9
X188.19Y-124.455
X188.3Y-82.1
X188.5Y-58.8
X188.5Y-61.4
X188.7Y-87.4
X188.7Y-89.5
X188.8Y-85.3
X189.85Y-201.25
X190.0Y-70.25
X190.2Y-63.4
X190.3Y-97.787
X190.7Y-90.5
X192.0Y-112.2
X192.3Y-153.6
X192.3Y-162.0
X192.721Y-136.621
X193.1Y-62.7
X193.1Y-65.3
X193.236Y-138.164
X193.65Y-199.542
X193.8Y-89.573
X193.8Y-92.8
X195.6Y-69.5
X195.7Y-112.3
X196.0Y-97.0
X196.3Y-58.0
X196.438Y-73.062
X197.0Y-115.4
X197.481Y-139.019
X197.5Y-76.75
X197.6Y-85.1
X197.6Y-97.1
X197.75Y-69.45
X198.55Y-58.05
X198.75Y-137.75
X199.103Y-140.05
X199.75Y-127.0
X199.8Y-97.1
X200.0Y-85.1
X200.1Y-125.4
X200.15Y-69.45
X201.0Y-58.05
X201.078Y-139.078
X201.1Y-115.7
X201.4Y-63.499
X201.5Y-79.5
X201.7Y-90.3
X202.0Y-97.1
X202.3Y-69.45
X202.3Y-85.1
X203.637Y-57.337
X204.5Y-84.25
X205.6Y-53.55
X206.6Y-74.8
X206.6Y-76.9
X206.6Y-79.1
X207.262Y-95.237
X207.5Y-63.2
X207.7Y-66.4
X207.7Y-68.7
X207.7Y-71.1
X208.117Y-93.3
X208.25Y-55.354
X210.396Y-87.396
X210.5Y-88.5
X210.7Y-196.7
X212.1Y-62.2
X213.1Y-194.95
X214.9Y-74.4
X216.654Y-80.1
X216.654Y-83.8
X217.1Y-62.1
X217.7Y-192.7
X218.25Y-90.5
X218.25Y-107.439
X219.0Y-64.6
X219.1Y-53.7
X219.1Y-59.3
X220.05Y-67.396
X222.0Y-200.396
X224.7Y-196.9
X227.75Y-67.25
X229.0Y-122.104
X229.361Y-123.861
X230.6Y-193.5
X230.9Y-53.6
X235.3Y-82.776
X235.3Y-90.457
X235.4Y-78.0
X236.5Y-197.4
X237.5Y-60.7
X237.5Y-78.0
X238.9Y-93.6
X239.0Y-91.4
X239.0Y-95.6
X239.4Y-179.4
X239.6Y-78.0
X241.2Y-79.9
X242.0Y-101.0
X242.5Y-80.7
X243.1Y-74.2
X243.3Y-71.6
X244.1Y-82.3
X244.1Y-83.7
X244.1Y-85.1
X244.1Y-86.5
X244.1Y-88.0
X244.3Y-60.8
X244.6Y-185.9
X244.95Y-192.85
X245.08Y-70.28
X245.4Y-195.8
X245.5Y-85.1
X245.5Y-181.7
X245.6Y-82.3
X245.6Y-83.7
X245.6Y-86.6
X245.6Y-88.0
X247.0Y-79.5
X247.0Y-82.3
X247.0Y-83.7
X247.0Y-85.1
X247.0Y-86.6
X247.0Y-88.0
X247.1Y-75.2
X248.3Y-85.1
X248.4Y-82.3
X248.4Y-83.7
X248.4Y-86.6
X248.4Y-88.0
X249.8Y-85.1
X249.8Y-88.0
X249.9Y-82.3
X249.9Y-83.7
X249.9Y-86.6
X250.8Y-60.75
X250.9Y-71.6
X251.1Y-74.1
X251.549Y-80.551
X252.0Y-100.75
X252.9Y-80.4
X254.8Y-78.2
X255.1Y-91.3
X255.1Y-93.4
X255.1Y-95.5
X256.8Y-73.9
X256.8Y-78.2
X257.7Y-60.75
X258.8Y-78.2
X260.25Y-72.25
X264.75Y-102.5
X269.25Y-66.75
X270.086Y-80.164
X270.646Y-117.5
T4
X138.69Y-114.62
X138.69Y-117.16
X138.69Y-119.7
X138.69Y-122.24
X138.69Y-124.78
X143.99Y-63.22
X143.99Y-65.76
X143.99Y-68.3
X143.99Y-70.84
X143.99Y-73.38
X144.09Y-90.72
X144.09Y-93.26
X144.09Y-95.8
X144.09Y-98.34
X144.09Y-100.88
X146.31Y-114.62
X146.31Y-117.16
X146.31Y-119.7
X146.31Y-122.24
X146.31Y-124.78
X150.29Y-114.62
X150.29Y-117.16
X150.29Y-119.7
X150.29Y-122.24
X150.29Y-124.78
X151.61Y-63.22
X151.61Y-65.76
X151.61Y-68.3
X151.61Y-70.84
X151.61Y-73.38
X151.71Y-90.72
X151.71Y-93.26
X151.71Y-95.8
X151.71Y-98.34
X151.71Y-100.88
X157.91Y-114.62
X157.91Y-117.16
X157.91Y-119.7
X157.91Y-122.24
X157.91Y-124.78
X160.39Y-83.37
X160.39Y-85.91
X160.39Y-88.45
X160.39Y-90.99
X160.39Y-93.53
X160.59Y-56.12
X160.59Y-58.66
X160.59Y-61.2
X160.59Y-63.74
X160.59Y-66.28
X161.22Y-103.69
X161.22Y-111.31
X163.76Y-103.69
X163.76Y-111.31
X166.3Y-103.69
X166.3Y-111.31
X168.01Y-83.37
X168.01Y-85.91
X168.01Y-88.45
X168.01Y-90.99
X168.01Y-93.53
X168.21Y-56.12
X168.21Y-58.66
X168.21Y-61.2
X168.21Y-63.74
X168.21Y-66.28
X168.84Y-103.69
X168.84Y-111.31
X171.38Y-103.69
X171.38Y-111.31
T5
X132.575Y-73.2
X132.575Y-100.4
X142.96Y-135.64
X142.96Y-199.14
X145.5Y-135.64
X145.5Y-199.14
X157.4Y-88.5
X161.1Y-118.2
X169.2Y-70.6
X169.2Y-98.4
X169.3Y-129.1
X171.8Y-55.8
X171.8Y-83.0
X171.916Y-143.26
X171.916Y-145.8
X172.3Y-116.1
X173.0Y-129.1
X174.456Y-143.26
X174.456Y-145.8
X176.996Y-143.26
X176.996Y-145.8
X179.536Y-143.26
X179.536Y-145.8
X179.8Y-74.8
X181.06Y-188.98
X181.06Y-191.52
X182.076Y-143.26
X182.076Y-145.8
X183.6Y-188.98
X183.6Y-191.52
X184.616Y-143.26
X184.616Y-145.8
X186.14Y-188.98
X186.14Y-191.52
X186.85Y-68.1
X187.156Y-143.26
X187.156Y-145.8
X187.3Y-95.7
X188.68Y-188.98
X188.68Y-191.52
X188.7Y-104.26
X188.7Y-106.8
X189.6Y-76.6
X189.696Y-143.26
X189.696Y-145.8
X189.8Y-56.0
X191.22Y-188.98
X191.22Y-191.52
X192.236Y-143.26
X192.236Y-145.8
X192.5Y-122.9
X192.5Y-126.6
X192.5Y-130.3
X193.4Y-76.6
X193.7Y-104.26
X193.7Y-106.8
X193.76Y-188.98
X193.76Y-191.52
X194.776Y-143.26
X194.776Y-145.8
X196.3Y-188.98
X196.3Y-191.52
X197.5Y-130.2
X198.1Y-79.7
X198.769Y-104.26
X198.769Y-106.8
X198.84Y-143.26
X198.84Y-145.8
X198.84Y-188.98
X198.84Y-191.52
X201.38Y-143.26
X201.38Y-145.8
X203.2Y-104.26
X203.2Y-106.8
X203.92Y-143.26
X203.92Y-145.8
X203.92Y-188.98
X203.92Y-191.52
X204.75Y-63.65
X204.9Y-91.1
X206.46Y-143.26
X206.46Y-145.8
X206.46Y-188.98
X206.46Y-191.52
X209.0Y-143.26
X209.0Y-145.8
X209.0Y-188.98
X209.0Y-191.52
X209.8Y-118.94
X209.8Y-121.48
X209.8Y-124.02
X209.9Y-98.76
X209.9Y-101.3
X209.9Y-103.84
X209.9Y-108.86
X209.9Y-111.4
X209.9Y-113.94
X211.54Y-143.26
X211.54Y-145.8
X211.54Y-188.98
X211.54Y-191.52
X214.08Y-143.26
X214.08Y-145.8
X214.08Y-188.98
X214.08Y-191.52
X214.8Y-96.9
X216.62Y-143.26
X216.62Y-145.8
X216.62Y-188.98
X216.62Y-191.52
X218.9Y-96.9
X219.16Y-143.26
X219.16Y-145.8
X219.16Y-188.98
X219.16Y-191.52
X221.7Y-143.26
X221.7Y-145.8
X221.7Y-188.98
X221.7Y-191.52
X224.24Y-143.26
X224.24Y-145.8
X224.24Y-188.98
X224.24Y-191.52
X226.78Y-143.26
X226.78Y-145.8
X226.78Y-188.98
X226.78Y-191.52
X229.32Y-143.26
X229.32Y-145.8
X229.32Y-188.98
X229.32Y-191.52
X231.86Y-143.26
X231.86Y-145.8
X231.86Y-188.98
X231.86Y-191.52
X234.4Y-143.26
X234.4Y-145.8
X234.4Y-188.98
X234.4Y-191.52
X236.94Y-143.26
X236.94Y-145.8
X236.94Y-188.98
X236.94Y-191.52
X239.48Y-143.26
X239.48Y-145.8
X239.48Y-188.98
X239.48Y-191.52
X259.8Y-196.6
X259.8Y-199.14
X259.82Y-135.64
X259.82Y-138.18
T6
X223.01Y-70.67
X223.01Y-73.21
X223.01Y-75.75
X223.01Y-78.29
X223.01Y-80.83
X223.01Y-83.37
X223.01Y-85.91
X223.01Y-88.45
X223.01Y-90.99
X223.01Y-93.53
X223.01Y-96.07
X223.01Y-98.61
X223.01Y-101.15
X223.01Y-103.69
X223.01Y-106.23
X223.01Y-108.77
X223.01Y-111.31
X223.01Y-113.85
X223.01Y-116.39
X223.01Y-118.93
X225.55Y-70.67
X225.55Y-73.21
X225.55Y-75.75
X225.55Y-78.29
X225.55Y-80.83
X225.55Y-83.37
X225.55Y-85.91
X225.55Y-88.45
X225.55Y-90.99
X225.55Y-93.53
X225.55Y-96.07
X225.55Y-98.61
X225.55Y-101.15
X225.55Y-103.69
X225.55Y-106.23
X225.55Y-108.77
X225.55Y-111.31
X225.55Y-113.85
X225.55Y-116.39
X225.55Y-118.93
X266.32Y-70.67
X266.32Y-73.21
X266.32Y-75.75
X266.32Y-78.29
X266.32Y-80.83
X266.32Y-83.37
X266.32Y-85.91
X266.32Y-88.45
X266.32Y-90.99
X266.32Y-93.53
X266.32Y-96.07
X266.32Y-98.61
X266.32Y-101.15
X266.32Y-103.69
X266.32Y-106.23
X266.32Y-108.77
X266.32Y-111.31
X266.32Y-113.85
X266.32Y-116.39
X266.32Y-118.93
X268.86Y-70.67
X268.86Y-73.21
X268.86Y-75.75
X268.86Y-78.29
X268.86Y-80.83
X268.86Y-83.37
X268.86Y-85.91
X268.86Y-88.45
X268.86Y-90.99
X268.86Y-93.53
X268.86Y-96.07
X268.86Y-98.61
X268.86Y-101.15
X268.86Y-103.69
X268.86Y-106.23
X268.86Y-108.77
X268.86Y-111.31
X268.86Y-113.85
X268.86Y-116.39
X268.86Y-118.93
T7
X130.175Y-61.175
X130.175Y-88.675
X130.175Y-116.175
T8
X130.468Y-176.25
X130.468Y-181.25
X130.468Y-188.25
X130.468Y-193.25
X130.468Y-198.25
T9
X127.0Y-58.0
X127.0Y-64.35
X127.0Y-85.5
X127.0Y-91.85
X127.0Y-113.0
X127.0Y-119.35
X133.35Y-58.0
X133.35Y-64.35
X133.35Y-85.5
X133.35Y-91.85
X133.35Y-113.0
X133.35Y-119.35
T10
X224.79Y-57.46
X224.79Y-126.29
X267.21Y-57.46
X267.21Y-126.29
M30
