%TF.GenerationSoftware,KiCad,Pcbnew,9.0.6-9.0.6~ubuntu24.04.1*%
%TF.CreationDate,2025-12-16T01:58:27+01:00*%
%TF.ProjectId,DigitalOsciloscope,44696769-7461-46c4-9f73-63696c6f7363,rev?*%
%TF.SameCoordinates,Original*%
%TF.FileFunction,Soldermask,Bot*%
%TF.FilePolarity,Negative*%
%FSLAX46Y46*%
G04 Gerber Fmt 4.6, Leading zero omitted, Abs format (unit mm)*
G04 Created by KiCad (PCBNEW 9.0.6-9.0.6~ubuntu24.04.1) date 2025-12-16 01:58:27*
%MOMM*%
%LPD*%
G01*
G04 APERTURE LIST*
G04 Aperture macros list*
%AMRoundRect*
0 Rectangle with rounded corners*
0 $1 Rounding radius*
0 $2 $3 $4 $5 $6 $7 $8 $9 X,Y pos of 4 corners*
0 Add a 4 corners polygon primitive as box body*
4,1,4,$2,$3,$4,$5,$6,$7,$8,$9,$2,$3,0*
0 Add four circle primitives for the rounded corners*
1,1,$1+$1,$2,$3*
1,1,$1+$1,$4,$5*
1,1,$1+$1,$6,$7*
1,1,$1+$1,$8,$9*
0 Add four rect primitives between the rounded corners*
20,1,$1+$1,$2,$3,$4,$5,0*
20,1,$1+$1,$4,$5,$6,$7,0*
20,1,$1+$1,$6,$7,$8,$9,0*
20,1,$1+$1,$8,$9,$2,$3,0*%
G04 Aperture macros list end*
%ADD10R,1.700000X1.700000*%
%ADD11C,1.700000*%
%ADD12RoundRect,0.102000X0.754000X-0.754000X0.754000X0.754000X-0.754000X0.754000X-0.754000X-0.754000X0*%
%ADD13C,1.712000*%
%ADD14O,2.500000X1.600000*%
%ADD15O,7.000000X3.500000*%
%ADD16RoundRect,0.250001X1.149999X-1.149999X1.149999X1.149999X-1.149999X1.149999X-1.149999X-1.149999X0*%
%ADD17C,2.800000*%
%ADD18RoundRect,0.102000X0.795000X0.795000X-0.795000X0.795000X-0.795000X-0.795000X0.795000X-0.795000X0*%
%ADD19C,1.794000*%
G04 APERTURE END LIST*
D10*
%TO.C,J10*%
X214760000Y-57100000D03*
D11*
X217300000Y-57100000D03*
%TD*%
D10*
%TO.C,J8*%
X227400000Y-57100000D03*
D11*
X229940000Y-57100000D03*
%TD*%
D10*
%TO.C,J7*%
X248760000Y-57100000D03*
D11*
X251300000Y-57100000D03*
X253840000Y-57100000D03*
%TD*%
D10*
%TO.C,J9*%
X221060000Y-57100000D03*
D11*
X223600000Y-57100000D03*
%TD*%
D12*
%TO.C,U11*%
X142960000Y-199140000D03*
D13*
X145500000Y-199140000D03*
D12*
X142960000Y-135640000D03*
D13*
X145500000Y-135640000D03*
D12*
X171916000Y-145800000D03*
D13*
X171916000Y-143260000D03*
X174456000Y-145800000D03*
X174456000Y-143260000D03*
X176996000Y-145800000D03*
X176996000Y-143260000D03*
X179536000Y-145800000D03*
X179536000Y-143260000D03*
X182076000Y-145800000D03*
X182076000Y-143260000D03*
X184616000Y-145800000D03*
X184616000Y-143260000D03*
X187156000Y-145800000D03*
X187156000Y-143260000D03*
X189696000Y-145800000D03*
X189696000Y-143260000D03*
X192236000Y-145800000D03*
X192236000Y-143260000D03*
X194776000Y-145800000D03*
X194776000Y-143260000D03*
D12*
X181060000Y-191520000D03*
D13*
X181060000Y-188980000D03*
X183600000Y-191520000D03*
X183600000Y-188980000D03*
X186140000Y-191520000D03*
X186140000Y-188980000D03*
X188680000Y-191520000D03*
X188680000Y-188980000D03*
X191220000Y-191520000D03*
X191220000Y-188980000D03*
X193760000Y-191520000D03*
X193760000Y-188980000D03*
X196300000Y-191520000D03*
X196300000Y-188980000D03*
X198840000Y-191520000D03*
X198840000Y-188980000D03*
D12*
X203920000Y-191520000D03*
D13*
X203920000Y-188980000D03*
X206460000Y-191520000D03*
X206460000Y-188980000D03*
X209000000Y-191520000D03*
X209000000Y-188980000D03*
X211540000Y-191520000D03*
X211540000Y-188980000D03*
X214080000Y-191520000D03*
X214080000Y-188980000D03*
X216620000Y-191520000D03*
X216620000Y-188980000D03*
X219160000Y-191520000D03*
X219160000Y-188980000D03*
X221700000Y-191520000D03*
X221700000Y-188980000D03*
X224240000Y-191520000D03*
X224240000Y-188980000D03*
X226780000Y-191520000D03*
X226780000Y-188980000D03*
X229320000Y-191520000D03*
X229320000Y-188980000D03*
X231860000Y-191520000D03*
X231860000Y-188980000D03*
X234400000Y-191520000D03*
X234400000Y-188980000D03*
X236940000Y-191520000D03*
X236940000Y-188980000D03*
X239480000Y-191520000D03*
X239480000Y-188980000D03*
D12*
X198840000Y-145800000D03*
D13*
X198840000Y-143260000D03*
X201380000Y-145800000D03*
X201380000Y-143260000D03*
X203920000Y-145800000D03*
X203920000Y-143260000D03*
X206460000Y-145800000D03*
X206460000Y-143260000D03*
X209000000Y-145800000D03*
X209000000Y-143260000D03*
X211540000Y-145800000D03*
X211540000Y-143260000D03*
X214080000Y-145800000D03*
X214080000Y-143260000D03*
X216620000Y-145800000D03*
X216620000Y-143260000D03*
X219160000Y-145800000D03*
X219160000Y-143260000D03*
X221700000Y-145800000D03*
X221700000Y-143260000D03*
X224240000Y-145800000D03*
X224240000Y-143260000D03*
X226780000Y-145800000D03*
X226780000Y-143260000D03*
X229320000Y-145800000D03*
X229320000Y-143260000D03*
X231860000Y-145800000D03*
X231860000Y-143260000D03*
X234400000Y-145800000D03*
X234400000Y-143260000D03*
X236940000Y-145800000D03*
X236940000Y-143260000D03*
X239480000Y-145800000D03*
X239480000Y-143260000D03*
D12*
X259820000Y-138180000D03*
D13*
X259820000Y-135640000D03*
D12*
X259800000Y-199140000D03*
D13*
X259800000Y-196600000D03*
%TD*%
D14*
%TO.C,J2*%
X134080000Y-90000000D03*
D15*
X129000000Y-95080000D03*
D14*
X134080000Y-92540000D03*
D15*
X129000000Y-84920000D03*
%TD*%
D16*
%TO.C,J12*%
X130467500Y-198250000D03*
D17*
X130467500Y-193250000D03*
X130467500Y-188250000D03*
%TD*%
D10*
%TO.C,J4*%
X239960000Y-57100000D03*
D11*
X242500000Y-57100000D03*
X245040000Y-57100000D03*
%TD*%
D16*
%TO.C,J11*%
X130467500Y-181250000D03*
D17*
X130467500Y-176250000D03*
%TD*%
D10*
%TO.C,J6*%
X233675000Y-57100000D03*
D11*
X236215000Y-57100000D03*
%TD*%
D14*
%TO.C,J1*%
X134150000Y-63310000D03*
D15*
X129070000Y-68390000D03*
D14*
X134150000Y-65850000D03*
D15*
X129070000Y-58230000D03*
%TD*%
D10*
%TO.C,J5*%
X267915000Y-124710000D03*
D11*
X267915000Y-127250000D03*
X267915000Y-129790000D03*
%TD*%
D18*
%TO.C,U10*%
X225550000Y-70670000D03*
D19*
X223010000Y-70670000D03*
X225550000Y-73210000D03*
X223010000Y-73210000D03*
X225550000Y-75750000D03*
X223010000Y-75750000D03*
X225550000Y-78290000D03*
X223010000Y-78290000D03*
X225550000Y-80830000D03*
X223010000Y-80830000D03*
X225550000Y-83370000D03*
X223010000Y-83370000D03*
X225550000Y-85910000D03*
X223010000Y-85910000D03*
X225550000Y-88450000D03*
X223010000Y-88450000D03*
X225550000Y-90990000D03*
X223010000Y-90990000D03*
X225550000Y-93530000D03*
X223010000Y-93530000D03*
X225550000Y-96070000D03*
X223010000Y-96070000D03*
X225550000Y-98610000D03*
X223010000Y-98610000D03*
X225550000Y-101150000D03*
X223010000Y-101150000D03*
X225550000Y-103690000D03*
X223010000Y-103690000D03*
X225550000Y-106230000D03*
X223010000Y-106230000D03*
X225550000Y-108770000D03*
X223010000Y-108770000D03*
X225550000Y-111310000D03*
X223010000Y-111310000D03*
X225550000Y-113850000D03*
X223010000Y-113850000D03*
X225550000Y-116390000D03*
X223010000Y-116390000D03*
X225550000Y-118930000D03*
X223010000Y-118930000D03*
D18*
X266320000Y-118930000D03*
D19*
X268860000Y-118930000D03*
X266320000Y-116390000D03*
X268860000Y-116390000D03*
X266320000Y-113850000D03*
X268860000Y-113850000D03*
X266320000Y-111310000D03*
X268860000Y-111310000D03*
X266320000Y-108770000D03*
X268860000Y-108770000D03*
X266320000Y-106230000D03*
X268860000Y-106230000D03*
X266320000Y-103690000D03*
X268860000Y-103690000D03*
X266320000Y-101150000D03*
X268860000Y-101150000D03*
X266320000Y-98610000D03*
X268860000Y-98610000D03*
X266320000Y-96070000D03*
X268860000Y-96070000D03*
X266320000Y-93530000D03*
X268860000Y-93530000D03*
X266320000Y-90990000D03*
X268860000Y-90990000D03*
X266320000Y-88450000D03*
X268860000Y-88450000D03*
X266320000Y-85910000D03*
X268860000Y-85910000D03*
X266320000Y-83370000D03*
X268860000Y-83370000D03*
X266320000Y-80830000D03*
X268860000Y-80830000D03*
X266320000Y-78290000D03*
X268860000Y-78290000D03*
X266320000Y-75750000D03*
X268860000Y-75750000D03*
X266320000Y-73210000D03*
X268860000Y-73210000D03*
X266320000Y-70670000D03*
X268860000Y-70670000D03*
%TD*%
M02*
