M48
; DRILL file {KiCad 9.0.6-9.0.6~ubuntu24.04.1} date 2025-12-14T16:38:08+0100
; FORMAT={-:-/ absolute / metric / decimal}
; #@! TF.CreationDate,2025-12-14T16:38:08+01:00
; #@! TF.GenerationSoftware,Kicad,Pcbnew,9.0.6-9.0.6~ubuntu24.04.1
; #@! TF.FileFunction,Plated,1,4,PTH
FMAT,2
METRIC
; #@! TA.AperFunction,Plated,PTH,ViaDrill
T1C0.200
; #@! TA.AperFunction,Plated,PTH,ViaDrill
T2C0.300
; #@! TA.AperFunction,Plated,PTH,ViaDrill
T3C0.400
; #@! TA.AperFunction,Plated,PTH,ComponentDrill
T4C0.890
; #@! TA.AperFunction,Plated,PTH,ComponentDrill
T5C1.000
; #@! TA.AperFunction,Plated,PTH,ComponentDrill
T6C1.060
; #@! TA.AperFunction,Plated,PTH,ComponentDrill
T7C1.300
; #@! TA.AperFunction,Plated,PTH,ComponentDrill
T8C2.010
%
G90
G05
T1
X241.338Y-84.095
X241.4Y-83.38
X245.75Y-79.0
X246.75Y-90.53
X252.37Y-84.88
X252.4Y-83.4
X253.15Y-84.15
X254.25Y-83.0
T2
X141.29Y-105.297
X142.14Y-94.447
X143.29Y-105.397
X146.189Y-90.897
X148.0Y-182.4
X149.7Y-184.1
X153.8Y-186.7
X156.3Y-186.8
X157.9Y-181.7
X157.9Y-183.9
X159.7Y-186.7
X168.94Y-81.9
X171.04Y-81.962
X173.14Y-81.962
X173.2Y-191.8
X177.623Y-98.938
X178.023Y-93.138
X180.123Y-93.138
X181.623Y-98.938
X182.423Y-102.087
X198.8Y-196.9
X213.9Y-137.5
X217.2Y-137.4
X233.269Y-76.943
X235.01Y-88.76
X235.68Y-127.68
X236.479Y-127.634
X238.44Y-89.68
X239.28Y-92.36
X240.5Y-89.66
X245.15Y-74.65
X248.9Y-71.6
X249.15Y-74.6
X251.65Y-71.034
X253.48Y-89.64
X253.65Y-71.034
X254.63Y-92.33
X255.56Y-89.6
X258.95Y-88.74
X261.1Y-78.2
X268.45Y-67.2
T3
X130.213Y-144.0
X130.3Y-147.6
X130.3Y-154.4
X130.3Y-157.9
X130.3Y-161.4
X130.3Y-164.8
X130.9Y-184.5
X132.7Y-184.4
X134.0Y-179.1
X134.2Y-176.1
X134.3Y-192.9
X134.4Y-195.8
X134.4Y-198.9
X134.5Y-184.6
X136.4Y-173.2
X136.4Y-181.9
X136.9Y-179.2
X137.4Y-176.2
X137.6Y-193.0
X137.7Y-195.8
X137.9Y-199.0
X138.0Y-54.0
X138.0Y-57.0
X138.0Y-59.0
X138.0Y-61.0
X138.0Y-65.0
X138.0Y-68.0
X138.0Y-71.0
X138.0Y-74.0
X138.0Y-77.0
X138.0Y-80.0
X138.0Y-83.0
X138.0Y-86.0
X138.0Y-88.0
X138.0Y-92.0
X138.0Y-95.0
X138.0Y-98.0
X138.0Y-101.0
X138.0Y-104.0
X138.0Y-107.0
X138.0Y-109.0
X138.0Y-111.0
X138.0Y-113.5
X138.0Y-116.0
X138.0Y-119.0
X138.0Y-121.5
X138.0Y-124.0
X138.0Y-127.0
X138.0Y-129.5
X138.5Y-168.5
X138.5Y-174.4
X138.512Y-140.55
X138.612Y-143.9
X138.7Y-150.9
X138.7Y-154.4
X138.8Y-147.5
X138.8Y-157.9
X138.8Y-161.3
X138.8Y-164.8
X138.9Y-181.9
X139.3Y-179.3
X139.6Y-176.2
X139.85Y-77.5
X140.0Y-129.5
X140.4Y-172.2
X140.5Y-164.5
X140.5Y-167.0
X140.5Y-170.25
X140.6Y-174.5
X140.7Y-147.7
X141.1Y-144.45
X141.8Y-184.6
X141.8Y-187.0
X142.0Y-54.0
X142.0Y-107.0
X142.0Y-164.5
X142.0Y-167.0
X142.0Y-170.25
X142.0Y-172.2
X142.3Y-67.7
X142.3Y-181.7
X142.4Y-179.6
X142.5Y-80.0
X143.0Y-129.5
X143.1Y-117.45
X143.3Y-77.5
X143.4Y-125.35
X144.2Y-147.6
X145.3Y-166.3
X145.45Y-125.35
X145.5Y-129.5
X145.6Y-138.5
X145.6Y-140.6
X146.0Y-54.0
X146.0Y-107.0
X146.2Y-64.8
X146.3Y-153.45
X147.0Y-168.5
X147.474Y-156.827
X147.6Y-125.3
X148.2Y-199.1
X148.4Y-129.5
X148.4Y-190.6
X148.8Y-159.4
X149.4Y-148.3
X149.4Y-174.2
X149.6Y-151.9
X149.7Y-112.1
X150.0Y-54.0
X150.0Y-80.0
X150.0Y-107.0
X150.3Y-159.4
X151.4Y-164.9
X151.4Y-199.1
X151.6Y-150.3
X151.7Y-112.1
X151.7Y-144.6
X151.8Y-138.5
X151.8Y-141.3
X152.2Y-170.5
X152.3Y-172.6
X153.0Y-138.5
X153.1Y-141.3
X153.1Y-144.6
X153.1Y-178.1
X153.8Y-61.5
X153.9Y-59.5
X153.9Y-64.7
X153.9Y-87.6
X153.9Y-155.6
X153.9Y-196.9
X154.0Y-54.0
X154.0Y-85.6
X154.0Y-89.097
X154.0Y-112.8
X154.0Y-129.5
X154.2Y-183.65
X155.1Y-142.1
X155.1Y-160.1
X155.1Y-163.05
X155.2Y-178.05
X156.0Y-80.0
X156.05Y-112.75
X156.1Y-196.9
X156.55Y-62.55
X156.55Y-64.5
X156.55Y-88.6
X156.65Y-90.55
X157.0Y-54.0
X157.1Y-136.2
X157.2Y-155.6
X157.2Y-160.1
X157.7Y-83.95
X157.9Y-56.308
X157.9Y-58.042
X158.1Y-112.75
X158.9Y-82.05
X159.0Y-107.0
X159.0Y-142.2
X159.1Y-191.6
X159.4Y-147.0
X159.5Y-129.5
X159.5Y-150.4
X159.5Y-159.4
X159.6Y-119.4
X159.7Y-163.1
X159.7Y-164.65
X160.0Y-54.0
X160.3Y-168.6
X160.4Y-178.0
X160.9Y-90.3
X161.1Y-142.1
X161.188Y-64.045
X161.3Y-191.6
X161.5Y-129.5
X161.5Y-186.9
X161.7Y-150.3
X161.8Y-147.0
X161.8Y-148.6
X162.0Y-80.0
X162.0Y-107.0
X162.25Y-163.0
X162.5Y-159.4
X162.7Y-157.5
X163.0Y-54.0
X163.15Y-91.95
X163.5Y-178.0
X163.55Y-65.7
X163.95Y-154.4
X165.0Y-80.0
X165.0Y-107.0
X165.1Y-159.1
X165.491Y-150.5
X165.5Y-129.5
X166.0Y-54.0
X166.1Y-177.4
X166.7Y-92.0
X167.0Y-66.9
X167.2Y-159.0
X168.0Y-80.0
X168.0Y-107.0
X168.3Y-177.3
X168.7Y-68.75
X168.704Y-150.4
X168.8Y-76.45
X168.9Y-56.05
X168.9Y-102.65
X168.95Y-95.0
X169.0Y-54.0
X169.35Y-116.45
X169.5Y-129.5
X169.525Y-170.165
X169.8Y-174.8
X170.55Y-88.85
X170.7Y-62.5
X170.9Y-161.1
X170.95Y-56.05
X171.0Y-80.0
X172.0Y-54.0
X172.5Y-129.5
X172.6Y-71.3
X172.6Y-73.35
X172.6Y-97.65
X172.6Y-99.7
X172.8Y-107.0
X173.05Y-56.05
X173.1Y-125.25
X173.1Y-165.9
X173.15Y-120.6
X173.162Y-127.05
X174.0Y-80.0
X174.2Y-112.95
X174.3Y-95.0
X174.3Y-153.0
X174.3Y-155.7
X174.35Y-69.05
X174.8Y-161.1
X175.0Y-54.0
X175.05Y-113.6
X175.1Y-120.65
X175.2Y-126.45
X175.2Y-165.8
X175.5Y-129.5
X176.1Y-115.7
X176.156Y-86.79
X176.3Y-153.0
X176.3Y-155.8
X176.4Y-60.85
X176.834Y-121.161
X176.9Y-103.3
X176.95Y-77.0
X176.95Y-86.05
X177.0Y-80.0
X177.2Y-117.55
X177.2Y-119.45
X177.2Y-123.35
X177.2Y-126.45
X177.5Y-169.2
X177.5Y-171.0
X177.608Y-72.8
X177.7Y-120.661
X177.75Y-59.1
X177.75Y-109.0
X177.9Y-66.95
X178.0Y-54.0
X178.0Y-129.5
X178.9Y-80.0
X178.9Y-169.2
X178.9Y-170.9
X179.1Y-115.7
X179.13Y-66.95
X179.565Y-69.735
X179.58Y-73.25
X179.6Y-77.9
X179.613Y-95.987
X179.64Y-99.426
X179.65Y-104.0
X179.9Y-109.25
X180.0Y-107.0
X180.15Y-119.55
X180.2Y-121.05
X180.25Y-122.45
X180.35Y-66.95
X181.0Y-54.0
X181.3Y-114.75
X181.6Y-72.6
X181.75Y-119.6
X181.75Y-122.45
X181.775Y-121.075
X182.1Y-75.5
X182.3Y-112.95
X182.599Y-131.9
X182.6Y-125.05
X183.0Y-80.0
X183.2Y-122.5
X183.25Y-119.6
X183.25Y-121.05
X183.4Y-113.1
X183.513Y-131.494
X183.6Y-112.05
X184.0Y-54.0
X184.5Y-129.5
X184.7Y-118.16
X184.75Y-67.7
X184.816Y-93.966
X185.45Y-113.15
X185.7Y-117.6
X186.0Y-80.0
X186.0Y-107.0
X186.373Y-96.037
X186.373Y-98.441
X186.5Y-71.8
X186.55Y-69.7
X187.0Y-54.0
X187.5Y-129.5
X187.5Y-148.25
X189.0Y-80.0
X189.0Y-107.0
X190.0Y-54.0
X190.0Y-152.2
X190.05Y-165.3
X190.461Y-134.448
X190.5Y-68.6
X190.5Y-110.5
X190.5Y-113.0
X190.5Y-124.0
X190.5Y-125.5
X190.5Y-127.5
X190.5Y-129.5
X190.5Y-157.1
X190.75Y-95.25
X191.2Y-201.25
X191.6Y-133.2
X192.0Y-80.0
X192.0Y-107.0
X192.3Y-65.7
X192.3Y-67.76
X192.3Y-162.0
X192.35Y-69.8
X192.55Y-92.3
X192.55Y-94.35
X192.55Y-96.4
X192.6Y-129.5
X192.688Y-154.713
X192.7Y-131.4
X193.0Y-54.0
X193.2Y-124.0
X194.3Y-111.4
X194.4Y-166.9
X194.8Y-161.7
X194.9Y-158.6
X195.0Y-80.0
X195.0Y-107.0
X195.9Y-119.1
X196.0Y-54.0
X196.84Y-127.076
X197.426Y-62.64
X197.5Y-129.4
X197.7Y-65.65
X197.7Y-67.76
X197.7Y-69.85
X197.713Y-89.235
X197.9Y-92.25
X197.95Y-94.35
X197.95Y-96.4
X198.0Y-58.51
X198.0Y-107.0
X198.0Y-123.5
X198.28Y-85.06
X198.94Y-127.076
X199.0Y-54.0
X199.4Y-119.05
X199.5Y-66.8
X199.5Y-68.6
X199.5Y-129.5
X199.595Y-139.573
X199.75Y-95.25
X199.8Y-93.4
X201.0Y-80.0
X201.0Y-107.0
X201.0Y-127.1
X201.1Y-58.5
X201.3Y-139.4
X201.35Y-85.05
X201.5Y-63.4
X202.0Y-54.0
X202.72Y-119.096
X203.05Y-88.8
X203.1Y-126.1
X203.1Y-134.417
X203.8Y-133.2
X204.0Y-80.0
X204.0Y-107.0
X204.6Y-127.4
X205.0Y-54.0
X205.5Y-129.5
X206.1Y-119.1
X206.5Y-126.2
X206.5Y-127.4
X206.55Y-139.278
X207.0Y-80.0
X207.0Y-107.0
X208.0Y-54.0
X208.5Y-129.5
X208.5Y-136.1
X209.827Y-123.641
X209.867Y-125.131
X210.0Y-54.0
X210.0Y-80.0
X210.0Y-107.0
X212.0Y-54.0
X212.0Y-60.0
X212.0Y-63.0
X212.0Y-66.0
X212.0Y-69.0
X212.0Y-72.0
X212.0Y-75.0
X212.0Y-78.0
X212.0Y-80.0
X212.0Y-86.5
X212.0Y-89.0
X212.0Y-91.5
X212.0Y-94.0
X212.0Y-96.5
X212.0Y-99.5
X212.0Y-102.0
X212.0Y-105.0
X212.0Y-107.0
X212.0Y-109.5
X212.0Y-113.0
X212.0Y-115.5
X212.0Y-118.0
X212.0Y-121.0
X212.0Y-127.5
X212.0Y-129.5
X218.686Y-137.508
X220.05Y-85.1
X221.5Y-106.2
X222.0Y-196.9
X223.9Y-84.5
X226.4Y-57.25
X226.45Y-59.4
X228.781Y-195.281
X229.361Y-127.772
X229.361Y-128.8
X230.6Y-193.5
X232.9Y-198.2
X233.0Y-106.2
X233.3Y-62.1
X233.3Y-79.2
X233.4Y-125.45
X234.128Y-124.348
X234.235Y-86.653
X235.3Y-82.3
X235.4Y-78.0
X236.15Y-60.9
X237.5Y-78.0
X237.9Y-111.7
X239.342Y-82.642
X239.6Y-78.0
X240.05Y-59.35
X240.2Y-69.7
X240.5Y-71.0
X241.2Y-79.9
X241.911Y-71.011
X242.2Y-116.1
X242.45Y-59.35
X242.5Y-80.7
X243.2Y-71.0
X243.5Y-193.812
X244.1Y-82.3
X244.1Y-83.7
X244.1Y-85.1
X244.1Y-86.5
X244.1Y-88.0
X244.45Y-195.688
X245.5Y-85.1
X245.6Y-82.3
X245.6Y-83.7
X245.6Y-86.6
X245.6Y-88.0
X246.5Y-196.9
X247.0Y-79.5
X247.0Y-82.3
X247.0Y-83.7
X247.0Y-85.1
X247.0Y-86.6
X247.0Y-88.0
X247.1Y-75.2
X247.95Y-64.375
X248.3Y-85.1
X248.4Y-82.3
X248.4Y-83.7
X248.4Y-86.6
X248.4Y-88.0
X249.8Y-85.1
X249.8Y-88.0
X249.9Y-82.3
X249.9Y-83.7
X249.9Y-86.6
X251.475Y-80.9
X252.8Y-81.35
X254.6Y-115.8
X254.8Y-78.2
X256.2Y-115.6
X256.8Y-73.9
X256.8Y-78.2
X258.8Y-78.2
X259.69Y-124.1
X260.25Y-72.25
X261.1Y-81.4
X264.181Y-103.071
X269.465Y-79.547
X269.9Y-107.3
X270.123Y-84.723
T4
X134.08Y-90.0
X134.08Y-92.54
X134.15Y-63.31
X134.15Y-65.85
T5
X142.96Y-135.64
X142.96Y-199.14
X145.5Y-135.64
X145.5Y-199.14
X171.916Y-143.26
X171.916Y-145.8
X174.456Y-143.26
X174.456Y-145.8
X176.996Y-143.26
X176.996Y-145.8
X179.536Y-143.26
X179.536Y-145.8
X181.06Y-188.98
X181.06Y-191.52
X182.076Y-143.26
X182.076Y-145.8
X183.6Y-188.98
X183.6Y-191.52
X184.616Y-143.26
X184.616Y-145.8
X186.14Y-188.98
X186.14Y-191.52
X187.156Y-143.26
X187.156Y-145.8
X188.68Y-188.98
X188.68Y-191.52
X189.696Y-143.26
X189.696Y-145.8
X191.22Y-188.98
X191.22Y-191.52
X192.236Y-143.26
X192.236Y-145.8
X193.76Y-188.98
X193.76Y-191.52
X194.776Y-143.26
X194.776Y-145.8
X196.3Y-188.98
X196.3Y-191.52
X198.84Y-143.26
X198.84Y-145.8
X198.84Y-188.98
X198.84Y-191.52
X201.38Y-143.26
X201.38Y-145.8
X203.92Y-143.26
X203.92Y-145.8
X203.92Y-188.98
X203.92Y-191.52
X206.46Y-143.26
X206.46Y-145.8
X206.46Y-188.98
X206.46Y-191.52
X209.0Y-143.26
X209.0Y-145.8
X209.0Y-188.98
X209.0Y-191.52
X211.54Y-143.26
X211.54Y-145.8
X211.54Y-188.98
X211.54Y-191.52
X214.08Y-143.26
X214.08Y-145.8
X214.08Y-188.98
X214.08Y-191.52
X214.855Y-54.505
X216.62Y-143.26
X216.62Y-145.8
X216.62Y-188.98
X216.62Y-191.52
X217.395Y-54.505
X219.16Y-143.26
X219.16Y-145.8
X219.16Y-188.98
X219.16Y-191.52
X221.125Y-54.505
X221.7Y-143.26
X221.7Y-145.8
X221.7Y-188.98
X221.7Y-191.52
X223.665Y-54.505
X224.24Y-143.26
X224.24Y-145.8
X224.24Y-188.98
X224.24Y-191.52
X226.78Y-143.26
X226.78Y-145.8
X226.78Y-188.98
X226.78Y-191.52
X227.425Y-54.485
X229.32Y-143.26
X229.32Y-145.8
X229.32Y-188.98
X229.32Y-191.52
X229.965Y-54.485
X231.86Y-143.26
X231.86Y-145.8
X231.86Y-188.98
X231.86Y-191.52
X233.675Y-54.505
X234.4Y-143.26
X234.4Y-145.8
X234.4Y-188.98
X234.4Y-191.52
X236.215Y-54.505
X236.94Y-143.26
X236.94Y-145.8
X236.94Y-188.98
X236.94Y-191.52
X239.48Y-143.26
X239.48Y-145.8
X239.48Y-188.98
X239.48Y-191.52
X239.91Y-54.505
X242.45Y-54.505
X244.99Y-54.505
X248.71Y-54.455
X251.25Y-54.455
X253.79Y-54.455
X259.8Y-196.6
X259.8Y-199.14
X259.82Y-135.64
X259.82Y-138.18
X269.35Y-123.325
X269.35Y-125.865
X269.35Y-128.405
T6
X223.01Y-70.67
X223.01Y-73.21
X223.01Y-75.75
X223.01Y-78.29
X223.01Y-80.83
X223.01Y-83.37
X223.01Y-85.91
X223.01Y-88.45
X223.01Y-90.99
X223.01Y-93.53
X223.01Y-96.07
X223.01Y-98.61
X223.01Y-101.15
X223.01Y-103.69
X223.01Y-106.23
X223.01Y-108.77
X223.01Y-111.31
X223.01Y-113.85
X223.01Y-116.39
X223.01Y-118.93
X225.55Y-70.67
X225.55Y-73.21
X225.55Y-75.75
X225.55Y-78.29
X225.55Y-80.83
X225.55Y-83.37
X225.55Y-85.91
X225.55Y-88.45
X225.55Y-90.99
X225.55Y-93.53
X225.55Y-96.07
X225.55Y-98.61
X225.55Y-101.15
X225.55Y-103.69
X225.55Y-106.23
X225.55Y-108.77
X225.55Y-111.31
X225.55Y-113.85
X225.55Y-116.39
X225.55Y-118.93
X266.32Y-70.67
X266.32Y-73.21
X266.32Y-75.75
X266.32Y-78.29
X266.32Y-80.83
X266.32Y-83.37
X266.32Y-85.91
X266.32Y-88.45
X266.32Y-90.99
X266.32Y-93.53
X266.32Y-96.07
X266.32Y-98.61
X266.32Y-101.15
X266.32Y-103.69
X266.32Y-106.23
X266.32Y-108.77
X266.32Y-111.31
X266.32Y-113.85
X266.32Y-116.39
X266.32Y-118.93
X268.86Y-70.67
X268.86Y-73.21
X268.86Y-75.75
X268.86Y-78.29
X268.86Y-80.83
X268.86Y-83.37
X268.86Y-85.91
X268.86Y-88.45
X268.86Y-90.99
X268.86Y-93.53
X268.86Y-96.07
X268.86Y-98.61
X268.86Y-101.15
X268.86Y-103.69
X268.86Y-106.23
X268.86Y-108.77
X268.86Y-111.31
X268.86Y-113.85
X268.86Y-116.39
X268.86Y-118.93
T7
X130.468Y-176.25
X130.468Y-181.25
X130.468Y-188.25
X130.468Y-193.25
X130.468Y-198.25
T8
X129.0Y-84.92
X129.0Y-95.08
X129.07Y-58.23
X129.07Y-68.39
M30
