%TF.GenerationSoftware,KiCad,Pcbnew,9.0.6-9.0.6~ubuntu24.04.1*%
%TF.CreationDate,2025-12-14T16:37:41+01:00*%
%TF.ProjectId,DigitalOsciloscope,44696769-7461-46c4-9f73-63696c6f7363,rev?*%
%TF.SameCoordinates,Original*%
%TF.FileFunction,Soldermask,Top*%
%TF.FilePolarity,Negative*%
%FSLAX46Y46*%
G04 Gerber Fmt 4.6, Leading zero omitted, Abs format (unit mm)*
G04 Created by KiCad (PCBNEW 9.0.6-9.0.6~ubuntu24.04.1) date 2025-12-14 16:37:41*
%MOMM*%
%LPD*%
G01*
G04 APERTURE LIST*
G04 Aperture macros list*
%AMRoundRect*
0 Rectangle with rounded corners*
0 $1 Rounding radius*
0 $2 $3 $4 $5 $6 $7 $8 $9 X,Y pos of 4 corners*
0 Add a 4 corners polygon primitive as box body*
4,1,4,$2,$3,$4,$5,$6,$7,$8,$9,$2,$3,0*
0 Add four circle primitives for the rounded corners*
1,1,$1+$1,$2,$3*
1,1,$1+$1,$4,$5*
1,1,$1+$1,$6,$7*
1,1,$1+$1,$8,$9*
0 Add four rect primitives between the rounded corners*
20,1,$1+$1,$2,$3,$4,$5,0*
20,1,$1+$1,$4,$5,$6,$7,0*
20,1,$1+$1,$6,$7,$8,$9,0*
20,1,$1+$1,$8,$9,$2,$3,0*%
%AMFreePoly0*
4,1,9,3.862500,-0.866500,0.737500,-0.866500,0.737500,-0.450000,-0.737500,-0.450000,-0.737500,0.450000,0.737500,0.450000,0.737500,0.866500,3.862500,0.866500,3.862500,-0.866500,3.862500,-0.866500,$1*%
G04 Aperture macros list end*
%ADD10RoundRect,0.250000X-0.475000X0.250000X-0.475000X-0.250000X0.475000X-0.250000X0.475000X0.250000X0*%
%ADD11RoundRect,0.250000X-0.450000X0.262500X-0.450000X-0.262500X0.450000X-0.262500X0.450000X0.262500X0*%
%ADD12RoundRect,0.250000X0.475000X-0.250000X0.475000X0.250000X-0.475000X0.250000X-0.475000X-0.250000X0*%
%ADD13RoundRect,0.250000X0.250000X0.475000X-0.250000X0.475000X-0.250000X-0.475000X0.250000X-0.475000X0*%
%ADD14R,1.700000X1.700000*%
%ADD15C,1.700000*%
%ADD16RoundRect,0.250000X-0.550000X1.250000X-0.550000X-1.250000X0.550000X-1.250000X0.550000X1.250000X0*%
%ADD17RoundRect,0.218750X0.218750X0.381250X-0.218750X0.381250X-0.218750X-0.381250X0.218750X-0.381250X0*%
%ADD18RoundRect,0.250000X-0.250000X-0.475000X0.250000X-0.475000X0.250000X0.475000X-0.250000X0.475000X0*%
%ADD19R,1.676400X0.508000*%
%ADD20RoundRect,0.218750X-0.218750X-0.381250X0.218750X-0.381250X0.218750X0.381250X-0.218750X0.381250X0*%
%ADD21RoundRect,0.218750X-0.381250X0.218750X-0.381250X-0.218750X0.381250X-0.218750X0.381250X0.218750X0*%
%ADD22RoundRect,0.250000X0.262500X0.450000X-0.262500X0.450000X-0.262500X-0.450000X0.262500X-0.450000X0*%
%ADD23R,2.616200X0.508000*%
%ADD24RoundRect,0.250000X-0.262500X-0.450000X0.262500X-0.450000X0.262500X0.450000X-0.262500X0.450000X0*%
%ADD25RoundRect,0.150000X0.587500X0.150000X-0.587500X0.150000X-0.587500X-0.150000X0.587500X-0.150000X0*%
%ADD26RoundRect,0.250000X0.450000X-0.262500X0.450000X0.262500X-0.450000X0.262500X-0.450000X-0.262500X0*%
%ADD27C,1.000000*%
%ADD28RoundRect,0.225000X-0.425000X-0.225000X0.425000X-0.225000X0.425000X0.225000X-0.425000X0.225000X0*%
%ADD29FreePoly0,0.000000*%
%ADD30RoundRect,0.218750X0.381250X-0.218750X0.381250X0.218750X-0.381250X0.218750X-0.381250X-0.218750X0*%
%ADD31RoundRect,0.243750X0.243750X0.456250X-0.243750X0.456250X-0.243750X-0.456250X0.243750X-0.456250X0*%
%ADD32R,1.400000X0.900000*%
%ADD33RoundRect,0.100500X-0.986500X-0.301500X0.986500X-0.301500X0.986500X0.301500X-0.986500X0.301500X0*%
%ADD34R,1.800000X2.000000*%
%ADD35RoundRect,0.102000X0.754000X-0.754000X0.754000X0.754000X-0.754000X0.754000X-0.754000X-0.754000X0*%
%ADD36C,1.712000*%
%ADD37O,2.500000X1.600000*%
%ADD38O,7.000000X3.500000*%
%ADD39RoundRect,0.250001X1.149999X-1.149999X1.149999X1.149999X-1.149999X1.149999X-1.149999X-1.149999X0*%
%ADD40C,2.800000*%
%ADD41RoundRect,0.150000X-0.512500X-0.150000X0.512500X-0.150000X0.512500X0.150000X-0.512500X0.150000X0*%
%ADD42RoundRect,0.225000X0.225000X0.375000X-0.225000X0.375000X-0.225000X-0.375000X0.225000X-0.375000X0*%
%ADD43R,0.508000X2.616200*%
%ADD44RoundRect,0.062500X-0.062500X0.375000X-0.062500X-0.375000X0.062500X-0.375000X0.062500X0.375000X0*%
%ADD45RoundRect,0.062500X-0.375000X0.062500X-0.375000X-0.062500X0.375000X-0.062500X0.375000X0.062500X0*%
%ADD46R,7.150000X7.150000*%
%ADD47RoundRect,0.150000X-0.587500X-0.150000X0.587500X-0.150000X0.587500X0.150000X-0.587500X0.150000X0*%
%ADD48RoundRect,0.150000X0.150000X-0.587500X0.150000X0.587500X-0.150000X0.587500X-0.150000X-0.587500X0*%
%ADD49R,1.257300X0.508000*%
%ADD50R,0.711200X0.254000*%
%ADD51R,0.254000X0.711200*%
%ADD52R,4.495800X4.495800*%
%ADD53RoundRect,0.225000X0.375000X-0.225000X0.375000X0.225000X-0.375000X0.225000X-0.375000X-0.225000X0*%
%ADD54RoundRect,0.250000X0.550000X-1.250000X0.550000X1.250000X-0.550000X1.250000X-0.550000X-1.250000X0*%
%ADD55RoundRect,0.225000X-0.225000X0.425000X-0.225000X-0.425000X0.225000X-0.425000X0.225000X0.425000X0*%
%ADD56FreePoly0,270.000000*%
%ADD57R,0.274600X0.703200*%
%ADD58R,1.600000X1.600000*%
%ADD59RoundRect,0.225000X0.225000X-0.425000X0.225000X0.425000X-0.225000X0.425000X-0.225000X-0.425000X0*%
%ADD60FreePoly0,90.000000*%
%ADD61RoundRect,0.250000X1.250000X0.550000X-1.250000X0.550000X-1.250000X-0.550000X1.250000X-0.550000X0*%
%ADD62RoundRect,0.102000X0.795000X0.795000X-0.795000X0.795000X-0.795000X-0.795000X0.795000X-0.795000X0*%
%ADD63C,1.794000*%
G04 APERTURE END LIST*
D10*
%TO.C,C112*%
X153900000Y-152500000D03*
X153900000Y-154400000D03*
%TD*%
D11*
%TO.C,R44*%
X190500000Y-60397500D03*
X190500000Y-62222500D03*
%TD*%
D12*
%TO.C,C84*%
X233300000Y-81150000D03*
X233300000Y-79250000D03*
%TD*%
D11*
%TO.C,R18*%
X149700000Y-113687500D03*
X149700000Y-115512500D03*
%TD*%
D10*
%TO.C,C151*%
X253650000Y-72000000D03*
X253650000Y-73900000D03*
%TD*%
D13*
%TO.C,C146*%
X178050000Y-113600000D03*
X176150000Y-113600000D03*
%TD*%
D14*
%TO.C,J10*%
X214855000Y-54505000D03*
D15*
X217395000Y-54505000D03*
%TD*%
D16*
%TO.C,C126*%
X149900000Y-194700000D03*
X149900000Y-199100000D03*
%TD*%
D17*
%TO.C,L24*%
X185535349Y-100187500D03*
X183410349Y-100187500D03*
%TD*%
D12*
%TO.C,C89*%
X239600000Y-81150000D03*
X239600000Y-79250000D03*
%TD*%
D18*
%TO.C,C1*%
X147350000Y-85600000D03*
X149250000Y-85600000D03*
%TD*%
D19*
%TO.C,U1*%
X203097000Y-123611200D03*
X203097000Y-124881200D03*
X203097000Y-126151200D03*
X203097000Y-127421200D03*
X207923000Y-127421200D03*
X207923000Y-126151200D03*
X207923000Y-124881200D03*
X207923000Y-123611200D03*
%TD*%
D20*
%TO.C,L34*%
X242137500Y-69700000D03*
X244262500Y-69700000D03*
%TD*%
D10*
%TO.C,C71*%
X209600000Y-56450000D03*
X209600000Y-58350000D03*
%TD*%
D21*
%TO.C,L4*%
X193190000Y-125063700D03*
X193190000Y-127188700D03*
%TD*%
D11*
%TO.C,R30*%
X176330000Y-66037500D03*
X176330000Y-67862500D03*
%TD*%
D12*
%TO.C,C149*%
X177800000Y-111800000D03*
X177800000Y-109900000D03*
%TD*%
D22*
%TO.C,R49*%
X207712500Y-58400000D03*
X205887500Y-58400000D03*
%TD*%
D23*
%TO.C,K2*%
X146191300Y-63940000D03*
X146191300Y-69020000D03*
X146191300Y-71560000D03*
X146191300Y-74100000D03*
X153887500Y-74100000D03*
X153887500Y-71560000D03*
X153887500Y-69020000D03*
X153887500Y-63940000D03*
%TD*%
D24*
%TO.C,R56*%
X220162500Y-59400000D03*
X221987500Y-59400000D03*
%TD*%
D10*
%TO.C,C142*%
X177200000Y-117550000D03*
X177200000Y-119450000D03*
%TD*%
D25*
%TO.C,Q5*%
X192187500Y-164950000D03*
X192187500Y-163050000D03*
X190312500Y-164000000D03*
%TD*%
D12*
%TO.C,C96*%
X253480000Y-90650000D03*
X253480000Y-88750000D03*
%TD*%
%TO.C,C94*%
X246000000Y-78250000D03*
X246000000Y-76350000D03*
%TD*%
D20*
%TO.C,L54*%
X144037500Y-194500000D03*
X146162500Y-194500000D03*
%TD*%
D10*
%TO.C,C107*%
X165100000Y-156100000D03*
X165100000Y-158000000D03*
%TD*%
D26*
%TO.C,R52*%
X201750000Y-88762500D03*
X201750000Y-86937500D03*
%TD*%
D11*
%TO.C,R42*%
X190760000Y-90437500D03*
X190760000Y-92262500D03*
%TD*%
D12*
%TO.C,C37*%
X164937500Y-65700000D03*
X164937500Y-63800000D03*
%TD*%
D27*
%TO.C,TP22*%
X195904400Y-85202700D03*
%TD*%
D24*
%TO.C,R94*%
X135575000Y-157900000D03*
X137400000Y-157900000D03*
%TD*%
D28*
%TO.C,U15*%
X146500000Y-142800000D03*
D29*
X146587500Y-144300000D03*
D28*
X146500000Y-145800000D03*
%TD*%
D30*
%TO.C,L7*%
X168670000Y-92077500D03*
X168670000Y-89952500D03*
%TD*%
D24*
%TO.C,R95*%
X135575000Y-150900000D03*
X137400000Y-150900000D03*
%TD*%
D13*
%TO.C,C25*%
X162692700Y-90295600D03*
X160792700Y-90295600D03*
%TD*%
D20*
%TO.C,L36*%
X245737500Y-69700000D03*
X247862500Y-69700000D03*
%TD*%
D31*
%TO.C,D13*%
X133637500Y-157860000D03*
X131762500Y-157860000D03*
%TD*%
D10*
%TO.C,C36*%
X173140000Y-83012500D03*
X173140000Y-84912500D03*
%TD*%
D14*
%TO.C,J8*%
X227425000Y-54485000D03*
D15*
X229965000Y-54485000D03*
%TD*%
D10*
%TO.C,C138*%
X175150000Y-123350000D03*
X175150000Y-125250000D03*
%TD*%
D27*
%TO.C,TP11*%
X149700000Y-112100000D03*
%TD*%
D24*
%TO.C,R5*%
X141525000Y-63350000D03*
X143350000Y-63350000D03*
%TD*%
D26*
%TO.C,R84*%
X167300000Y-154400000D03*
X167300000Y-152575000D03*
%TD*%
D14*
%TO.C,J7*%
X248710000Y-54455000D03*
D15*
X251250000Y-54455000D03*
X253790000Y-54455000D03*
%TD*%
D32*
%TO.C,C5*%
X144600000Y-61550000D03*
X144600000Y-57650000D03*
%TD*%
D10*
%TO.C,C108*%
X157200000Y-152500000D03*
X157200000Y-154400000D03*
%TD*%
D13*
%TO.C,C121*%
X148850000Y-138500000D03*
X146950000Y-138500000D03*
%TD*%
D24*
%TO.C,R1*%
X147400000Y-87700000D03*
X149225000Y-87700000D03*
%TD*%
D27*
%TO.C,TP24*%
X186512500Y-120000000D03*
%TD*%
D26*
%TO.C,R61*%
X264240000Y-106242500D03*
X264240000Y-104417500D03*
%TD*%
D12*
%TO.C,C7*%
X141240000Y-100847500D03*
X141240000Y-98947500D03*
%TD*%
D27*
%TO.C,TP25*%
X186512500Y-121500000D03*
%TD*%
D10*
%TO.C,C51*%
X177522849Y-95987500D03*
X177522849Y-97887500D03*
%TD*%
D13*
%TO.C,C106*%
X145400000Y-181700000D03*
X143500000Y-181700000D03*
%TD*%
D33*
%TO.C,U3*%
X161525000Y-84595000D03*
X161525000Y-85865000D03*
X161525000Y-87135000D03*
X161525000Y-88405000D03*
X166465000Y-88405000D03*
X166465000Y-87135000D03*
X166465000Y-85865000D03*
X166465000Y-84595000D03*
%TD*%
D16*
%TO.C,C103*%
X161100000Y-155000000D03*
X161100000Y-159400000D03*
%TD*%
D31*
%TO.C,D18*%
X133450000Y-140550000D03*
X131575000Y-140550000D03*
%TD*%
D11*
%TO.C,R28*%
X174350000Y-66037500D03*
X174350000Y-67862500D03*
%TD*%
D34*
%TO.C,Y1*%
X254610000Y-124100000D03*
X257150000Y-124100000D03*
X259690000Y-124100000D03*
X259690000Y-119900000D03*
X257150000Y-119900000D03*
X254610000Y-119900000D03*
%TD*%
D10*
%TO.C,C30*%
X171040000Y-83012500D03*
X171040000Y-84912500D03*
%TD*%
D26*
%TO.C,R75*%
X189600000Y-150112500D03*
X189600000Y-148287500D03*
%TD*%
D10*
%TO.C,C145*%
X175150000Y-117550000D03*
X175150000Y-119450000D03*
%TD*%
D24*
%TO.C,R82*%
X149387500Y-177400000D03*
X151212500Y-177400000D03*
%TD*%
D30*
%TO.C,L37*%
X234460000Y-92835000D03*
X234460000Y-90710000D03*
%TD*%
D27*
%TO.C,TP20*%
X195750000Y-58560000D03*
%TD*%
D13*
%TO.C,C46*%
X185330000Y-69750000D03*
X183430000Y-69750000D03*
%TD*%
D24*
%TO.C,R3*%
X150887500Y-85600000D03*
X152712500Y-85600000D03*
%TD*%
D26*
%TO.C,R105*%
X157200000Y-166712500D03*
X157200000Y-164887500D03*
%TD*%
D20*
%TO.C,L23*%
X173727500Y-101575600D03*
X175852500Y-101575600D03*
%TD*%
D12*
%TO.C,C85*%
X256800000Y-81350000D03*
X256800000Y-79450000D03*
%TD*%
D30*
%TO.C,L16*%
X176737500Y-59112500D03*
X176737500Y-56987500D03*
%TD*%
D13*
%TO.C,C14*%
X161720000Y-92397500D03*
X159820000Y-92397500D03*
%TD*%
D10*
%TO.C,C38*%
X170987500Y-57150000D03*
X170987500Y-59050000D03*
%TD*%
D11*
%TO.C,R29*%
X174340000Y-92213100D03*
X174340000Y-94038100D03*
%TD*%
D10*
%TO.C,C52*%
X181622849Y-95887500D03*
X181622849Y-97787500D03*
%TD*%
D20*
%TO.C,L26*%
X192137500Y-71710000D03*
X194262500Y-71710000D03*
%TD*%
D22*
%TO.C,R51*%
X207905000Y-84270000D03*
X206080000Y-84270000D03*
%TD*%
D26*
%TO.C,R7*%
X201500000Y-62172500D03*
X201500000Y-60347500D03*
%TD*%
D18*
%TO.C,C101*%
X254600000Y-116800000D03*
X256500000Y-116800000D03*
%TD*%
D24*
%TO.C,R2*%
X147387500Y-61500000D03*
X149212500Y-61500000D03*
%TD*%
D26*
%TO.C,R88*%
X144500000Y-144400000D03*
X144500000Y-142575000D03*
%TD*%
D18*
%TO.C,C59*%
X196040000Y-92300000D03*
X197940000Y-92300000D03*
%TD*%
D10*
%TO.C,C139*%
X177200000Y-123350000D03*
X177200000Y-125250000D03*
%TD*%
D22*
%TO.C,R17*%
X206572500Y-121806200D03*
X204747500Y-121806200D03*
%TD*%
D13*
%TO.C,C31*%
X163087500Y-64045000D03*
X161187500Y-64045000D03*
%TD*%
D10*
%TO.C,C16*%
X201020000Y-125156200D03*
X201020000Y-127056200D03*
%TD*%
D31*
%TO.C,D12*%
X133637500Y-161400000D03*
X131762500Y-161400000D03*
%TD*%
D18*
%TO.C,C113*%
X146250000Y-148300000D03*
X148150000Y-148300000D03*
%TD*%
D12*
%TO.C,C144*%
X181300000Y-116650000D03*
X181300000Y-114750000D03*
%TD*%
D14*
%TO.C,J9*%
X221125000Y-54505000D03*
D15*
X223665000Y-54505000D03*
%TD*%
D24*
%TO.C,R27*%
X173457500Y-86820000D03*
X175282500Y-86820000D03*
%TD*%
D12*
%TO.C,C26*%
X168940000Y-84950000D03*
X168940000Y-83050000D03*
%TD*%
D19*
%TO.C,U8*%
X197713000Y-90505000D03*
X197713000Y-89235000D03*
X197713000Y-87965000D03*
X197713000Y-86695000D03*
X192887000Y-86695000D03*
X192887000Y-87965000D03*
X192887000Y-89235000D03*
X192887000Y-90505000D03*
%TD*%
D31*
%TO.C,D15*%
X133637500Y-154400000D03*
X131762500Y-154400000D03*
%TD*%
D35*
%TO.C,U11*%
X142960000Y-199140000D03*
D36*
X145500000Y-199140000D03*
D35*
X142960000Y-135640000D03*
D36*
X145500000Y-135640000D03*
D35*
X171916000Y-145800000D03*
D36*
X171916000Y-143260000D03*
X174456000Y-145800000D03*
X174456000Y-143260000D03*
X176996000Y-145800000D03*
X176996000Y-143260000D03*
X179536000Y-145800000D03*
X179536000Y-143260000D03*
X182076000Y-145800000D03*
X182076000Y-143260000D03*
X184616000Y-145800000D03*
X184616000Y-143260000D03*
X187156000Y-145800000D03*
X187156000Y-143260000D03*
X189696000Y-145800000D03*
X189696000Y-143260000D03*
X192236000Y-145800000D03*
X192236000Y-143260000D03*
X194776000Y-145800000D03*
X194776000Y-143260000D03*
D35*
X181060000Y-191520000D03*
D36*
X181060000Y-188980000D03*
X183600000Y-191520000D03*
X183600000Y-188980000D03*
X186140000Y-191520000D03*
X186140000Y-188980000D03*
X188680000Y-191520000D03*
X188680000Y-188980000D03*
X191220000Y-191520000D03*
X191220000Y-188980000D03*
X193760000Y-191520000D03*
X193760000Y-188980000D03*
X196300000Y-191520000D03*
X196300000Y-188980000D03*
X198840000Y-191520000D03*
X198840000Y-188980000D03*
D35*
X203920000Y-191520000D03*
D36*
X203920000Y-188980000D03*
X206460000Y-191520000D03*
X206460000Y-188980000D03*
X209000000Y-191520000D03*
X209000000Y-188980000D03*
X211540000Y-191520000D03*
X211540000Y-188980000D03*
X214080000Y-191520000D03*
X214080000Y-188980000D03*
X216620000Y-191520000D03*
X216620000Y-188980000D03*
X219160000Y-191520000D03*
X219160000Y-188980000D03*
X221700000Y-191520000D03*
X221700000Y-188980000D03*
X224240000Y-191520000D03*
X224240000Y-188980000D03*
X226780000Y-191520000D03*
X226780000Y-188980000D03*
X229320000Y-191520000D03*
X229320000Y-188980000D03*
X231860000Y-191520000D03*
X231860000Y-188980000D03*
X234400000Y-191520000D03*
X234400000Y-188980000D03*
X236940000Y-191520000D03*
X236940000Y-188980000D03*
X239480000Y-191520000D03*
X239480000Y-188980000D03*
D35*
X198840000Y-145800000D03*
D36*
X198840000Y-143260000D03*
X201380000Y-145800000D03*
X201380000Y-143260000D03*
X203920000Y-145800000D03*
X203920000Y-143260000D03*
X206460000Y-145800000D03*
X206460000Y-143260000D03*
X209000000Y-145800000D03*
X209000000Y-143260000D03*
X211540000Y-145800000D03*
X211540000Y-143260000D03*
X214080000Y-145800000D03*
X214080000Y-143260000D03*
X216620000Y-145800000D03*
X216620000Y-143260000D03*
X219160000Y-145800000D03*
X219160000Y-143260000D03*
X221700000Y-145800000D03*
X221700000Y-143260000D03*
X224240000Y-145800000D03*
X224240000Y-143260000D03*
X226780000Y-145800000D03*
X226780000Y-143260000D03*
X229320000Y-145800000D03*
X229320000Y-143260000D03*
X231860000Y-145800000D03*
X231860000Y-143260000D03*
X234400000Y-145800000D03*
X234400000Y-143260000D03*
X236940000Y-145800000D03*
X236940000Y-143260000D03*
X239480000Y-145800000D03*
X239480000Y-143260000D03*
D35*
X259820000Y-138180000D03*
D36*
X259820000Y-135640000D03*
D35*
X259800000Y-199140000D03*
D36*
X259800000Y-196600000D03*
%TD*%
D25*
%TO.C,Q4*%
X192687500Y-156612500D03*
X192687500Y-154712500D03*
X190812500Y-155662500D03*
%TD*%
D17*
%TO.C,L52*%
X145462500Y-175500000D03*
X143337500Y-175500000D03*
%TD*%
D18*
%TO.C,C54*%
X198280000Y-85060000D03*
X200180000Y-85060000D03*
%TD*%
D24*
%TO.C,R98*%
X135500000Y-144000000D03*
X137325000Y-144000000D03*
%TD*%
%TO.C,R25*%
X170237500Y-60850000D03*
X172062500Y-60850000D03*
%TD*%
D18*
%TO.C,C78*%
X247850000Y-71600000D03*
X249750000Y-71600000D03*
%TD*%
D37*
%TO.C,J2*%
X134080000Y-90000000D03*
D38*
X129000000Y-95080000D03*
D37*
X134080000Y-92540000D03*
D38*
X129000000Y-84920000D03*
%TD*%
D13*
%TO.C,C91*%
X252050000Y-77700000D03*
X250150000Y-77700000D03*
%TD*%
D32*
%TO.C,C11*%
X142140000Y-97397500D03*
X142140000Y-93497500D03*
%TD*%
D27*
%TO.C,TP19*%
X194250000Y-58560000D03*
%TD*%
D11*
%TO.C,R31*%
X176340000Y-92225000D03*
X176340000Y-94050000D03*
%TD*%
D25*
%TO.C,Q2*%
X230687500Y-196200000D03*
X230687500Y-194300000D03*
X228812500Y-195250000D03*
%TD*%
D26*
%TO.C,R62*%
X270900000Y-68525000D03*
X270900000Y-66700000D03*
%TD*%
%TO.C,R87*%
X155100000Y-145100000D03*
X155100000Y-143275000D03*
%TD*%
D16*
%TO.C,C104*%
X148800000Y-155000000D03*
X148800000Y-159400000D03*
%TD*%
D27*
%TO.C,TP23*%
X186512500Y-118500000D03*
%TD*%
D39*
%TO.C,J12*%
X130467500Y-198250000D03*
D40*
X130467500Y-193250000D03*
X130467500Y-188250000D03*
%TD*%
D11*
%TO.C,R33*%
X179640000Y-100963100D03*
X179640000Y-102788100D03*
%TD*%
D31*
%TO.C,D14*%
X133637500Y-150900000D03*
X131762500Y-150900000D03*
%TD*%
D24*
%TO.C,R101*%
X135412500Y-140600000D03*
X137237500Y-140600000D03*
%TD*%
D18*
%TO.C,C4*%
X150862500Y-87600000D03*
X152762500Y-87600000D03*
%TD*%
D13*
%TO.C,C48*%
X185322849Y-96087500D03*
X183422849Y-96087500D03*
%TD*%
D10*
%TO.C,C40*%
X173037500Y-57150000D03*
X173037500Y-59050000D03*
%TD*%
D30*
%TO.C,L48*%
X140300000Y-157962500D03*
X140300000Y-155837500D03*
%TD*%
D12*
%TO.C,C18*%
X198940000Y-127076200D03*
X198940000Y-125176200D03*
%TD*%
D24*
%TO.C,R55*%
X223675000Y-57300000D03*
X225500000Y-57300000D03*
%TD*%
D12*
%TO.C,C29*%
X164540000Y-91997500D03*
X164540000Y-90097500D03*
%TD*%
D25*
%TO.C,Q3*%
X187500000Y-150150000D03*
X187500000Y-148250000D03*
X185625000Y-149200000D03*
%TD*%
D11*
%TO.C,R11*%
X141237500Y-75657500D03*
X141237500Y-77482500D03*
%TD*%
D13*
%TO.C,C42*%
X185330000Y-71800000D03*
X183430000Y-71800000D03*
%TD*%
D32*
%TO.C,C3*%
X144700000Y-87950000D03*
X144700000Y-84050000D03*
%TD*%
D21*
%TO.C,L35*%
X256800000Y-70137500D03*
X256800000Y-72262500D03*
%TD*%
D18*
%TO.C,C66*%
X192550000Y-94350000D03*
X194450000Y-94350000D03*
%TD*%
D22*
%TO.C,R21*%
X159550000Y-59900000D03*
X157725000Y-59900000D03*
%TD*%
D11*
%TO.C,R59*%
X220050000Y-82137500D03*
X220050000Y-83962500D03*
%TD*%
D24*
%TO.C,R36*%
X181767500Y-67750000D03*
X183592500Y-67750000D03*
%TD*%
D18*
%TO.C,C125*%
X149150000Y-172600000D03*
X151050000Y-172600000D03*
%TD*%
D12*
%TO.C,C35*%
X166642700Y-91995600D03*
X166642700Y-90095600D03*
%TD*%
D10*
%TO.C,C115*%
X171000000Y-158050000D03*
X171000000Y-159950000D03*
%TD*%
D12*
%TO.C,C135*%
X157200000Y-163050000D03*
X157200000Y-161150000D03*
%TD*%
D31*
%TO.C,D10*%
X133637500Y-168480000D03*
X131762500Y-168480000D03*
%TD*%
D16*
%TO.C,C122*%
X162100000Y-173600000D03*
X162100000Y-178000000D03*
%TD*%
D17*
%TO.C,L19*%
X175852500Y-103325600D03*
X173727500Y-103325600D03*
%TD*%
D18*
%TO.C,C64*%
X192300000Y-67760000D03*
X194200000Y-67760000D03*
%TD*%
D10*
%TO.C,C148*%
X173100000Y-117550000D03*
X173100000Y-119450000D03*
%TD*%
D22*
%TO.C,R22*%
X165002500Y-82650000D03*
X163177500Y-82650000D03*
%TD*%
%TO.C,R103*%
X151525000Y-190600000D03*
X149700000Y-190600000D03*
%TD*%
D41*
%TO.C,U16*%
X152800000Y-164900000D03*
X152800000Y-165850000D03*
X152800000Y-166800000D03*
X155075000Y-166800000D03*
X155075000Y-164900000D03*
%TD*%
D21*
%TO.C,L51*%
X162300000Y-168837500D03*
X162300000Y-170962500D03*
%TD*%
D17*
%TO.C,L39*%
X238202500Y-92370000D03*
X236077500Y-92370000D03*
%TD*%
D10*
%TO.C,C98*%
X255540000Y-88750000D03*
X255540000Y-90650000D03*
%TD*%
D13*
%TO.C,C56*%
X194200000Y-65710000D03*
X192300000Y-65710000D03*
%TD*%
D14*
%TO.C,J4*%
X239910000Y-54505000D03*
D15*
X242450000Y-54505000D03*
X244990000Y-54505000D03*
%TD*%
D18*
%TO.C,C68*%
X192300000Y-69810000D03*
X194200000Y-69810000D03*
%TD*%
D13*
%TO.C,C117*%
X148850000Y-140600000D03*
X146950000Y-140600000D03*
%TD*%
D31*
%TO.C,D11*%
X133637500Y-164840000D03*
X131762500Y-164840000D03*
%TD*%
%TO.C,D16*%
X133637500Y-147500000D03*
X131762500Y-147500000D03*
%TD*%
D17*
%TO.C,L10*%
X158462500Y-119400000D03*
X156337500Y-119400000D03*
%TD*%
D42*
%TO.C,D5*%
X231850000Y-198300000D03*
X228550000Y-198300000D03*
%TD*%
D13*
%TO.C,C80*%
X246250000Y-71600000D03*
X244350000Y-71600000D03*
%TD*%
%TO.C,C13*%
X161687500Y-66100000D03*
X159787500Y-66100000D03*
%TD*%
D21*
%TO.C,L32*%
X190760000Y-96340000D03*
X190760000Y-98465000D03*
%TD*%
D27*
%TO.C,TP16*%
X179640000Y-99425600D03*
%TD*%
D20*
%TO.C,L41*%
X140337500Y-191200000D03*
X142462500Y-191200000D03*
%TD*%
D30*
%TO.C,L12*%
X168987500Y-65812500D03*
X168987500Y-63687500D03*
%TD*%
D18*
%TO.C,C44*%
X173780000Y-71250000D03*
X175680000Y-71250000D03*
%TD*%
D10*
%TO.C,C129*%
X153900000Y-193900000D03*
X153900000Y-195800000D03*
%TD*%
D17*
%TO.C,L27*%
X198112500Y-98300000D03*
X195987500Y-98300000D03*
%TD*%
D24*
%TO.C,R26*%
X173675000Y-60850000D03*
X175500000Y-60850000D03*
%TD*%
D30*
%TO.C,L13*%
X176942700Y-84958100D03*
X176942700Y-82833100D03*
%TD*%
D43*
%TO.C,K6*%
X169624800Y-68751900D03*
X164544800Y-68751900D03*
X162004800Y-68751900D03*
X159464800Y-68751900D03*
X159464800Y-76448100D03*
X162004800Y-76448100D03*
X164544800Y-76448100D03*
X169624800Y-76448100D03*
%TD*%
D20*
%TO.C,L9*%
X143087500Y-118800000D03*
X145212500Y-118800000D03*
%TD*%
%TO.C,L53*%
X140337500Y-194500000D03*
X142462500Y-194500000D03*
%TD*%
D10*
%TO.C,C109*%
X146300000Y-150350000D03*
X146300000Y-152250000D03*
%TD*%
D18*
%TO.C,C53*%
X198000000Y-58510000D03*
X199900000Y-58510000D03*
%TD*%
D10*
%TO.C,C28*%
X156100000Y-114000000D03*
X156100000Y-115900000D03*
%TD*%
D24*
%TO.C,R92*%
X135600000Y-164800000D03*
X137425000Y-164800000D03*
%TD*%
D12*
%TO.C,C81*%
X237500000Y-81150000D03*
X237500000Y-79250000D03*
%TD*%
D20*
%TO.C,L46*%
X147237500Y-165000000D03*
X149362500Y-165000000D03*
%TD*%
D12*
%TO.C,C136*%
X175200000Y-168950000D03*
X175200000Y-167050000D03*
%TD*%
D20*
%TO.C,L6*%
X156337500Y-117600000D03*
X158462500Y-117600000D03*
%TD*%
D23*
%TO.C,K1*%
X146193800Y-90097500D03*
X146193800Y-95177500D03*
X146193800Y-97717500D03*
X146193800Y-100257500D03*
X153890000Y-100257500D03*
X153890000Y-97717500D03*
X153890000Y-95177500D03*
X153890000Y-90097500D03*
%TD*%
D24*
%TO.C,R60*%
X227487500Y-106200000D03*
X229312500Y-106200000D03*
%TD*%
D26*
%TO.C,R73*%
X217200000Y-140412500D03*
X217200000Y-138587500D03*
%TD*%
D10*
%TO.C,C152*%
X251600000Y-72000000D03*
X251600000Y-73900000D03*
%TD*%
D11*
%TO.C,R32*%
X179580000Y-74787500D03*
X179580000Y-76612500D03*
%TD*%
D21*
%TO.C,L29*%
X199500000Y-69747500D03*
X199500000Y-71872500D03*
%TD*%
%TO.C,L14*%
X174937500Y-56987500D03*
X174937500Y-59112500D03*
%TD*%
D13*
%TO.C,C87*%
X252050000Y-75700000D03*
X250150000Y-75700000D03*
%TD*%
D11*
%TO.C,R45*%
X199500000Y-60347500D03*
X199500000Y-62172500D03*
%TD*%
%TO.C,R47*%
X199780000Y-86947500D03*
X199780000Y-88772500D03*
%TD*%
D24*
%TO.C,R38*%
X181745000Y-93965600D03*
X183570000Y-93965600D03*
%TD*%
D11*
%TO.C,R77*%
X222000000Y-194000000D03*
X222000000Y-195825000D03*
%TD*%
D27*
%TO.C,TP15*%
X179580000Y-73250000D03*
%TD*%
D18*
%TO.C,C6*%
X150850000Y-59500000D03*
X152750000Y-59500000D03*
%TD*%
D10*
%TO.C,C49*%
X177480000Y-69750000D03*
X177480000Y-71650000D03*
%TD*%
D11*
%TO.C,R41*%
X199500000Y-63797500D03*
X199500000Y-65622500D03*
%TD*%
D10*
%TO.C,C97*%
X238410000Y-88780000D03*
X238410000Y-90680000D03*
%TD*%
D12*
%TO.C,C90*%
X248100000Y-78250000D03*
X248100000Y-76350000D03*
%TD*%
D20*
%TO.C,L50*%
X143300000Y-177300000D03*
X145425000Y-177300000D03*
%TD*%
D17*
%TO.C,L17*%
X175842500Y-77050000D03*
X173717500Y-77050000D03*
%TD*%
D24*
%TO.C,R96*%
X135575000Y-154400000D03*
X137400000Y-154400000D03*
%TD*%
D18*
%TO.C,C55*%
X195800000Y-65710000D03*
X197700000Y-65710000D03*
%TD*%
D42*
%TO.C,D8*%
X193350000Y-167000000D03*
X190050000Y-167000000D03*
%TD*%
D28*
%TO.C,U13*%
X169350000Y-153000000D03*
D29*
X169437500Y-154500000D03*
D28*
X169350000Y-156000000D03*
%TD*%
D20*
%TO.C,L28*%
X192387500Y-98300000D03*
X194512500Y-98300000D03*
%TD*%
D30*
%TO.C,L47*%
X143400000Y-157962500D03*
X143400000Y-155837500D03*
%TD*%
D26*
%TO.C,R80*%
X194800000Y-164900000D03*
X194800000Y-163075000D03*
%TD*%
D12*
%TO.C,C150*%
X179900000Y-111150000D03*
X179900000Y-109250000D03*
%TD*%
D20*
%TO.C,L18*%
X183267500Y-75500000D03*
X185392500Y-75500000D03*
%TD*%
D27*
%TO.C,TP13*%
X168480000Y-86820000D03*
%TD*%
D12*
%TO.C,C39*%
X166987500Y-65700000D03*
X166987500Y-63800000D03*
%TD*%
D24*
%TO.C,R4*%
X150887500Y-61500000D03*
X152712500Y-61500000D03*
%TD*%
D18*
%TO.C,C41*%
X173780000Y-73300000D03*
X175680000Y-73300000D03*
%TD*%
D12*
%TO.C,C140*%
X185450000Y-115900000D03*
X185450000Y-114000000D03*
%TD*%
D26*
%TO.C,R78*%
X194700000Y-156612500D03*
X194700000Y-154787500D03*
%TD*%
D27*
%TO.C,TP8*%
X159000000Y-64300000D03*
%TD*%
D24*
%TO.C,R106*%
X170987500Y-174700000D03*
X172812500Y-174700000D03*
%TD*%
D10*
%TO.C,C154*%
X240500000Y-72000000D03*
X240500000Y-73900000D03*
%TD*%
D12*
%TO.C,C33*%
X168937500Y-59050000D03*
X168937500Y-57150000D03*
%TD*%
D33*
%TO.C,U4*%
X161672500Y-58295000D03*
X161672500Y-59565000D03*
X161672500Y-60835000D03*
X161672500Y-62105000D03*
X166612500Y-62105000D03*
X166612500Y-60835000D03*
X166612500Y-59565000D03*
X166612500Y-58295000D03*
%TD*%
D10*
%TO.C,C127*%
X168300000Y-174350000D03*
X168300000Y-176250000D03*
%TD*%
%TO.C,C21*%
X157900000Y-56250000D03*
X157900000Y-58150000D03*
%TD*%
D12*
%TO.C,C93*%
X254700000Y-81350000D03*
X254700000Y-79450000D03*
%TD*%
D24*
%TO.C,R6*%
X140690200Y-89995600D03*
X142515200Y-89995600D03*
%TD*%
D22*
%TO.C,R83*%
X151212500Y-175400000D03*
X149387500Y-175400000D03*
%TD*%
D42*
%TO.C,D6*%
X188650000Y-152200000D03*
X185350000Y-152200000D03*
%TD*%
D32*
%TO.C,C12*%
X142297500Y-70610000D03*
X142297500Y-66710000D03*
%TD*%
D31*
%TO.C,D17*%
X133550000Y-144000000D03*
X131675000Y-144000000D03*
%TD*%
D12*
%TO.C,C133*%
X173100000Y-169000000D03*
X173100000Y-167100000D03*
%TD*%
D22*
%TO.C,R20*%
X159370000Y-85740000D03*
X157545000Y-85740000D03*
%TD*%
D44*
%TO.C,U9*%
X250750000Y-80692500D03*
X250250000Y-80692500D03*
X249750000Y-80692500D03*
X249250000Y-80692500D03*
X248750000Y-80692500D03*
X248250000Y-80692500D03*
X247750000Y-80692500D03*
X247250000Y-80692500D03*
X246750000Y-80692500D03*
X246250000Y-80692500D03*
X245750000Y-80692500D03*
X245250000Y-80692500D03*
X244750000Y-80692500D03*
X244250000Y-80692500D03*
X243750000Y-80692500D03*
X243250000Y-80692500D03*
D45*
X242562500Y-81380000D03*
X242562500Y-81880000D03*
X242562500Y-82380000D03*
X242562500Y-82880000D03*
X242562500Y-83380000D03*
X242562500Y-83880000D03*
X242562500Y-84380000D03*
X242562500Y-84880000D03*
X242562500Y-85380000D03*
X242562500Y-85880000D03*
X242562500Y-86380000D03*
X242562500Y-86880000D03*
X242562500Y-87380000D03*
X242562500Y-87880000D03*
X242562500Y-88380000D03*
X242562500Y-88880000D03*
D44*
X243250000Y-89567500D03*
X243750000Y-89567500D03*
X244250000Y-89567500D03*
X244750000Y-89567500D03*
X245250000Y-89567500D03*
X245750000Y-89567500D03*
X246250000Y-89567500D03*
X246750000Y-89567500D03*
X247250000Y-89567500D03*
X247750000Y-89567500D03*
X248250000Y-89567500D03*
X248750000Y-89567500D03*
X249250000Y-89567500D03*
X249750000Y-89567500D03*
X250250000Y-89567500D03*
X250750000Y-89567500D03*
D45*
X251437500Y-88880000D03*
X251437500Y-88380000D03*
X251437500Y-87880000D03*
X251437500Y-87380000D03*
X251437500Y-86880000D03*
X251437500Y-86380000D03*
X251437500Y-85880000D03*
X251437500Y-85380000D03*
X251437500Y-84880000D03*
X251437500Y-84380000D03*
X251437500Y-83880000D03*
X251437500Y-83380000D03*
X251437500Y-82880000D03*
X251437500Y-82380000D03*
X251437500Y-81880000D03*
X251437500Y-81380000D03*
D46*
X247000000Y-85130000D03*
%TD*%
D13*
%TO.C,C45*%
X185322849Y-98187500D03*
X183422849Y-98187500D03*
%TD*%
D10*
%TO.C,C131*%
X159100000Y-188350000D03*
X159100000Y-190250000D03*
%TD*%
D20*
%TO.C,L45*%
X144037500Y-191200000D03*
X146162500Y-191200000D03*
%TD*%
D31*
%TO.C,D9*%
X133637500Y-171980000D03*
X131762500Y-171980000D03*
%TD*%
D27*
%TO.C,TP10*%
X209867000Y-125131200D03*
%TD*%
D10*
%TO.C,C153*%
X242550000Y-72000000D03*
X242550000Y-73900000D03*
%TD*%
D30*
%TO.C,L2*%
X194940000Y-127188700D03*
X194940000Y-125063700D03*
%TD*%
D26*
%TO.C,R107*%
X175200000Y-172812500D03*
X175200000Y-170987500D03*
%TD*%
D12*
%TO.C,C24*%
X154050000Y-115900000D03*
X154050000Y-114000000D03*
%TD*%
D17*
%TO.C,L5*%
X145212500Y-120600000D03*
X143087500Y-120600000D03*
%TD*%
D26*
%TO.C,R86*%
X155100000Y-148725000D03*
X155100000Y-146900000D03*
%TD*%
D47*
%TO.C,D1*%
X156550000Y-61700000D03*
X156550000Y-63600000D03*
X158425000Y-62650000D03*
%TD*%
D22*
%TO.C,R102*%
X151612500Y-187400000D03*
X149787500Y-187400000D03*
%TD*%
D12*
%TO.C,C120*%
X159000000Y-145250000D03*
X159000000Y-143350000D03*
%TD*%
%TO.C,C57*%
X199440000Y-123496200D03*
X199440000Y-121596200D03*
%TD*%
D39*
%TO.C,J11*%
X130467500Y-181250000D03*
D40*
X130467500Y-176250000D03*
%TD*%
D22*
%TO.C,R34*%
X197539500Y-121700000D03*
X195714500Y-121700000D03*
%TD*%
D27*
%TO.C,TP9*%
X209827000Y-123641200D03*
%TD*%
D47*
%TO.C,D2*%
X156532500Y-87730000D03*
X156532500Y-89630000D03*
X158407500Y-88680000D03*
%TD*%
D12*
%TO.C,C27*%
X145450000Y-124200000D03*
X145450000Y-122300000D03*
%TD*%
D24*
%TO.C,R97*%
X135575000Y-147500000D03*
X137400000Y-147500000D03*
%TD*%
D20*
%TO.C,L42*%
X143537500Y-165000000D03*
X145662500Y-165000000D03*
%TD*%
D10*
%TO.C,C141*%
X183400000Y-114000000D03*
X183400000Y-115900000D03*
%TD*%
%TO.C,C10*%
X143247500Y-75600000D03*
X143247500Y-77500000D03*
%TD*%
D12*
%TO.C,C116*%
X161100000Y-145200000D03*
X161100000Y-143300000D03*
%TD*%
D30*
%TO.C,L44*%
X140300000Y-161662500D03*
X140300000Y-159537500D03*
%TD*%
D21*
%TO.C,L8*%
X175140000Y-82837500D03*
X175140000Y-84962500D03*
%TD*%
D24*
%TO.C,R91*%
X135575000Y-168500000D03*
X137400000Y-168500000D03*
%TD*%
D13*
%TO.C,C65*%
X197950000Y-94350000D03*
X196050000Y-94350000D03*
%TD*%
%TO.C,C92*%
X244000000Y-77700000D03*
X242100000Y-77700000D03*
%TD*%
D42*
%TO.C,D7*%
X193800000Y-158700000D03*
X190500000Y-158700000D03*
%TD*%
D10*
%TO.C,C8*%
X143290000Y-102397500D03*
X143290000Y-104297500D03*
%TD*%
D21*
%TO.C,L59*%
X181800000Y-109087500D03*
X181800000Y-111212500D03*
%TD*%
D48*
%TO.C,Q1*%
X242550000Y-195687500D03*
X244450000Y-195687500D03*
X243500000Y-193812500D03*
%TD*%
D10*
%TO.C,C72*%
X209750000Y-82350000D03*
X209750000Y-84250000D03*
%TD*%
%TO.C,C111*%
X167200000Y-156100000D03*
X167200000Y-158000000D03*
%TD*%
%TO.C,C124*%
X166100000Y-174350000D03*
X166100000Y-176250000D03*
%TD*%
D26*
%TO.C,R69*%
X239400000Y-195525000D03*
X239400000Y-193700000D03*
%TD*%
D13*
%TO.C,C110*%
X145450000Y-179500000D03*
X143550000Y-179500000D03*
%TD*%
D27*
%TO.C,TP21*%
X194504400Y-85202700D03*
%TD*%
%TO.C,TP14*%
X168637500Y-60850000D03*
%TD*%
D26*
%TO.C,R74*%
X213900000Y-140412500D03*
X213900000Y-138587500D03*
%TD*%
D10*
%TO.C,C34*%
X158150000Y-114000000D03*
X158150000Y-115900000D03*
%TD*%
D12*
%TO.C,C83*%
X261100000Y-81350000D03*
X261100000Y-79450000D03*
%TD*%
D10*
%TO.C,C100*%
X257590000Y-88750000D03*
X257590000Y-90650000D03*
%TD*%
D13*
%TO.C,C88*%
X244050000Y-75700000D03*
X242150000Y-75700000D03*
%TD*%
D30*
%TO.C,L62*%
X183600000Y-111212500D03*
X183600000Y-109087500D03*
%TD*%
D27*
%TO.C,TP1*%
X143487500Y-65150000D03*
%TD*%
D49*
%TO.C,U2*%
X148164900Y-117170000D03*
X148164900Y-118440000D03*
X148164900Y-119710000D03*
X148164900Y-120980000D03*
X153410000Y-120980000D03*
X153410000Y-119710000D03*
X153410000Y-118440000D03*
X153410000Y-117170000D03*
%TD*%
D18*
%TO.C,C128*%
X149100000Y-170500000D03*
X151000000Y-170500000D03*
%TD*%
D24*
%TO.C,R23*%
X163325000Y-56450000D03*
X165150000Y-56450000D03*
%TD*%
D50*
%TO.C,U19*%
X178816900Y-118886933D03*
X178816900Y-119387059D03*
X178816900Y-119887185D03*
X178816900Y-120387311D03*
X178816900Y-120887437D03*
X178816900Y-121387563D03*
X178816900Y-121887689D03*
X178816900Y-122387815D03*
X178816900Y-122887941D03*
X178816900Y-123388067D03*
D51*
X179461933Y-124033100D03*
X179962059Y-124033100D03*
X180462185Y-124033100D03*
X180962311Y-124033100D03*
X181462437Y-124033100D03*
X181962563Y-124033100D03*
X182462689Y-124033100D03*
X182962815Y-124033100D03*
X183462941Y-124033100D03*
X183963067Y-124033100D03*
D50*
X184608100Y-123388067D03*
X184608100Y-122887941D03*
X184608100Y-122387815D03*
X184608100Y-121887689D03*
X184608100Y-121387563D03*
X184608100Y-120887437D03*
X184608100Y-120387311D03*
X184608100Y-119887185D03*
X184608100Y-119387059D03*
X184608100Y-118886933D03*
D51*
X183963067Y-118241900D03*
X183462941Y-118241900D03*
X182962815Y-118241900D03*
X182462689Y-118241900D03*
X181962563Y-118241900D03*
X181462437Y-118241900D03*
X180962311Y-118241900D03*
X180462185Y-118241900D03*
X179962059Y-118241900D03*
X179461933Y-118241900D03*
D52*
X181712500Y-121137500D03*
%TD*%
D11*
%TO.C,R19*%
X151735100Y-113695000D03*
X151735100Y-115520000D03*
%TD*%
D20*
%TO.C,L40*%
X255687500Y-92330000D03*
X257812500Y-92330000D03*
%TD*%
D12*
%TO.C,C132*%
X155100000Y-163050000D03*
X155100000Y-161150000D03*
%TD*%
D13*
%TO.C,C82*%
X246250000Y-73700000D03*
X244350000Y-73700000D03*
%TD*%
D14*
%TO.C,J6*%
X233675000Y-54505000D03*
D15*
X236215000Y-54505000D03*
%TD*%
D17*
%TO.C,L22*%
X185392500Y-73700000D03*
X183267500Y-73700000D03*
%TD*%
D20*
%TO.C,L21*%
X173717500Y-75250000D03*
X175842500Y-75250000D03*
%TD*%
D17*
%TO.C,L55*%
X173162500Y-127050000D03*
X171037500Y-127050000D03*
%TD*%
D24*
%TO.C,R64*%
X262637500Y-118900000D03*
X264462500Y-118900000D03*
%TD*%
D13*
%TO.C,C60*%
X194450000Y-92300000D03*
X192550000Y-92300000D03*
%TD*%
D18*
%TO.C,C47*%
X173790000Y-97675600D03*
X175690000Y-97675600D03*
%TD*%
D21*
%TO.C,L30*%
X190500000Y-69747500D03*
X190500000Y-71872500D03*
%TD*%
D12*
%TO.C,C20*%
X196840000Y-127076200D03*
X196840000Y-125176200D03*
%TD*%
D30*
%TO.C,L43*%
X143400000Y-161662500D03*
X143400000Y-159537500D03*
%TD*%
D21*
%TO.C,L15*%
X170787500Y-63687500D03*
X170787500Y-65812500D03*
%TD*%
D22*
%TO.C,R50*%
X207912500Y-82300000D03*
X206087500Y-82300000D03*
%TD*%
D30*
%TO.C,L61*%
X174150000Y-111862500D03*
X174150000Y-109737500D03*
%TD*%
%TO.C,L38*%
X259480000Y-92792500D03*
X259480000Y-90667500D03*
%TD*%
D53*
%TO.C,D4*%
X246500000Y-195950000D03*
X246500000Y-192650000D03*
%TD*%
D30*
%TO.C,L57*%
X171190000Y-119622500D03*
X171190000Y-117497500D03*
%TD*%
D17*
%TO.C,L25*%
X197862500Y-71710000D03*
X195737500Y-71710000D03*
%TD*%
D11*
%TO.C,R9*%
X141290000Y-102435000D03*
X141290000Y-104260000D03*
%TD*%
D27*
%TO.C,TP18*%
X181640000Y-92225600D03*
%TD*%
D22*
%TO.C,R15*%
X203102500Y-121786200D03*
X201277500Y-121786200D03*
%TD*%
D10*
%TO.C,C23*%
X147550000Y-122300000D03*
X147550000Y-124200000D03*
%TD*%
D54*
%TO.C,C123*%
X145300000Y-172800000D03*
X145300000Y-168400000D03*
%TD*%
D22*
%TO.C,R48*%
X207712500Y-56400000D03*
X205887500Y-56400000D03*
%TD*%
D55*
%TO.C,U12*%
X151000000Y-179450000D03*
D56*
X149500000Y-179537500D03*
D55*
X148000000Y-179450000D03*
%TD*%
D27*
%TO.C,TP7*%
X159210000Y-90357500D03*
%TD*%
D18*
%TO.C,C2*%
X147350000Y-59500000D03*
X149250000Y-59500000D03*
%TD*%
D12*
%TO.C,C77*%
X235400000Y-81150000D03*
X235400000Y-79250000D03*
%TD*%
D24*
%TO.C,R90*%
X135575000Y-172000000D03*
X137400000Y-172000000D03*
%TD*%
D13*
%TO.C,C69*%
X197950000Y-96400000D03*
X196050000Y-96400000D03*
%TD*%
%TO.C,C63*%
X197700000Y-67760000D03*
X195800000Y-67760000D03*
%TD*%
D30*
%TO.C,L56*%
X171200000Y-125412500D03*
X171200000Y-123287500D03*
%TD*%
D26*
%TO.C,R100*%
X168300000Y-172612500D03*
X168300000Y-170787500D03*
%TD*%
D27*
%TO.C,TP26*%
X188200000Y-121700000D03*
%TD*%
D13*
%TO.C,C67*%
X197700000Y-69810000D03*
X195800000Y-69810000D03*
%TD*%
D10*
%TO.C,C137*%
X173100000Y-123350000D03*
X173100000Y-125250000D03*
%TD*%
D54*
%TO.C,C105*%
X142300000Y-152100000D03*
X142300000Y-147700000D03*
%TD*%
D10*
%TO.C,C99*%
X236350000Y-88780000D03*
X236350000Y-90680000D03*
%TD*%
D27*
%TO.C,TP12*%
X151700000Y-112100000D03*
%TD*%
D28*
%TO.C,U14*%
X157200000Y-147200000D03*
D29*
X157287500Y-148700000D03*
D28*
X157200000Y-150200000D03*
%TD*%
D57*
%TO.C,U5*%
X179880001Y-65473399D03*
X179380000Y-65473399D03*
X178880000Y-65473399D03*
X178379999Y-65473399D03*
X178379999Y-68426601D03*
X178880000Y-68426601D03*
X179380000Y-68426601D03*
X179880001Y-68426601D03*
D58*
X179130000Y-66950000D03*
%TD*%
D12*
%TO.C,C61*%
X179580000Y-71700000D03*
X179580000Y-69800000D03*
%TD*%
%TO.C,C58*%
X179612849Y-97887500D03*
X179612849Y-95987500D03*
%TD*%
D11*
%TO.C,R63*%
X251400000Y-122287500D03*
X251400000Y-124112500D03*
%TD*%
D22*
%TO.C,R99*%
X150912500Y-168400000D03*
X149087500Y-168400000D03*
%TD*%
D24*
%TO.C,R57*%
X223662500Y-59400000D03*
X225487500Y-59400000D03*
%TD*%
D13*
%TO.C,C143*%
X179100000Y-115700000D03*
X177200000Y-115700000D03*
%TD*%
D21*
%TO.C,L58*%
X175900000Y-109737500D03*
X175900000Y-111862500D03*
%TD*%
D41*
%TO.C,U17*%
X170862500Y-170950000D03*
X170862500Y-171900000D03*
X170862500Y-172850000D03*
X173137500Y-172850000D03*
X173137500Y-170950000D03*
%TD*%
D21*
%TO.C,L31*%
X199750000Y-96340000D03*
X199750000Y-98465000D03*
%TD*%
D18*
%TO.C,C147*%
X179650000Y-112950000D03*
X181550000Y-112950000D03*
%TD*%
D27*
%TO.C,TP2*%
X143462700Y-91935600D03*
%TD*%
D12*
%TO.C,C9*%
X141247500Y-74050000D03*
X141247500Y-72150000D03*
%TD*%
D37*
%TO.C,J1*%
X134150000Y-63310000D03*
D38*
X129070000Y-68390000D03*
D37*
X134150000Y-65850000D03*
D38*
X129070000Y-58230000D03*
%TD*%
D20*
%TO.C,L20*%
X183410349Y-102087500D03*
X185535349Y-102087500D03*
%TD*%
D30*
%TO.C,L33*%
X258700000Y-72262500D03*
X258700000Y-70137500D03*
%TD*%
D19*
%TO.C,U20*%
X197426000Y-63910000D03*
X197426000Y-62640000D03*
X197426000Y-61370000D03*
X197426000Y-60100000D03*
X192600000Y-60100000D03*
X192600000Y-61370000D03*
X192600000Y-62640000D03*
X192600000Y-63910000D03*
%TD*%
D24*
%TO.C,R93*%
X135575000Y-161400000D03*
X137400000Y-161400000D03*
%TD*%
D10*
%TO.C,C130*%
X156100000Y-193900000D03*
X156100000Y-195800000D03*
%TD*%
D21*
%TO.C,L60*%
X169350000Y-117487500D03*
X169350000Y-119612500D03*
%TD*%
D10*
%TO.C,C22*%
X157700000Y-82050000D03*
X157700000Y-83950000D03*
%TD*%
D11*
%TO.C,R46*%
X190760000Y-86977500D03*
X190760000Y-88802500D03*
%TD*%
D43*
%TO.C,K4*%
X195100000Y-119096200D03*
X200180000Y-119096200D03*
X202720000Y-119096200D03*
X205260000Y-119096200D03*
X205260000Y-111400000D03*
X202720000Y-111400000D03*
X200180000Y-111400000D03*
X195100000Y-111400000D03*
%TD*%
D24*
%TO.C,R24*%
X169957500Y-86820000D03*
X171782500Y-86820000D03*
%TD*%
D59*
%TO.C,U18*%
X153937500Y-191750000D03*
D60*
X155437500Y-191662500D03*
D59*
X156937500Y-191750000D03*
%TD*%
D21*
%TO.C,L11*%
X170570000Y-89952500D03*
X170570000Y-92077500D03*
%TD*%
D26*
%TO.C,R8*%
X143340000Y-100810000D03*
X143340000Y-98985000D03*
%TD*%
D57*
%TO.C,U6*%
X179872850Y-91660899D03*
X179372849Y-91660899D03*
X178872849Y-91660899D03*
X178372848Y-91660899D03*
X178372848Y-94614101D03*
X178872849Y-94614101D03*
X179372849Y-94614101D03*
X179872850Y-94614101D03*
D58*
X179122849Y-93137500D03*
%TD*%
D11*
%TO.C,R89*%
X142400000Y-142587500D03*
X142400000Y-144412500D03*
%TD*%
D12*
%TO.C,C95*%
X240480000Y-90680000D03*
X240480000Y-88780000D03*
%TD*%
D18*
%TO.C,C70*%
X192550000Y-96400000D03*
X194450000Y-96400000D03*
%TD*%
D27*
%TO.C,TP17*%
X181680000Y-66000000D03*
%TD*%
D12*
%TO.C,C79*%
X258900000Y-81350000D03*
X258900000Y-79450000D03*
%TD*%
D18*
%TO.C,C86*%
X247900000Y-73700000D03*
X249800000Y-73700000D03*
%TD*%
D11*
%TO.C,R67*%
X198800000Y-193587500D03*
X198800000Y-195412500D03*
%TD*%
D12*
%TO.C,C118*%
X153100000Y-181200000D03*
X153100000Y-179300000D03*
%TD*%
D22*
%TO.C,R104*%
X159012500Y-168600000D03*
X157187500Y-168600000D03*
%TD*%
D18*
%TO.C,C43*%
X173790000Y-99675600D03*
X175690000Y-99675600D03*
%TD*%
D10*
%TO.C,C134*%
X161300000Y-188350000D03*
X161300000Y-190250000D03*
%TD*%
D26*
%TO.C,R71*%
X233100000Y-196062500D03*
X233100000Y-194237500D03*
%TD*%
D10*
%TO.C,C50*%
X181630000Y-69550000D03*
X181630000Y-71450000D03*
%TD*%
D21*
%TO.C,L49*%
X162300000Y-165237500D03*
X162300000Y-167362500D03*
%TD*%
D11*
%TO.C,R85*%
X165300000Y-152587500D03*
X165300000Y-154412500D03*
%TD*%
%TO.C,R43*%
X199790000Y-90397500D03*
X199790000Y-92222500D03*
%TD*%
D43*
%TO.C,K5*%
X169780000Y-94987500D03*
X164700000Y-94987500D03*
X162160000Y-94987500D03*
X159620000Y-94987500D03*
X159620000Y-102683700D03*
X162160000Y-102683700D03*
X164700000Y-102683700D03*
X169780000Y-102683700D03*
%TD*%
D11*
%TO.C,R40*%
X190500000Y-63835000D03*
X190500000Y-65660000D03*
%TD*%
D12*
%TO.C,C32*%
X143400000Y-124200000D03*
X143400000Y-122300000D03*
%TD*%
D14*
%TO.C,J5*%
X269350000Y-123325000D03*
D15*
X269350000Y-125865000D03*
X269350000Y-128405000D03*
%TD*%
D10*
%TO.C,C119*%
X174800000Y-158050000D03*
X174800000Y-159950000D03*
%TD*%
D61*
%TO.C,C102*%
X146200000Y-185800000D03*
X141800000Y-185800000D03*
%TD*%
D24*
%TO.C,R54*%
X220175000Y-57300000D03*
X222000000Y-57300000D03*
%TD*%
D26*
%TO.C,R10*%
X143247500Y-74012500D03*
X143247500Y-72187500D03*
%TD*%
D22*
%TO.C,R58*%
X266612500Y-128350000D03*
X264787500Y-128350000D03*
%TD*%
D12*
%TO.C,C114*%
X155200000Y-181200000D03*
X155200000Y-179300000D03*
%TD*%
D11*
%TO.C,R68*%
X191200000Y-193587500D03*
X191200000Y-195412500D03*
%TD*%
D62*
%TO.C,U10*%
X225550000Y-70670000D03*
D63*
X223010000Y-70670000D03*
X225550000Y-73210000D03*
X223010000Y-73210000D03*
X225550000Y-75750000D03*
X223010000Y-75750000D03*
X225550000Y-78290000D03*
X223010000Y-78290000D03*
X225550000Y-80830000D03*
X223010000Y-80830000D03*
X225550000Y-83370000D03*
X223010000Y-83370000D03*
X225550000Y-85910000D03*
X223010000Y-85910000D03*
X225550000Y-88450000D03*
X223010000Y-88450000D03*
X225550000Y-90990000D03*
X223010000Y-90990000D03*
X225550000Y-93530000D03*
X223010000Y-93530000D03*
X225550000Y-96070000D03*
X223010000Y-96070000D03*
X225550000Y-98610000D03*
X223010000Y-98610000D03*
X225550000Y-101150000D03*
X223010000Y-101150000D03*
X225550000Y-103690000D03*
X223010000Y-103690000D03*
X225550000Y-106230000D03*
X223010000Y-106230000D03*
X225550000Y-108770000D03*
X223010000Y-108770000D03*
X225550000Y-111310000D03*
X223010000Y-111310000D03*
X225550000Y-113850000D03*
X223010000Y-113850000D03*
X225550000Y-116390000D03*
X223010000Y-116390000D03*
X225550000Y-118930000D03*
X223010000Y-118930000D03*
D62*
X266320000Y-118930000D03*
D63*
X268860000Y-118930000D03*
X266320000Y-116390000D03*
X268860000Y-116390000D03*
X266320000Y-113850000D03*
X268860000Y-113850000D03*
X266320000Y-111310000D03*
X268860000Y-111310000D03*
X266320000Y-108770000D03*
X268860000Y-108770000D03*
X266320000Y-106230000D03*
X268860000Y-106230000D03*
X266320000Y-103690000D03*
X268860000Y-103690000D03*
X266320000Y-101150000D03*
X268860000Y-101150000D03*
X266320000Y-98610000D03*
X268860000Y-98610000D03*
X266320000Y-96070000D03*
X268860000Y-96070000D03*
X266320000Y-93530000D03*
X268860000Y-93530000D03*
X266320000Y-90990000D03*
X268860000Y-90990000D03*
X266320000Y-88450000D03*
X268860000Y-88450000D03*
X266320000Y-85910000D03*
X268860000Y-85910000D03*
X266320000Y-83370000D03*
X268860000Y-83370000D03*
X266320000Y-80830000D03*
X268860000Y-80830000D03*
X266320000Y-78290000D03*
X268860000Y-78290000D03*
X266320000Y-75750000D03*
X268860000Y-75750000D03*
X266320000Y-73210000D03*
X268860000Y-73210000D03*
X266320000Y-70670000D03*
X268860000Y-70670000D03*
%TD*%
G36*
X212943039Y-53019685D02*
G01*
X212988794Y-53072489D01*
X213000000Y-53124000D01*
X213000000Y-55676000D01*
X212980315Y-55743039D01*
X212927511Y-55788794D01*
X212876000Y-55800000D01*
X211124000Y-55800000D01*
X211056961Y-55780315D01*
X211011206Y-55727511D01*
X211000000Y-55676000D01*
X211000000Y-55000000D01*
X139000000Y-55000000D01*
X139000000Y-62276000D01*
X138980315Y-62343039D01*
X138927511Y-62388794D01*
X138876000Y-62400000D01*
X137124000Y-62400000D01*
X137056961Y-62380315D01*
X137011206Y-62327511D01*
X137000000Y-62276000D01*
X137000000Y-53124000D01*
X137019685Y-53056961D01*
X137072489Y-53011206D01*
X137124000Y-53000000D01*
X212876000Y-53000000D01*
X212943039Y-53019685D01*
G37*
G36*
X212943039Y-58969685D02*
G01*
X212988794Y-59022489D01*
X213000000Y-59074000D01*
X213000000Y-81576000D01*
X212980315Y-81643039D01*
X212927511Y-81688794D01*
X212876000Y-81700000D01*
X211124000Y-81700000D01*
X211056961Y-81680315D01*
X211011206Y-81627511D01*
X211000000Y-81576000D01*
X211000000Y-81000000D01*
X139000000Y-81000000D01*
X139000000Y-88976000D01*
X138980315Y-89043039D01*
X138927511Y-89088794D01*
X138876000Y-89100000D01*
X137124000Y-89100000D01*
X137056961Y-89080315D01*
X137011206Y-89027511D01*
X137000000Y-88976000D01*
X137000000Y-64324000D01*
X137019685Y-64256961D01*
X137072489Y-64211206D01*
X137124000Y-64200000D01*
X138876000Y-64200000D01*
X138943039Y-64219685D01*
X138988794Y-64272489D01*
X139000000Y-64324000D01*
X139000000Y-79000000D01*
X211000000Y-79000000D01*
X211000000Y-59074000D01*
X211019685Y-59006961D01*
X211072489Y-58961206D01*
X211124000Y-58950000D01*
X212876000Y-58950000D01*
X212943039Y-58969685D01*
G37*
G36*
X212943039Y-84969685D02*
G01*
X212988794Y-85022489D01*
X213000000Y-85074000D01*
X213000000Y-130376000D01*
X212980315Y-130443039D01*
X212927511Y-130488794D01*
X212876000Y-130500000D01*
X183674000Y-130500000D01*
X183606961Y-130480315D01*
X183561206Y-130427511D01*
X183550000Y-130376000D01*
X183550000Y-128624000D01*
X183569685Y-128556961D01*
X183622489Y-128511206D01*
X183674000Y-128500000D01*
X189500000Y-128500000D01*
X189500000Y-122624000D01*
X189519685Y-122556961D01*
X189572489Y-122511206D01*
X189624000Y-122500000D01*
X191376000Y-122500000D01*
X191443039Y-122519685D01*
X191488794Y-122572489D01*
X191500000Y-122624000D01*
X191500000Y-128500000D01*
X211000000Y-128500000D01*
X211000000Y-108000000D01*
X191500000Y-108000000D01*
X191500000Y-120776000D01*
X191480315Y-120843039D01*
X191427511Y-120888794D01*
X191376000Y-120900000D01*
X189624000Y-120900000D01*
X189556961Y-120880315D01*
X189511206Y-120827511D01*
X189500000Y-120776000D01*
X189500000Y-108000000D01*
X139000000Y-108000000D01*
X139000000Y-128500000D01*
X178576027Y-128500000D01*
X178643066Y-128519685D01*
X178688821Y-128572489D01*
X178700027Y-128623973D01*
X178700408Y-130376407D01*
X178680738Y-130443451D01*
X178627944Y-130489217D01*
X178576407Y-130500434D01*
X137123999Y-130500001D01*
X137056959Y-130480316D01*
X137011205Y-130427511D01*
X137000000Y-130376001D01*
X137000000Y-91024000D01*
X137019685Y-90956961D01*
X137072489Y-90911206D01*
X137124000Y-90900000D01*
X138876000Y-90900000D01*
X138943039Y-90919685D01*
X138988794Y-90972489D01*
X139000000Y-91024000D01*
X139000000Y-106000000D01*
X211000000Y-106000000D01*
X211000000Y-85074000D01*
X211019685Y-85006961D01*
X211072489Y-84961206D01*
X211124000Y-84950000D01*
X212876000Y-84950000D01*
X212943039Y-84969685D01*
G37*
M02*
