%TF.GenerationSoftware,KiCad,Pcbnew,9.0.5-9.0.5~ubuntu24.04.1*%
%TF.CreationDate,2025-11-23T21:00:33+01:00*%
%TF.ProjectId,DigitalOsciloscope,44696769-7461-46c4-9f73-63696c6f7363,rev?*%
%TF.SameCoordinates,Original*%
%TF.FileFunction,Legend,Bot*%
%TF.FilePolarity,Positive*%
%FSLAX46Y46*%
G04 Gerber Fmt 4.6, Leading zero omitted, Abs format (unit mm)*
G04 Created by KiCad (PCBNEW 9.0.5-9.0.5~ubuntu24.04.1) date 2025-11-23 21:00:33*
%MOMM*%
%LPD*%
G01*
G04 APERTURE LIST*
%ADD10C,0.150000*%
%ADD11C,0.127000*%
G04 APERTURE END LIST*
D10*
X266636190Y-51457438D02*
X266636190Y-53076485D01*
X266636190Y-53076485D02*
X266540952Y-53266961D01*
X266540952Y-53266961D02*
X266445714Y-53362200D01*
X266445714Y-53362200D02*
X266255238Y-53457438D01*
X266255238Y-53457438D02*
X265874285Y-53457438D01*
X265874285Y-53457438D02*
X265683809Y-53362200D01*
X265683809Y-53362200D02*
X265588571Y-53266961D01*
X265588571Y-53266961D02*
X265493333Y-53076485D01*
X265493333Y-53076485D02*
X265493333Y-51457438D01*
X263493333Y-53457438D02*
X264636190Y-53457438D01*
X264064762Y-53457438D02*
X264064762Y-51457438D01*
X264064762Y-51457438D02*
X264255238Y-51743152D01*
X264255238Y-51743152D02*
X264445714Y-51933628D01*
X264445714Y-51933628D02*
X264636190Y-52028866D01*
X262255238Y-51457438D02*
X262064761Y-51457438D01*
X262064761Y-51457438D02*
X261874285Y-51552676D01*
X261874285Y-51552676D02*
X261779047Y-51647914D01*
X261779047Y-51647914D02*
X261683809Y-51838390D01*
X261683809Y-51838390D02*
X261588571Y-52219342D01*
X261588571Y-52219342D02*
X261588571Y-52695533D01*
X261588571Y-52695533D02*
X261683809Y-53076485D01*
X261683809Y-53076485D02*
X261779047Y-53266961D01*
X261779047Y-53266961D02*
X261874285Y-53362200D01*
X261874285Y-53362200D02*
X262064761Y-53457438D01*
X262064761Y-53457438D02*
X262255238Y-53457438D01*
X262255238Y-53457438D02*
X262445714Y-53362200D01*
X262445714Y-53362200D02*
X262540952Y-53266961D01*
X262540952Y-53266961D02*
X262636190Y-53076485D01*
X262636190Y-53076485D02*
X262731428Y-52695533D01*
X262731428Y-52695533D02*
X262731428Y-52219342D01*
X262731428Y-52219342D02*
X262636190Y-51838390D01*
X262636190Y-51838390D02*
X262540952Y-51647914D01*
X262540952Y-51647914D02*
X262445714Y-51552676D01*
X262445714Y-51552676D02*
X262255238Y-51457438D01*
D11*
%TO.C,U10*%
X270510000Y-60980000D02*
X270510000Y-123430000D01*
X263690000Y-129590000D02*
X227640000Y-129590000D01*
X263690000Y-54410000D02*
X227640000Y-54410000D01*
X221490000Y-60980000D02*
X221490000Y-123430000D01*
%TD*%
M02*
